<?xml version="1.0" standalone="no"?>
<!DOCTYPE svg PUBLIC "-//W3C//DTD SVG 1.1//EN" "http://www.w3.org/Graphics/SVG/1.1/DTD/svg11.dtd" >
<svg xmlns="http://www.w3.org/2000/svg" xmlns:xlink="http://www.w3.org/1999/xlink" version="1.1">
<metadata></metadata>
<defs>
<font id="pru_sans_ot2medium_italic" horiz-adv-x="1101" >
<font-face units-per-em="2048" ascent="1462" descent="-586" />
<missing-glyph horiz-adv-x="481" />
<glyph unicode="ff" horiz-adv-x="1202" d="M764 823h-352l-146 -823h-196l145 823h-168l25 140h168l18 98q28 146 63.5 223.5t98.5 126.5q102 76 268 76q93 0 193 -33l-62 -139q-64 14 -110 14q-114 0 -171.5 -59.5t-82.5 -202.5l-19 -104h352l19 98q28 145 64 222.5t98 127.5q102 76 268 76q93 0 193 -33l-62 -139 q-62 14 -111 14q-112 0 -169.5 -59.5t-83.5 -202.5l-19 -104h252l-25 -140h-251l-146 -823h-197z" />
<glyph unicode="fi" horiz-adv-x="1105" d="M1014 963l-170 -963h-197l146 823h-379l-146 -823h-198l145 823h-168l25 140h168l18 98q28 146 63.5 223.5t98.5 126.5q98 76 262 76q111 0 192 -31l-61 -141q-69 14 -108 14q-109 0 -166 -60t-82 -202l-19 -104h576zM975 1360q49 0 79.5 -30t30.5 -77q0 -55 -36.5 -92 t-92.5 -37q-47 0 -78.5 30.5t-31.5 74.5q0 56 37 93.5t92 37.5z" />
<glyph unicode="fl" horiz-adv-x="1128" d="M836 963l88 499h198l-258 -1462h-198l145 823h-397l-146 -823h-198l145 823h-168l25 140h168l18 98q28 146 63.5 223.5t98.5 126.5q102 76 266 76q82 0 172 -23l-61 -141q-35 6 -92 6q-109 0 -166 -60t-82 -202l-19 -104h398z" />
<glyph unicode=" "  horiz-adv-x="481" />
<glyph unicode="&#x09;" horiz-adv-x="481" />
<glyph unicode="&#xa0;" horiz-adv-x="481" />
<glyph unicode="!" horiz-adv-x="651" d="M549 1366l-195 -993h-172l152 993h215zM236 238q51 0 83.5 -31.5t32.5 -81.5q0 -58 -39 -97.5t-96 -39.5q-52 0 -85.5 31t-33.5 79q0 60 39.5 100t98.5 40z" />
<glyph unicode="&#x22;" horiz-adv-x="657" d="M627 977h-181l74 420h180zM313 977h-180l74 420h180z" />
<glyph unicode="#" horiz-adv-x="980" d="M979 1061l-39 -121h-174l-68 -205h176l-36 -117h-176l-121 -389h-135l122 389h-161l-121 -389h-135l120 389h-176l41 117h172l68 205h-172l39 121h172l108 348h135l-108 -348h160l108 348h137l-110 -348h174zM631 940h-160l-68 -205h160z" />
<glyph unicode="$" d="M469 176l-57 -184h-172l57 184q-94 8 -123 14q-84 14 -127 31l64 154q118 -33 237 -33l133 422q-138 66 -194 128t-56 150q0 79 38 150t106 121q65 46 132.5 66t174.5 24l53 172h174l-55 -174q88 -9 168 -33q6 0 12 -2l-59 -154l-12 2l-17 5q-76 20 -143 20l-111 -356 q119 -61 150 -88q104 -79 104 -209q0 -109 -60.5 -199t-172.5 -145q-53 -27 -105.5 -41t-138.5 -25zM543 958l84 273q-86 -12 -135.5 -52t-49.5 -98q0 -68 101 -123zM631 686l-103 -326q100 23 153.5 71.5t53.5 115.5q0 41 -21 71t-67 58q-2 1 -16 10z" />
<glyph unicode="%" horiz-adv-x="1427" d="M1337 1331l-1144 -1366l-97 72l1143 1366zM475 1399q120 0 191 -78t71 -209q0 -189 -109 -314.5t-272 -125.5q-120 0 -195 78.5t-75 203.5q0 188 112.5 316.5t276.5 128.5zM457 1266q-86 0 -148.5 -86t-62.5 -205q0 -82 33.5 -126t95.5 -44q85 0 144 85.5t59 207.5 q0 168 -121 168zM1081 700q120 0 192.5 -77.5t72.5 -206.5q0 -189 -109 -316t-272 -127q-120 0 -195.5 79t-75.5 204q0 187 112 315.5t275 128.5zM1063 567q-86 0 -147.5 -85.5t-61.5 -205.5q0 -82 33 -124.5t96 -42.5q85 0 144 84t59 204q0 170 -123 170z" />
<glyph unicode="&#x26;" horiz-adv-x="1382" d="M1241 125l-121 -145q-133 80 -250 178q-130 -98 -238.5 -138t-240.5 -40q-172 0 -279.5 90.5t-107.5 236.5q0 290 383 488q-43 85 -43 190q0 183 110 295.5t289 112.5q120 0 196.5 -62t76.5 -160q0 -158 -170 -299q-72 -60 -215 -137q35 -74 113 -174t147 -160 q82 85 137 222h182q-77 -205 -192 -332q78 -69 223 -166zM565 883q129 63 190.5 125t61.5 129q0 44 -28 70t-74 26q-76 0 -126 -63t-50 -160q0 -62 26 -127zM741 272q-87 88 -165 193t-117 184q-122 -69 -179 -142.5t-57 -162.5q0 -91 58 -142.5t161 -51.5q158 0 299 122z " />
<glyph unicode="'" horiz-adv-x="344" d="M313 977h-180l74 420h180z" />
<glyph unicode="(" horiz-adv-x="684" d="M418 -199l-133 -86q-101 138 -155 311t-54 359q0 269 122 517t375 495l117 -99q-217 -255 -312 -478.5t-95 -477.5q0 -139 31.5 -264.5t103.5 -276.5z" />
<glyph unicode=")" horiz-adv-x="684" d="M221 1313l133 84q101 -138 155 -311t54 -359q0 -269 -122 -517t-375 -495l-117 101q215 253 310 476.5t95 477.5q0 141 -30.5 265t-102.5 278z" />
<glyph unicode="*" d="M758 1130l-213 -55l135 -137l-90 -92l-123 151l-66 -211l-129 23l103 203l-213 -80l-25 119l215 53l-141 135l92 94l121 -153l65 206l127 -18l-96 -199l209 78z" />
<glyph unicode="+" d="M1028 473h-403v-383h-150v383h-403v150h403v383h150v-383h403v-150z" />
<glyph unicode="," horiz-adv-x="567" d="M317 219l-149 -452h-141l79 452h211z" />
<glyph unicode="-" horiz-adv-x="630" d="M530 467h-507l28 160h508z" />
<glyph unicode="." horiz-adv-x="624" d="M223 238q51 0 84 -32.5t33 -82.5q0 -57 -40 -96t-97 -39q-51 0 -84 31.5t-33 78.5q0 60 39 100t98 40z" />
<glyph unicode="/" horiz-adv-x="1103" d="M1090 1470l-955 -1626l-121 54l955 1628z" />
<glyph unicode="0" d="M639 1225q-76 0 -140.5 -45.5t-109.5 -132.5q-64 -115 -100.5 -267t-36.5 -301q0 -332 199 -332q180 0 294 281q86 222 86 461q0 172 -47 254t-145 82zM662 1395q183 0 288 -135.5t105 -370.5q0 -161 -41.5 -323t-116.5 -294q-82 -145 -202 -222t-263 -77 q-189 0 -296 132t-107 364q0 159 42.5 324.5t116.5 293.5q86 148 209.5 228t264.5 80z" />
<glyph unicode="1" d="M623 0h-209l207 1167l-373 -172l-49 135l508 265l151 -64z" />
<glyph unicode="2" d="M850 0h-885l-8 147q414 294 616.5 517.5t202.5 384.5q0 78 -56.5 123t-156.5 45q-157 0 -358 -82l-33 153q240 109 461 109q169 0 270 -83.5t101 -223.5q0 -257 -353 -594q-72 -70 -152 -137.5t-225 -180.5h609z" />
<glyph unicode="3" d="M-33 -14l27 155h2h2h2h2q259 0 457 80q229 95 229 271q0 95 -78.5 140.5t-242.5 45.5q-47 0 -82 -2h-54l27 149q230 9 366 83.5t136 191.5q0 119 -172 119q-143 0 -342 -76l-33 149q237 101 426 101q159 0 248.5 -65.5t89.5 -182.5q0 -124 -89 -223.5t-249 -153.5 q140 -22 207 -87t67 -179t-65 -212.5t-184 -164.5q-123 -68 -280 -105.5t-316 -37.5q-44 0 -101 4z" />
<glyph unicode="4" d="M987 324h-172l-57 -324h-201l57 324h-604l-12 165l829 912l168 -60l-149 -849h172zM645 492l100 575l-509 -575h409z" />
<glyph unicode="5" d="M-59 -20l24 157q344 20 532.5 121.5t188.5 267.5q0 136 -141 197q-97 40 -328 53l-18 135l170 455h682l-31 -172h-524l-95 -258q250 -23 380 -119.5t130 -259.5q0 -155 -101 -278.5t-290 -198.5q-124 -51 -253.5 -73t-325.5 -27z" />
<glyph unicode="6" d="M270 473q-2 -12 -2 -37q0 -146 57 -220.5t167 -74.5q118 0 202 93.5t84 224.5q0 92 -49 145t-135 53q-172 0 -324 -184zM1104 1380l-14 -155q-296 -40 -498 -178t-287 -359q85 78 164.5 113t173.5 35q158 0 254 -98t96 -259q0 -217 -144.5 -363.5t-359.5 -146.5 q-192 0 -310 126.5t-118 330.5q0 213 101.5 404.5t286.5 328.5q176 129 387 184q95 24 268 37z" />
<glyph unicode="7" d="M1063 1212l-897 -1241l-168 84l846 1139h-707l31 172h903z" />
<glyph unicode="8" d="M584 829q140 77 203 143t63 136q0 60 -47.5 93.5t-130.5 33.5q-116 0 -191 -55t-75 -140q0 -60 41.5 -109.5t136.5 -101.5zM532 621q-166 -87 -242.5 -166t-76.5 -166q0 -69 61.5 -109.5t165.5 -40.5q132 0 224 68t92 166q0 65 -48.5 118.5t-175.5 129.5zM737 731 q144 -92 195 -159t51 -164q0 -192 -155.5 -314.5t-399.5 -122.5q-199 0 -313.5 80.5t-114.5 220.5q0 130 91 237t294 216q-108 78 -149 141t-41 152q0 166 137.5 270.5t357.5 104.5q172 0 269.5 -67t97.5 -187q0 -228 -320 -408z" />
<glyph unicode="9" d="M-10 -18l12 159q301 40 499 173t281 352q-80 -73 -159.5 -105.5t-178.5 -32.5q-149 0 -243.5 106t-94.5 273q0 211 141 349.5t355 138.5q201 0 315.5 -121.5t114.5 -335.5q0 -205 -89 -384t-255 -310q-187 -149 -418 -213q-101 -27 -280 -49zM823 889q2 23 2 47 q0 129 -63.5 208t-169.5 79q-117 0 -198 -93.5t-81 -228.5q0 -92 50 -143t139 -51q82 0 165.5 47.5t155.5 134.5z" />
<glyph unicode=":" horiz-adv-x="628" d="M223 238q51 0 84 -32.5t33 -82.5q0 -57 -40 -96t-97 -39q-51 0 -84 31.5t-33 78.5q0 60 39 100t98 40zM356 977q51 0 84 -32.5t33 -82.5q0 -57 -40 -96t-97 -39q-51 0 -84 31.5t-33 79.5q0 60 39 99.5t98 39.5z" />
<glyph unicode=";" horiz-adv-x="614" d="M352 219l-149 -452h-142l80 452h211zM356 977q51 0 84 -32.5t33 -82.5q0 -57 -40 -96t-97 -39q-51 0 -84 31.5t-33 79.5q0 60 39 99.5t98 39.5z" />
<glyph unicode="&#x3c;" d="M979 141l-856 580v14l856 543v-104l-592 -381l592 -385v-267z" />
<glyph unicode="=" d="M1028 598h-956v143h956v-143zM1028 346h-956v143h956v-143z" />
<glyph unicode="&#x3e;" d="M979 684l-856 -543v105l592 383l-592 385v264l856 -580v-14z" />
<glyph unicode="?" horiz-adv-x="985" d="M487 596l-41 -223h-167l34 334q210 70 321 168.5t111 214.5q0 63 -48.5 97t-137.5 34q-139 0 -338 -84l-51 147q233 115 453 115q158 0 248 -74t90 -203q0 -207 -207 -374q-103 -80 -267 -152zM332 238q51 0 84 -32.5t33 -82.5q0 -57 -40.5 -96t-97.5 -39q-51 0 -83.5 31 t-32.5 79q0 60 39 100t98 40z" />
<glyph unicode="@" horiz-adv-x="1638" d="M1284 301l70 -100q-162 -120 -311 -173t-328 -53q-282 0 -453.5 152.5t-171.5 404.5q0 176 73.5 337t198 277.5t297 185.5t361.5 69q252 0 401.5 -126.5t149.5 -340.5q0 -168 -88 -301.5t-245.5 -208t-356.5 -74.5h-41l30 84q-73 -50 -120 -69t-99 -19q-86 0 -140 54.5 t-54 140.5q0 127 61.5 250t160.5 199.5t202 76.5q57 0 107.5 -26t78.5 -70l27 76h161l-200 -562q89 19 147.5 51.5t112.5 94.5q55 62 85 140t30 155q0 155 -115.5 249.5t-304.5 94.5q-148 0 -287.5 -59t-242 -156.5t-164.5 -231t-62 -274.5q0 -207 129.5 -323.5 t361.5 -116.5q134 0 254 42.5t285 149.5zM928 600l86 240q-15 44 -48 68t-77 24q-82 0 -152 -98q-41 -57 -69.5 -136t-28.5 -137q0 -78 70 -78q43 0 91.5 26t127.5 91z" />
<glyph unicode="A" horiz-adv-x="1380" d="M1247 0h-227l-100 451h-549l-260 -451h-220l805 1366h228zM887 610l-121 539l-305 -539h426z" />
<glyph unicode="B" horiz-adv-x="1204" d="M285 168h149q164 0 232 29q77 32 125.5 108t48.5 164q0 86 -68 133q-34 22 -82.5 30.5t-142.5 8.5h-180zM395 799h140q129 0 200 35t113.5 96.5t42.5 128.5q0 77 -60.5 110t-201.5 33h-162zM281 1366h372q217 0 318 -53q67 -34 104 -95t37 -139q0 -84 -40 -161t-107 -123 q-64 -47 -158 -64q136 -32 199 -98t63 -176q0 -143 -82.5 -257.5t-218.5 -160.5q-116 -39 -285 -39h-444z" />
<glyph unicode="C" horiz-adv-x="1333" d="M1149 260l51 -154q-242 -137 -510 -137q-275 0 -441.5 156.5t-166.5 413.5q0 182 70.5 341t192 272t293 178t366.5 65q101 0 185.5 -18t194.5 -64l-81 -156q-146 60 -316 60q-137 0 -262 -51t-215 -137t-143.5 -205.5t-53.5 -250.5q0 -196 114.5 -307.5t317.5 -111.5 q96 0 190.5 24.5t213.5 81.5z" />
<glyph unicode="D" horiz-adv-x="1470" d="M281 1366h370q214 0 338 -31q188 -44 294 -183t106 -341q0 -187 -83.5 -356t-230.5 -277q-132 -99 -281 -138.5t-393 -39.5h-362zM287 176h184q235 0 391 90q145 83 223 221t78 310q0 206 -119 302.5t-374 96.5h-203z" />
<glyph unicode="E" horiz-adv-x="1085" d="M879 0h-840l244 1366h798l-30 -170h-584l-70 -399h553l-28 -166h-553l-80 -453h622z" />
<glyph unicode="F" horiz-adv-x="1009" d="M1034 1196h-567l-72 -403h535l-29 -166h-534l-111 -627h-217l242 1366h784z" />
<glyph unicode="G" horiz-adv-x="1415" d="M1294 653l-102 -585q-130 -54 -242 -77.5t-235 -23.5q-289 0 -461 155t-172 415q0 180 71 338.5t193.5 271.5t294.5 178.5t367 65.5q219 0 389 -78l-82 -156q-160 60 -311 60q-193 0 -352 -85.5t-250 -234.5t-91 -330q0 -198 116 -313t316 -115q122 0 256 45l82 469h213z " />
<glyph unicode="H" horiz-adv-x="1433" d="M1153 0h-217l113 635h-680l-113 -635h-217l242 1366h217l-101 -567h680l101 567h217z" />
<glyph unicode="I" horiz-adv-x="538" d="M258 0h-219l242 1366h219z" />
<glyph unicode="J" horiz-adv-x="675" d="M643 1366l-149 -850q-19 -143 -52.5 -234t-100 -155t-162 -98.5t-247.5 -57.5l-8 164q179 41 245 99t95 200l164 932h215z" />
<glyph unicode="K" horiz-adv-x="1304" d="M1159 0h-285l-495 692l-123 -692h-217l242 1366h217l-105 -596l682 596h285l-746 -639z" />
<glyph unicode="L" horiz-adv-x="997" d="M846 0h-807l242 1366h217l-209 -1188h590z" />
<glyph unicode="M" horiz-adv-x="1773" d="M1581 0h-215l43 1018l-553 -1018h-180l-201 1034l-319 -1034h-207l440 1366h227l207 -1059l570 1059h231z" />
<glyph unicode="N" horiz-adv-x="1417" d="M1137 0h-201l-516 1020l-180 -1020h-201l242 1366h202l518 -1030l183 1030h194z" />
<glyph unicode="O" horiz-adv-x="1513" d="M887 1395q243 0 393 -153t150 -400q0 -155 -54 -309.5t-149 -274.5q-113 -139 -266.5 -213t-329.5 -74q-246 0 -397.5 152.5t-151.5 398.5q0 178 63.5 339.5t171 278.5t257 186t313.5 69zM864 1210q-145 0 -273 -90t-204 -240.5t-76 -320.5q0 -189 90.5 -293t253.5 -104 q120 0 224 57t182 166q67 93 104 207t37 225q0 186 -89 289.5t-249 103.5z" />
<glyph unicode="P" horiz-adv-x="1114" d="M389 750h129q110 0 171 16.5t112 60.5q94 82 94 197q0 95 -57 134.5t-195 39.5h-176zM281 1366h354q184 0 266 -20q104 -29 162.5 -105t58.5 -182q0 -101 -43 -194t-118 -156q-76 -63 -176 -92t-240 -29h-185l-104 -588h-217z" />
<glyph unicode="Q" horiz-adv-x="1513" d="M1227 -53l-8 -164q-93 -16 -193 -16q-192 0 -364.5 55t-303.5 158q-274 215 -274 565q0 174 63.5 332.5t171 272.5t257 181.5t313.5 67.5q244 0 393.5 -152t149.5 -401q0 -225 -97 -420t-261.5 -309.5t-354.5 -114.5h-12q-34 0 -62 4q104 -40 185.5 -56t187.5 -16 q62 0 209 13zM862 1214q-147 0 -273.5 -91t-201 -246.5t-74.5 -335.5q0 -199 86 -302.5t250 -103.5q137 0 250 71t191 206q52 89 82 198t30 211q0 186 -89.5 289.5t-250.5 103.5z" />
<glyph unicode="R" horiz-adv-x="1214" d="M391 766h131q170 0 272.5 75t102.5 201q0 86 -58 123t-194 37h-176zM1061 0h-246l-164 487q-22 63 -64 92t-112 29h-110l-109 -608h-217l242 1366h348q125 0 187 -6t116 -23q92 -29 143 -98t51 -164q0 -149 -106 -264q-55 -61 -120.5 -93.5t-162.5 -47.5 q46 -12 74.5 -40.5t48.5 -82.5z" />
<glyph unicode="S" horiz-adv-x="1087" d="M1061 1348l-57 -156q-129 27 -236 27q-170 0 -272.5 -57.5t-102.5 -151.5q0 -57 42.5 -97.5t156.5 -89.5q204 -89 288.5 -173.5t84.5 -198.5q0 -135 -88 -245t-243 -172.5t-345 -62.5q-179 0 -324 45l64 166q136 -30 264 -30q188 0 314 75t126 187q0 73 -90 133 q-52 33 -205 102q-146 64 -208 138t-62 180q0 195 162 310.5t432 115.5q165 0 299 -45z" />
<glyph unicode="T" horiz-adv-x="1134" d="M1202 1196h-434l-211 -1196h-217l211 1196h-438l30 170h1090z" />
<glyph unicode="U" horiz-adv-x="1419" d="M1386 1366l-145 -819q-32 -182 -90 -279q-85 -144 -234 -220.5t-346 -76.5q-221 0 -343 101.5t-122 285.5q0 76 21 191l143 817h215l-141 -807q-18 -103 -18 -162q0 -127 63.5 -184t204.5 -57q188 0 305 106.5t152 310.5l139 793h196z" />
<glyph unicode="V" horiz-adv-x="1316" d="M1425 1366l-778 -1366h-227l-287 1366h219l219 -1141l633 1141h221z" />
<glyph unicode="W" horiz-adv-x="1966" d="M2075 1366l-654 -1366h-231l-143 1051l-519 -1051h-227l-168 1366h215l121 -1085l535 1085h204l152 -1085l504 1085h211z" />
<glyph unicode="X" horiz-adv-x="1259" d="M1118 0h-250l-258 565l-473 -565h-246l621 725l-319 641h245l230 -492l407 492h244l-557 -653z" />
<glyph unicode="Y" horiz-adv-x="1202" d="M1311 1366l-625 -768l-106 -598h-215l110 621l-342 745h236l245 -584l453 584h244z" />
<glyph unicode="Z" horiz-adv-x="1116" d="M926 0h-977l28 156l871 1040h-678l31 170h946l-27 -143l-872 -1045h710z" />
<glyph unicode="[" horiz-adv-x="722" d="M428 -258h-444l286 1624h445l-29 -156h-240l-229 -1310h240z" />
<glyph unicode="\" horiz-adv-x="1103" d="M705 -102l-130 -54l-380 1631l131 51z" />
<glyph unicode="]" horiz-adv-x="722" d="M408 -258h-445l29 158h239l230 1310h-240l29 156h444z" />
<glyph unicode="^" horiz-adv-x="1103" d="M1120 578h-104l-381 591l-385 -591h-266l579 856h15z" />
<glyph unicode="_" d="M1032 -307h-962v123h962v-123z" />
<glyph unicode="`" horiz-adv-x="440" d="M528 1169l-84 -92l-340 207l117 133z" />
<glyph unicode="a" horiz-adv-x="962" d="M547 293l31 178q-198 -56 -290.5 -115t-92.5 -131q0 -35 21.5 -56.5t57.5 -21.5q102 0 273 146zM836 139l2 -125q-84 -37 -154 -37q-72 0 -113 39.5t-41 108.5v2q-102 -78 -177.5 -111.5t-153.5 -33.5q-93 0 -149 55t-56 147q0 182 201 297q129 73 407 131l8 45 q8 65 8 84q0 44 -19 63t-62 19q-133 0 -342 -127l-66 125q257 172 469 172q103 0 163 -53t60 -145q0 -58 -16 -146l-64 -358q-14 -82 -14 -103q0 -59 59 -59q32 0 50 10z" />
<glyph unicode="b" horiz-adv-x="1136" d="M238 133l-25 -133h-193l259 1462h196l-113 -628q183 157 357 157q142 0 228.5 -102.5t86.5 -270.5q0 -131 -40.5 -255t-112.5 -213q-139 -177 -357 -177q-97 0 -161.5 36t-124.5 124zM328 631l-60 -332q50 -82 105.5 -119t128.5 -37q150 0 243 162q74 129 74 277 q0 113 -46 172t-134 59q-69 0 -150.5 -47.5t-160.5 -134.5z" />
<glyph unicode="c" horiz-adv-x="944" d="M752 260l65 -127q-122 -87 -213.5 -122.5t-193.5 -35.5q-172 0 -272.5 108.5t-100.5 293.5q0 174 75 314.5t207 220t295 79.5q156 0 291 -82l-82 -131q-105 51 -200 51q-99 0 -183.5 -60t-134 -163t-49.5 -223q0 -231 203 -231q128 0 293 108z" />
<glyph unicode="d" horiz-adv-x="1146" d="M750 336l53 301q-79 184 -238 184q-130 0 -223.5 -126.5t-93.5 -301.5q0 -239 176 -239q153 0 326 182zM1145 1462l-258 -1462h-193l25 139q-92 -87 -174 -125.5t-176 -38.5q-159 0 -247.5 99t-88.5 276q0 128 40.5 251t112.5 214q143 178 359 178q97 0 166.5 -38.5 t126.5 -123.5l110 631h197z" />
<glyph unicode="e" horiz-adv-x="1028" d="M291 602l444 10q4 43 4 62q0 176 -153 176q-95 0 -172 -64.5t-123 -183.5zM803 266l61 -119q-124 -91 -233 -131.5t-228 -40.5q-170 0 -269 101t-99 274q0 175 76.5 323t208.5 234t288 86q149 0 236.5 -90t87.5 -244q0 -59 -12 -137l-9 -51h-649q-10 -54 -10 -100 q0 -232 199 -232q140 0 352 127z" />
<glyph unicode="f" horiz-adv-x="653" d="M881 1454l-62 -139q-64 14 -110 14q-114 0 -171.5 -59.5t-82.5 -202.5l-19 -104h252l-24 -140h-252l-146 -823h-196l145 823h-168l25 140h168l18 98q28 146 63.5 223.5t98.5 126.5q102 76 268 76q93 0 193 -33z" />
<glyph unicode="g" horiz-adv-x="1079" d="M309 -6q-120 -35 -175.5 -83t-55.5 -116q0 -139 256 -139q173 0 285 54.5t112 139.5q0 45 -39 67.5t-133 31.5q-131 16 -250 45zM557 854q-101 0 -172.5 -85t-71.5 -206q0 -78 42 -120t120 -42q101 0 172.5 82.5t71.5 200.5q0 80 -43 125t-119 45zM1049 821h-179 q45 -51 45 -137q0 -110 -61 -210t-162.5 -160t-212.5 -60q-89 0 -147 22q-62 -69 -78 -92q60 -24 136.5 -38t254.5 -35q158 -20 229.5 -72.5t71.5 -149.5q0 -108 -81 -195t-224.5 -136.5t-321.5 -49.5q-204 0 -323 71t-119 192q0 186 270 276q-25 8 -45 16q-43 16 -57 26 t-14 28q0 25 75 106l101 107q-88 91 -88 221q0 184 137 313t332 129q100 0 168 -30h317z" />
<glyph unicode="h" horiz-adv-x="1120" d="M864 0h-196l112 635q8 58 8 74q0 100 -100 100q-152 0 -360 -184l-111 -625h-197l259 1462h196l-110 -633q119 86 209 124t178 38q109 0 175 -57.5t66 -151.5q0 -66 -10 -114z" />
<glyph unicode="i" horiz-adv-x="481" d="M217 0h-197l170 963h197zM356 1395q48 0 78.5 -30t30.5 -79q0 -56 -35.5 -91.5t-91.5 -35.5q-47 0 -79 30.5t-32 74.5q0 57 36.5 94t92.5 37z" />
<glyph unicode="j" horiz-adv-x="483" d="M362 1395q48 0 78.5 -30t30.5 -79q0 -56 -35.5 -91.5t-91.5 -35.5q-47 0 -79 30.5t-32 74.5q0 57 36.5 94t92.5 37zM393 963l-172 -975q-37 -228 -139 -336.5t-315 -145.5l-23 152q134 41 191 103t83 194l179 1008h196z" />
<glyph unicode="k" horiz-adv-x="1021" d="M877 0h-244l-328 498l-88 -498h-197l259 1462h196l-160 -903l451 404h270l-514 -445z" />
<glyph unicode="l" horiz-adv-x="483" d="M219 0h-199l259 1462h198z" />
<glyph unicode="m" horiz-adv-x="1622" d="M1366 0h-195l105 586q18 113 18 143q0 80 -84 80q-61 0 -141.5 -46t-165.5 -130l-112 -633h-193l102 573q17 100 17 150q0 44 -19.5 65t-62.5 21q-124 0 -309 -176l-113 -633h-193l170 963h191l-25 -136q107 87 192.5 125.5t170.5 38.5t137 -44.5t64 -127.5 q113 94 195 133t169 39q102 0 156.5 -50.5t54.5 -145.5q0 -59 -20 -179z" />
<glyph unicode="n" horiz-adv-x="1103" d="M848 0h-197l99 557l2 16l4 17q14 88 14 119q0 102 -100 102q-140 0 -340 -178l-113 -633h-197l170 963h193l-25 -140q123 95 207.5 132.5t175.5 37.5q110 0 172 -58.5t62 -164.5q0 -50 -17 -143z" />
<glyph unicode="o" horiz-adv-x="1095" d="M602 993q175 0 281 -109t106 -290q0 -129 -43 -243.5t-116.5 -196.5t-177 -129.5t-220.5 -47.5q-175 0 -285 110.5t-110 285.5q0 171 74.5 313.5t204.5 224.5t286 82zM584 829q-136 0 -235 -127.5t-99 -302.5q0 -123 52.5 -188.5t150.5 -65.5q133 0 228 126.5t95 303.5 q0 124 -49 189t-143 65z" />
<glyph unicode="p" horiz-adv-x="1138" d="M240 129l-105 -602h-196l251 1436h189l-25 -138q186 166 353 166q145 0 236 -105.5t91 -271.5q0 -124 -39 -244.5t-108 -211.5q-141 -185 -357 -185q-96 0 -166 38t-124 118zM330 639l-60 -340q84 -156 240 -156q79 0 144.5 52t109.5 151q55 123 55 250q0 213 -172 213 q-153 0 -317 -170z" />
<glyph unicode="q" horiz-adv-x="1150" d="M754 342l51 295q-32 86 -99 135t-151 49q-124 0 -214.5 -133.5t-90.5 -318.5q0 -213 174 -213q150 0 330 186zM805 -473h-197l109 610q-168 -162 -346 -162q-152 0 -244 102.5t-92 272.5q0 178 66.5 326t183.5 232.5t258 84.5q201 0 299 -176l24 146h193z" />
<glyph unicode="r" horiz-adv-x="727" d="M768 967l-72 -172q-27 8 -53 8q-147 0 -334 -283l-92 -520h-197l170 963h193l-31 -179q78 103 156.5 151t167.5 48q45 0 92 -16z" />
<glyph unicode="s" horiz-adv-x="851" d="M791 958l-60 -139q-120 25 -190 25q-105 0 -165.5 -32t-60.5 -89q0 -40 33.5 -70t118.5 -65q145 -60 199.5 -117t54.5 -149q0 -161 -136.5 -253t-375.5 -92q-141 0 -260 37l57 144q122 -25 203 -25q129 0 210 43.5t81 112.5q0 59 -70 102q-23 12 -113 53 q-122 54 -169.5 108.5t-47.5 139.5q0 142 117 221.5t326 79.5q129 0 248 -35z" />
<glyph unicode="t" horiz-adv-x="661" d="M522 152l-26 -146q-101 -26 -177 -26q-116 0 -178.5 45.5t-62.5 130.5q0 35 16 133l94 536h-165l24 138h166l49 280h197l-49 -280h252l-25 -138h-252l-90 -510l-2 -8q0 -12 -2 -24q-8 -39 -8 -66q0 -43 24.5 -61.5t81.5 -18.5q56 0 133 15z" />
<glyph unicode="u" horiz-adv-x="1105" d="M844 0h-197l27 143q-193 -166 -371 -166q-109 0 -175.5 62.5t-66.5 163.5q0 48 19 159l106 601h197l-96 -547q-21 -118 -21 -158q0 -94 105 -94q146 0 338 180l108 619h197z" />
<glyph unicode="v" horiz-adv-x="1009" d="M1012 963l-568 -963h-200l-215 963h211l147 -734l418 734h207z" />
<glyph unicode="w" horiz-adv-x="1466" d="M1460 963l-481 -963h-201l-100 711l-350 -711h-207l-141 963h196l92 -711l355 711h196l99 -711l346 711h196z" />
<glyph unicode="x" horiz-adv-x="1021" d="M786 0h-229l-190 371l-316 -371h-241l462 520l-241 443h227l160 -318l272 318h236l-412 -461z" />
<glyph unicode="y" horiz-adv-x="1007" d="M1028 963l-676 -1153q-107 -184 -184.5 -244t-206.5 -60q-102 0 -172 25l61 141q51 -10 101 -10q61 0 107.5 41t111.5 150l90 153l-213 957h207l149 -744l418 744h207z" />
<glyph unicode="z" horiz-adv-x="966" d="M739 0h-768l27 160l592 637h-465l31 166h741l-27 -148l-594 -643h494z" />
<glyph unicode="{" horiz-adv-x="722" d="M451 -258h-144q-91 0 -142.5 56.5t-51.5 154.5q0 42 6 72l47 268q12 73 12 117q0 66 -26 97t-89 38l25 143q82 9 127 68.5t68 191.5l28 170q44 248 260 248h166l-28 -156h-93q-49 0 -74 -37t-42 -137l-27 -153q-41 -224 -184 -267q98 -62 98 -190q0 -27 -8 -82l-47 -270 q-15 -76 -15 -107q0 -38 16.5 -53.5t55.5 -15.5h88z" />
<glyph unicode="|" horiz-adv-x="512" d="M336 -342h-160v1708h160v-1708z" />
<glyph unicode="}" horiz-adv-x="722" d="M227 1366h144q89 0 141.5 -56.5t52.5 -150.5q0 -32 -8 -76l-25 -143q-12 -66 -12 -115q0 -69 26 -100t89 -37l-25 -143q-82 -9 -125.5 -68t-66.5 -192l-53 -295q-23 -126 -86.5 -187t-172.5 -61h-165l26 156h92q51 0 74.5 36t42.5 138l49 278q41 225 185 266 q-97 60 -97 193q0 21 9 80l24 145q14 79 14 109q0 37 -16.5 52t-56.5 15h-88z" />
<glyph unicode="~" d="M928 1503l39 -24q-64 -110 -131.5 -161.5t-147.5 -51.5q-32 0 -67.5 9.5t-147.5 49.5q-71 25 -125 25q-30 0 -59 -8.5t-41 -20.5l-58 -57l-18 -19l-37 23q70 118 132.5 166.5t144.5 48.5q36 0 65.5 -7.5t136.5 -45.5q86 -29 131 -29q53 0 93.5 22.5t89.5 79.5z" />
<glyph unicode="&#xa1;" horiz-adv-x="651" d="M37 -336l194 993h172l-151 -993h-215zM371 1042q50 0 83 -31.5t33 -78.5q0 -60 -39 -99.5t-98 -39.5q-51 0 -84 31.5t-33 80.5q0 58 39.5 97.5t98.5 39.5z" />
<glyph unicode="&#xa2;" d="M840 584l75 -129q-191 -171 -409 -174l-57 -181h-156l63 201q-50 26 -75.5 44t-47.5 44q-92 109 -92 277q0 107 36.5 221.5t96.5 199.5q94 129 240 185q52 17 154 28l53 173h156l-56 -181q106 -29 176 -82l-92 -137q-63 35 -137 51l-209 -669q144 27 281 129zM414 485 l198 639q-62 -19 -100.5 -47t-75.5 -80q-42 -62 -66 -146.5t-24 -170.5q0 -69 15.5 -114.5t52.5 -80.5z" />
<glyph unicode="&#xa3;" horiz-adv-x="1126" d="M1192 1337l-88 -145q-101 35 -197 35q-168 0 -256 -133q-27 -37 -49.5 -89t-69.5 -182l-8 -22h480l-29 -160h-504l-43 -145q-40 -134 -79 -205t-97 -117h713l-31 -174h-987l-8 156q91 3 147.5 63t103.5 203l70 219h-213l29 160h235l43 125q85 248 217.5 359.5 t341.5 111.5q145 0 279 -60z" />
<glyph unicode="&#xa4;" d="M930 248l76 -121q-196 -156 -422 -156q-204 0 -322.5 129.5t-118.5 352.5v24h-190l27 148h178q4 40 10 75q14 64 20 82h-180l27 152h203q52 119 94 185t104 124q155 146 381 146q109 0 196.5 -36.5t178.5 -119.5l-109 -113q-74 57 -137 82t-135 25q-116 0 -203 -70.5 t-159 -222.5h507l-26 -152h-533l-2 -8l-2 -6q-9 -29 -16 -68q-10 -60 -12 -75h536l-27 -148h-520v-26q0 -155 66.5 -236.5t193.5 -81.5q73 0 143.5 26t172.5 89z" />
<glyph unicode="&#xa5;" horiz-adv-x="1214" d="M1278 1366l-449 -557h271l-27 -147h-368l-29 -97l-2 -12h381l-27 -145h-381l-72 -408h-204l71 408h-376l26 145h377l2 12l4 97h-364l26 147h273l-256 557h233l231 -549l424 549h236z" />
<glyph unicode="&#xa6;" horiz-adv-x="512" d="M336 1366v-772h-160v772h160zM176 -342v778h160v-778h-160z" />
<glyph unicode="&#xa7;" horiz-adv-x="1087" d="M449 446l159 -90q156 84 156 181q0 41 -35 77.5t-115 79.5l-186 101q-143 -67 -143 -172q0 -60 55 -109q22 -19 109 -68zM584 944l131 -72q121 -67 153 -94q93 -78 93 -182q0 -198 -220 -328q86 -69 86 -162q0 -155 -139 -253.5t-356 -98.5q-175 0 -355 49l60 142 q132 -35 260 -35q138 0 221.5 44.5t83.5 117.5q0 37 -28 62t-136 85l-47 25q-7 5 -23.5 13.5t-19.5 10.5l-45 25q-120 64 -172.5 128t-52.5 144q0 97 58.5 181.5t162.5 138.5q-82 67 -82 170q0 157 140.5 249.5t379.5 92.5q180 0 322 -45l-60 -144q-139 31 -270 31 q-127 0 -207 -43t-80 -111q0 -45 52 -88q13 -12 90 -53z" />
<glyph unicode="&#xa8;" horiz-adv-x="602" d="M215 1348q43 0 71.5 -29t28.5 -70q0 -49 -34 -82.5t-84 -33.5q-43 0 -72 26.5t-29 67.5q0 52 34 86.5t85 34.5zM604 1348q43 0 70.5 -28t27.5 -71q0 -51 -32.5 -83.5t-83.5 -32.5q-43 0 -72 27t-29 67q0 52 34 86.5t85 34.5z" />
<glyph unicode="&#xa9;" horiz-adv-x="1652" d="M827 1407q117 0 227 -36.5t199 -103t156.5 -155t104 -198.5t36.5 -226q0 -200 -96.5 -367.5t-263 -264.5t-363.5 -97q-196 0 -363 97t-264.5 263.5t-97.5 362.5t97.5 363t264.5 264.5t363 97.5zM825 1319q-174 0 -320 -85.5t-230.5 -234t-84.5 -325.5q0 -168 85.5 -312.5 t232 -229.5t317.5 -85q129 0 247 50.5t203.5 135t136 201.5t50.5 244q0 175 -85 322.5t-231.5 233t-320.5 85.5zM1098 455l53 -103l-35 -20l-16 -8q-119 -58 -256 -58q-198 0 -324.5 115t-126.5 295q0 189 138.5 309.5t353.5 120.5q68 0 123 -11t129 -40l-39 -105l-17 4 q-1 0 -22 7q-1 0 -4.5 1t-9 2.5t-9.5 2.5q-73 22 -147 22q-148 0 -236 -82.5t-88 -220.5q0 -133 81 -216t212 -83q50 0 92 12t133 50z" />
<glyph unicode="&#xaa;" horiz-adv-x="618" d="M563 588h-493l16 94h494zM432 965l17 96q-119 -31 -168.5 -62t-49.5 -75q0 -22 13 -34.5t35 -12.5q29 0 62.5 19.5t90.5 68.5zM610 872v-86q-45 -22 -88 -22q-46 0 -74 24.5t-28 65.5v2q-61 -51 -102.5 -70.5t-86.5 -19.5q-54 0 -87 35t-33 92q0 95 84.5 158t267.5 104 l2 16l2 13q4 16 4 37q0 49 -49 49q-40 0 -82.5 -16.5t-108.5 -57.5l-38 84q142 104 276 104q61 0 96 -32.5t35 -89.5q0 -29 -10 -88l-35 -209v-7l-4 -16q-4 -36 -4 -41q0 -19 8 -27t27 -8q7 0 28 6z" />
<glyph unicode="&#xab;" horiz-adv-x="897" d="M362 190l-124 -67l-203 379l327 364l113 -69l-235 -295zM707 190l-125 -67l-203 379l328 364l112 -69l-235 -295z" />
<glyph unicode="&#xac;" d="M995 0h-159v432h-732v115h891v-547z" />
<glyph unicode="&#xad;" horiz-adv-x="630" d="M530 467h-507l28 160h508z" />
<glyph unicode="&#xae;" horiz-adv-x="1652" d="M827 1407q117 0 227 -36.5t199 -103t156.5 -155t104 -198.5t36.5 -226q0 -200 -96.5 -367.5t-263 -264.5t-363.5 -97q-196 0 -363 97t-264.5 263.5t-97.5 362.5t97.5 363t264.5 264.5t363 97.5zM825 1319q-174 0 -320 -85.5t-230.5 -234t-84.5 -325.5q0 -168 85.5 -312.5 t232 -229.5t317.5 -85q129 0 247 50.5t203.5 135t136 201.5t50.5 244q0 175 -85 322.5t-231.5 233t-320.5 85.5zM1210 285h-190l-156 286l-10 19q-26 47 -80 47h-53v-352h-168v805h246q115 0 174 -15q74 -22 115.5 -71.5t41.5 -118.5q0 -71 -48 -130.5t-115 -72.5l-11 -2 q42 -18 62 -55zM721 743h80q157 0 157 127q0 58 -36.5 85.5t-114.5 27.5h-86v-240z" />
<glyph unicode="&#xaf;" horiz-adv-x="737" d="M629 1167h-545l25 148h544z" />
<glyph unicode="&#xb0;" d="M512 1389q117 0 200 -81.5t83 -195.5q0 -118 -82.5 -200.5t-200.5 -82.5t-200.5 82t-82.5 199q0 115 83 197t200 82zM510 1278q-67 0 -114.5 -49.5t-47.5 -118.5q0 -71 47.5 -119.5t116.5 -48.5q66 0 116 50t50 116q0 69 -49.5 119.5t-118.5 50.5z" />
<glyph unicode="&#xb1;" d="M1014 629h-410v-410h-108v410h-410v108h410v410h108v-410h410v-108zM1014 0h-928v109h928v-109z" />
<glyph unicode="&#xb2;" horiz-adv-x="854" d="M639 715h-455l-10 104q205 146 294 235t89 150q0 30 -21.5 47t-58.5 17q-67 0 -180 -45l-27 110q142 64 252 64q86 0 137.5 -44t51.5 -118q0 -121 -131 -252q-45 -43 -168 -139h250z" />
<glyph unicode="&#xb3;" horiz-adv-x="798" d="M293 1239l-25 100q133 58 236 58q79 0 123.5 -33t44.5 -92q0 -64 -38.5 -109.5t-109.5 -64.5q119 -15 119 -123q0 -64 -45.5 -121.5t-122.5 -89.5q-109 -47 -291 -47h-24l18 110q320 9 320 131q0 38 -36 55t-116 17h-63l18 109q107 2 169 28t62 70q0 43 -67 43 q-53 0 -172 -41z" />
<glyph unicode="&#xb4;" horiz-adv-x="436" d="M543 1264l-400 -187l-59 111l385 229z" />
<glyph unicode="&#xb5;" d="M805 0h-191l27 147q-94 -90 -179.5 -131t-180.5 -41q-75 0 -117 31l-43 -242h-184l210 1199h197l-100 -574l-4 -18q-13 -60 -13 -99q0 -112 111 -112q138 0 332 182l108 621h197z" />
<glyph unicode="&#xb6;" d="M813 -242h-141l260 1475h-98l-261 -1475h-141l150 844q-201 6 -305.5 88t-104.5 234q0 170 93 286t251 144q82 12 270 12h312z" />
<glyph unicode="&#xb7;" horiz-adv-x="624" d="M324 807q51 0 83.5 -32.5t32.5 -82.5q0 -57 -40 -96t-97 -39q-51 0 -84 31.5t-33 79.5q0 60 39.5 99.5t98.5 39.5z" />
<glyph unicode="&#xb8;" horiz-adv-x="737" d="M348 -279l-119 33l111 230h170z" />
<glyph unicode="&#xb9;" horiz-adv-x="696" d="M432 717h-143l90 514l-154 -74l-41 103l265 135l96 -37z" />
<glyph unicode="&#xba;" horiz-adv-x="694" d="M590 588h-518l16 94h518zM469 1384q104 0 165.5 -66t61.5 -177q0 -161 -94 -269t-235 -108q-103 0 -167.5 67.5t-64.5 174.5q0 159 97 268.5t237 109.5zM457 1274q-77 0 -133 -74.5t-56 -175.5q0 -72 29.5 -109.5t85.5 -37.5q75 0 128.5 73.5t53.5 175.5q0 71 -28 109.5 t-80 38.5z" />
<glyph unicode="&#xbb;" horiz-adv-x="897" d="M471 799l125 67l201 -379l-326 -364l-113 70l234 294zM127 799l125 67l201 -379l-326 -364l-113 70l234 294z" />
<glyph unicode="&#xbc;" horiz-adv-x="1372" d="M1116 147h-86l-26 -147h-136l27 147h-287v5l-2 4l-2 26l-2 8q-4 25 -4 62l410 430l110 -35l-69 -387h86zM913 260l37 205l-188 -205h151zM487 717h-143l90 514l-153 -74l-43 103l266 135l96 -37zM1305 1327l-1125 -1364l-112 80l1122 1366z" />
<glyph unicode="&#xbd;" horiz-adv-x="1372" d="M487 717h-143l90 514l-153 -74l-43 103l266 135l96 -37zM1305 1327l-1125 -1364l-112 80l1122 1366zM1192 0h-455l-8 104q198 139 289.5 232t91.5 153q0 31 -20.5 47.5t-57.5 16.5q-65 0 -182 -45l-27 110q139 64 252 64q86 0 137.5 -44t51.5 -118q0 -121 -131 -252 q-45 -43 -168 -139h249z" />
<glyph unicode="&#xbe;" horiz-adv-x="1372" d="M1116 147h-86l-26 -147h-136l27 147h-287l-10 105l410 430l110 -35l-67 -387h86zM915 260l35 205l-186 -205h151zM1305 1327l-1125 -1364l-112 80l1122 1366zM256 1239l-25 100q130 58 234 58q80 0 124 -34t44 -95q0 -63 -38.5 -107t-109.5 -63q119 -15 119 -123 q0 -64 -45.5 -121.5t-122.5 -89.5q-109 -47 -291 -47h-24l20 110q155 4 237.5 38t82.5 93q0 38 -36 55t-118 17h-63l18 109q108 2 170 28t62 70q0 20 -17.5 31.5t-48.5 11.5q-53 0 -172 -41z" />
<glyph unicode="&#xbf;" horiz-adv-x="985" d="M412 467l41 223h168l-35 -334q-212 -72 -322 -170t-110 -215q0 -62 48.5 -95.5t137.5 -33.5q143 0 338 84l51 -147q-233 -115 -453 -115q-158 0 -247.5 74t-89.5 203q0 208 206 374q100 80 267 152zM588 1075q51 0 84 -31.5t33 -78.5q0 -60 -39.5 -100t-98.5 -40 q-51 0 -83.5 31.5t-32.5 79.5q0 60 39 99.5t98 39.5z" />
<glyph unicode="&#xc0;" horiz-adv-x="1380" d="M1247 0h-227l-100 451h-549l-260 -451h-220l805 1366h228zM887 610l-121 539l-305 -539h426zM1032 1559l-84 -93l-340 207l117 133z" />
<glyph unicode="&#xc1;" horiz-adv-x="1380" d="M1247 0h-227l-100 451h-549l-260 -451h-220l805 1366h228zM887 610l-121 539l-305 -539h426zM1055 1653l-400 -187l-59 111l385 229z" />
<glyph unicode="&#xc2;" horiz-adv-x="1380" d="M1247 0h-227l-100 451h-549l-260 -451h-220l805 1366h228zM887 610l-121 539l-305 -539h426zM1110 1569l-90 -96l-209 147l-281 -147l-63 108l356 234z" />
<glyph unicode="&#xc3;" horiz-adv-x="1380" d="M1247 0h-227l-100 451h-549l-260 -451h-220l805 1366h228zM887 610l-121 539l-305 -539h426zM1083 1755l86 -92q-82 -80 -139 -112.5t-115 -32.5q-29 0 -53.5 9.5t-64.5 35.5q-56 36 -95 36q-28 0 -59 -18t-92 -68l-84 95q76 73 135 106t115 33q47 0 110 -41 q66 -39 101 -39q29 0 63.5 19.5t91.5 68.5z" />
<glyph unicode="&#xc4;" horiz-adv-x="1380" d="M1247 0h-227l-100 451h-549l-260 -451h-220l805 1366h228zM887 610l-121 539l-305 -539h426zM631 1737q43 0 71.5 -28.5t28.5 -70.5q0 -49 -34.5 -82.5t-84.5 -33.5q-43 0 -71.5 26.5t-28.5 67.5q0 52 34 86.5t85 34.5zM1020 1737q43 0 70.5 -28t27.5 -71 q0 -51 -33 -83.5t-84 -32.5q-43 0 -71.5 27t-28.5 67q0 52 34 86.5t85 34.5z" />
<glyph unicode="&#xc5;" horiz-adv-x="1380" d="M1247 0h-227l-100 451h-549l-260 -451h-220l805 1366h228zM887 610l-121 539l-305 -539h426zM829 1796q70 0 116 -44t46 -112q0 -81 -54 -135.5t-134 -54.5q-71 0 -117.5 44.5t-46.5 111.5q0 80 55.5 135t134.5 55zM821 1712q-41 0 -68.5 -28.5t-27.5 -69.5 q0 -34 23.5 -57t58.5 -23q40 0 67 27.5t27 68.5q0 37 -22.5 59.5t-57.5 22.5z" />
<glyph unicode="&#xc6;" horiz-adv-x="1896" d="M1692 0h-815l79 451h-454l-357 -451h-254l1092 1366h909l-30 -170h-557l-70 -399h526l-28 -166h-527l-80 -453h598zM985 612l102 586l-462 -586h360z" />
<glyph unicode="&#xc7;" horiz-adv-x="1335" d="M715 -31l-207 -327l-121 39l145 305q-118 29 -193.5 73t-137.5 119q-119 146 -119 361q0 182 70.5 341t192 272t293 178t366.5 65q101 0 185.5 -18t194.5 -64l-81 -156q-146 60 -316 60q-137 0 -262 -51t-215 -137t-143.5 -205.5t-53.5 -250.5q0 -196 114.5 -307.5 t317.5 -111.5q96 0 190.5 24.5t213.5 81.5l51 -154q-221 -131 -485 -137z" />
<glyph unicode="&#xc8;" horiz-adv-x="1085" d="M879 0h-840l244 1366h798l-30 -170h-584l-70 -399h553l-28 -166h-553l-80 -453h622zM901 1559l-84 -93l-340 207l117 133z" />
<glyph unicode="&#xc9;" horiz-adv-x="1085" d="M879 0h-840l244 1366h798l-30 -170h-584l-70 -399h553l-28 -166h-553l-80 -453h622zM956 1653l-399 -187l-59 111l385 229z" />
<glyph unicode="&#xca;" horiz-adv-x="1085" d="M879 0h-840l244 1366h798l-30 -170h-584l-70 -399h553l-28 -166h-553l-80 -453h622zM1010 1569l-90 -96l-209 147l-281 -147l-63 108l356 234z" />
<glyph unicode="&#xcb;" horiz-adv-x="1085" d="M879 0h-840l244 1366h798l-30 -170h-584l-70 -399h553l-28 -166h-553l-80 -453h622zM526 1737q43 0 72 -29t29 -70q0 -49 -34.5 -82.5t-84.5 -33.5q-43 0 -71.5 26.5t-28.5 67.5q0 52 33.5 86.5t84.5 34.5zM915 1737q43 0 71 -28t28 -71q0 -51 -33 -83.5t-84 -32.5 q-43 0 -71.5 27t-28.5 67q0 52 33.5 86.5t84.5 34.5z" />
<glyph unicode="&#xcc;" horiz-adv-x="538" d="M258 0h-219l242 1366h219zM627 1559l-84 -93l-340 207l116 133z" />
<glyph unicode="&#xcd;" horiz-adv-x="538" d="M258 0h-219l242 1366h219zM668 1653l-400 -187l-59 111l385 229z" />
<glyph unicode="&#xce;" horiz-adv-x="538" d="M258 0h-219l242 1366h219zM700 1569l-90 -96l-209 147l-280 -147l-64 108l357 234z" />
<glyph unicode="&#xcf;" horiz-adv-x="538" d="M258 0h-219l242 1366h219zM236 1737q42 0 71 -28.5t29 -70.5q0 -49 -34.5 -82.5t-84.5 -33.5q-43 0 -71.5 26.5t-28.5 67.5q0 52 34 86.5t85 34.5zM625 1737q43 0 70.5 -28t27.5 -71q0 -51 -33 -83.5t-84 -32.5q-43 0 -71.5 27t-28.5 67q0 52 34 86.5t85 34.5z" />
<glyph unicode="&#xd0;" horiz-adv-x="1480" d="M193 799l100 567h371q213 0 337 -31q188 -44 294 -183t106 -341q0 -196 -91 -369t-253 -286q-124 -86 -268.5 -121t-374.5 -35h-363l113 633h-215l28 166h216zM748 799l-29 -166h-338l-82 -457h184q162 0 283 41q191 66 300.5 221t109.5 359q0 206 -119.5 302.5 t-374.5 96.5h-203l-69 -397h338z" />
<glyph unicode="&#xd1;" horiz-adv-x="1417" d="M1137 0h-201l-516 1020l-180 -1020h-201l242 1366h202l518 -1030l183 1030h194zM1104 1755l86 -92q-82 -80 -139 -112.5t-115 -32.5q-29 0 -54 9.5t-65 35.5q-56 36 -94 36q-29 0 -61 -18t-91 -68l-84 95q142 139 250 139q48 0 111 -41q63 -39 100 -39q55 0 156 88z" />
<glyph unicode="&#xd2;" horiz-adv-x="1513" d="M887 1395q243 0 393 -153t150 -400q0 -155 -54 -309.5t-149 -274.5q-113 -139 -266.5 -213t-329.5 -74q-246 0 -397.5 152.5t-151.5 398.5q0 178 63.5 339.5t171 278.5t257 186t313.5 69zM864 1210q-145 0 -273 -90t-204 -240.5t-76 -320.5q0 -189 90.5 -293t253.5 -104 q120 0 224 57t182 166q67 93 104 207t37 225q0 186 -89 289.5t-249 103.5zM1126 1559l-84 -93l-340 207l117 133z" />
<glyph unicode="&#xd3;" horiz-adv-x="1513" d="M887 1395q243 0 393 -153t150 -400q0 -155 -54 -309.5t-149 -274.5q-113 -139 -266.5 -213t-329.5 -74q-246 0 -397.5 152.5t-151.5 398.5q0 178 63.5 339.5t171 278.5t257 186t313.5 69zM864 1210q-145 0 -273 -90t-204 -240.5t-76 -320.5q0 -189 90.5 -293t253.5 -104 q120 0 224 57t182 166q67 93 104 207t37 225q0 186 -89 289.5t-249 103.5zM1124 1653l-399 -187l-59 111l385 229z" />
<glyph unicode="&#xd4;" horiz-adv-x="1513" d="M887 1395q243 0 393 -153t150 -400q0 -155 -54 -309.5t-149 -274.5q-113 -139 -266.5 -213t-329.5 -74q-246 0 -397.5 152.5t-151.5 398.5q0 178 63.5 339.5t171 278.5t257 186t313.5 69zM864 1210q-145 0 -273 -90t-204 -240.5t-76 -320.5q0 -189 90.5 -293t253.5 -104 q120 0 224 57t182 166q67 93 104 207t37 225q0 186 -89 289.5t-249 103.5zM1176 1569l-91 -96l-208 147l-281 -147l-64 108l357 234z" />
<glyph unicode="&#xd5;" horiz-adv-x="1513" d="M887 1395q243 0 393 -153t150 -400q0 -155 -54 -309.5t-149 -274.5q-113 -139 -266.5 -213t-329.5 -74q-246 0 -397.5 152.5t-151.5 398.5q0 178 63.5 339.5t171 278.5t257 186t313.5 69zM864 1210q-145 0 -273 -90t-204 -240.5t-76 -320.5q0 -189 90.5 -293t253.5 -104 q120 0 224 57t182 166q67 93 104 207t37 225q0 186 -89 289.5t-249 103.5zM1122 1755l86 -92q-82 -80 -139 -112.5t-115 -32.5q-29 0 -53.5 9.5t-64.5 35.5q-56 36 -95 36q-29 0 -60.5 -18t-90.5 -68l-84 95q142 139 250 139q47 0 110 -41q63 -39 99 -39q56 0 157 88z" />
<glyph unicode="&#xd6;" horiz-adv-x="1513" d="M887 1395q243 0 393 -153t150 -400q0 -155 -54 -309.5t-149 -274.5q-113 -139 -266.5 -213t-329.5 -74q-246 0 -397.5 152.5t-151.5 398.5q0 178 63.5 339.5t171 278.5t257 186t313.5 69zM864 1210q-145 0 -273 -90t-204 -240.5t-76 -320.5q0 -189 90.5 -293t253.5 -104 q120 0 224 57t182 166q67 93 104 207t37 225q0 186 -89 289.5t-249 103.5zM713 1737q43 0 71.5 -28.5t28.5 -70.5q0 -49 -34.5 -82.5t-84.5 -33.5q-43 0 -71.5 26.5t-28.5 67.5q0 52 34 86.5t85 34.5zM1102 1737q43 0 70.5 -28t27.5 -71q0 -51 -33 -83.5t-84 -32.5 q-43 0 -71.5 27t-28.5 67q0 52 34 86.5t85 34.5z" />
<glyph unicode="&#xd7;" d="M1008 209l-119 -119l-338 336l-336 -336l-121 121l336 336l-336 338l121 119l336 -336l338 336l119 -121l-336 -336z" />
<glyph unicode="&#xd8;" horiz-adv-x="1529" d="M344 387l780 717q-95 106 -250 106q-123 0 -230 -60.5t-189 -176.5q-136 -195 -136 -410q0 -90 25 -176zM1186 993l-783 -717q92 -114 263 -114q119 0 222 57t181 166q67 93 104 207t37 227q0 88 -24 174zM1538 1319l-180 -166q44 -75 63 -146.5t19 -162.5 q0 -157 -54 -311.5t-151 -274.5q-111 -138 -264.5 -212.5t-331.5 -74.5q-122 0 -217.5 38t-179.5 118l-172 -158l-82 90l180 164q-76 135 -76 301q0 177 63.5 338.5t171 278t255.5 185.5t311 69q118 0 212 -35.5t177 -112.5l174 162z" />
<glyph unicode="&#xd9;" horiz-adv-x="1419" d="M1386 1366l-145 -819q-32 -182 -90 -279q-85 -144 -234 -220.5t-346 -76.5q-221 0 -343 101.5t-122 285.5q0 76 21 191l143 817h215l-141 -807q-18 -103 -18 -162q0 -127 63.5 -184t204.5 -57q188 0 305 106.5t152 310.5l139 793h196zM1004 1559l-84 -93l-340 207 l116 133z" />
<glyph unicode="&#xda;" horiz-adv-x="1419" d="M1386 1366l-145 -819q-32 -182 -90 -279q-85 -144 -234 -220.5t-346 -76.5q-221 0 -343 101.5t-122 285.5q0 76 21 191l143 817h215l-141 -807q-18 -103 -18 -162q0 -127 63.5 -184t204.5 -57q188 0 305 106.5t152 310.5l139 793h196zM1094 1653l-400 -187l-59 111 l385 229z" />
<glyph unicode="&#xdb;" horiz-adv-x="1419" d="M1386 1366l-145 -819q-32 -182 -90 -279q-85 -144 -234 -220.5t-346 -76.5q-221 0 -343 101.5t-122 285.5q0 76 21 191l143 817h215l-141 -807q-18 -103 -18 -162q0 -127 63.5 -184t204.5 -57q188 0 305 106.5t152 310.5l139 793h196zM1130 1569l-90 -96l-209 147 l-280 -147l-64 108l357 234z" />
<glyph unicode="&#xdc;" horiz-adv-x="1419" d="M1386 1366l-145 -819q-32 -182 -90 -279q-85 -144 -234 -220.5t-346 -76.5q-221 0 -343 101.5t-122 285.5q0 76 21 191l143 817h215l-141 -807q-18 -103 -18 -162q0 -127 63.5 -184t204.5 -57q188 0 305 106.5t152 310.5l139 793h196zM664 1737q42 0 71 -28.5t29 -70.5 q0 -49 -34.5 -82.5t-84.5 -33.5q-43 0 -71.5 26.5t-28.5 67.5q0 52 34 86.5t85 34.5zM1053 1737q43 0 70.5 -28t27.5 -71q0 -51 -33 -83.5t-84 -32.5q-43 0 -71.5 27t-28.5 67q0 52 34 86.5t85 34.5z" />
<glyph unicode="&#xdd;" horiz-adv-x="1202" d="M1311 1366l-625 -768l-106 -598h-215l110 621l-342 745h236l245 -584l453 584h244zM1006 1653l-400 -187l-59 111l385 229z" />
<glyph unicode="&#xde;" horiz-adv-x="1120" d="M342 483h131q111 0 173.5 17t111.5 61q90 78 90 201q0 104 -54.5 144t-195.5 40h-174zM453 1114h137q182 0 260 -20q104 -28 165.5 -108t61.5 -189t-47.5 -206.5t-130.5 -160.5q-143 -108 -399 -108h-187l-57 -322h-217l242 1366h217z" />
<glyph unicode="&#xdf;" horiz-adv-x="1142" d="M16 0l160 909q23 134 44.5 206.5t55.5 127.5q144 246 435 246q155 0 246.5 -70t91.5 -190q0 -177 -201 -342l-76 -62q-65 -52 -65 -86q0 -20 16.5 -40.5t62.5 -55.5q120 -93 169 -163.5t49 -153.5q0 -154 -129 -249t-336 -95q-139 0 -232 43l62 139q89 -27 161 -27 q118 0 191.5 49t73.5 127q0 49 -28 85.5t-130 123.5q-79 65 -110 106.5t-31 80.5q0 49 29.5 90.5t111.5 107.5q113 91 162 159t49 134q0 55 -40.5 87t-111.5 32q-131 0 -221 -119q-67 -90 -102 -291l-160 -909h-197z" />
<glyph unicode="&#xe0;" horiz-adv-x="962" d="M547 293l31 178q-198 -56 -290.5 -115t-92.5 -131q0 -35 21.5 -56.5t57.5 -21.5q102 0 273 146zM836 139l2 -125q-84 -37 -154 -37q-72 0 -113 39.5t-41 108.5v2q-102 -78 -177.5 -111.5t-153.5 -33.5q-93 0 -149 55t-56 147q0 182 201 297q129 73 407 131l8 45 q8 65 8 84q0 44 -19 63t-62 19q-133 0 -342 -127l-66 125q257 172 469 172q103 0 163 -53t60 -145q0 -58 -16 -146l-64 -358l-2 -6l-2 -23q-10 -51 -10 -74q0 -59 59 -59q15 0 33 6q4 2 12 2zM768 1169l-84 -92l-340 207l117 133z" />
<glyph unicode="&#xe1;" horiz-adv-x="962" d="M547 293l31 178q-198 -56 -290.5 -115t-92.5 -131q0 -35 21.5 -56.5t57.5 -21.5q102 0 273 146zM836 139l2 -125q-84 -37 -154 -37q-72 0 -113 39.5t-41 108.5v2q-102 -78 -177.5 -111.5t-153.5 -33.5q-93 0 -149 55t-56 147q0 182 201 297q129 73 407 131l8 45 q8 65 8 84q0 44 -19 63t-62 19q-133 0 -342 -127l-66 125q257 172 469 172q103 0 163 -53t60 -145q0 -58 -16 -146l-64 -358l-2 -6l-2 -23q-10 -51 -10 -74q0 -59 59 -59q15 0 33 6q4 2 12 2zM795 1264l-400 -187l-59 111l385 229z" />
<glyph unicode="&#xe2;" horiz-adv-x="962" d="M547 293l31 178q-198 -56 -290.5 -115t-92.5 -131q0 -35 21.5 -56.5t57.5 -21.5q102 0 273 146zM836 139l2 -125q-84 -37 -154 -37q-72 0 -113 39.5t-41 108.5v2q-102 -78 -177.5 -111.5t-153.5 -33.5q-93 0 -149 55t-56 147q0 182 201 297q129 73 407 131l8 45 q8 65 8 84q0 44 -19 63t-62 19q-133 0 -342 -127l-66 125q257 172 469 172q103 0 163 -53t60 -145q0 -58 -16 -146l-64 -358l-2 -6l-2 -23q-10 -51 -10 -74q0 -59 59 -59q15 0 33 6q4 2 12 2zM866 1169l-90 -96l-209 148l-280 -148l-64 109l357 233z" />
<glyph unicode="&#xe3;" horiz-adv-x="962" d="M547 293l31 178q-198 -56 -290.5 -115t-92.5 -131q0 -35 21.5 -56.5t57.5 -21.5q102 0 273 146zM836 139l2 -125q-84 -37 -154 -37q-72 0 -113 39.5t-41 108.5v2q-102 -78 -177.5 -111.5t-153.5 -33.5q-93 0 -149 55t-56 147q0 182 201 297q129 73 407 131l8 45 q8 65 8 84q0 44 -19 63t-62 19q-133 0 -342 -127l-66 125q257 172 469 172q103 0 163 -53t60 -145q0 -58 -16 -146l-64 -358l-2 -6l-2 -23q-10 -51 -10 -74q0 -59 59 -59q15 0 33 6q4 2 12 2zM782 1368l86 -92q-82 -80 -139 -113t-115 -33q-29 0 -53.5 9.5t-64.5 36.5 q-56 36 -95 36q-29 0 -60.5 -18t-90.5 -68l-84 95q142 139 250 139q47 0 110 -41q63 -39 101 -39q29 0 63.5 19.5t91.5 68.5z" />
<glyph unicode="&#xe4;" horiz-adv-x="962" d="M547 293l31 178q-198 -56 -290.5 -115t-92.5 -131q0 -35 21.5 -56.5t57.5 -21.5q102 0 273 146zM836 139l2 -125q-84 -37 -154 -37q-72 0 -113 39.5t-41 108.5v2q-102 -78 -177.5 -111.5t-153.5 -33.5q-93 0 -149 55t-56 147q0 182 201 297q129 73 407 131l8 45 q8 65 8 84q0 44 -19 63t-62 19q-133 0 -342 -127l-66 125q257 172 469 172q103 0 163 -53t60 -145q0 -58 -16 -146l-64 -358q-14 -77 -14 -103q0 -59 59 -59q14 0 50 10zM416 1348q42 0 71 -29t29 -70q0 -49 -34.5 -82.5t-84.5 -33.5q-43 0 -71.5 26.5t-28.5 67.5 q0 52 34 86.5t85 34.5zM805 1348q43 0 70.5 -28t27.5 -71q0 -51 -33 -83.5t-84 -32.5q-43 0 -71.5 27t-28.5 67q0 52 34 86.5t85 34.5z" />
<glyph unicode="&#xe5;" horiz-adv-x="962" d="M547 293l31 178q-198 -56 -290.5 -115t-92.5 -131q0 -35 21.5 -56.5t57.5 -21.5q102 0 273 146zM836 139l2 -125q-84 -37 -154 -37q-72 0 -113 39.5t-41 108.5v2q-102 -78 -177.5 -111.5t-153.5 -33.5q-93 0 -149 55t-56 147q0 182 201 297q129 73 407 131l8 45 q8 65 8 84q0 44 -19 63t-62 19q-133 0 -342 -127l-66 125q257 172 469 172q103 0 163 -53t60 -145q0 -58 -16 -146l-64 -358l-2 -6l-2 -23q-10 -51 -10 -74q0 -59 59 -59q15 0 33 6q4 2 12 2zM582 1419q70 0 115.5 -43.5t45.5 -111.5q0 -82 -54 -136.5t-134 -54.5 q-71 0 -117.5 44.5t-46.5 111.5q0 79 55.5 134.5t135.5 55.5zM573 1335q-41 0 -68.5 -28.5t-27.5 -69.5q0 -34 23.5 -57t58.5 -23q40 0 67 27.5t27 68.5q0 37 -22.5 59.5t-57.5 22.5z" />
<glyph unicode="&#xe6;" horiz-adv-x="1511" d="M1286 264l60 -117q-120 -95 -218 -134.5t-215 -39.5q-115 0 -187.5 44.5t-131.5 150.5q-129 -106 -212 -147t-169 -41q-100 0 -159.5 55t-59.5 147q0 161 150 263.5t456 152.5l6 43q10 59 10 96q0 44 -20.5 63t-67.5 19q-127 0 -333 -127l-64 125q133 91 243 132.5 t214 41.5q169 0 207 -137q72 73 144 106t161 33q145 0 232 -88.5t87 -234.5q0 -77 -14 -135l-14 -64h-615q-6 -47 -6 -98q0 -125 44 -178.5t147 -53.5q76 0 146.5 27t178.5 96zM809 600l418 10q4 47 4 66q0 86 -36.5 132t-104.5 46q-93 0 -168.5 -68.5t-112.5 -185.5z M563 303v37q0 34 12 123q-376 -89 -376 -248q0 -72 73 -72q54 0 137 46t154 114z" />
<glyph unicode="&#xe7;" horiz-adv-x="944" d="M485 -18l-159 -261l-119 33l110 230q-280 74 -280 393q0 174 74.5 314.5t206.5 220t296 79.5q156 0 291 -82l-82 -131q-105 51 -200 51q-99 0 -183.5 -60t-134 -163t-49.5 -223q0 -231 203 -231q128 0 293 108l65 -127q-94 -69 -172.5 -105t-159.5 -46z" />
<glyph unicode="&#xe8;" horiz-adv-x="1028" d="M291 602l444 10q4 43 4 62q0 176 -153 176q-95 0 -172 -64.5t-123 -183.5zM803 266l61 -119q-124 -91 -233 -131.5t-228 -40.5q-170 0 -269 101t-99 274q0 175 76.5 323t208.5 234t288 86q149 0 236.5 -90t87.5 -244q0 -59 -12 -137l-9 -51h-649q-10 -54 -10 -100 q0 -232 199 -232q140 0 352 127zM821 1169l-84 -92l-340 207l117 133z" />
<glyph unicode="&#xe9;" horiz-adv-x="1028" d="M291 602l444 10q4 43 4 62q0 176 -153 176q-95 0 -172 -64.5t-123 -183.5zM803 266l61 -119q-124 -91 -233 -131.5t-228 -40.5q-170 0 -269 101t-99 274q0 175 76.5 323t208.5 234t288 86q149 0 236.5 -90t87.5 -244q0 -59 -12 -137l-9 -51h-649q-10 -54 -10 -100 q0 -232 199 -232q140 0 352 127zM846 1264l-400 -187l-59 111l385 229z" />
<glyph unicode="&#xea;" horiz-adv-x="1028" d="M291 602l444 10q4 43 4 62q0 176 -153 176q-95 0 -172 -64.5t-123 -183.5zM803 266l61 -119q-124 -91 -233 -131.5t-228 -40.5q-170 0 -269 101t-99 274q0 175 76.5 323t208.5 234t288 86q149 0 236.5 -90t87.5 -244q0 -59 -12 -137l-9 -51h-649q-10 -54 -10 -100 q0 -232 199 -232q140 0 352 127zM895 1169l-90 -96l-209 148l-281 -148l-63 109l356 233z" />
<glyph unicode="&#xeb;" horiz-adv-x="1028" d="M291 602l444 10q4 43 4 62q0 176 -153 176q-95 0 -172 -64.5t-123 -183.5zM803 266l61 -119q-124 -91 -233 -131.5t-228 -40.5q-170 0 -269 101t-99 274q0 175 76.5 323t208.5 234t288 86q149 0 236.5 -90t87.5 -244q0 -59 -12 -137l-9 -51h-649q-10 -54 -10 -100 q0 -232 199 -232q140 0 352 127zM440 1348q43 0 72 -29t29 -70q0 -49 -34.5 -82.5t-84.5 -33.5q-43 0 -71.5 26.5t-28.5 67.5q0 52 33.5 86.5t84.5 34.5zM829 1348q43 0 71 -28t28 -71q0 -51 -33 -83.5t-84 -32.5q-43 0 -71.5 27t-28.5 67q0 52 33.5 86.5t84.5 34.5z" />
<glyph unicode="&#xec;" horiz-adv-x="481" d="M217 0h-197l170 963h197zM528 1169l-84 -92l-340 207l117 133z" />
<glyph unicode="&#xed;" horiz-adv-x="481" d="M217 0h-197l170 963h197zM543 1264l-400 -187l-59 111l385 229z" />
<glyph unicode="&#xee;" horiz-adv-x="481" d="M217 0h-197l170 963h197zM598 1169l-90 -96l-209 148l-281 -148l-63 109l356 233z" />
<glyph unicode="&#xef;" horiz-adv-x="481" d="M217 0h-197l170 963h197zM131 1348q43 0 71.5 -29t28.5 -70q0 -49 -34 -82.5t-84 -33.5q-43 0 -72 26.5t-29 67.5q0 52 34 86.5t85 34.5zM520 1348q43 0 70.5 -28t27.5 -71q0 -51 -32.5 -83.5t-83.5 -32.5q-43 0 -72 27t-29 67q0 52 34 86.5t85 34.5z" />
<glyph unicode="&#xf0;" horiz-adv-x="1052" d="M1061 1294l-154 -53q84 -145 84 -340q0 -133 -28.5 -275.5t-79.5 -258.5q-82 -190 -207.5 -290t-282.5 -100q-164 0 -262 113t-98 301q0 212 96 387q67 120 179.5 185t250.5 65q134 0 250 -70q-9 134 -70 228l-254 -86l-20 129l168 59q-119 75 -336 96l43 134 q304 -21 475 -166l219 75zM408 145h4q134 0 227.5 156.5t153.5 478.5q-109 88 -248 88q-78 0 -142.5 -40t-107.5 -115q-78 -143 -78 -310q0 -123 50 -190.5t141 -67.5z" />
<glyph unicode="&#xf1;" horiz-adv-x="1103" d="M848 0h-197l99 557l2 16l4 17q14 88 14 119q0 102 -100 102q-140 0 -340 -178l-113 -633h-197l170 963h193l-25 -140q123 95 207.5 132.5t175.5 37.5q110 0 172 -58.5t62 -164.5q0 -50 -17 -143zM883 1368l86 -92q-82 -80 -139 -113t-115 -33q-29 0 -54 9.5t-65 36.5 q-56 36 -94 36q-29 0 -61 -18t-91 -68l-84 95q142 139 250 139q48 0 111 -41q63 -39 100 -39q55 0 156 88z" />
<glyph unicode="&#xf2;" horiz-adv-x="1095" d="M602 993q175 0 281 -109t106 -290q0 -129 -43 -243.5t-116.5 -196.5t-177 -129.5t-220.5 -47.5q-175 0 -285 110.5t-110 285.5q0 171 74.5 313.5t204.5 224.5t286 82zM584 829q-136 0 -235 -127.5t-99 -302.5q0 -123 52.5 -188.5t150.5 -65.5q133 0 228 126.5t95 303.5 q0 124 -49 189t-143 65zM821 1169l-84 -92l-340 207l117 133z" />
<glyph unicode="&#xf3;" horiz-adv-x="1095" d="M602 993q175 0 281 -109t106 -290q0 -129 -43 -243.5t-116.5 -196.5t-177 -129.5t-220.5 -47.5q-175 0 -285 110.5t-110 285.5q0 171 74.5 313.5t204.5 224.5t286 82zM584 829q-136 0 -235 -127.5t-99 -302.5q0 -123 52.5 -188.5t150.5 -65.5q133 0 228 126.5t95 303.5 q0 124 -49 189t-143 65zM834 1264l-400 -187l-59 111l385 229z" />
<glyph unicode="&#xf4;" horiz-adv-x="1095" d="M602 993q175 0 281 -109t106 -290q0 -129 -43 -243.5t-116.5 -196.5t-177 -129.5t-220.5 -47.5q-175 0 -285 110.5t-110 285.5q0 171 74.5 313.5t204.5 224.5t286 82zM584 829q-136 0 -235 -127.5t-99 -302.5q0 -123 52.5 -188.5t150.5 -65.5q133 0 228 126.5t95 303.5 q0 124 -49 189t-143 65zM903 1169l-90 -96l-209 148l-280 -148l-64 109l356 233z" />
<glyph unicode="&#xf5;" horiz-adv-x="1095" d="M602 993q175 0 281 -109t106 -290q0 -129 -43 -243.5t-116.5 -196.5t-177 -129.5t-220.5 -47.5q-175 0 -285 110.5t-110 285.5q0 171 74.5 313.5t204.5 224.5t286 82zM584 829q-136 0 -235 -127.5t-99 -302.5q0 -123 52.5 -188.5t150.5 -65.5q133 0 228 126.5t95 303.5 q0 124 -49 189t-143 65zM860 1368l86 -92q-82 -80 -139 -113t-115 -33q-29 0 -54 9.5t-65 36.5q-56 36 -94 36q-28 0 -59 -18t-92 -68l-84 95q76 73 135 106t115 33q47 0 110 -41q66 -39 101 -39q29 0 63.5 19.5t91.5 68.5z" />
<glyph unicode="&#xf6;" horiz-adv-x="1095" d="M602 993q175 0 281 -109t106 -290q0 -129 -43 -243.5t-116.5 -196.5t-177 -129.5t-220.5 -47.5q-175 0 -285 110.5t-110 285.5q0 171 74.5 313.5t204.5 224.5t286 82zM584 829q-136 0 -235 -127.5t-99 -302.5q0 -123 52.5 -188.5t150.5 -65.5q133 0 228 126.5t95 303.5 q0 124 -49 189t-143 65zM442 1348q43 0 72 -29t29 -70q0 -49 -34.5 -82.5t-84.5 -33.5q-43 0 -71.5 26.5t-28.5 67.5q0 52 33.5 86.5t84.5 34.5zM831 1348q43 0 71 -28t28 -71q0 -51 -33 -83.5t-84 -32.5q-43 0 -71.5 27t-28.5 67q0 52 33.5 86.5t84.5 34.5z" />
<glyph unicode="&#xf7;" d="M547 1085q53 0 95 -41.5t42 -93.5t-41 -93.5t-94 -41.5q-54 0 -94.5 40.5t-40.5 94.5q0 52 41 93.5t92 41.5zM547 268q53 0 95 -41.5t42 -93.5q0 -53 -41 -94t-94 -41q-54 0 -94.5 40.5t-40.5 94.5q0 52 41 93.5t92 41.5zM1028 473h-956v150h956v-150z" />
<glyph unicode="&#xf8;" horiz-adv-x="1130" d="M791 641l-474 -428q56 -68 154 -68q134 0 229 127.5t95 305.5q0 43 -4 63zM272 334l478 428q-50 67 -150 67q-133 0 -232.5 -128t-99.5 -300q0 -17 4 -67zM1085 905l-120 -108q43 -100 43 -199q0 -175 -72 -317t-200 -223t-285 -81q-163 0 -279 105l-119 -107l-80 88 l127 115q-43 82 -43 193q0 173 74.5 316t204.5 224.5t289 81.5q84 0 146.5 -24t121.5 -78l115 102z" />
<glyph unicode="&#xf9;" horiz-adv-x="1105" d="M844 0h-197l27 143q-193 -166 -371 -166q-109 0 -175.5 62.5t-66.5 163.5q0 48 19 159l106 601h197l-96 -547q-21 -118 -21 -158q0 -94 105 -94q146 0 338 180l108 619h197zM821 1169l-84 -92l-340 207l117 133z" />
<glyph unicode="&#xfa;" horiz-adv-x="1105" d="M844 0h-197l27 143q-193 -166 -371 -166q-109 0 -175.5 62.5t-66.5 163.5q0 48 19 159l106 601h197l-96 -547q-21 -118 -21 -158q0 -94 105 -94q146 0 338 180l108 619h197zM862 1264l-399 -187l-60 111l385 229z" />
<glyph unicode="&#xfb;" horiz-adv-x="1105" d="M844 0h-197l27 143q-193 -166 -371 -166q-109 0 -175.5 62.5t-66.5 163.5q0 48 19 159l106 601h197l-96 -547q-21 -118 -21 -158q0 -94 105 -94q146 0 338 180l108 619h197zM909 1169l-90 -96l-209 148l-280 -148l-64 109l357 233z" />
<glyph unicode="&#xfc;" horiz-adv-x="1105" d="M844 0h-197l27 143q-193 -166 -371 -166q-109 0 -175.5 62.5t-66.5 163.5q0 48 19 159l106 601h197l-96 -547q-21 -118 -21 -158q0 -94 105 -94q146 0 338 180l108 619h197zM444 1348q43 0 72 -29t29 -70q0 -49 -34.5 -82.5t-84.5 -33.5q-43 0 -71.5 26.5t-28.5 67.5 q0 52 33.5 86.5t84.5 34.5zM834 1348q43 0 70.5 -28t27.5 -71q0 -51 -33 -83.5t-84 -32.5q-43 0 -71.5 27t-28.5 67q0 52 34 86.5t85 34.5z" />
<glyph unicode="&#xfd;" horiz-adv-x="1007" d="M1028 963l-676 -1153q-107 -184 -184.5 -244t-206.5 -60q-102 0 -172 25l61 141q51 -10 101 -10q61 0 107.5 41t111.5 150l90 153l-213 957h207l149 -744l418 744h207zM831 1264l-399 -187l-59 111l385 229z" />
<glyph unicode="&#xfe;" horiz-adv-x="1136" d="M240 129l-107 -602h-196l342 1935h188l-113 -637q186 166 353 166q145 0 236 -105.5t91 -271.5q0 -124 -39 -244.5t-108 -211.5q-141 -185 -357 -185q-96 0 -166 38t-124 118zM330 639l-60 -340q84 -156 240 -156q79 0 144.5 52t109.5 151q55 123 55 250q0 213 -172 213 q-153 0 -317 -170z" />
<glyph unicode="&#xff;" horiz-adv-x="1007" d="M1028 963l-676 -1153q-107 -184 -184.5 -244t-206.5 -60q-102 0 -172 25l61 141q51 -10 101 -10q61 0 107.5 41t111.5 150l90 153l-213 957h207l149 -744l418 744h207zM360 1348q43 0 72 -29t29 -70q0 -49 -34.5 -82.5t-84.5 -33.5q-43 0 -71.5 26.5t-28.5 67.5 q0 52 33.5 86.5t84.5 34.5zM750 1348q43 0 70.5 -28t27.5 -71q0 -51 -33 -83.5t-84 -32.5q-43 0 -71.5 27t-28.5 67q0 52 34 86.5t85 34.5z" />
<glyph unicode="&#x100;" horiz-adv-x="1380" d="M1247 0h-227l-100 451h-549l-260 -451h-220l805 1366h228zM887 610l-121 539l-305 -539h426zM1114 1522h-604l14 147h606z" />
<glyph unicode="&#x101;" horiz-adv-x="962" d="M547 293l31 178q-198 -56 -290.5 -115t-92.5 -131q0 -35 21.5 -56.5t57.5 -21.5q102 0 273 146zM836 139l2 -125q-84 -37 -154 -37q-72 0 -113 39.5t-41 108.5v2q-102 -78 -177.5 -111.5t-153.5 -33.5q-93 0 -149 55t-56 147q0 182 201 297q129 73 407 131l8 45 q8 65 8 84q0 44 -19 63t-62 19q-133 0 -342 -127l-66 125q257 172 469 172q103 0 163 -53t60 -145q0 -58 -16 -146l-64 -358l-2 -6l-2 -23q-10 -51 -10 -74q0 -59 59 -59q15 0 33 6q4 2 12 2zM815 1167h-545l25 148h545z" />
<glyph unicode="&#x102;" horiz-adv-x="1380" d="M1247 0h-227l-100 451h-549l-260 -451h-220l805 1366h228zM887 610l-121 539l-305 -539h426zM975 1749h133q-1 -112 -85 -184t-212 -72t-212 72t-87 184h135q23 -123 166 -123q139 0 162 123z" />
<glyph unicode="&#x103;" horiz-adv-x="962" d="M547 293l31 178q-198 -56 -290.5 -115t-92.5 -131q0 -35 21.5 -56.5t57.5 -21.5q102 0 273 146zM836 139l2 -125q-84 -37 -154 -37q-72 0 -113 39.5t-41 108.5v2q-102 -78 -177.5 -111.5t-153.5 -33.5q-93 0 -149 55t-56 147q0 182 201 297q129 73 407 131l8 45 q8 65 8 84q0 44 -19 63t-62 19q-133 0 -342 -127l-66 125q257 172 469 172q103 0 163 -53t60 -145q0 -58 -16 -146l-64 -358l-2 -6l-2 -23q-10 -51 -10 -74q0 -59 59 -59q15 0 33 6q4 2 12 2zM709 1372h129q-10 -70 -32 -112t-65 -78q-81 -66 -209 -66q-114 0 -185 60 t-71 155q0 6 5 41h131v-2v-2v-2v-2v-2q0 -57 31 -83t98 -26q69 0 109 28t59 91z" />
<glyph unicode="&#x104;" horiz-adv-x="1380" d="M920 -236q0 117 151 236h-51l-100 451h-549l-260 -451h-220l805 1366h228l323 -1366q-27 -21 -44 -36t-44.5 -42.5t-42 -55t-14.5 -52.5q0 -33 18.5 -46.5t42.5 -13.5q40 0 84 10l2 -124q-4 -2 -16.5 -7t-17 -6.5t-16 -6t-18.5 -6t-19 -4.5t-22 -4t-23 -2t-27 -1 q-27 0 -53 6.5t-54 22t-45.5 50t-17.5 82.5zM887 610l-121 539l-305 -539h426z" />
<glyph unicode="&#x105;" horiz-adv-x="962" d="M836 139l2 -125q-215 -117 -215 -200q0 -33 18.5 -46.5t42.5 -13.5q40 0 84 10l2 -124q-2 -1 -16 -6.5t-17.5 -7t-16.5 -6t-19 -6t-18.5 -4.5t-22 -4t-23 -2t-27.5 -1q-27 0 -53 6.5t-54 22t-45.5 50t-17.5 82.5q0 67 43 122.5t117 109.5q-70 36 -70 129v2 q-102 -78 -177.5 -111.5t-153.5 -33.5q-93 0 -149 55t-56 147q0 182 201 297q129 73 407 131l8 45q8 65 8 84q0 44 -19 63t-62 19q-133 0 -342 -127l-66 125q257 172 469 172q103 0 163 -53t60 -145q0 -58 -16 -146l-64 -358q-14 -82 -14 -103q0 -59 59 -59q32 0 50 10z M547 293l31 178q-198 -56 -290.5 -115t-92.5 -131q0 -35 21.5 -56.5t57.5 -21.5q102 0 273 146z" />
<glyph unicode="&#x106;" horiz-adv-x="1333" d="M1149 260l51 -154q-242 -137 -510 -137q-275 0 -441.5 156.5t-166.5 413.5q0 182 70.5 341t192 272t293 178t366.5 65q101 0 185.5 -18t194.5 -64l-81 -156q-146 60 -316 60q-137 0 -262 -51t-215 -137t-143.5 -205.5t-53.5 -250.5q0 -196 114.5 -307.5t317.5 -111.5 q96 0 190.5 24.5t213.5 81.5zM1217 1653l-400 -187l-59 111l385 229z" />
<glyph unicode="&#x107;" horiz-adv-x="944" d="M752 260l65 -127q-122 -87 -213.5 -122.5t-193.5 -35.5q-172 0 -272.5 108.5t-100.5 293.5q0 174 75 314.5t207 220t295 79.5q156 0 291 -82l-82 -131q-105 51 -200 51q-99 0 -183.5 -60t-134 -163t-49.5 -223q0 -231 203 -231q128 0 293 108zM868 1264l-399 -187 l-59 111l385 229z" />
<glyph unicode="&#x108;" horiz-adv-x="1333" d="M1149 260l51 -154q-242 -137 -510 -137q-275 0 -441.5 156.5t-166.5 413.5q0 182 70.5 341t192 272t293 178t366.5 65q101 0 185.5 -18t194.5 -64l-81 -156q-146 60 -316 60q-137 0 -262 -51t-215 -137t-143.5 -205.5t-53.5 -250.5q0 -196 114.5 -307.5t317.5 -111.5 q96 0 190.5 24.5t213.5 81.5zM1284 1569l-90 -96l-209 147l-280 -147l-64 108l356 234z" />
<glyph unicode="&#x109;" horiz-adv-x="944" d="M752 260l65 -127q-122 -87 -213.5 -122.5t-193.5 -35.5q-172 0 -272.5 108.5t-100.5 293.5q0 174 75 314.5t207 220t295 79.5q156 0 291 -82l-82 -131q-105 51 -200 51q-99 0 -183.5 -60t-134 -163t-49.5 -223q0 -231 203 -231q128 0 293 108zM905 1169l-90 -96l-209 148 l-280 -148l-64 109l356 233z" />
<glyph unicode="&#x10a;" horiz-adv-x="1333" d="M1149 260l51 -154q-242 -137 -510 -137q-275 0 -441.5 156.5t-166.5 413.5q0 182 70.5 341t192 272t293 178t366.5 65q101 0 185.5 -18t194.5 -64l-81 -156q-146 60 -316 60q-137 0 -262 -51t-215 -137t-143.5 -205.5t-53.5 -250.5q0 -196 114.5 -307.5t317.5 -111.5 q96 0 190.5 24.5t213.5 81.5zM940 1751q46 0 79.5 -34t33.5 -81t-34 -80.5t-81 -33.5t-81 33.5t-34 80.5q0 48 34 81.5t83 33.5z" />
<glyph unicode="&#x10b;" horiz-adv-x="944" d="M752 260l65 -127q-122 -87 -213.5 -122.5t-193.5 -35.5q-172 0 -272.5 108.5t-100.5 293.5q0 174 75 314.5t207 220t295 79.5q156 0 291 -82l-82 -131q-105 51 -200 51q-99 0 -183.5 -60t-134 -163t-49.5 -223q0 -231 203 -231q128 0 293 108zM616 1348q43 0 71 -28 t28 -69q0 -51 -33 -84.5t-84 -33.5q-44 0 -72 26.5t-28 67.5q0 52 33.5 86.5t84.5 34.5z" />
<glyph unicode="&#x10c;" horiz-adv-x="1333" d="M1149 260l51 -154q-242 -137 -510 -137q-275 0 -441.5 156.5t-166.5 413.5q0 182 70.5 341t192 272t293 178t366.5 65q101 0 185.5 -18t194.5 -64l-81 -156q-146 60 -316 60q-137 0 -262 -51t-215 -137t-143.5 -205.5t-53.5 -250.5q0 -196 114.5 -307.5t317.5 -111.5 q96 0 190.5 24.5t213.5 81.5zM649 1718l90 97l209 -146l281 146l63 -109l-356 -233z" />
<glyph unicode="&#x10d;" horiz-adv-x="944" d="M752 260l65 -127q-122 -87 -213.5 -122.5t-193.5 -35.5q-172 0 -272.5 108.5t-100.5 293.5q0 174 75 314.5t207 220t295 79.5q156 0 291 -82l-82 -131q-105 51 -200 51q-99 0 -183.5 -60t-134 -163t-49.5 -223q0 -231 203 -231q128 0 293 108zM295 1319l90 96l209 -145 l280 145l64 -108l-356 -234z" />
<glyph unicode="&#x10e;" horiz-adv-x="1470" d="M281 1366h370q214 0 338 -31q188 -44 294 -183t106 -341q0 -187 -83.5 -356t-230.5 -277q-132 -99 -281 -138.5t-393 -39.5h-362zM287 176h184q235 0 391 90q145 83 223 221t78 310q0 206 -119 302.5t-374 96.5h-203zM469 1718l90 97l209 -146l281 146l63 -109l-356 -233 z" />
<glyph unicode="&#x10f;" horiz-adv-x="1300" d="M750 336l53 301q-79 184 -238 184q-130 0 -223.5 -126.5t-93.5 -301.5q0 -239 176 -239q153 0 326 182zM1145 1462l-258 -1462h-193l25 139q-92 -87 -174 -125.5t-176 -38.5q-159 0 -247.5 99t-88.5 276q0 128 40.5 251t112.5 214q143 178 359 178q97 0 166.5 -38.5 t126.5 -123.5l110 631h197zM1409 1462l-121 -338h-121l60 338h182z" />
<glyph unicode="&#x110;" horiz-adv-x="1480" d="M193 799l100 567h371q213 0 337 -31q188 -44 294 -183t106 -341q0 -196 -91 -369t-253 -286q-124 -86 -268.5 -121t-374.5 -35h-363l113 633h-215l28 166h216zM748 799l-29 -166h-338l-82 -457h184q162 0 283 41q191 66 300.5 221t109.5 359q0 206 -119.5 302.5 t-374.5 96.5h-203l-69 -397h338z" />
<glyph unicode="&#x111;" horiz-adv-x="1146" d="M1145 1462l-33 -186h121l-25 -137h-121l-200 -1139h-193l25 139q-92 -87 -174 -125.5t-176 -38.5q-159 0 -247.5 99t-88.5 276q0 128 40.5 251t112.5 214q143 178 359 178q97 0 166.5 -38.5t126.5 -123.5l53 308h-297l24 137h297l33 186h197zM750 336l53 301 q-79 184 -238 184q-130 0 -223.5 -126.5t-93.5 -301.5q0 -239 176 -239q153 0 326 182z" />
<glyph unicode="&#x112;" horiz-adv-x="1085" d="M879 0h-840l244 1366h798l-30 -170h-584l-70 -399h553l-28 -166h-553l-80 -453h622zM1004 1522h-607l17 147h604z" />
<glyph unicode="&#x113;" horiz-adv-x="1028" d="M291 602l444 10q4 43 4 62q0 176 -153 176q-95 0 -172 -64.5t-123 -183.5zM803 266l61 -119q-124 -91 -233 -131.5t-228 -40.5q-170 0 -269 101t-99 274q0 175 76.5 323t208.5 234t288 86q149 0 236.5 -90t87.5 -244q0 -59 -12 -137l-9 -51h-649q-10 -54 -10 -100 q0 -232 199 -232q140 0 352 127zM844 1167h-545l25 148h544z" />
<glyph unicode="&#x114;" horiz-adv-x="1085" d="M879 0h-840l244 1366h798l-30 -170h-584l-70 -399h553l-28 -166h-553l-80 -453h622zM868 1749h136q-3 -113 -86.5 -184.5t-212.5 -71.5q-128 0 -212 72t-85 184h135q21 -123 164 -123q141 0 161 123z" />
<glyph unicode="&#x115;" horiz-adv-x="1028" d="M291 602l444 10q4 43 4 62q0 176 -153 176q-95 0 -172 -64.5t-123 -183.5zM803 266l61 -119q-124 -91 -233 -131.5t-228 -40.5q-170 0 -269 101t-99 274q0 175 76.5 323t208.5 234t288 86q149 0 236.5 -90t87.5 -244q0 -59 -12 -137l-9 -51h-649q-10 -54 -10 -100 q0 -232 199 -232q140 0 352 127zM756 1372h129q-10 -69 -32.5 -111.5t-66.5 -78.5q-78 -66 -206 -66q-114 0 -185 60t-71 155q0 9 4 41h131v-2v-2v-2v-2v-2q0 -57 31 -83t98 -26q69 0 108.5 28t59.5 91z" />
<glyph unicode="&#x116;" horiz-adv-x="1085" d="M879 0h-840l244 1366h798l-30 -170h-584l-70 -399h553l-28 -166h-553l-80 -453h622zM694 1751q46 0 79.5 -34t33.5 -81t-34 -80.5t-81 -33.5t-80.5 33.5t-33.5 80.5q0 48 33.5 81.5t82.5 33.5z" />
<glyph unicode="&#x117;" horiz-adv-x="1028" d="M291 602l444 10q4 43 4 62q0 176 -153 176q-95 0 -172 -64.5t-123 -183.5zM803 266l61 -119q-124 -91 -233 -131.5t-228 -40.5q-170 0 -269 101t-99 274q0 175 76.5 323t208.5 234t288 86q149 0 236.5 -90t87.5 -244q0 -59 -12 -137l-9 -51h-649q-10 -54 -10 -100 q0 -232 199 -232q140 0 352 127zM614 1348q43 0 71 -28t28 -69q0 -51 -33 -84.5t-84 -33.5q-44 0 -72 26.5t-28 67.5q0 52 33.5 86.5t84.5 34.5z" />
<glyph unicode="&#x118;" horiz-adv-x="1085" d="M551 -236q0 117 151 236h-663l244 1366h798l-30 -170h-584l-70 -399h553l-28 -166h-553l-80 -453h622l-32 -178q-28 -22 -44.5 -36.5t-44.5 -42t-42.5 -55t-14.5 -52.5q0 -33 19 -46.5t43 -13.5q40 0 84 10l2 -124q-2 -1 -16 -6.5t-17.5 -7t-16.5 -6t-19 -6t-18.5 -4.5 t-22 -4t-23 -2t-27.5 -1q-27 0 -53 6.5t-54 22t-45.5 50t-17.5 82.5z" />
<glyph unicode="&#x119;" horiz-adv-x="1028" d="M803 266l61 -119q-21 -27 -53.5 -69.5t-47.5 -62.5t-37 -50t-32 -46.5t-20.5 -37.5t-14.5 -36.5t-4 -30.5q0 -33 19 -46.5t43 -13.5q40 0 84 10l2 -124q-2 -1 -16 -6.5t-17.5 -7t-16.5 -6t-19 -6t-18.5 -4.5t-22 -4t-23 -2t-27.5 -1q-27 0 -53 6.5t-54 22t-45.5 50 t-17.5 82.5q0 117 152 250q-107 -39 -222 -39q-170 0 -269 101t-99 274q0 175 76.5 323t208.5 234t288 86q149 0 236.5 -90t87.5 -244q0 -59 -12 -137l-9 -51h-649q-10 -54 -10 -100q0 -232 199 -232q140 0 352 127zM291 602l444 10q4 43 4 62q0 176 -153 176 q-95 0 -172 -64.5t-123 -183.5z" />
<glyph unicode="&#x11a;" horiz-adv-x="1085" d="M879 0h-840l244 1366h798l-30 -170h-584l-70 -399h553l-28 -166h-553l-80 -453h622zM414 1718l90 97l209 -146l280 146l64 -109l-357 -233z" />
<glyph unicode="&#x11b;" horiz-adv-x="1028" d="M291 602l444 10q4 43 4 62q0 176 -153 176q-95 0 -172 -64.5t-123 -183.5zM803 266l61 -119q-124 -91 -233 -131.5t-228 -40.5q-170 0 -269 101t-99 274q0 175 76.5 323t208.5 234t288 86q149 0 236.5 -90t87.5 -244q0 -59 -12 -137l-9 -51h-649q-10 -54 -10 -100 q0 -232 199 -232q140 0 352 127zM301 1319l90 96l209 -145l281 145l63 -108l-356 -234z" />
<glyph unicode="&#x11c;" horiz-adv-x="1415" d="M1294 653l-102 -585q-130 -54 -242 -77.5t-235 -23.5q-289 0 -461 155t-172 415q0 180 71 338.5t193.5 271.5t294.5 178.5t367 65.5q219 0 389 -78l-82 -156q-160 60 -311 60q-193 0 -352 -85.5t-250 -234.5t-91 -330q0 -198 116 -313t316 -115q122 0 256 45l82 469h213z M1266 1569l-90 -96l-209 147l-281 -147l-63 108l356 234z" />
<glyph unicode="&#x11d;" horiz-adv-x="1079" d="M309 -6q-120 -35 -175.5 -83t-55.5 -116q0 -139 256 -139q173 0 285 54.5t112 139.5q0 45 -39 67.5t-133 31.5q-131 16 -250 45zM557 854q-101 0 -172.5 -85t-71.5 -206q0 -78 42 -120t120 -42q101 0 172.5 82.5t71.5 200.5q0 80 -43 125t-119 45zM1049 821h-179 q45 -51 45 -137q0 -110 -61 -210t-162.5 -160t-212.5 -60q-89 0 -147 22q-62 -69 -78 -92q60 -24 136.5 -38t254.5 -35q158 -20 229.5 -72.5t71.5 -149.5q0 -108 -81 -195t-224.5 -136.5t-321.5 -49.5q-204 0 -323 71t-119 192q0 186 270 276q-39 13 -45 16 q-40 12 -55.5 23.5t-15.5 30.5l-2 2q0 27 77 104l15 15l74 77l12 15q-88 91 -88 221q0 184 137 313t332 129q100 0 168 -30h317zM897 1169l-90 -96l-209 148l-281 -148l-63 109l356 233z" />
<glyph unicode="&#x11e;" horiz-adv-x="1415" d="M1294 653l-102 -585q-130 -54 -242 -77.5t-235 -23.5q-289 0 -461 155t-172 415q0 180 71 338.5t193.5 271.5t294.5 178.5t367 65.5q219 0 389 -78l-82 -156q-160 60 -311 60q-193 0 -352 -85.5t-250 -234.5t-91 -330q0 -198 116 -313t316 -115q122 0 256 45l82 469h213z M1122 1749h135q-3 -113 -86 -184.5t-210 -71.5q-129 0 -212.5 71.5t-86.5 184.5h135q21 -123 164 -123q141 0 161 123z" />
<glyph unicode="&#x11f;" horiz-adv-x="1079" d="M309 -6q-120 -35 -175.5 -83t-55.5 -116q0 -139 256 -139q173 0 285 54.5t112 139.5q0 45 -39 67.5t-133 31.5q-131 16 -250 45zM557 854q-101 0 -172.5 -85t-71.5 -206q0 -78 42 -120t120 -42q101 0 172.5 82.5t71.5 200.5q0 80 -43 125t-119 45zM1049 821h-179 q45 -51 45 -137q0 -110 -61 -210t-162.5 -160t-212.5 -60q-89 0 -147 22q-62 -69 -78 -92q60 -24 136.5 -38t254.5 -35q158 -20 229.5 -72.5t71.5 -149.5q0 -108 -81 -195t-224.5 -136.5t-321.5 -49.5q-204 0 -323 71t-119 192q0 186 270 276q-39 13 -45 16 q-40 12 -55.5 23.5t-15.5 30.5l-2 2q0 27 77 104l15 15l74 77l12 15q-88 91 -88 221q0 184 137 313t332 129q100 0 168 -30h317zM760 1372h129q-10 -70 -32.5 -112t-65.5 -78q-78 -66 -207 -66q-114 0 -185 60t-71 155q0 17 4 41h131v-2v-2v-2v-2v-2q0 -57 30.5 -83 t96.5 -26q70 0 110 28t60 91z" />
<glyph unicode="&#x120;" horiz-adv-x="1415" d="M1294 653l-102 -585q-130 -54 -242 -77.5t-235 -23.5q-289 0 -461 155t-172 415q0 180 71 338.5t193.5 271.5t294.5 178.5t367 65.5q219 0 389 -78l-82 -156q-160 60 -311 60q-193 0 -352 -85.5t-250 -234.5t-91 -330q0 -198 116 -313t316 -115q122 0 256 45l82 469h213z M934 1751q46 0 79.5 -34t33.5 -81t-34 -80.5t-81 -33.5t-81 33.5t-34 80.5q0 48 34 81.5t83 33.5z" />
<glyph unicode="&#x121;" horiz-adv-x="1079" d="M309 -6q-120 -35 -175.5 -83t-55.5 -116q0 -139 256 -139q173 0 285 54.5t112 139.5q0 45 -39 67.5t-133 31.5q-131 16 -250 45zM557 854q-101 0 -172.5 -85t-71.5 -206q0 -78 42 -120t120 -42q101 0 172.5 82.5t71.5 200.5q0 80 -43 125t-119 45zM1049 821h-179 q45 -51 45 -137q0 -110 -61 -210t-162.5 -160t-212.5 -60q-89 0 -147 22q-62 -69 -78 -92q60 -24 136.5 -38t254.5 -35q158 -20 229.5 -72.5t71.5 -149.5q0 -108 -81 -195t-224.5 -136.5t-321.5 -49.5q-204 0 -323 71t-119 192q0 186 270 276q-39 13 -45 16 q-40 12 -55.5 23.5t-15.5 30.5l-2 2q0 27 77 104l15 15l74 77l12 15q-88 91 -88 221q0 184 137 313t332 129q100 0 168 -30h317zM600 1348q42 0 70 -28t28 -69q0 -51 -32.5 -84.5t-83.5 -33.5q-44 0 -72.5 26.5t-28.5 67.5q0 52 34 86.5t85 34.5z" />
<glyph unicode="&#x122;" horiz-adv-x="1415" d="M1294 653l-102 -585q-130 -54 -242 -77.5t-235 -23.5q-289 0 -461 155t-172 415q0 180 71 338.5t193.5 271.5t294.5 178.5t367 65.5q219 0 389 -78l-82 -156q-160 60 -311 60q-193 0 -352 -85.5t-250 -234.5t-91 -330q0 -198 116 -313t316 -115q122 0 256 45l82 469h213z M788 -84l-126 -391h-123l67 391h182z" />
<glyph unicode="&#x123;" horiz-adv-x="1079" d="M309 -6q-120 -35 -175.5 -83t-55.5 -116q0 -139 256 -139q173 0 285 54.5t112 139.5q0 45 -39 67.5t-133 31.5q-131 16 -250 45zM557 854q-101 0 -172.5 -85t-71.5 -206q0 -78 42 -120t120 -42q101 0 172.5 82.5t71.5 200.5q0 80 -43 125t-119 45zM1049 821h-179 q45 -51 45 -137q0 -110 -61 -210t-162.5 -160t-212.5 -60q-89 0 -147 22q-62 -69 -78 -92q60 -24 136.5 -38t254.5 -35q158 -20 229.5 -72.5t71.5 -149.5q0 -108 -81 -195t-224.5 -136.5t-321.5 -49.5q-204 0 -323 71t-119 192q0 186 270 276q-39 13 -45 16 q-40 12 -55.5 23.5t-15.5 30.5l-2 2q0 27 77 104l15 15l74 77l12 15q-88 91 -88 221q0 184 137 313t332 129q100 0 168 -30h317zM481 1124l119 338h123l-59 -338h-183z" />
<glyph unicode="&#x124;" horiz-adv-x="1433" d="M1153 0h-217l113 635h-680l-113 -635h-217l242 1366h217l-101 -567h680l101 567h217zM1153 1569l-90 -96l-209 147l-281 -147l-63 108l356 234z" />
<glyph unicode="&#x125;" horiz-adv-x="1120" d="M864 0h-196l112 635q8 58 8 74q0 100 -100 100q-152 0 -360 -184l-111 -625h-197l259 1462h196l-110 -633q119 86 209 124t178 38q109 0 175 -57.5t66 -151.5q0 -66 -10 -114zM776 1569l-90 -96l-209 147l-280 -147l-64 108l356 234z" />
<glyph unicode="&#x126;" horiz-adv-x="1433" d="M1341 1063l-188 -1063h-217l113 635h-680l-113 -635h-217l188 1063h-159l28 147h156l29 156h217l-29 -156h680l29 156h217l-29 -156h166l-29 -147h-162zM1124 1063h-680l-47 -264h680z" />
<glyph unicode="&#x127;" horiz-adv-x="1120" d="M424 1167l-59 -338q119 86 209 124t178 38q109 0 175 -57.5t66 -151.5q0 -66 -10 -114l-119 -668h-196l112 635q8 58 8 74q0 100 -100 100q-152 0 -360 -184l-111 -625h-197l207 1167h-90l25 148h90l27 147h196l-26 -147h258l-25 -148h-258z" />
<glyph unicode="&#x128;" horiz-adv-x="538" d="M258 0h-219l242 1366h219zM670 1755l86 -92q-82 -80 -139 -112.5t-115 -32.5q-29 0 -54 9.5t-65 35.5q-56 36 -94 36q-28 0 -60 -18t-92 -68l-84 95q76 73 135 106t115 33q48 0 111 -41q66 -39 100 -39q55 0 156 88z" />
<glyph unicode="&#x129;" horiz-adv-x="481" d="M217 0h-197l170 963h197zM569 1368l86 -92q-82 -80 -139 -113t-115 -33q-29 0 -53.5 9.5t-64.5 36.5q-56 36 -95 36q-29 0 -60.5 -18t-90.5 -68l-84 95q142 139 250 139q47 0 110 -41q63 -39 99 -39q56 0 157 88z" />
<glyph unicode="&#x12a;" horiz-adv-x="538" d="M258 0h-219l242 1366h219zM696 1522h-604l14 147h607z" />
<glyph unicode="&#x12b;" horiz-adv-x="481" d="M217 0h-197l170 963h197zM569 1167h-544l24 148h545z" />
<glyph unicode="&#x12c;" horiz-adv-x="538" d="M258 0h-219l242 1366h219zM573 1749h136q-1 -112 -85 -184t-212 -72q-129 0 -212.5 71.5t-86.5 184.5h135q20 -123 164 -123q72 0 111 30t50 93z" />
<glyph unicode="&#x12d;" horiz-adv-x="481" d="M217 0h-197l170 963h197zM465 1372h129q-12 -71 -33.5 -113t-64.5 -77q-81 -66 -207 -66q-114 0 -185 60t-71 155q0 17 4 41h131v-2v-2v-2v-2v-2q0 -57 30.5 -83t96.5 -26q69 0 109.5 28t60.5 91z" />
<glyph unicode="&#x12e;" horiz-adv-x="538" d="M109 0h-70l242 1366h219l-242 -1366h-78l86 -45q-89 -28 -139.5 -60t-50.5 -61q0 -12 12 -20.5t27 -8.5q46 0 129 35l35 -80q-119 -61 -193 -61q-59 0 -93 30.5t-34 82.5q0 110 150 188z" />
<glyph unicode="&#x12f;" horiz-adv-x="481" d="M100 0h-80l170 963h197l-170 -963h-45l86 -45q-89 -28 -139.5 -60t-50.5 -61q0 -12 11.5 -20.5t26.5 -8.5q47 0 130 35l34 -80q-119 -61 -192 -61q-59 0 -93 30.5t-34 82.5q0 110 149 188zM356 1395q48 0 78.5 -30t30.5 -79q0 -56 -35.5 -91.5t-91.5 -35.5 q-47 0 -79 30.5t-32 74.5q0 57 36.5 94t92.5 37z" />
<glyph unicode="&#x130;" horiz-adv-x="538" d="M258 0h-219l242 1366h219zM416 1751q46 0 79 -34t33 -81t-33.5 -80.5t-80.5 -33.5t-81 33.5t-34 80.5q0 48 34 81.5t83 33.5z" />
<glyph unicode="&#x131;" horiz-adv-x="481" d="M217 0h-197l170 963h197z" />
<glyph unicode="&#x132;" horiz-adv-x="1159" d="M258 0h-219l242 1366h219zM1126 1366l-147 -850q-13 -95 -31.5 -165t-49.5 -128t-71.5 -97t-100.5 -69.5t-134.5 -50.5t-175.5 -35l-8 164q179 41 245 99t95 200l163 932h215z" />
<glyph unicode="&#x133;" horiz-adv-x="874" d="M217 0h-197l170 963h197zM356 1395q48 0 78.5 -30t30.5 -79q0 -56 -35.5 -91.5t-91.5 -35.5q-47 0 -79 30.5t-32 74.5q0 57 36.5 94t92.5 37zM797 963l-172 -975q-35 -228 -137.5 -336.5t-317.5 -145.5l-23 152q134 41 191.5 103t83.5 194l178 1008h197zM766 1395 q48 0 78 -30t30 -79q0 -56 -35.5 -91.5t-90.5 -35.5q-47 0 -79 30.5t-32 74.5q0 57 36.5 94t92.5 37z" />
<glyph unicode="&#x134;" horiz-adv-x="675" d="M643 1366l-149 -850q-19 -143 -52.5 -234t-100 -155t-162 -98.5t-247.5 -57.5l-8 164q179 41 245 99t95 200l164 932h215zM866 1569l-90 -96l-209 147l-280 -147l-64 108l357 234z" />
<glyph unicode="&#x135;" horiz-adv-x="483" d="M215 -49v2q-37 -206 -140 -309t-308 -138l-23 152q133 40 191 103t83 194v-6q80 457 179 1014h196l-172 -975q-6 -24 -6 -35v-4v2zM623 1169l-91 -96l-208 148l-281 -148l-63 109l356 233z" />
<glyph unicode="&#x136;" horiz-adv-x="1304" d="M1159 0h-285l-495 692l-123 -692h-217l242 1366h217l-105 -596l682 596h285l-746 -639zM629 -84l-129 -391h-123l69 391h183z" />
<glyph unicode="&#x137;" horiz-adv-x="1021" d="M877 0h-244l-328 498l-88 -498h-197l259 1462h196l-160 -903l451 404h270l-514 -445zM489 -84l-118 -338h-123l59 338h182z" />
<glyph unicode="&#x139;" horiz-adv-x="997" d="M846 0h-807l242 1366h217l-209 -1188h590zM762 1653l-400 -187l-59 111l385 229z" />
<glyph unicode="&#x13a;" horiz-adv-x="483" d="M219 0h-199l259 1462h198zM764 1735l-399 -187l-60 111l385 229z" />
<glyph unicode="&#x13b;" horiz-adv-x="997" d="M846 0h-807l242 1366h217l-209 -1188h590zM530 -84l-129 -391h-122l69 391h182z" />
<glyph unicode="&#x13c;" horiz-adv-x="483" d="M219 0h-199l259 1462h198zM203 -84l-119 -338h-123l59 338h183z" />
<glyph unicode="&#x13d;" horiz-adv-x="997" d="M846 0h-807l242 1366h217l-209 -1188h590zM856 1366l-129 -391h-123l70 391h182z" />
<glyph unicode="&#x13e;" horiz-adv-x="753" d="M219 0h-199l259 1462h198zM760 1462l-119 -338h-123l60 338h182z" />
<glyph unicode="&#x13f;" horiz-adv-x="997" d="M846 0h-807l242 1366h217l-209 -1188h590zM623 807q51 0 83.5 -32.5t32.5 -82.5q0 -57 -40 -96t-97 -39q-51 0 -84 31.5t-33 79.5q0 60 39.5 99.5t98.5 39.5z" />
<glyph unicode="&#x140;" horiz-adv-x="800" d="M219 0h-199l259 1462h198zM547 807q51 0 84 -32.5t33 -82.5q0 -57 -40.5 -96t-97.5 -39q-51 0 -83.5 31.5t-32.5 79.5q0 60 39 99.5t98 39.5z" />
<glyph unicode="&#x141;" horiz-adv-x="1081" d="M930 0h-807l88 500l-188 -127l32 200l191 127l116 666h218l-93 -524l359 237l-37 -202l-356 -236l-82 -463h590z" />
<glyph unicode="&#x142;" horiz-adv-x="647" d="M299 0h-199l101 575l-178 -116l26 155l180 117l127 731h199l-109 -616l179 117l-27 -156l-178 -117z" />
<glyph unicode="&#x143;" horiz-adv-x="1417" d="M1137 0h-201l-516 1020l-180 -1020h-201l242 1366h202l518 -1030l183 1030h194zM1133 1653l-400 -187l-59 111l385 229z" />
<glyph unicode="&#x144;" horiz-adv-x="1103" d="M848 0h-197l99 557l2 16l4 17q14 88 14 119q0 102 -100 102q-140 0 -340 -178l-113 -633h-197l170 963h193l-25 -140q123 95 207.5 132.5t175.5 37.5q110 0 172 -58.5t62 -164.5q0 -50 -17 -143zM901 1264l-399 -187l-60 111l385 229z" />
<glyph unicode="&#x145;" horiz-adv-x="1417" d="M1137 0h-201l-516 1020l-180 -1020h-201l242 1366h202l518 -1030l183 1030h194zM678 -84l-129 -391h-123l70 391h182z" />
<glyph unicode="&#x146;" horiz-adv-x="1103" d="M848 0h-197l99 557l2 16l4 17q14 88 14 119q0 102 -100 102q-140 0 -340 -178l-113 -633h-197l170 963h193l-25 -140q123 95 207.5 132.5t175.5 37.5q110 0 172 -58.5t62 -164.5q0 -50 -17 -143zM537 -84l-119 -338h-123l59 338h183z" />
<glyph unicode="&#x147;" horiz-adv-x="1417" d="M1137 0h-201l-516 1020l-180 -1020h-201l242 1366h202l518 -1030l183 1030h194zM553 1718l90 97l209 -146l281 146l63 -109l-356 -233z" />
<glyph unicode="&#x148;" horiz-adv-x="1103" d="M848 0h-197l99 557l2 16l4 17q14 88 14 119q0 102 -100 102q-140 0 -340 -178l-113 -633h-197l170 963h193l-25 -140q123 95 207.5 132.5t175.5 37.5q110 0 172 -58.5t62 -164.5q0 -50 -17 -143zM322 1319l90 96l209 -145l280 145l64 -108l-357 -234z" />
<glyph unicode="&#x149;" horiz-adv-x="1249" d="M993 0h-196l98 557l4 16l2 17q14 85 14 119q0 102 -98 102q-142 0 -342 -178l-113 -633h-196l170 963h192l-24 -140q125 95 208.5 132.5t174.5 37.5q110 0 171.5 -58.5t61.5 -164.5q0 -52 -16 -143zM393 1462l-119 -338h-122l59 338h182z" />
<glyph unicode="&#x14c;" horiz-adv-x="1513" d="M887 1395q243 0 393 -153t150 -400q0 -155 -54 -309.5t-149 -274.5q-113 -139 -266.5 -213t-329.5 -74q-246 0 -397.5 152.5t-151.5 398.5q0 178 63.5 339.5t171 278.5t257 186t313.5 69zM864 1210q-145 0 -273 -90t-204 -240.5t-76 -320.5q0 -189 90.5 -293t253.5 -104 q120 0 224 57t182 166q67 93 104 207t37 225q0 186 -89 289.5t-249 103.5zM1190 1522h-606l16 147h604z" />
<glyph unicode="&#x14d;" horiz-adv-x="1095" d="M602 993q175 0 281 -109t106 -290q0 -129 -43 -243.5t-116.5 -196.5t-177 -129.5t-220.5 -47.5q-175 0 -285 110.5t-110 285.5q0 171 74.5 313.5t204.5 224.5t286 82zM584 829q-136 0 -235 -127.5t-99 -302.5q0 -123 52.5 -188.5t150.5 -65.5q133 0 228 126.5t95 303.5 q0 124 -49 189t-143 65zM852 1167h-545l25 148h545z" />
<glyph unicode="&#x14e;" horiz-adv-x="1513" d="M887 1395q243 0 393 -153t150 -400q0 -155 -54 -309.5t-149 -274.5q-113 -139 -266.5 -213t-329.5 -74q-246 0 -397.5 152.5t-151.5 398.5q0 178 63.5 339.5t171 278.5t257 186t313.5 69zM864 1210q-145 0 -273 -90t-204 -240.5t-76 -320.5q0 -189 90.5 -293t253.5 -104 q120 0 224 57t182 166q67 93 104 207t37 225q0 186 -89 289.5t-249 103.5zM1063 1749h135q-1 -112 -85 -184t-212 -72q-129 0 -212.5 71.5t-86.5 184.5h135q21 -123 164 -123q141 0 162 123z" />
<glyph unicode="&#x14f;" horiz-adv-x="1095" d="M602 993q175 0 281 -109t106 -290q0 -129 -43 -243.5t-116.5 -196.5t-177 -129.5t-220.5 -47.5q-175 0 -285 110.5t-110 285.5q0 171 74.5 313.5t204.5 224.5t286 82zM584 829q-136 0 -235 -127.5t-99 -302.5q0 -123 52.5 -188.5t150.5 -65.5q133 0 228 126.5t95 303.5 q0 124 -49 189t-143 65zM764 1372h129q-11 -71 -32.5 -113t-65.5 -77q-78 -66 -207 -66q-114 0 -185 60t-71 155q0 17 4 41h131v-2v-2v-2v-2v-2q0 -57 31 -83t98 -26q69 0 109 28t59 91z" />
<glyph unicode="&#x150;" horiz-adv-x="1513" d="M887 1395q243 0 393 -153t150 -400q0 -155 -54 -309.5t-149 -274.5q-113 -139 -266.5 -213t-329.5 -74q-246 0 -397.5 152.5t-151.5 398.5q0 178 63.5 339.5t171 278.5t257 186t313.5 69zM864 1210q-145 0 -273 -90t-204 -240.5t-76 -320.5q0 -189 90.5 -293t253.5 -104 q120 0 224 57t182 166q67 93 104 207t37 225q0 186 -89 289.5t-249 103.5zM604 1556l293 242l100 -125l-323 -205zM918 1556l292 242l101 -125l-324 -205z" />
<glyph unicode="&#x151;" horiz-adv-x="1095" d="M602 993q175 0 281 -109t106 -290q0 -129 -43 -243.5t-116.5 -196.5t-177 -129.5t-220.5 -47.5q-175 0 -285 110.5t-110 285.5q0 171 74.5 313.5t204.5 224.5t286 82zM584 829q-136 0 -235 -127.5t-99 -302.5q0 -123 52.5 -188.5t150.5 -65.5q133 0 228 126.5t95 303.5 q0 124 -49 189t-143 65zM1036 1284l-307 -190l-88 80l268 227zM700 1284l-307 -190l-88 80l268 227z" />
<glyph unicode="&#x152;" horiz-adv-x="1878" d="M877 176l180 1018q-114 0 -170 -6t-121 -25q-195 -54 -318.5 -220.5t-123.5 -373.5q0 -211 114.5 -302t378.5 -91h60zM1671 0h-913q-150 0 -256 24t-189 78q-110 72 -169.5 187.5t-59.5 257.5q0 221 119.5 415t320.5 298q115 60 255 83t384 23h711l-31 -170h-569 l-70 -399h537l-31 -166h-536l-80 -453h608z" />
<glyph unicode="&#x153;" horiz-adv-x="1724" d="M1493 266l59 -116q-122 -94 -221 -133.5t-213 -39.5q-118 0 -193.5 46t-129.5 151q-74 -101 -160 -147.5t-201 -46.5q-182 0 -289.5 108t-107.5 291q0 173 71.5 313.5t197.5 220.5t280 80q240 0 334 -196q155 198 393 198q146 0 230.5 -89t84.5 -244q0 -67 -10 -125 l-12 -66h-639q-13 -83 -13 -113q0 -114 48.5 -163.5t158.5 -49.5q79 0 154 27.5t178 93.5zM997 602l437 10q4 33 4 66q0 170 -154 170q-184 0 -287 -246zM573 831q-133 0 -228 -124t-95 -297q0 -124 54 -193.5t151 -69.5q156 0 252 172q71 121 71 256q0 125 -52.5 190.5 t-152.5 65.5z" />
<glyph unicode="&#x154;" horiz-adv-x="1214" d="M391 766h131q170 0 272.5 75t102.5 201q0 86 -58 123t-194 37h-176zM1061 0h-246l-164 487q-22 63 -64 92t-112 29h-110l-109 -608h-217l242 1366h348q125 0 187 -6t116 -23q92 -29 143 -98t51 -164q0 -149 -106 -264q-55 -61 -120.5 -93.5t-162.5 -47.5 q46 -12 74.5 -40.5t48.5 -82.5zM995 1653l-399 -187l-59 111l385 229z" />
<glyph unicode="&#x155;" horiz-adv-x="727" d="M768 967l-72 -172q-27 8 -53 8q-147 0 -334 -283l-92 -520h-197l170 963h193l-31 -179q78 103 156.5 151t167.5 48q45 0 92 -16zM754 1264l-400 -187l-59 111l385 229z" />
<glyph unicode="&#x156;" horiz-adv-x="1214" d="M391 766h131q170 0 272.5 75t102.5 201q0 86 -58 123t-194 37h-176zM1061 0h-246l-164 487q-22 63 -64 92t-112 29h-110l-109 -608h-217l242 1366h348q125 0 187 -6t116 -23q92 -29 143 -98t51 -164q0 -149 -106 -264q-55 -61 -120.5 -93.5t-162.5 -47.5 q46 -12 74.5 -40.5t48.5 -82.5zM614 -84l-129 -391h-120l67 391h182z" />
<glyph unicode="&#x157;" horiz-adv-x="727" d="M768 967l-72 -172q-27 8 -53 8q-147 0 -334 -283l-92 -520h-197l170 963h193l-31 -179q78 103 156.5 151t167.5 48q45 0 92 -16zM203 -84l-119 -338h-123l59 338h183z" />
<glyph unicode="&#x158;" horiz-adv-x="1214" d="M391 766h131q170 0 272.5 75t102.5 201q0 86 -58 123t-194 37h-176zM1061 0h-246l-164 487q-22 63 -64 92t-112 29h-110l-109 -608h-217l242 1366h348q125 0 187 -6t116 -23q92 -29 143 -98t51 -164q0 -149 -106 -264q-55 -61 -120.5 -93.5t-162.5 -47.5 q46 -12 74.5 -40.5t48.5 -82.5zM369 1718l90 97l209 -146l280 146l64 -109l-357 -233z" />
<glyph unicode="&#x159;" horiz-adv-x="727" d="M768 967l-72 -172q-27 8 -53 8q-147 0 -334 -283l-92 -520h-197l170 963h193l-31 -179q78 103 156.5 151t167.5 48q45 0 92 -16zM158 1319l90 96l209 -145l280 145l64 -108l-357 -234z" />
<glyph unicode="&#x15a;" horiz-adv-x="1087" d="M1061 1348l-57 -156q-129 27 -236 27q-170 0 -272.5 -57.5t-102.5 -151.5q0 -57 42.5 -97.5t156.5 -89.5q204 -89 288.5 -173.5t84.5 -198.5q0 -135 -88 -245t-243 -172.5t-345 -62.5q-179 0 -324 45l64 166q136 -30 264 -30q188 0 314 75t126 187q0 73 -90 133 q-52 33 -205 102q-146 64 -208 138t-62 180q0 195 162 310.5t432 115.5q165 0 299 -45zM993 1653l-399 -187l-59 111l385 229z" />
<glyph unicode="&#x15b;" horiz-adv-x="851" d="M791 958l-60 -139q-120 25 -190 25q-105 0 -165.5 -32t-60.5 -89q0 -40 33.5 -70t118.5 -65q145 -60 199.5 -117t54.5 -149q0 -161 -136.5 -253t-375.5 -92q-141 0 -260 37l57 144q122 -25 203 -25q129 0 210 43.5t81 112.5q0 59 -70 102q-23 12 -113 53 q-122 54 -169.5 108.5t-47.5 139.5q0 142 117 221.5t326 79.5q129 0 248 -35zM776 1264l-399 -187l-60 111l385 229z" />
<glyph unicode="&#x15c;" horiz-adv-x="1087" d="M1061 1348l-57 -156q-129 27 -236 27q-170 0 -272.5 -57.5t-102.5 -151.5q0 -57 42.5 -97.5t156.5 -89.5q204 -89 288.5 -173.5t84.5 -198.5q0 -135 -88 -245t-243 -172.5t-345 -62.5q-179 0 -324 45l64 166q136 -30 264 -30q188 0 314 75t126 187q0 73 -90 133 q-52 33 -205 102q-146 64 -208 138t-62 180q0 195 162 310.5t432 115.5q165 0 299 -45zM1022 1569l-90 -96l-209 147l-281 -147l-63 108l356 234z" />
<glyph unicode="&#x15d;" horiz-adv-x="851" d="M791 958l-60 -139q-120 25 -190 25q-105 0 -165.5 -32t-60.5 -89q0 -40 33.5 -70t118.5 -65q145 -60 199.5 -117t54.5 -149q0 -161 -136.5 -253t-375.5 -92q-141 0 -260 37l57 144q122 -25 203 -25q129 0 210 43.5t81 112.5q0 59 -70 102q-23 12 -113 53 q-122 54 -169.5 108.5t-47.5 139.5q0 142 117 221.5t326 79.5q129 0 248 -35zM817 1169l-90 -96l-209 148l-280 -148l-64 109l356 233z" />
<glyph unicode="&#x15e;" horiz-adv-x="1087" d="M1061 1348l-57 -156q-129 27 -236 27q-170 0 -272.5 -57.5t-102.5 -151.5q0 -57 42.5 -97.5t156.5 -89.5q204 -89 288.5 -173.5t84.5 -198.5q0 -135 -88 -245t-243 -172.5t-345 -62.5q-179 0 -324 45l64 166q136 -30 264 -30q188 0 314 75t126 187q0 73 -90 133 q-52 33 -205 102q-146 64 -208 138t-62 180q0 195 162 310.5t432 115.5q165 0 299 -45zM375 -324l-119 33l111 230h170z" />
<glyph unicode="&#x15f;" horiz-adv-x="851" d="M791 958l-60 -139q-120 25 -190 25q-105 0 -165.5 -32t-60.5 -89q0 -40 33.5 -70t118.5 -65q145 -60 199.5 -117t54.5 -149q0 -161 -136.5 -253t-375.5 -92q-141 0 -260 37l57 144q122 -25 203 -25q129 0 210 43.5t81 112.5q0 59 -70 102q-23 12 -113 53 q-122 54 -169.5 108.5t-47.5 139.5q0 142 117 221.5t326 79.5q129 0 248 -35zM240 -322l-119 33l110 230h170z" />
<glyph unicode="&#x160;" horiz-adv-x="1087" d="M1061 1348l-57 -156q-129 27 -236 27q-170 0 -272.5 -57.5t-102.5 -151.5q0 -57 42.5 -97.5t156.5 -89.5q204 -89 288.5 -173.5t84.5 -198.5q0 -135 -88 -245t-243 -172.5t-345 -62.5q-179 0 -324 45l64 166q136 -30 264 -30q188 0 314 75t126 187q0 73 -90 133 q-52 33 -205 102q-146 64 -208 138t-62 180q0 195 162 310.5t432 115.5q165 0 299 -45zM385 1718l90 97l209 -146l281 146l63 -109l-356 -233z" />
<glyph unicode="&#x161;" horiz-adv-x="851" d="M791 958l-60 -139q-120 25 -190 25q-105 0 -165.5 -32t-60.5 -89q0 -40 33.5 -70t118.5 -65q145 -60 199.5 -117t54.5 -149q0 -161 -136.5 -253t-375.5 -92q-141 0 -260 37l57 144q122 -25 203 -25q129 0 210 43.5t81 112.5q0 59 -70 102q-23 12 -113 53 q-122 54 -169.5 108.5t-47.5 139.5q0 142 117 221.5t326 79.5q129 0 248 -35zM182 1319l90 96l209 -145l281 145l63 -108l-356 -234z" />
<glyph unicode="&#x162;" horiz-adv-x="1134" d="M1202 1196h-434l-211 -1196h-217l211 1196h-438l30 170h1090zM532 -84l-129 -391h-122l69 391h182z" />
<glyph unicode="&#x163;" horiz-adv-x="661" d="M522 152l-26 -146q-101 -26 -177 -26q-116 0 -178.5 45.5t-62.5 130.5q0 42 16 133l94 536h-165l24 138h166l49 280h197l-49 -280h252l-25 -138h-252l-90 -510q0 -4 -2 -8l-2 -24q-8 -39 -8 -66q0 -43 24.5 -61.5t81.5 -18.5q56 0 133 15zM260 -84l-119 -338h-123l60 338 h182z" />
<glyph unicode="&#x164;" horiz-adv-x="1134" d="M1202 1196h-434l-211 -1196h-217l211 1196h-438l30 170h1090zM403 1718l91 97l208 -146l281 146l64 -109l-357 -233z" />
<glyph unicode="&#x165;" horiz-adv-x="700" d="M522 152l-26 -146q-101 -26 -177 -26q-116 0 -178.5 45.5t-62.5 130.5q0 35 16 133l94 536h-165l24 138h166l49 280h197l-49 -280h252l-25 -138h-252l-90 -510l-2 -8q0 -12 -2 -24q-8 -39 -8 -66q0 -43 24.5 -61.5t81.5 -18.5q56 0 133 15zM786 1456l-118 -338h-123 l59 338h182z" />
<glyph unicode="&#x166;" horiz-adv-x="1134" d="M508 946l43 250h-438l30 170h1090l-31 -170h-434l-43 -250h201l-25 -147h-203l-141 -799h-217l141 799h-207l25 147h209z" />
<glyph unicode="&#x167;" horiz-adv-x="661" d="M336 551l-41 -236l-2 -8l-4 -24q-6 -49 -6 -66q0 -43 24.5 -61.5t81.5 -18.5q63 0 133 15l-26 -146q-101 -26 -177 -26q-116 0 -178.5 45.5t-62.5 130.5q0 48 16 133l45 262h-159l24 137h160l24 137h-165l24 138h166l49 280h197l-51 -280h254l-25 -138h-252l-25 -137h258 l-24 -137h-258z" />
<glyph unicode="&#x168;" horiz-adv-x="1419" d="M1386 1366l-145 -819q-32 -182 -90 -279q-85 -144 -234 -220.5t-346 -76.5q-221 0 -343 101.5t-122 285.5q0 76 21 191l143 817h215l-141 -807q-18 -103 -18 -162q0 -127 63.5 -184t204.5 -57q188 0 305 106.5t152 310.5l139 793h196zM1106 1755l86 -92 q-82 -80 -139 -112.5t-115 -32.5q-30 0 -54.5 9t-66.5 36q-56 36 -94 36q-28 0 -60 -18.5t-90 -67.5l-84 95q75 73 134 106t116 33q27 0 49.5 -8t61.5 -33q63 -39 98 -39q57 0 158 88z" />
<glyph unicode="&#x169;" horiz-adv-x="1105" d="M844 0h-197l27 143q-193 -166 -371 -166q-109 0 -175.5 62.5t-66.5 163.5q0 48 19 159l106 601h197l-96 -547q-21 -118 -21 -158q0 -94 105 -94q146 0 338 180l108 619h197zM862 1368l86 -92q-83 -81 -139 -113.5t-115 -32.5q-29 0 -54 9.5t-65 36.5q-56 36 -94 36 q-28 0 -59 -18t-92 -68l-84 95q76 73 135 106t115 33q46 0 112 -41q63 -39 99 -39q29 0 63.5 19.5t91.5 68.5z" />
<glyph unicode="&#x16a;" horiz-adv-x="1419" d="M1386 1366l-145 -819q-32 -182 -90 -279q-85 -144 -234 -220.5t-346 -76.5q-221 0 -343 101.5t-122 285.5q0 76 21 191l143 817h215l-141 -807q-18 -103 -18 -162q0 -127 63.5 -184t204.5 -57q188 0 305 106.5t152 310.5l139 793h196zM1141 1522h-604l14 147h606z" />
<glyph unicode="&#x16b;" horiz-adv-x="1105" d="M844 0h-197l27 143q-193 -166 -371 -166q-109 0 -175.5 62.5t-66.5 163.5q0 48 19 159l106 601h197l-96 -547q-21 -118 -21 -158q0 -94 105 -94q146 0 338 180l108 619h197zM872 1167h-544l24 148h545z" />
<glyph unicode="&#x16c;" horiz-adv-x="1419" d="M1386 1366l-145 -819q-32 -182 -90 -279q-85 -144 -234 -220.5t-346 -76.5q-221 0 -343 101.5t-122 285.5q0 76 21 191l143 817h215l-141 -807q-18 -103 -18 -162q0 -127 63.5 -184t204.5 -57q188 0 305 106.5t152 310.5l139 793h196zM1006 1749h135q-1 -112 -85 -184 t-212 -72q-129 0 -212.5 71.5t-86.5 184.5h135q20 -123 164 -123q142 0 162 123z" />
<glyph unicode="&#x16d;" horiz-adv-x="1105" d="M844 0h-197l27 143q-193 -166 -371 -166q-109 0 -175.5 62.5t-66.5 163.5q0 48 19 159l106 601h197l-96 -547q-21 -118 -21 -158q0 -94 105 -94q146 0 338 180l108 619h197zM780 1372h129q-10 -70 -32.5 -112t-65.5 -78q-78 -66 -207 -66q-114 0 -185 60t-71 155 q0 5 4 41h131v-2v-2v-2v-2v-2q0 -57 30.5 -83t96.5 -26q70 0 110 28t60 91z" />
<glyph unicode="&#x16e;" horiz-adv-x="1419" d="M1386 1366l-145 -819q-32 -182 -90 -279q-85 -144 -234 -220.5t-346 -76.5q-221 0 -343 101.5t-122 285.5q0 76 21 191l143 817h215l-141 -807q-18 -103 -18 -162q0 -127 63.5 -184t204.5 -57q188 0 305 106.5t152 310.5l139 793h196zM858 1796q70 0 116 -44t46 -112 q0 -81 -54.5 -135.5t-134.5 -54.5q-71 0 -117 44.5t-46 111.5q0 80 55 135t135 55zM850 1712q-41 0 -68.5 -28.5t-27.5 -69.5q0 -34 23.5 -57t58.5 -23q40 0 67 27.5t27 68.5q0 37 -22.5 59.5t-57.5 22.5z" />
<glyph unicode="&#x16f;" horiz-adv-x="1105" d="M844 0h-197l27 143q-193 -166 -371 -166q-109 0 -175.5 62.5t-66.5 163.5q0 48 19 159l106 601h197l-96 -547q-21 -118 -21 -158q0 -94 105 -94q146 0 338 180l108 619h197zM639 1419q71 0 116.5 -44t45.5 -111q0 -81 -54.5 -136t-134.5 -55q-71 0 -117 44.5t-46 111.5 q0 79 55.5 134.5t134.5 55.5zM631 1335q-41 0 -68.5 -28.5t-27.5 -69.5q0 -34 23 -57t58 -23q40 0 67.5 27.5t27.5 68.5q0 37 -22.5 59.5t-57.5 22.5z" />
<glyph unicode="&#x170;" horiz-adv-x="1419" d="M1386 1366l-145 -819q-32 -182 -90 -279q-85 -144 -234 -220.5t-346 -76.5q-221 0 -343 101.5t-122 285.5q0 76 21 191l143 817h215l-141 -807q-18 -103 -18 -162q0 -127 63.5 -184t204.5 -57q188 0 305 106.5t152 310.5l139 793h196zM565 1556l291 242l102 -125 l-323 -205zM879 1556l290 242l103 -125l-324 -205z" />
<glyph unicode="&#x171;" horiz-adv-x="1105" d="M844 0h-197l27 143q-193 -166 -371 -166q-109 0 -175.5 62.5t-66.5 163.5q0 48 19 159l106 601h197l-96 -547q-21 -118 -21 -158q0 -94 105 -94q146 0 338 180l108 619h197zM1071 1284l-307 -190l-88 80l268 227zM735 1284l-307 -190l-88 80l268 227z" />
<glyph unicode="&#x172;" horiz-adv-x="1419" d="M862 -160l35 -80q-119 -61 -192 -61q-59 0 -93 30.5t-34 82.5q0 95 110 165q-59 -6 -115 -6q-223 0 -345 101t-122 286q0 76 21 191l143 817h215l-141 -807q-18 -103 -18 -162q0 -127 63.5 -184t204.5 -57q188 0 305 106.5t152 310.5l139 793h196l-145 -819 q-64 -431 -444 -547l88 -45q-90 -28 -140.5 -60t-50.5 -61q0 -12 12 -20.5t27 -8.5q46 0 129 35z" />
<glyph unicode="&#x173;" horiz-adv-x="1105" d="M694 0h-47l27 143q-193 -166 -371 -166q-109 0 -175.5 62.5t-66.5 163.5q0 48 19 159l106 601h197l-96 -547q-21 -118 -21 -158q0 -94 105 -94q146 0 338 180l108 619h197l-170 -963h-76l86 -45q-90 -28 -140 -60t-50 -61q0 -12 11.5 -20.5t26.5 -8.5q46 0 129 35l35 -80 q-119 -61 -192 -61q-59 0 -93 30.5t-34 82.5q0 113 147 188z" />
<glyph unicode="&#x174;" horiz-adv-x="1966" d="M2075 1366l-654 -1366h-231l-143 1051l-519 -1051h-227l-168 1366h215l121 -1085l535 1085h204l152 -1085l504 1085h211zM1434 1569l-91 -96l-208 147l-281 -147l-63 108l356 234z" />
<glyph unicode="&#x175;" horiz-adv-x="1466" d="M1460 963l-481 -963h-201l-100 711l-350 -711h-207l-141 963h196l92 -711l355 711h196l99 -711l346 711h196zM1042 1169l-90 -96l-209 148l-280 -148l-64 109l357 233z" />
<glyph unicode="&#x176;" horiz-adv-x="1202" d="M1311 1366l-625 -768l-106 -598h-215l110 621l-342 745h236l245 -584l453 584h244zM1071 1569l-90 -96l-209 147l-280 -147l-64 108l356 234z" />
<glyph unicode="&#x177;" horiz-adv-x="1007" d="M1028 963l-676 -1153q-107 -184 -184.5 -244t-206.5 -60q-102 0 -172 25l61 141q51 -10 101 -10q61 0 107.5 41t111.5 150l90 153l-213 957h207l149 -744l418 744h207zM862 1169l-90 -96l-209 148l-280 -148l-64 109l356 233z" />
<glyph unicode="&#x178;" horiz-adv-x="1202" d="M1311 1366l-625 -768l-106 -598h-215l110 621l-342 745h236l245 -584l453 584h244zM547 1737q43 0 71.5 -28.5t28.5 -70.5q0 -49 -34.5 -82.5t-84.5 -33.5q-43 0 -71.5 26.5t-28.5 67.5q0 52 34 86.5t85 34.5zM936 1737q43 0 70.5 -28t27.5 -71q0 -51 -32.5 -83.5 t-83.5 -32.5q-43 0 -72 27t-29 67q0 52 34 86.5t85 34.5z" />
<glyph unicode="&#x179;" horiz-adv-x="1116" d="M926 0h-977l28 156l871 1040h-678l31 170h946l-27 -143l-872 -1045h710zM958 1653l-399 -187l-59 111l385 229z" />
<glyph unicode="&#x17a;" horiz-adv-x="966" d="M739 0h-768l27 160l592 637h-465l31 166h741l-27 -148l-594 -643h494zM809 1264l-399 -187l-60 111l385 229z" />
<glyph unicode="&#x17b;" horiz-adv-x="1116" d="M926 0h-977l28 156l871 1040h-678l31 170h946l-27 -143l-872 -1045h710zM707 1751q48 0 78 -30t30 -79q0 -55 -35.5 -90.5t-91.5 -35.5q-47 0 -78.5 30t-31.5 74q0 57 36.5 94t92.5 37z" />
<glyph unicode="&#x17c;" horiz-adv-x="966" d="M739 0h-768l27 160l592 637h-465l31 166h741l-27 -148l-594 -643h494zM557 1395q48 0 78.5 -30t30.5 -79q0 -56 -36 -91.5t-91 -35.5q-47 0 -79 30.5t-32 74.5q0 57 36.5 94t92.5 37z" />
<glyph unicode="&#x17d;" horiz-adv-x="1116" d="M926 0h-977l28 156l871 1040h-678l31 170h946l-27 -143l-872 -1045h710zM393 1718l90 97l209 -146l281 146l63 -109l-356 -233z" />
<glyph unicode="&#x17e;" horiz-adv-x="966" d="M739 0h-768l27 160l592 637h-465l31 166h741l-27 -148l-594 -643h494zM211 1319l90 96l209 -145l281 145l63 -108l-356 -234z" />
<glyph unicode="&#x192;" d="M1118 1427l-69 -145q-39 10 -95 10q-98 0 -158.5 -48.5t-103.5 -160.5q-4 -14 -20.5 -58t-22.5 -62h238l-53 -152h-236l-272 -797q-58 -181 -157.5 -282t-279.5 -164l-49 149q122 65 178.5 129t100.5 191l268 774h-170l53 152h168q43 116 66 186q17 56 53.5 115.5 t73.5 91.5q112 100 309 100q95 0 178 -29z" />
<glyph unicode="&#x1cd;" horiz-adv-x="1380" d="M1247 0h-227l-100 451h-549l-260 -451h-220l805 1366h228zM887 610l-121 539l-305 -539h426zM520 1718l90 97l209 -146l281 146l63 -109l-356 -233z" />
<glyph unicode="&#x1ce;" horiz-adv-x="962" d="M547 293l31 178q-198 -56 -290.5 -115t-92.5 -131q0 -35 21.5 -56.5t57.5 -21.5q102 0 273 146zM836 139l2 -125q-84 -37 -154 -37q-72 0 -113 39.5t-41 108.5v2q-102 -78 -177.5 -111.5t-153.5 -33.5q-93 0 -149 55t-56 147q0 182 201 297q129 73 407 131l8 45 q8 65 8 84q0 44 -19 63t-62 19q-133 0 -342 -127l-66 125q257 172 469 172q103 0 163 -53t60 -145q0 -58 -16 -146l-64 -358l-2 -6l-2 -23q-10 -51 -10 -74q0 -59 59 -59q15 0 33 6q4 2 12 2zM258 1319l90 96l209 -145l281 145l63 -108l-356 -234z" />
<glyph unicode="&#x1d3;" horiz-adv-x="1419" d="M1386 1366l-145 -819q-32 -182 -90 -279q-85 -144 -234 -220.5t-346 -76.5q-221 0 -343 101.5t-122 285.5q0 76 21 191l143 817h215l-141 -807q-18 -103 -18 -162q0 -127 63.5 -184t204.5 -57q188 0 305 106.5t152 310.5l139 793h196zM557 1718l90 97l209 -146l281 146 l63 -109l-356 -233z" />
<glyph unicode="&#x1d4;" horiz-adv-x="1105" d="M844 0h-197l27 143q-193 -166 -371 -166q-109 0 -175.5 62.5t-66.5 163.5q0 48 19 159l106 601h197l-96 -547q-21 -118 -21 -158q0 -94 105 -94q146 0 338 180l108 619h197zM315 1319l91 96l208 -145l281 145l63 -108l-356 -234z" />
<glyph unicode="&#x1e6;" horiz-adv-x="1415" d="M1294 653l-102 -585q-130 -54 -242 -77.5t-235 -23.5q-289 0 -461 155t-172 415q0 180 71 338.5t193.5 271.5t294.5 178.5t367 65.5q219 0 389 -78l-82 -156q-160 60 -311 60q-193 0 -352 -85.5t-250 -234.5t-91 -330q0 -198 116 -313t316 -115q122 0 256 45l82 469h213z M655 1718l90 97l209 -146l281 146l63 -109l-356 -233z" />
<glyph unicode="&#x1e7;" horiz-adv-x="1079" d="M309 -6q-120 -35 -175.5 -83t-55.5 -116q0 -139 256 -139q173 0 285 54.5t112 139.5q0 45 -39 67.5t-133 31.5q-131 16 -250 45zM557 854q-101 0 -172.5 -85t-71.5 -206q0 -78 42 -120t120 -42q101 0 172.5 82.5t71.5 200.5q0 80 -43 125t-119 45zM1049 821h-179 q45 -51 45 -137q0 -110 -61 -210t-162.5 -160t-212.5 -60q-89 0 -147 22q-62 -69 -78 -92q60 -24 136.5 -38t254.5 -35q158 -20 229.5 -72.5t71.5 -149.5q0 -108 -81 -195t-224.5 -136.5t-321.5 -49.5q-204 0 -323 71t-119 192q0 186 270 276q-39 13 -45 16 q-40 12 -55.5 23.5t-15.5 30.5l-2 2q0 27 77 104l15 15l74 77l12 15q-88 91 -88 221q0 184 137 313t332 129q100 0 168 -30h317zM307 1319l90 96l209 -145l281 145l63 -108l-356 -234z" />
<glyph unicode="&#x1f4;" horiz-adv-x="1415" d="M1294 653l-102 -585q-130 -54 -242 -77.5t-235 -23.5q-289 0 -461 155t-172 415q0 180 71 338.5t193.5 271.5t294.5 178.5t367 65.5q219 0 389 -78l-82 -156q-160 60 -311 60q-193 0 -352 -85.5t-250 -234.5t-91 -330q0 -198 116 -313t316 -115q122 0 256 45l82 469h213z M1194 1653l-399 -187l-60 111l385 229z" />
<glyph unicode="&#x1f5;" horiz-adv-x="1079" d="M309 -6q-120 -35 -175.5 -83t-55.5 -116q0 -139 256 -139q173 0 285 54.5t112 139.5q0 45 -39 67.5t-133 31.5q-131 16 -250 45zM557 854q-101 0 -172.5 -85t-71.5 -206q0 -78 42 -120t120 -42q101 0 172.5 82.5t71.5 200.5q0 80 -43 125t-119 45zM1049 821h-179 q45 -51 45 -137q0 -110 -61 -210t-162.5 -160t-212.5 -60q-89 0 -147 22q-62 -69 -78 -92q60 -24 136.5 -38t254.5 -35q158 -20 229.5 -72.5t71.5 -149.5q0 -108 -81 -195t-224.5 -136.5t-321.5 -49.5q-204 0 -323 71t-119 192q0 186 270 276q-39 13 -45 16 q-40 12 -55.5 23.5t-15.5 30.5l-2 2q0 27 77 104l15 15l74 77l12 15q-88 91 -88 221q0 184 137 313t332 129q100 0 168 -30h317zM848 1264l-399 -187l-60 111l385 229z" />
<glyph unicode="&#x218;" horiz-adv-x="1087" d="M1061 1348l-57 -156q-129 27 -236 27q-170 0 -272.5 -57.5t-102.5 -151.5q0 -57 42.5 -97.5t156.5 -89.5q204 -89 288.5 -173.5t84.5 -198.5q0 -135 -88 -245t-243 -172.5t-345 -62.5q-179 0 -324 45l64 166q136 -30 264 -30q188 0 314 75t126 187q0 73 -90 133 q-52 33 -205 102q-146 64 -208 138t-62 180q0 195 162 310.5t432 115.5q165 0 299 -45zM473 -84l-129 -391h-123l70 391h182z" />
<glyph unicode="&#x219;" horiz-adv-x="851" d="M791 958l-60 -139q-120 25 -190 25q-105 0 -165.5 -32t-60.5 -89q0 -40 33.5 -70t118.5 -65q145 -60 199.5 -117t54.5 -149q0 -161 -136.5 -253t-375.5 -92q-141 0 -260 37l57 144q122 -25 203 -25q129 0 210 43.5t81 112.5q0 59 -70 102q-23 12 -113 53 q-122 54 -169.5 108.5t-47.5 139.5q0 142 117 221.5t326 79.5q129 0 248 -35zM391 -84l-119 -338h-122l59 338h182z" />
<glyph unicode="&#x21a;" horiz-adv-x="1134" d="M1202 1196h-434l-211 -1196h-217l211 1196h-438l30 170h1090zM532 -84l-129 -391h-122l69 391h182z" />
<glyph unicode="&#x21b;" horiz-adv-x="661" d="M522 152l-26 -146q-101 -26 -177 -26q-116 0 -178.5 45.5t-62.5 130.5q0 42 16 133l94 536h-165l24 138h166l49 280h197l-49 -280h252l-25 -138h-252l-90 -510q0 -4 -2 -8l-2 -24q-8 -39 -8 -66q0 -43 24.5 -61.5t81.5 -18.5q56 0 133 15zM260 -84l-119 -338h-123l60 338 h182z" />
<glyph unicode="&#x2c6;" horiz-adv-x="737" d="M690 1169l-90 -96l-209 148l-280 -148l-64 109l356 233z" />
<glyph unicode="&#x2c7;" horiz-adv-x="737" d="M47 1319l90 96l209 -145l281 145l63 -108l-356 -234z" />
<glyph unicode="&#x2c9;" horiz-adv-x="737" d="M629 1167h-545l25 148h544z" />
<glyph unicode="&#x2d8;" horiz-adv-x="737" d="M520 1372h129q-10 -70 -32.5 -112t-65.5 -78q-78 -66 -207 -66q-114 0 -185 60t-71 155q0 9 4 41h131v-2v-2v-2v-2v-2q0 -57 31 -83t98 -26q69 0 108.5 28t59.5 91z" />
<glyph unicode="&#x2d9;" horiz-adv-x="737" d="M379 1348q43 0 70.5 -28t27.5 -69q0 -51 -33 -84.5t-84 -33.5q-44 0 -72 26.5t-28 67.5q0 52 34 86.5t85 34.5z" />
<glyph unicode="&#x2da;" horiz-adv-x="737" d="M383 1419q71 0 116.5 -44t45.5 -111q0 -81 -54.5 -136t-134.5 -55q-71 0 -117 44.5t-46 111.5q0 79 55.5 134.5t134.5 55.5zM375 1335q-41 0 -68.5 -28.5t-27.5 -69.5q0 -34 23 -57t58 -23q40 0 67.5 27.5t27.5 68.5q0 37 -22.5 59.5t-57.5 22.5z" />
<glyph unicode="&#x2db;" horiz-adv-x="737" d="M190 -236q0 26 8.5 53t18.5 47.5t33.5 47t37 41t46.5 40.5t44.5 34.5t48.5 34.5t42 30l49 -92q-27 -21 -44 -36t-44.5 -42.5t-42 -55t-14.5 -52.5q0 -33 18.5 -46.5t42.5 -13.5q40 0 84 10l2 -124q-2 -1 -16 -6.5t-17.5 -7t-16.5 -6t-19 -6t-18.5 -4.5t-22 -4t-23 -2 t-27.5 -1q-27 0 -53 6.5t-54 22t-45.5 50t-17.5 82.5z" />
<glyph unicode="&#x2dc;" horiz-adv-x="735" d="M633 1368l86 -92q-82 -80 -139 -113t-115 -33q-29 0 -54 9.5t-65 36.5q-56 36 -94 36q-29 0 -61 -18t-91 -68l-84 95q142 139 250 139q48 0 111 -41q63 -39 98 -39q57 0 158 88z" />
<glyph unicode="&#x2dd;" horiz-adv-x="737" d="M737 1284l-307 -190l-88 80l268 227zM401 1284l-307 -190l-88 80l268 227z" />
<glyph unicode="&#x1e80;" horiz-adv-x="1966" d="M2075 1366l-654 -1366h-231l-143 1051l-519 -1051h-227l-168 1366h215l121 -1085l535 1085h204l152 -1085l504 1085h211zM1245 1559l-84 -93l-340 207l117 133z" />
<glyph unicode="&#x1e81;" horiz-adv-x="1466" d="M1460 963l-481 -963h-201l-100 711l-350 -711h-207l-141 963h196l92 -711l355 711h196l99 -711l346 711h196zM862 1169l-84 -92l-340 207l117 133z" />
<glyph unicode="&#x1e82;" horiz-adv-x="1966" d="M2075 1366l-654 -1366h-231l-143 1051l-519 -1051h-227l-168 1366h215l121 -1085l535 1085h204l152 -1085l504 1085h211zM1409 1653l-399 -187l-60 111l385 229z" />
<glyph unicode="&#x1e83;" horiz-adv-x="1466" d="M1460 963l-481 -963h-201l-100 711l-350 -711h-207l-141 963h196l92 -711l355 711h196l99 -711l346 711h196zM1026 1264l-399 -187l-60 111l385 229z" />
<glyph unicode="&#x1e84;" horiz-adv-x="1966" d="M2075 1366l-654 -1366h-231l-143 1051l-519 -1051h-227l-168 1366h215l121 -1085l535 1085h204l152 -1085l504 1085h211zM920 1737q42 0 71 -28.5t29 -70.5q0 -49 -34.5 -82.5t-84.5 -33.5q-43 0 -71.5 26.5t-28.5 67.5q0 52 34 86.5t85 34.5zM1309 1737q43 0 70.5 -28 t27.5 -71q0 -51 -33 -83.5t-84 -32.5q-43 0 -71.5 27t-28.5 67q0 52 34 86.5t85 34.5z" />
<glyph unicode="&#x1e85;" horiz-adv-x="1466" d="M1460 963l-481 -963h-201l-100 711l-350 -711h-207l-141 963h196l92 -711l355 711h196l99 -711l346 711h196zM537 1348q43 0 71.5 -29t28.5 -70q0 -49 -34.5 -82.5t-84.5 -33.5q-43 0 -71.5 26.5t-28.5 67.5q0 52 34 86.5t85 34.5zM926 1348q43 0 70.5 -28t27.5 -71 q0 -51 -33 -83.5t-84 -32.5q-43 0 -71.5 27t-28.5 67q0 52 34 86.5t85 34.5z" />
<glyph unicode="&#x1ef2;" horiz-adv-x="1202" d="M1311 1366l-625 -768l-106 -598h-215l110 621l-342 745h236l245 -584l453 584h244zM864 1559l-84 -93l-340 207l117 133z" />
<glyph unicode="&#x1ef3;" horiz-adv-x="1007" d="M1028 963l-676 -1153q-107 -184 -184.5 -244t-206.5 -60q-102 0 -172 25l61 141q51 -10 101 -10q61 0 107.5 41t111.5 150l90 153l-213 957h207l149 -744l418 744h207zM616 1169l-84 -92l-339 207l116 133z" />
<glyph unicode="&#x2000;" horiz-adv-x="944" />
<glyph unicode="&#x2001;" horiz-adv-x="1888" />
<glyph unicode="&#x2002;" horiz-adv-x="944" />
<glyph unicode="&#x2003;" horiz-adv-x="1888" />
<glyph unicode="&#x2004;" horiz-adv-x="629" />
<glyph unicode="&#x2005;" horiz-adv-x="472" />
<glyph unicode="&#x2006;" horiz-adv-x="314" />
<glyph unicode="&#x2007;" horiz-adv-x="314" />
<glyph unicode="&#x2008;" horiz-adv-x="236" />
<glyph unicode="&#x2009;" horiz-adv-x="377" />
<glyph unicode="&#x200a;" horiz-adv-x="104" />
<glyph unicode="&#x2010;" horiz-adv-x="630" d="M530 467h-507l28 160h508z" />
<glyph unicode="&#x2011;" horiz-adv-x="630" d="M530 467h-507l28 160h508z" />
<glyph unicode="&#x2012;" horiz-adv-x="1095" d="M995 475h-970l24 143h971z" />
<glyph unicode="&#x2013;" horiz-adv-x="1095" d="M995 475h-970l24 143h971z" />
<glyph unicode="&#x2014;" horiz-adv-x="2066" d="M1966 475h-1941l24 143h1942z" />
<glyph unicode="&#x2015;" horiz-adv-x="2066" d="M1966 475h-1941l24 143h1942z" />
<glyph unicode="&#x2018;" horiz-adv-x="497" d="M383 942h-209l150 453h139z" />
<glyph unicode="&#x2019;" horiz-adv-x="503" d="M504 1395l-150 -453h-141l80 453h211z" />
<glyph unicode="&#x201a;" horiz-adv-x="567" d="M317 219l-149 -452h-141l79 452h211z" />
<glyph unicode="&#x201c;" horiz-adv-x="821" d="M713 975h-209l143 420h139zM393 975h-209l144 420h139z" />
<glyph unicode="&#x201d;" horiz-adv-x="821" d="M821 1395l-141 -420h-141l73 420h209zM504 1395l-144 -420h-141l74 420h211z" />
<glyph unicode="&#x201e;" horiz-adv-x="821" d="M614 219l-141 -420h-141l74 420h208zM297 219l-143 -420h-142l74 420h211z" />
<glyph unicode="&#x2020;" horiz-adv-x="1105" d="M1028 643h-381l-166 -876h-180l143 876h-381l27 160h379l92 563h219l-106 -563h381z" />
<glyph unicode="&#x2021;" horiz-adv-x="1112" d="M981 356h-385l-111 -589h-178l94 589h-387l27 156h385l51 299h-383l27 156h379l67 399h219l-75 -399h376l-26 -156h-381l-55 -299h383z" />
<glyph unicode="&#x2022;" horiz-adv-x="1366" d="M684 977q117 0 201 -82t84 -199q0 -120 -83 -203t-200 -83q-118 0 -201.5 82.5t-83.5 199.5t83 201t200 84z" />
<glyph unicode="&#x2026;" horiz-adv-x="1671" d="M152 238q51 0 83.5 -31.5t32.5 -81.5q0 -59 -38.5 -98t-96.5 -39q-51 0 -85 31.5t-34 78.5q0 59 40 99.5t98 40.5zM676 238q51 0 84 -32t33 -81q0 -59 -39 -98t-97 -39q-51 0 -84.5 31.5t-33.5 78.5q0 59 39.5 99.5t97.5 40.5zM1200 238q51 0 84 -32t33 -81 q0 -59 -38.5 -98t-96.5 -39q-51 0 -85 31.5t-34 78.5q0 59 39.5 99.5t97.5 40.5z" />
<glyph unicode="&#x202f;" horiz-adv-x="377" />
<glyph unicode="&#x2030;" horiz-adv-x="2134" d="M1337 1331l-1144 -1366l-97 72l1143 1366zM475 1399q120 0 191 -78t71 -209q0 -189 -109 -314.5t-272 -125.5q-120 0 -195 78.5t-75 203.5q0 188 112.5 316.5t276.5 128.5zM457 1266q-86 0 -148.5 -86t-62.5 -205q0 -82 33.5 -126t95.5 -44q85 0 144 85.5t59 207.5 q0 168 -121 168zM1081 700q120 0 192.5 -77.5t72.5 -206.5q0 -189 -109 -316t-272 -127q-120 0 -195.5 79t-75.5 204q0 187 112 315.5t275 128.5zM1063 567q-86 0 -147.5 -85.5t-61.5 -205.5q0 -82 33 -124.5t96 -42.5q85 0 144 84t59 204q0 170 -123 170zM1788 700 q120 0 192 -77.5t72 -206.5q0 -189 -109 -316t-272 -127q-120 0 -195 79t-75 206q0 186 112 314t275 128zM1769 567q-86 0 -147 -85.5t-61 -205.5q0 -82 33 -124.5t96 -42.5q85 0 143.5 84t58.5 204q0 170 -123 170z" />
<glyph unicode="&#x2039;" horiz-adv-x="550" d="M362 190l-124 -67l-203 379l327 364l113 -69l-235 -295z" />
<glyph unicode="&#x203a;" horiz-adv-x="550" d="M127 799l125 67l201 -379l-326 -364l-113 70l234 294z" />
<glyph unicode="&#x2044;" horiz-adv-x="1005" d="M1120 1327l-1122 -1364l-113 80l1123 1366z" />
<glyph unicode="&#x205f;" horiz-adv-x="472" />
<glyph unicode="&#x20ac;" d="M930 248l76 -121q-196 -156 -422 -156q-204 0 -322.5 129.5t-118.5 352.5v24h-190l27 148h178q4 40 10 75q14 64 20 82h-180l27 152h203q52 119 94 185t104 124q155 146 381 146q109 0 196.5 -36.5t178.5 -119.5l-109 -113q-74 57 -137 82t-135 25q-116 0 -203 -70.5 t-159 -222.5h507l-26 -152h-533l-2 -8l-2 -6q-9 -29 -16 -68q-10 -60 -12 -75h536l-27 -148h-520v-26q0 -155 66.5 -236.5t193.5 -81.5q73 0 143.5 26t172.5 89z" />
<glyph unicode="&#x2122;" horiz-adv-x="1630" d="M1589 590h-153l-72 524l-195 -524h-129l-196 524l-72 -524h-145l116 776h158l211 -559l205 559h158zM664 1257h-248v-667h-154v667h-250v109h652v-109z" />
<glyph unicode="&#x2202;" horiz-adv-x="1024" d="M242 1262l-54 151q114 59 198 83t173 24q209 0 328 -152.5t119 -419.5q0 -172 -44 -346t-124 -317q-83 -149 -205.5 -230.5t-263.5 -81.5q-164 0 -264.5 113t-100.5 299t69.5 334.5t194.5 231.5t281 83q139 0 258 -73v18q0 174 -72.5 273.5t-199.5 99.5q-66 0 -124.5 -18 t-168.5 -72zM788 770q-96 96 -245 96q-144 0 -242 -136.5t-98 -336.5q0 -117 50 -183.5t138 -66.5q176 0 303 279q75 164 94 348z" />
<glyph unicode="&#x2206;" d="M1167 0h-1233l658 1409zM903 104l-387 938l-436 -938h823z" />
<glyph unicode="&#x220f;" horiz-adv-x="1593" d="M1593 -254h-594v53h7q47 0 88 17.5t63 46.5q17 21 23 58.5t6 115.5v1180q0 62 -1.5 94.5t-12 63.5t-23 42t-46.5 21t-69.5 11t-103.5 1h-137q-232 0 -291 -10q-58 -10 -76 -52.5t-18 -170.5v-1180q0 -126 22 -166q20 -33 63 -52.5t95 -19.5h6v-53h-594v53h6 q47 0 88.5 17.5t63.5 46.5q17 21 22.5 58t5.5 116v1210q0 126 -22 166q-20 34 -62 53t-96 19h-6v53h1593v-53h-6q-103 0 -151 -64q-17 -23 -23 -58.5t-6 -115.5v-1210q0 -124 23 -166q20 -33 62.5 -52.5t94.5 -19.5h6v-53z" />
<glyph unicode="&#x2211;" d="M1044 -197h-989v123l430 793l-430 713v118h973v-442h-139l-23 328h-645l436 -721l-450 -797h682l14 332h141v-447z" />
<glyph unicode="&#x2212;" d="M1028 473h-956v150h956v-150z" />
<glyph unicode="&#x2219;" horiz-adv-x="624" d="M324 807q51 0 83.5 -32.5t32.5 -82.5q0 -57 -40 -96t-97 -39q-51 0 -84 31.5t-33 79.5q0 60 39.5 99.5t98.5 39.5z" />
<glyph unicode="&#x221a;" d="M1069 1860l-311 -1932l-496 1016l-194 -96l-33 72l299 145l399 -807l260 1612z" />
<glyph unicode="&#x221e;" horiz-adv-x="1359" d="M680 621q61 75 98.5 109.5t87.5 62.5q104 55 199 55q130 0 212.5 -84.5t82.5 -218.5q0 -137 -79.5 -223t-205.5 -86q-101 0 -193.5 53.5t-201.5 175.5l-10 -10q-3 -5 -5 -8.5t-3 -4.5q-50 -61 -89 -94q-133 -112 -280 -112q-131 0 -212 84t-81 219q0 134 84 221.5 t211 87.5q93 0 201 -60q44 -25 81.5 -59t102.5 -108zM762 557l-12 -16q115 -121 177 -160t140 -39q87 0 138.5 53.5t51.5 143.5q0 89 -53.5 145.5t-136.5 56.5q-77 0 -159 -49t-146 -135zM602 530l10 15q-110 115 -176 155.5t-143 40.5q-88 0 -139.5 -54t-51.5 -146 q0 -88 50.5 -143.5t128.5 -55.5q134 0 294 160l11 10z" />
<glyph unicode="&#x222b;" d="M489 154l-2 47q-2 33 -2 73v21q0 18 -2 41v139v707q0 320 43 506q22 92 73 140t128 48q54 0 87.5 -25.5t33.5 -66.5q0 -29 -21 -47.5t-55 -18.5q-23 0 -37.5 12.5t-42.5 55.5l-2 2q-20 10 -26 10q-28 0 -43 -34.5t-15 -96.5v-43v-8l2 -25q0 -22 2 -30l2 -33 q9 -134 9 -348v-705q0 -320 -43 -506q-22 -92 -73 -140t-126 -48q-55 0 -89 25t-34 65q0 29 21 48.5t53 19.5q22 0 35 -9.5t26 -35.5q18 -37 43 -37q29 0 46.5 34t17.5 91v24q0 28 -2 57l-2 31l-2 35z" />
<glyph unicode="&#x2248;" d="M1001 836l78 -68q-42 -69 -69 -94q-82 -82 -222 -82q-36 0 -65.5 6t-130.5 35l-31 8q-1 0 -80 25q-95 32 -155 32q-61 0 -96.5 -22t-112.5 -107l-88 70q72 94 140 133t159 39q66 0 178 -33l78 -24q102 -33 135.5 -41t66.5 -8q61 0 99 23t116 108zM1001 514l78 -70 q-28 -45 -39.5 -60t-29.5 -32q-85 -82 -224 -82q-60 0 -131 21l-32 10l-25 8q-3 0 -27 8l-4 2q-3 1 -7 2t-6.5 2t-4.5 1l-29 10l-63 18q-85 25 -133 25q-60 0 -95 -22t-112 -107l-88 69q72 94 140 133t159 39q69 0 178 -32l78 -25q102 -33 135.5 -41t66.5 -8q63 0 102.5 24 t112.5 107z" />
<glyph unicode="&#x2260;" d="M1087 289h-604l-172 -340l-94 49l148 291h-353v112h408l143 285h-551v113h609l163 325l97 -49l-140 -276h346v-113h-403l-143 -285h546v-112z" />
<glyph unicode="&#x2264;" d="M1061 240l-1018 477v112l1018 480v-127l-856 -408l856 -407v-127zM1061 0h-1018v113h1018v-113z" />
<glyph unicode="&#x2265;" d="M1059 717l-1018 -477v127l856 407l-856 408v127l1018 -480v-112zM1059 0h-1018v113h1018v-113z" />
<glyph unicode="&#x25fc;" horiz-adv-x="962" d="M0 963h963v-963h-963v963z" />
</font>
</defs>
</svg>
