<?xml version="1.0" standalone="no"?>
<!DOCTYPE svg PUBLIC "-//W3C//DTD SVG 1.1//EN" "http://www.w3.org/Graphics/SVG/1.1/DTD/svg11.dtd" >
<svg xmlns="http://www.w3.org/2000/svg" xmlns:xlink="http://www.w3.org/1999/xlink" version="1.1">
<metadata></metadata>
<defs>
<font id="pru_sans_ot2book_italic" horiz-adv-x="1024" >
<font-face units-per-em="2048" ascent="1460" descent="-588" />
<missing-glyph horiz-adv-x="434" />
<glyph unicode="ff" horiz-adv-x="1110" d="M733 844h-373l-147 -844h-143l147 844h-158l21 108h156l20 113q23 128 50.5 195t76.5 118q47 51 119.5 79t156.5 28q64 0 166 -31l-47 -104q-55 16 -106 16q-113 0 -185 -72q-31 -32 -48.5 -76t-32.5 -124l-25 -142h373l20 113q22 127 48.5 194.5t76.5 118.5 q104 107 277 107q63 0 165 -31l-47 -104q-55 16 -106 16q-113 0 -182 -72q-32 -32 -50.5 -76.5t-31.5 -123.5l-25 -142h246l-23 -108h-245l-146 -844h-143z" />
<glyph unicode="fi" horiz-adv-x="987" d="M879 1329h2q2 0 2 -2h2h2h2l6 -2q72 -21 72 -88q0 -35 -32 -65.5t-69 -30.5q-33 0 -61.5 28.5t-28.5 61.5q0 37 34 69t69 29zM893 952l-168 -952h-143l149 844h-371l-147 -844h-143l147 844h-158l21 108h156l20 113q26 148 55 207q46 102 134 157.5t204 55.5 q79 0 176 -31l-47 -104q-55 16 -106 16q-123 0 -193 -82q-48 -53 -73 -190l-25 -142h512z" />
<glyph unicode="fl" horiz-adv-x="995" d="M997 1460l-258 -1460h-143l149 844h-385l-147 -844h-143l147 844h-158l21 108h156l20 113q26 148 55 207q46 103 134 158t206 55q53 0 150 -21l-49 -104q-47 6 -80 6q-123 0 -193 -82q-48 -53 -73 -190l-25 -142h383l90 508h143z" />
<glyph unicode="ffi" horiz-adv-x="1501" d="M381 952h371l18 113q23 128 50.5 195t76.5 118q104 107 277 107q63 0 165 -31l-47 -104q-55 16 -106 16q-113 0 -182 -72q-32 -32 -50.5 -76.5t-31.5 -123.5l-27 -142h512l-168 -952h-141l147 844h-371l-147 -844h-141l145 844h-371l-147 -844h-143l147 844h-158l21 108 h156l20 113q23 128 50.5 195t76.5 118q47 51 119.5 79t156.5 28q64 0 166 -31l-47 -104q-55 16 -106 16q-113 0 -185 -72q-31 -32 -48.5 -76t-32.5 -124zM1397 1327h4q78 -15 78 -86q0 -40 -29.5 -69t-69.5 -29q-35 0 -61.5 26.5t-26.5 61.5q0 38 30 68t67 30q6 0 8 -2z" />
<glyph unicode="ffl" horiz-adv-x="1509" d="M381 952h371l18 113q23 128 50.5 195t76.5 118q104 107 277 107q48 0 143 -21l-49 -104q-56 6 -82 6q-52 0 -101.5 -19.5t-83.5 -52.5q-31 -32 -48 -76t-31 -124l-27 -142h383l90 508h143l-258 -1460h-143l150 844h-386l-147 -844h-141l145 844h-371l-147 -844h-143 l147 844h-158l21 108h156l20 113q23 128 50.5 195t76.5 118q47 51 119.5 79t156.5 28q62 0 166 -31l-47 -104q-55 16 -106 16q-113 0 -185 -72q-31 -32 -48.5 -76t-32.5 -124z" />
<glyph unicode=" "  horiz-adv-x="434" />
<glyph unicode="&#x09;" horiz-adv-x="434" />
<glyph unicode="&#xa0;" horiz-adv-x="434" />
<glyph unicode="!" horiz-adv-x="606" d="M514 1366l-190 -1022h-129l163 1022h156zM225 186h8q34 0 58 -27t24 -67t-31.5 -70t-74.5 -30q-40 0 -65 25t-25 65q0 43 31 73.5t75 30.5z" />
<glyph unicode="&#x22;" horiz-adv-x="575" d="M356 1395l-69 -385h-144l68 385h145zM625 1395l-68 -385h-143l67 385h144z" />
<glyph unicode="#" horiz-adv-x="927" d="M932 1047l-35 -113h-172l-63 -193h174l-33 -108h-176l-129 -408h-117l129 408h-156l-127 -408h-118l129 408h-175l37 108h170l64 193h-170l37 113h168l114 366h119l-115 -366h154l117 366h116l-114 -366h172zM604 934h-151l-62 -193h152z" />
<glyph unicode="$" horiz-adv-x="993" d="M983 1360l-41 -109q-88 17 -186 25l-127 -408l39 -20q121 -61 176 -127.5t55 -151.5q0 -158 -154 -272q-64 -46 -140.5 -73t-190.5 -42l-60 -188h-121l58 184q-162 9 -260 41l45 113q117 -27 256 -27l147 473q-2 0 -6 2q-61 26 -149 86q-107 76 -107 189q0 69 37.5 133.5 t105.5 111.5q60 43 132.5 65.5t179.5 31.5l55 174h121l-55 -178q103 -9 190 -33zM524 922l109 348q-123 -22 -188.5 -71.5t-65.5 -121.5q0 -82 96 -129l25 -12zM584 721l-127 -406q134 28 206 89t72 147q0 54 -28.5 85.5t-122.5 84.5z" />
<glyph unicode="%" horiz-adv-x="1337" d="M729 1128v-6q0 -186 -113.5 -318t-271.5 -132q-114 0 -177 71t-63 199q0 187 112.5 320t270.5 133q113 0 177.5 -71.5t64.5 -195.5zM1276 1341l-1114 -1376l-88 60l1114 1380zM1239 459v-37q0 -121 -51.5 -224t-140 -163t-193.5 -60q-114 0 -176 70.5t-62 198.5 q0 187 112.5 319.5t270.5 132.5q111 0 175.5 -63.5t64.5 -173.5zM461 1286q-94 0 -163 -95.5t-69 -227.5q0 -86 37.5 -133.5t106.5 -47.5q96 0 163.5 95t67.5 229q0 86 -37.5 133t-105.5 47zM975 588q-97 0 -165.5 -96.5t-68.5 -231.5q0 -83 38 -129.5t106 -46.5 q96 0 163.5 95t67.5 229q0 86 -36.5 133t-104.5 47z" />
<glyph unicode="&#x26;" horiz-adv-x="1333" d="M1159 86l-88 -100l-20 14q-53 37 -66 45q-11 7 -59 43l-4 4l-7 4l-16 15l-18 12l-2 2l-23 18l-18 17l-7 4q-120 -96 -230.5 -139t-238.5 -43q-157 0 -254.5 88t-97.5 229q0 192 170 348q72 64 205 144q-45 101 -45 210q0 169 104 278.5t265 109.5q110 0 177.5 -59 t67.5 -156q0 -117 -94.5 -222t-294.5 -209q50 -104 134.5 -219.5t150.5 -167.5q60 60 88 111l8 14l6 13q21 38 25 47q4 6 12 26l19 39l2 6h133q-65 -203 -201 -348l4 -4l6 -6l31 -29l6 -6q14 -10 44.5 -35t45.5 -37l6 -4l11 -8l12 -10q2 -1 4 -2.5t7 -5.5t11 -8 q20 -16 25 -21zM514 862l16 8q42 18 101.5 58.5t89.5 70.5q84 87 84 168q0 43 -31 70t-78 27q-87 0 -148 -77t-61 -186q0 -59 27 -139zM739 256l-12 12l-63 68q-69 75 -131 168t-91 166q-146 -86 -210 -168t-64 -183q0 -95 62.5 -151.5t166.5 -56.5q86 0 180 40t162 105z " />
<glyph unicode="'" horiz-adv-x="305" d="M356 1395l-69 -385h-144l68 385h145z" />
<glyph unicode="(" horiz-adv-x="641" d="M559 1391l84 -76q-190 -222 -272 -387q-68 -138 -105 -290.5t-37 -293.5q0 -110 28.5 -241t68.5 -201l4 -8l2 -5q3 -7 8.5 -18t7.5 -16q4 -14 25 -52l-88 -59q-106 162 -154.5 320.5t-48.5 345.5q0 519 477 981z" />
<glyph unicode=")" horiz-adv-x="641" d="M236 1331l90 60q104 -158 152 -318.5t48 -347.5q0 -216 -74 -407t-235 -390q-81 -103 -166 -182l-82 76q108 129 169 216t104 177q137 286 137 573q0 116 -28.5 246.5t-71.5 214.5q-16 25 -21 41q-6 9 -20 37v2z" />
<glyph unicode="*" d="M803 1149l-27 -117l-235 4l98 -211l-111 -49l-73 209l-146 -213l-98 74l158 188l-238 -14l27 119l241 -2l-98 209l107 51l73 -213l144 209l94 -74l-148 -182z" />
<glyph unicode="+" d="M989 477h-411v-411h-136v411h-409v135h409v410h136v-410h411v-135z" />
<glyph unicode="," horiz-adv-x="524" d="M322 178l-125 -407h-115l72 407h168z" />
<glyph unicode="-" horiz-adv-x="641" d="M530 485h-483l21 121h483z" />
<glyph unicode="." horiz-adv-x="579" d="M211 186h10q32 0 57 -27.5t25 -64.5q0 -41 -32 -71.5t-76 -30.5q-39 0 -65 25t-26 63q0 44 32 75t75 31z" />
<glyph unicode="/" d="M981 1497l-946 -1675l-119 49l946 1675z" />
<glyph unicode="0" horiz-adv-x="1026" d="M641 1393q173 0 269 -130t96 -364q0 -248 -82.5 -460.5t-223.5 -337t-305 -124.5q-175 0 -269.5 129t-94.5 365q0 246 82.5 458.5t223.5 338t304 125.5zM623 1266q-112 0 -211.5 -106.5t-159 -286t-59.5 -381.5q0 -388 219 -388q116 0 216 105.5t159 285t59 386.5 q0 195 -54.5 290t-168.5 95z" />
<glyph unicode="1" horiz-adv-x="1026" d="M791 1333l-236 -1333h-156l215 1212l-381 -180l-40 109l481 248z" />
<glyph unicode="2" horiz-adv-x="1026" d="M227 1169l-28 115q145 59 245.5 84t190.5 25q161 0 253.5 -82.5t92.5 -227.5q0 -138 -80.5 -276.5t-267.5 -321.5q-88 -85 -136.5 -125.5t-263.5 -209.5l-16 -13h637l-23 -137h-847v109l22 18q26 21 39 31q23 15 37 28l4 2l2 2l6 5q6 4 8 6q85 56 264.5 217t264.5 258 q182 203 182 391q0 94 -54.5 142t-158.5 48q-71 0 -182 -25.5t-180 -57.5z" />
<glyph unicode="3" horiz-adv-x="1026" d="M236 1171l-33 117q3 1 12 5t18 7l19 9q69 34 172 57t182 23q148 0 233 -68t85 -186q0 -154 -136 -265q-67 -53 -190 -96l-10 -4q97 -21 145 -47q58 -34 89.5 -94t31.5 -135q0 -96 -49.5 -184.5t-136.5 -147.5q-129 -85 -297 -131.5t-348 -46.5h-23l-10 2h-4h-13h-22 l20 114q328 10 528.5 118t200.5 274q0 82 -57 133q-38 32 -129 53.5t-192 21.5q-51 0 -91 -4h-10h-4l19 117h38q204 0 350 90t146 217q0 65 -46.5 101t-129.5 36q-127 0 -358 -86z" />
<glyph unicode="4" horiz-adv-x="1026" d="M954 487l-22 -129h-164l-63 -358h-148l61 358h-602l-10 129l813 906l123 -47l-151 -859h163zM756 1126l-566 -639h453z" />
<glyph unicode="5" horiz-adv-x="1026" d="M1016 1366l-23 -135h-534l-109 -291q190 -22 295 -68q107 -46 166 -127t59 -184q0 -91 -44.5 -184.5t-120.5 -163.5q-114 -104 -307 -167.5t-394 -63.5h-16h-17q-9 0 -32 4h-9l21 112q212 5 386.5 64.5t274 158.5t99.5 216q0 134 -121.5 203t-356.5 69h-18l-18 119 l163 438h656z" />
<glyph unicode="6" horiz-adv-x="1026" d="M1038 1380l-10 -127q-232 -32 -400.5 -128t-301.5 -273q-59 -83 -72 -129l-4 -8q-1 -4 -3 -9.5t-5.5 -13.5t-5.5 -14l-3 -8q94 82 177.5 117.5t181.5 35.5q149 0 241.5 -96.5t92.5 -251.5q0 -135 -66.5 -251t-180 -184.5t-245.5 -68.5q-178 0 -283.5 122.5t-105.5 326.5 q0 246 145.5 476t378.5 351q194 105 469 133zM193 428v-12q0 -146 65.5 -233t175.5 -87q135 0 233.5 112.5t98.5 266.5q0 97 -53.5 153t-145.5 56q-98 0 -201 -58.5t-169 -150.5q-1 -8 -2 -15.5t-1.5 -11t-0.5 -6.5v-14z" />
<glyph unicode="7" horiz-adv-x="1026" d="M1081 1366l-6 -131l-917 -1249l-129 75l874 1172h-710l22 133h866z" />
<glyph unicode="8" horiz-adv-x="1026" d="M389 721l12 6q-107 71 -156.5 141.5t-49.5 153.5q0 155 137 259.5t342 104.5q153 0 239 -66.5t86 -186.5q0 -191 -217 -336q-57 -37 -118 -70q8 -5 32.5 -21t38.5 -24q45 -30 66 -51q0 -3 8 -8q4 -2 29 -27q86 -96 86 -213q0 -111 -72.5 -205t-197.5 -148.5t-273 -54.5 q-177 0 -281 81t-104 218q0 122 101 237t292 210zM549 805q105 62 133 84q158 112 158 235q0 63 -49.5 100.5t-133.5 37.5q-121 0 -214 -68.5t-93 -157.5q0 -63 45.5 -115.5t153.5 -115.5zM510 647l-10 -6q-188 -101 -268 -183t-80 -173q0 -82 64.5 -132.5t170.5 -50.5 q145 0 259 85t114 192q0 87 -105 170q-23 19 -82 58.5t-63 39.5z" />
<glyph unicode="9" horiz-adv-x="1026" d="M0 -16l8 125q236 32 406.5 128t292.5 267q13 22 26 39q34 52 70 147q-97 -82 -181.5 -117.5t-179.5 -35.5q-148 0 -239.5 96.5t-91.5 251.5q0 136 67 253t180 186t244 69q178 0 283.5 -123t105.5 -330q0 -189 -96 -384.5t-256 -328.5q-129 -107 -281 -165t-358 -78z M844 942v4q0 148 -65.5 234t-178.5 86q-132 0 -231 -113t-99 -264q0 -101 52.5 -156t148.5 -55q97 0 200.5 59t168.5 150q4 28 4 55z" />
<glyph unicode=":" horiz-adv-x="579" d="M350 969h8q32 0 57 -29t25 -66q0 -40 -32.5 -72t-73.5 -32q-38 0 -65 27t-27 67q0 41 32.5 73t75.5 32zM211 186h10q32 0 57 -27.5t25 -64.5q0 -41 -32 -71.5t-76 -30.5q-39 0 -65 25t-26 63q0 44 32 75t75 31z" />
<glyph unicode=";" horiz-adv-x="559" d="M350 969h8q32 0 57 -29t25 -66q0 -40 -32.5 -72t-73.5 -32q-37 0 -64.5 28t-27.5 66q0 41 32.5 73t75.5 32zM322 178l-125 -407h-115l72 407h168z" />
<glyph unicode="&#x3c;" d="M940 141l-856 580v14l856 543v-104l-592 -381l592 -385v-267z" />
<glyph unicode="=" d="M989 623h-956v135h956v-135zM989 334h-956v135h956v-135z" />
<glyph unicode="&#x3e;" d="M940 684l-856 -543v105l592 383l-592 385v264l856 -580v-14z" />
<glyph unicode="?" horiz-adv-x="940" d="M229 1174l-43 114q145 63 233.5 86t186.5 23q143 0 231.5 -75t88.5 -196q0 -108 -70.5 -218t-193.5 -191q-49 -34 -195 -109l-47 -264h-129l37 340q203 71 321.5 183t118.5 235q0 78 -49.5 120t-143.5 42q-146 0 -346 -90zM317 190q38 0 65.5 -28t27.5 -68 q0 -41 -32 -71.5t-75 -30.5q-38 0 -65 27t-27 65q0 43 31.5 74.5t74.5 31.5z" />
<glyph unicode="@" horiz-adv-x="1599" d="M1249 291l66 -94q-152 -117 -293 -167t-313 -50q-283 0 -447 149.5t-164 407.5q0 136 46.5 267t131 237t195.5 187.5t246.5 126t277.5 44.5q246 0 392.5 -127t146.5 -342q0 -166 -83 -299t-230 -208t-330 -75h-4h-23h-2l-6 2h-16h-9l29 82q-69 -48 -119.5 -68t-101.5 -20 q-86 0 -137 54.5t-51 146.5q0 74 38 172t101 182q57 78 129 121t147 43q85 0 138 -43q18 -12 51 -55l28 79h142l-203 -569q167 28 276 157.5t109 301.5q0 161 -106.5 251.5t-296.5 90.5q-147 0 -286.5 -61t-242 -161.5t-165 -236.5t-62.5 -280q0 -201 126 -319t341 -118 q86 0 187.5 24.5t170.5 61.5q20 11 33 17l4 2q53 24 139 86zM915 586l95 264q-26 50 -55 71t-70 21q-62 0 -124 -53t-106 -144q-51 -104 -51 -188q0 -92 72 -92q45 0 100 28t139 93z" />
<glyph unicode="A" horiz-adv-x="1312" d="M1184 0h-162l-115 502h-555l-291 -502h-161l800 1366h164zM881 625l-131 569l-328 -569h459z" />
<glyph unicode="B" horiz-adv-x="1159" d="M295 1366h330q226 0 331 -66.5t105 -209.5q0 -82 -39 -161t-102 -126q-42 -34 -140 -70q240 -56 240 -274q0 -94 -46.5 -182t-131.5 -154q-83 -64 -186 -93.5t-246 -29.5h-355zM350 784h178q194 0 293 105q80 86 80 192q0 83 -61.5 120.5t-196.5 37.5h-213zM236 129h198 q267 0 375 178q43 76 43 160q0 107 -71.5 149.5t-252.5 42.5h-200z" />
<glyph unicode="C" horiz-adv-x="1316" d="M1378 1309l-63 -113q-17 5 -45 14q-52 21 -133 35.5t-146 14.5q-198 0 -365.5 -93.5t-264.5 -255t-97 -352.5q0 -117 43 -213t121 -158q106 -84 293 -84q105 0 197.5 24t222.5 85l37 -117q-119 -66 -229 -95.5t-242 -29.5q-281 0 -445 153t-164 415q0 172 71.5 330 t192 272.5t286 183t345.5 68.5q190 0 385 -84z" />
<glyph unicode="D" horiz-adv-x="1439" d="M295 1366h360q224 0 361 -47.5t219 -153.5q117 -151 117 -368q0 -202 -109.5 -383t-298.5 -291q-122 -71 -235 -97t-303 -26h-351zM236 135h258q193 0 353 89t251.5 243.5t91.5 341.5q0 125 -45 219.5t-129 145.5q-108 63 -332 63h-254z" />
<glyph unicode="E" horiz-adv-x="1026" d="M1032 1366l-22 -131h-580l-80 -453h549l-22 -127h-549l-92 -520h622l-24 -135h-779l242 1366h735z" />
<glyph unicode="F" horiz-adv-x="960" d="M1018 1366l-23 -131h-565l-80 -453h533l-23 -127h-532l-117 -655h-156l240 1366h723z" />
<glyph unicode="G" horiz-adv-x="1398" d="M1374 1309l-61 -113l-15 6l-16 4l-12 4l-4 2l-13 5l-10 4q-128 34 -237 34q-197 0 -356.5 -79t-262.5 -228q-123 -180 -123 -395q0 -214 123 -335.5t338 -121.5q135 0 305 51l88 502h158l-102 -586q-46 -16 -78 -28q-95 -32 -117 -35h-6l-21 -4l-22 -4l-8 -2 q-86 -23 -224 -23q-276 0 -437 155t-161 421q0 172 70.5 329t190 270.5t284 181t344.5 67.5q96 0 184 -19t201 -63z" />
<glyph unicode="H" horiz-adv-x="1394" d="M1350 1366l-240 -1366h-158l115 653h-739l-117 -653h-156l240 1366h158l-105 -588h742l104 588h156z" />
<glyph unicode="I" horiz-adv-x="497" d="M453 1366l-242 -1366h-156l240 1366h158z" />
<glyph unicode="J" horiz-adv-x="632" d="M594 1366l-168 -952l-6 -37q-38 -191 -141 -277t-342 -127l-7 123l11 2q166 46 233.5 106t89.5 183l172 979h158z" />
<glyph unicode="K" horiz-adv-x="1259" d="M1321 1366l-809 -651l592 -715h-211l-559 692l-123 -692h-156l240 1366h158l-109 -614l750 614h227z" />
<glyph unicode="L" horiz-adv-x="948" d="M823 137l-22 -137h-746l240 1366h158l-217 -1229h587z" />
<glyph unicode="M" horiz-adv-x="1779" d="M1618 1366l-41 -1366h-160l41 1116l-616 -1116h-131l-224 1124l-360 -1124h-152l447 1366h172l225 -1143l627 1143h172z" />
<glyph unicode="N" horiz-adv-x="1384" d="M1339 1366l-241 -1366h-150l-549 1124l-198 -1124h-146l240 1366h156l550 -1126l199 1126h139z" />
<glyph unicode="O" horiz-adv-x="1476" d="M879 1393q235 0 372.5 -147.5t137.5 -399.5q0 -233 -105.5 -434.5t-285 -320t-386.5 -118.5q-235 0 -374.5 149.5t-139.5 401.5q0 174 63 335t168 277.5t249.5 186.5t300.5 70zM850 1257q-116 0 -224.5 -57.5t-188 -153t-127.5 -226.5t-48 -271q0 -209 96 -322.5 t273 -113.5q160 0 296.5 94.5t216 257.5t79.5 354q0 204 -100 321t-273 117z" />
<glyph unicode="P" horiz-adv-x="1071" d="M295 1366h301h12h2q0 -2 15 -2q8 0 65 -2q18 -2 27 -2h10h10q160 0 250 -80.5t90 -222.5q0 -106 -57.5 -205.5t-155.5 -165.5q-71 -45 -156 -64.5t-214 -19.5h-177l-106 -602h-156zM340 731h168q112 0 183.5 22.5t125.5 75.5q44 44 69 102.5t25 115.5q0 117 -92 159 q-61 25 -194 25h-197z" />
<glyph unicode="Q" horiz-adv-x="1480" d="M1186 -174l-6 -2l-23 -2l-18 -2q-90 -10 -135 -10q-276 0 -492 106q-410 196 -410 631q0 165 64 321.5t169.5 271.5t248 185t293.5 70q238 0 376 -152.5t138 -413.5q0 -158 -57.5 -311t-151.5 -266t-220 -182.5t-257 -69.5q-23 0 -93 6l17 -6q143 -41 207 -51t192 -10h23 h22h19l18 2h4q6 0 14 2q9 0 21 2h8l25 2l6 2zM854 1257q-158 0 -294.5 -97t-216 -262.5t-79.5 -358.5q0 -210 95 -324.5t268 -114.5q160 0 298 97.5t219 264t81 359.5q0 205 -98 320.5t-273 115.5z" />
<glyph unicode="R" horiz-adv-x="1169" d="M295 1366h321q201 0 289 -33q174 -59 174 -264q0 -152 -104 -262.5t-273 -138.5q66 -22 97 -103l215 -565h-180l-181 504q-26 73 -62 100t-108 27h-159l-113 -631h-156zM344 754h199q190 0 293 112q77 86 77 195q0 95 -63.5 135.5t-212.5 40.5h-207z" />
<glyph unicode="S" horiz-adv-x="1054" d="M1028 1346l-47 -113q-122 29 -242 29q-175 0 -285 -68.5t-110 -177.5q0 -69 48 -111t222 -127q168 -79 239 -159.5t71 -190.5q0 -130 -80.5 -234.5t-223.5 -163.5t-321 -59q-140 0 -322 41l46 123q170 -29 266 -29q198 0 335.5 89.5t137.5 218.5q0 60 -38.5 105 t-129.5 91l-111 56q-169 87 -236 161.5t-67 178.5q0 107 72 195.5t197.5 139t277.5 50.5q156 0 301 -45z" />
<glyph unicode="T" horiz-adv-x="1103" d="M1202 1366l-22 -131h-445l-219 -1235h-158l220 1235h-449l23 131h1050z" />
<glyph unicode="U" horiz-adv-x="1386" d="M1348 1366l-152 -860q-23 -129 -68 -217.5t-122 -157.5q-184 -158 -449 -158q-205 0 -320.5 98t-115.5 273q0 77 14 148l154 874h157l-155 -874q-15 -80 -15 -134q0 -122 74 -184.5t219 -62.5q127 0 232 47t168 133q61 81 88 244l147 831h144z" />
<glyph unicode="V" horiz-adv-x="1261" d="M1374 1366l-782 -1366h-164l-289 1366h164l236 -1186l671 1186h164z" />
<glyph unicode="W" horiz-adv-x="1927" d="M2040 1366l-666 -1366h-180l-150 1130l-548 -1130h-179l-178 1366h160l141 -1159l564 1159h167l156 -1159l553 1159h160z" />
<glyph unicode="X" horiz-adv-x="1198" d="M1270 1366l-563 -655l360 -711h-174l-299 600l-516 -600h-178l626 729l-323 637h172l266 -526l453 526h176z" />
<glyph unicode="Y" horiz-adv-x="1144" d="M1255 1366l-620 -762l-107 -604h-157l108 623l-340 743h166l275 -621l495 621h180z" />
<glyph unicode="Z" horiz-adv-x="1064" d="M1098 1366l-21 -125l-899 -1108h721l-25 -133h-913l23 127l897 1108h-695l23 131h889z" />
<glyph unicode="[" horiz-adv-x="671" d="M655 1366l-20 -119h-225l-240 -1358h225l-22 -120h-373l283 1597h372z" />
<glyph unicode="\" d="M981 -129l-119 -49l-946 1675l119 49z" />
<glyph unicode="]" horiz-adv-x="671" d="M641 1366l-281 -1597h-372l20 120h223l240 1358h-223l20 119h373z" />
<glyph unicode="^" d="M1079 578h-104l-381 591l-385 -591h-264l577 856h15z" />
<glyph unicode="_" d="M993 -307h-962v123h962v-123z" />
<glyph unicode="`" horiz-adv-x="401" d="M489 1147l-81 -80l-299 209l118 117z" />
<glyph unicode="a" horiz-adv-x="907" d="M786 111l2 -107q-79 -24 -114 -24q-60 0 -98.5 37.5t-38.5 95.5v22q-105 -82 -180 -115.5t-152 -33.5q-91 0 -146 52.5t-55 141.5q0 94 59 168t183 137q73 37 145 60.5t219 56.5q21 123 21 156q0 94 -94 94q-111 0 -304 -119l-24 -16l-8 -6l-64 96q109 83 220.5 129.5 t203.5 46.5q98 0 156.5 -53t58.5 -142q0 -35 -14 -126l-14 -91l-68 -378q-18 -95 41 -95q17 0 65 13zM555 291l33 188q-186 -53 -258 -90q-94 -47 -136 -94.5t-42 -104.5q0 -75 75 -75q67 0 144 41t184 135z" />
<glyph unicode="b" horiz-adv-x="1089" d="M430 1460l-113 -641q111 90 190 126t165 36q145 0 230 -98.5t85 -264.5q0 -168 -72 -317t-192.5 -237.5t-255.5 -88.5q-88 0 -150.5 34t-121.5 114l-23 -123h-141l258 1460h141zM285 643l-64 -367q55 -93 114 -134.5t134 -41.5q93 0 177 69.5t134.5 185.5t50.5 245 q0 110 -51 176t-137 66t-181 -53t-177 -146z" />
<glyph unicode="c" horiz-adv-x="905" d="M870 899l-65 -102q-119 61 -215 61q-158 0 -271.5 -143t-113.5 -342q0 -127 52.5 -194.5t150.5 -67.5q133 0 315 116l55 -96q-120 -86 -207 -120t-188 -34q-157 0 -246.5 104.5t-89.5 287.5q0 128 42.5 241.5t114.5 194.5t172.5 128.5t213.5 47.5q75 0 139 -19t141 -63z " />
<glyph unicode="d" horiz-adv-x="1105" d="M1102 1460l-256 -1460h-144l25 135q-106 -85 -191.5 -121.5t-179.5 -36.5q-145 0 -229 99t-84 268q0 168 70.5 316t189.5 235.5t254 87.5q98 0 164 -42t123 -142l117 661h141zM758 317l55 308q-56 123 -116 175t-148 52q-92 0 -173.5 -67.5t-130 -180.5t-48.5 -242 q0 -249 196 -249q191 0 365 204z" />
<glyph unicode="e" horiz-adv-x="993" d="M772 246l55 -96q-82 -73 -204.5 -123t-233.5 -50q-167 0 -255.5 99t-88.5 286q0 124 43.5 239t116 198.5t172 133.5t207.5 50q149 0 230 -85t81 -241q0 -63 -18 -168h-658q-18 -90 -18 -141q0 -117 52.5 -178t152.5 -61q144 0 366 137zM248 596l497 10q7 44 7 68v4 q0 88 -47 136t-132 48q-106 0 -189 -68.5t-136 -197.5z" />
<glyph unicode="f" horiz-adv-x="593" d="M825 1454l-47 -104q-55 16 -106 16q-123 0 -193 -82q-48 -53 -73 -190l-25 -142h246l-21 -108h-246l-147 -844h-143l147 844h-158l21 108h156l20 113q26 148 55 207q46 102 134 157.5t204 55.5q79 0 176 -31z" />
<glyph unicode="g" horiz-adv-x="1048" d="M1044 956l-18 -110h-184q53 -80 53 -170q0 -110 -63 -208.5t-168.5 -157t-225.5 -58.5q-67 0 -121 22l-84 -98l11 -4l10 -4h2q54 -25 201 -45l137 -19q174 -25 249 -77.5t75 -151.5q0 -102 -77.5 -185.5t-213 -131t-301.5 -47.5q-201 0 -312.5 67.5t-111.5 188.5 q0 75 45.5 145t120.5 108q10 5 102 41q-27 9 -29 11q-40 13 -67 31t-27 30q0 13 33 51l4 6l2 3l2 4q8 8 12 14l2 2l2 2l13 14l4 4l2 3l14 14l25 26l10 13l10 8l2 4q15 15 33 35q-76 85 -76 207q0 87 36 168.5t95.5 141.5t140 96t165.5 36q69 0 149 -29h317zM567 866 q-115 0 -195.5 -91t-80.5 -220q0 -91 44.5 -138.5t127.5 -47.5q118 0 201.5 92t83.5 221q0 88 -47.5 136t-133.5 48zM328 12q-79 -20 -129 -43q-72 -35 -113 -86t-41 -108q0 -69 69 -105.5t201 -36.5q187 0 316 68t129 166q0 42 -33 63t-119 33q-58 8 -59 8q-58 10 -64 13 q-35 6 -57 8q-1 1 -3.5 1.5t-7 1t-7.5 1.5q-24 2 -82 16z" />
<glyph unicode="h" horiz-adv-x="1071" d="M428 1460l-113 -643q93 62 152 98q44 26 119 46t127 20q101 0 167 -61.5t66 -155.5q0 -27 -10 -86l-119 -678h-139l108 616l7 37q4 20 8 47v2l2 25v12v11q0 100 -119 100q-90 0 -178 -45t-221 -160l-113 -645h-141l258 1460h139z" />
<glyph unicode="i" horiz-adv-x="434" d="M338 1376h8q29 0 52.5 -27t23.5 -61q0 -38 -30 -68t-68 -30q-35 0 -61.5 26.5t-26.5 61.5q0 40 30.5 69t71.5 29zM342 952l-168 -952h-143l168 952h143z" />
<glyph unicode="j" horiz-adv-x="425" d="M330 1376h10q28 0 52 -28t24 -60q0 -38 -30 -68t-67 -30t-63.5 26.5t-26.5 63.5q0 38 30.5 67t70.5 29zM334 952l-170 -968l-8 -52q-26 -196 -109.5 -288.5t-271.5 -135.5l-21 109q138 52 186 108t68 185l10 51l175 991h141z" />
<glyph unicode="k" horiz-adv-x="952" d="M975 952l-553 -448l393 -504h-182l-375 498l-88 -498h-139l258 1460h139l-162 -919l498 411h211z" />
<glyph unicode="l" horiz-adv-x="436" d="M432 1460l-258 -1460h-143l258 1460h143z" />
<glyph unicode="m" horiz-adv-x="1554" d="M340 952l-23 -131q108 85 191 122.5t166 37.5t127.5 -41.5t58.5 -130.5q115 94 198 134t167 40q95 0 150 -52t55 -143q0 -43 -21 -176l-109 -612h-143l111 631l12 67q6 38 6 64q0 46 -22.5 67t-69.5 21q-97 0 -172 -57q-3 -1 -29 -21l-4 -2l-14 -10q-90 -68 -123 -103 l-115 -657h-141l106 612q19 127 19 146q0 90 -86 90q-146 0 -348 -193l-115 -655h-141l168 952h141z" />
<glyph unicode="n" horiz-adv-x="1056" d="M342 952l-25 -135q121 92 204 128t173 36q107 0 170.5 -57.5t63.5 -155.5q0 -48 -15 -137l-112 -631h-142l101 575l8 50q14 95 14 123q0 104 -108 104q-83 0 -173 -46t-212 -149l-115 -657h-143l168 952h143z" />
<glyph unicode="o" horiz-adv-x="1050" d="M942 625v-13v-6q0 -174 -71 -318t-195 -226t-273 -82q-164 0 -260 103.5t-96 281.5q0 166 72.5 308.5t196 226t266.5 83.5q96 0 174.5 -39t122.5 -108q25 -38 44 -98t19 -97v-16zM438 109q69 7 117 29.5t94 68.5q67 66 104.5 165t37.5 210q0 132 -58.5 203t-165.5 71 q-101 0 -185 -63t-132.5 -171.5t-48.5 -238.5q0 -134 55 -206.5t158 -72.5q14 0 24 5z" />
<glyph unicode="p" horiz-adv-x="1089" d="M340 952l-23 -133q115 92 192 127t163 35q144 0 229.5 -99t85.5 -264q0 -167 -72.5 -316t-193 -238t-254.5 -89q-89 0 -151 34t-121 114l-107 -594h-139l250 1423h141zM285 643l-64 -367q55 -93 114 -134.5t134 -41.5q93 0 177 69.5t134.5 185t50.5 243.5 q0 113 -51 178.5t-139 65.5q-172 0 -356 -199z" />
<glyph unicode="q" horiz-adv-x="1105" d="M1014 952l-252 -1423h-144l109 606q-104 -85 -190.5 -121.5t-180.5 -36.5q-145 0 -229 99t-84 268q0 168 70.5 316t189 235.5t252.5 87.5q98 0 166 -43t123 -141l26 153h144zM758 317l55 308q-56 123 -116 175t-148 52q-92 0 -173.5 -67.5t-130 -180.5t-48.5 -242 q0 -249 196 -249q191 0 365 204z" />
<glyph unicode="r" horiz-adv-x="659" d="M711 950l-60 -125q-30 15 -55 15q-69 0 -157.5 -73t-166.5 -196l-100 -571h-141l168 952h141l-31 -172l2 4l11 11l10 12q4 4 14 16q17 20 57.5 54.5t71.5 54.5q65 41 133 41q41 0 103 -23z" />
<glyph unicode="s" horiz-adv-x="804" d="M748 952l-48 -108q-115 24 -190 24q-108 0 -178 -42.5t-70 -108.5q0 -32 25 -55.5t108 -67.5l62 -33q121 -64 169 -121t48 -135q0 -143 -132.5 -235.5t-336.5 -92.5q-140 0 -240 35l-8 4l41 105l25 -6q15 -2 36 -11q100 -10 138 -10q136 0 228.5 55.5t92.5 137.5 q0 62 -74 110q-74 42 -100 56q-112 61 -147 86q-91 64 -91 166q0 121 114 200.5t288 79.5q105 0 240 -33z" />
<glyph unicode="t" horiz-adv-x="589" d="M594 952l-19 -108h-243l-101 -565l-2 -7l-2 -14l-2 -12q-8 -36 -8 -72q0 -78 113 -78q46 0 116 15l-20 -111q-87 -18 -141 -18q-101 0 -157 42.5t-56 120.5q0 19 6 60l12 74l100 565h-159l20 108h158l47 260h139l-45 -260h244z" />
<glyph unicode="u" horiz-adv-x="1058" d="M967 952l-168 -952h-144l25 141q-104 -86 -194.5 -123.5t-192.5 -37.5q-106 0 -163.5 54.5t-57.5 155.5q0 54 16 152l107 610h141l-100 -567q-21 -129 -21 -164q0 -110 113 -110q85 0 174 46.5t207 153.5l114 641h144z" />
<glyph unicode="v" horiz-adv-x="954" d="M993 952l-575 -952h-131l-221 952h153l168 -766l451 766h155z" />
<glyph unicode="w" horiz-adv-x="1445" d="M1485 952l-481 -952h-144l-119 745l-381 -745h-145l-149 952h149l109 -749l385 749h137l119 -749l374 749h146z" />
<glyph unicode="x" horiz-adv-x="950" d="M954 952l-417 -454l284 -498h-170l-219 403l-354 -403h-178l462 514l-247 438h170l184 -342l309 342h176z" />
<glyph unicode="y" horiz-adv-x="950" d="M993 952l-706 -1177l-31 -49q-84 -130 -144 -172.5t-161 -42.5q-65 0 -133 26l45 96l8 -2l35 -4h2l35 -2q57 0 98.5 31t87.5 108l41 68l117 191l-217 929h149l168 -780l453 780h153z" />
<glyph unicode="z" horiz-adv-x="870" d="M836 952l-19 -114l-637 -707h520l-22 -131h-713l21 117l630 706h-495l22 129h693z" />
<glyph unicode="{" horiz-adv-x="688" d="M672 1366l-21 -119h-67q-54 0 -84 -41t-47 -139l-27 -154q-15 -99 -68 -179t-120 -105q51 -29 73.5 -75.5t22.5 -119.5q0 -57 -35 -237l-2 -17q-31 -164 -31 -205q0 -86 78 -86h68l-23 -120h-92q-88 0 -134 46t-46 134q0 36 7.5 82t37.5 192q22 119 22 197 q0 141 -110 155l18 107q142 6 195 266l30 170q43 248 285 248h70z" />
<glyph unicode="|" horiz-adv-x="512" d="M336 -340h-160v1706h160v-1706z" />
<glyph unicode="}" horiz-adv-x="679" d="M606 682l-18 -107q-143 -6 -195 -266l-53 -295q-44 -245 -285 -245h-67l20 120h45q69 0 101 38.5t51 140.5l49 276q43 217 188 285q-51 29 -73.5 75.5t-22.5 118.5q0 59 21 166l2 10q22 110 22 162q0 51 -20 68.5t-78 17.5h-45l20 119h92q181 0 181 -184q0 -38 -9 -84 l-6 -31q-30 -153 -30 -225q0 -76 26 -114.5t84 -45.5z" />
<glyph unicode="~" d="M889 1503l39 -24q-126 -213 -277 -213q-62 0 -182 47q-98 37 -158 37q-32 0 -61 -8.5t-41 -20.5l-76 -76l-37 23q73 120 135.5 167.5t145.5 47.5q29 0 56.5 -7t113.5 -36q113 -39 162 -39q91 0 180 102z" />
<glyph unicode="&#xa1;" horiz-adv-x="606" d="M473 846h-4l-4 2q-43 17 -59.5 37.5t-16.5 54.5q0 38 35.5 71t75.5 33q38 0 64 -28.5t26 -69.5q0 -47 -49 -84q-30 -20 -49 -20q-3 0 -5 2l-8 2h-2h-2h-2zM514 686l-164 -1018h-155l188 1018h131z" />
<glyph unicode="&#xa2;" horiz-adv-x="1026" d="M942 1206l-63 -98q-100 44 -154 53l-233 -745q110 0 307 125l53 -99q-123 -84 -196 -114t-179 -39l-14 -2h-12l-58 -185h-108l61 197q-109 38 -167 134.5t-58 238.5q0 170 82.5 324t214.5 231q96 54 237 65l56 172h108l-57 -180q71 -11 180 -78zM389 434l227 727 q-58 -9 -97.5 -29t-82.5 -61q-75 -72 -116 -175.5t-41 -221.5q0 -96 24.5 -149.5t85.5 -90.5z" />
<glyph unicode="&#xa3;" d="M1120 1333l-65 -104q-108 39 -193 39q-103 0 -183.5 -53t-133.5 -154q-39 -75 -88 -236l-13 -43h488l-23 -120h-503l-66 -209q-48 -146 -83.5 -214.5t-86.5 -107.5h713l-23 -131h-930l-4 119q85 3 143 69.5t101 208.5l84 265h-211l23 120h227l41 127q85 265 252 400 q106 86 268 86q109 0 266 -62z" />
<glyph unicode="&#xa4;" horiz-adv-x="1026" d="M1143 1237l-80 -84q-75 61 -137.5 88t-130.5 27q-264 0 -412 -348h535l-23 -123h-555q-13 -59 -18 -84q-1 -3 -5 -19q-2 -9 -10 -73h557l-22 -121h-543q-2 -12 -2 -27v-12v-12q0 -167 75.5 -262t209.5 -95q75 0 148.5 26.5t170.5 88.5l51 -84q-107 -80 -201 -115 t-200 -35q-191 0 -297.5 124.5t-106.5 348.5v11v14q0 14 3 29h-185l23 121h174q0 42 35 176h-181l23 123h197q47 110 82 170t85 116q165 183 396 183q102 0 182.5 -35.5t161.5 -116.5z" />
<glyph unicode="&#xa5;" horiz-adv-x="1138" d="M1223 1366l-475 -584h286l-20 -120h-381l-19 -109h379l-20 -119h-381l-76 -434h-147l75 434h-376l20 119h377l20 109h-376l20 120h307l-278 584h164l264 -573l463 573h174z" />
<glyph unicode="&#xa6;" horiz-adv-x="512" d="M336 1366v-782h-160v782h160zM336 -340h-160v789h160v-789z" />
<glyph unicode="&#xa7;" d="M1030 1350l-45 -107l-24 4q-175 29 -242 29q-138 0 -231 -56t-93 -139q0 -41 29.5 -72.5t107.5 -74.5l187 -103q199 -111 199 -274q0 -175 -218 -303q47 -43 66.5 -81.5t19.5 -90.5q0 -143 -139 -234.5t-356 -91.5q-158 0 -309 43l47 107q127 -31 256 -31q148 0 242 52.5 t94 135.5q0 74 -150 156l-172 94q-97 52 -151 126.5t-54 154.5q0 94 51.5 164t167.5 135q-84 75 -84 176q0 140 140.5 234t349.5 94q144 0 311 -47zM629 698l-215 119q-88 -43 -128 -91.5t-40 -111.5q0 -87 98 -145q4 -2 49 -29l203 -116q92 51 133 99.5t41 106.5 q0 90 -141 168z" />
<glyph unicode="&#xa8;" horiz-adv-x="528" d="M555 1313q34 -6 55 -30t21 -56q0 -37 -30.5 -65.5t-68.5 -28.5q-34 0 -60 25.5t-26 60.5q0 38 29.5 67t67.5 29q8 0 12 -2zM207 1313q35 -6 55.5 -29t20.5 -55q0 -38 -29.5 -67t-69.5 -29q-34 0 -59 25.5t-25 60.5q0 38 29.5 67t67.5 29q8 0 10 -2z" />
<glyph unicode="&#xa9;" horiz-adv-x="1652" d="M827 1407q298 0 512 -211q211 -211 211 -518q0 -236 -137 -420q-109 -146 -259 -222.5t-327 -76.5q-299 0 -512 213t-213 510q0 307 213 514q220 211 512 211zM827 1325q-176 0 -324 -85t-233.5 -232.5t-85.5 -323.5t85.5 -324t233.5 -233.5t324 -85.5q264 0 455 188 q186 186 186 455q0 175 -85.5 322.5t-233 233t-322.5 85.5zM1100 428l39 -78q-50 -38 -128 -61t-161 -23q-199 0 -321.5 112t-122.5 294q0 193 135 313.5t350 120.5q137 0 225 -45l12 -6l-32 -84l-15 4q-139 39 -211 39q-149 0 -242 -92t-93 -238q0 -145 88 -235.5 t229 -90.5q107 0 235 64z" />
<glyph unicode="&#xaa;" horiz-adv-x="593" d="M584 862l2 -76q-31 -16 -68 -16q-40 0 -61 21t-27 67q-107 -86 -188 -86q-51 0 -85 35.5t-34 89.5q0 92 82.5 153t269.5 105l2 8q12 61 12 84q0 26 -10.5 36.5t-36.5 10.5q-38 0 -87 -19t-87 -50l-24 -19l-45 70l18 14q53 40 119 67t113 27q60 0 95.5 -35t35.5 -94 q0 -29 -7 -69l-10 -53l-35 -195l-2 -20l-2 -9q0 -6 -2 -12q-4 -16 -4 -23q0 -22 21 -22q2 0 18 2l8 2l10 2q2 2 5 2zM565 694l-14 -80h-467l14 80h467zM442 969l19 100q-129 -40 -187.5 -80.5t-58.5 -89.5q0 -37 37 -37q75 0 190 107z" />
<glyph unicode="&#xab;" horiz-adv-x="862" d="M786 791l-239 -304l127 -307l-96 -47l-203 373l315 346zM459 788l-240 -301l127 -311l-98 -47l-201 377l313 342z" />
<glyph unicode="&#xac;" d="M956 0h-159v432h-731v115h890v-547z" />
<glyph unicode="&#xad;" horiz-adv-x="641" d="M530 485h-483l21 121h483z" />
<glyph unicode="&#xae;" horiz-adv-x="1652" d="M827 1407q298 0 512 -211q211 -211 211 -518q0 -236 -137 -420q-109 -146 -259 -222.5t-327 -76.5q-299 0 -512 213t-213 510q0 307 213 514q220 211 512 211zM827 1325q-176 0 -324 -85t-233.5 -232.5t-85.5 -323.5t85.5 -324t233.5 -233.5t324 -85.5q264 0 455 188 q186 186 186 455q0 175 -85.5 322.5t-233 233t-322.5 85.5zM1182 285h-146l-162 290q-41 74 -100 74h-82v-364h-125v805h209q89 0 136 -7t85 -26q51 -25 79 -70t28 -102q0 -72 -47 -131.5t-115 -73.5l-10 -2q30 -15 51 -51zM692 1001v-266h105q176 0 176 142q0 124 -170 124 h-111z" />
<glyph unicode="&#xaf;" horiz-adv-x="737" d="M745 1303l-20 -123h-528l20 123h528z" />
<glyph unicode="&#xb0;" d="M514 1389q117 0 199 -81.5t82 -197.5q0 -118 -82 -199.5t-201 -81.5t-201 81t-82 198q0 120 81.5 200.5t203.5 80.5zM510 1282q-70 0 -119 -50t-49 -122q0 -74 49 -124t121 -50q69 0 119.5 51t50.5 123t-50 122t-122 50z" />
<glyph unicode="&#xb1;" d="M975 629h-410v-410h-108v410h-410v108h410v410h108v-410h410v-108zM975 0h-928v109h928v-109z" />
<glyph unicode="&#xb2;" horiz-adv-x="643" d="M231 1233l-24 94q142 64 242 64q78 0 123.5 -39.5t45.5 -106.5q0 -164 -206 -340q-18 -12 -64 -49q-28 -24 -41 -35h256l-18 -110h-428l-6 84q86 61 194 155q104 91 148.5 150.5t44.5 109.5q0 72 -86 72q-77 0 -181 -49z" />
<glyph unicode="&#xb3;" horiz-adv-x="604" d="M223 1239l-22 92q140 60 221 60q76 0 117 -31t41 -88q0 -61 -30.5 -103t-98.5 -73q52 -13 75 -42.5t23 -80.5q0 -86 -71.5 -154t-188.5 -94q-83 -18 -203 -18l18 102q135 3 203 22q59 20 91 51t32 68q0 76 -156 76h-65l18 107h6q104 0 167 29.5t63 76.5t-70 47 q-29 0 -49 -5.5t-111 -37.5z" />
<glyph unicode="&#xb4;" horiz-adv-x="395" d="M500 1262l-353 -193l-59 90l330 234z" />
<glyph unicode="&#xb5;" d="M942 952l-168 -952h-143l24 141q-103 -86 -194 -125t-191 -39q-77 0 -133 33l-43 -246h-131l207 1188h141l-100 -567q-21 -114 -21 -164q0 -110 115 -110q86 0 174.5 47t204.5 153l115 641h143z" />
<glyph unicode="&#xb6;" horiz-adv-x="1026" d="M1044 1366l-282 -1606h-123l262 1483h-98l-262 -1483h-123l147 840q-201 2 -309.5 88t-108.5 246q0 127 68 232.5t184 156.5q56 24 134 33.5t219 9.5h292z" />
<glyph unicode="&#xb7;" horiz-adv-x="579" d="M215 780h2h4q32 0 57 -28.5t25 -63.5q0 -41 -32.5 -72.5t-75.5 -31.5q-39 0 -65 26t-26 66q0 41 33 73.5t74 32.5q4 0 4 -2z" />
<glyph unicode="&#xb8;" horiz-adv-x="737" d="M219 -215l96 197l162 2l-147 -232z" />
<glyph unicode="&#xb9;" horiz-adv-x="600" d="M489 1358l-114 -649h-115l96 538l-161 -78l-35 88l256 134z" />
<glyph unicode="&#xba;" horiz-adv-x="675" d="M676 1163v-8v-2q0 -161 -91 -272t-223 -111q-98 0 -156.5 65.5t-58.5 174.5q0 153 93 263.5t221 110.5q62 0 109.5 -26.5t72.5 -75.5q33 -64 33 -108v-11zM590 694l-15 -80h-489l14 80h490zM367 858h12q80 0 141.5 86.5t61.5 200.5q0 73 -31 112t-90 39q-89 0 -152 -81.5 t-63 -198.5q0 -158 121 -158z" />
<glyph unicode="&#xbb;" horiz-adv-x="862" d="M758 477l-314 -344l-96 62l238 301l-127 309l98 49zM430 477l-315 -346l-95 62l238 303l-127 307l96 47z" />
<glyph unicode="&#xbc;" horiz-adv-x="1372" d="M575 1358l-114 -649h-115l96 538l-161 -78l-35 88l256 134zM1290 1343l-1120 -1380l-88 64l1118 1382zM1102 260l-17 -98h-84l-28 -162h-111l29 162h-285l-6 86l406 438l81 -33l-69 -393h84zM952 506l-223 -246h178z" />
<glyph unicode="&#xbd;" horiz-adv-x="1372" d="M575 1358l-114 -649h-115l96 538l-161 -78l-37 88l258 134zM1290 1343l-1120 -1380l-88 64l1118 1382zM936 111h256l-18 -111h-429l-6 84q187 135 286 241.5t99 174.5q0 71 -86 71q-66 0 -178 -49l-24 94q142 64 243 64q81 0 124.5 -39t43.5 -111q0 -97 -67 -186.5 t-244 -232.5z" />
<glyph unicode="&#xbe;" horiz-adv-x="1372" d="M293 1239l-23 92q138 60 224 60q72 0 113.5 -31.5t41.5 -85.5q0 -124 -129 -178q52 -12 75 -41t23 -80q0 -92 -67 -155.5t-193 -92.5q-84 -20 -202 -20l18 102q139 0 221 31q105 39 105 112q0 74 -156 74h-65l18 107q235 0 235 108q0 45 -63 45q-50 0 -176 -47z M1290 1343l-1120 -1380l-88 64l1118 1382zM1104 260l-17 -98h-83l-29 -162h-113l31 162h-287l-4 86l404 438l84 -33l-70 -393h84zM954 506l-225 -246h180z" />
<glyph unicode="&#xbf;" horiz-adv-x="940" d="M807 1073q39 0 66.5 -26.5t27.5 -63.5q0 -41 -33 -75t-73 -34q-38 0 -66.5 28.5t-28.5 66.5q0 41 32 72.5t75 31.5zM883 -109l43 -112q-56 -30 -133 -55l-5 -3l-30 -12q-108 -41 -244 -41q-149 0 -238.5 74t-89.5 197q0 90 48.5 180.5t138.5 167.5q65 55 258 159l14 9 l47 264h129l-37 -340q-207 -75 -323.5 -185t-116.5 -231q0 -78 49.5 -119t143.5 -41q149 0 346 88z" />
<glyph unicode="&#xc0;" horiz-adv-x="1312" d="M1184 0h-162l-115 502h-555l-291 -502h-161l800 1366h164zM881 625l-131 569l-328 -569h459zM1024 1540l-76 -84l-325 203l122 129z" />
<glyph unicode="&#xc1;" horiz-adv-x="1312" d="M1184 0h-162l-115 502h-555l-291 -502h-161l800 1366h164zM881 625l-131 569l-328 -569h459zM1038 1647l-376 -195l-56 98l348 236z" />
<glyph unicode="&#xc2;" horiz-adv-x="1312" d="M1184 0h-162l-115 502h-555l-291 -502h-161l800 1366h164zM881 625l-131 569l-328 -569h459zM1147 1552l-76 -88l-233 140l-299 -142l-54 105l365 219z" />
<glyph unicode="&#xc3;" horiz-adv-x="1312" d="M1184 0h-162l-115 502h-555l-291 -502h-161l800 1366h164zM881 625l-131 569l-328 -569h459zM1098 1741l82 -88q-143 -146 -238 -146q-45 0 -131 54q-55 36 -94 36q-46 0 -121 -63l-29 -25l-10 -8l-84 86q3 3 7 7.5t7.5 8l6.5 6.5l4 3q6 5 23 20.5t28 24.5q89 76 164 76 q49 0 121 -45q65 -43 108 -43q34 0 65.5 18.5t82.5 69.5z" />
<glyph unicode="&#xc4;" horiz-adv-x="1312" d="M1184 0h-162l-115 502h-555l-291 -502h-161l800 1366h164zM881 625l-131 569l-328 -569h459zM1149 1630v-6q0 -37 -33 -67.5t-74 -30.5q-38 0 -65 27t-27 65q0 41 32 72.5t73 31.5q40 0 67 -27t27 -65zM705 1630v-6q0 -40 -32 -69t-75 -29q-37 0 -64.5 27.5t-27.5 64.5 q0 41 32.5 72.5t73.5 31.5q38 0 65.5 -27t27.5 -65z" />
<glyph unicode="&#xc5;" horiz-adv-x="1312" d="M1184 0h-162l-115 502h-555l-291 -502h-161l800 1366h164zM881 625l-131 569l-328 -569h459zM858 1796q64 0 105 -39.5t41 -101.5q0 -82 -62.5 -143.5t-144.5 -61.5q-63 0 -104.5 40t-41.5 103q0 80 62.5 141.5t144.5 61.5zM844 1720q-44 0 -79.5 -34.5t-35.5 -77.5 q0 -35 23.5 -58.5t58.5 -23.5q46 0 80.5 34t34.5 78q0 36 -23 59t-59 23z" />
<glyph unicode="&#xc6;" horiz-adv-x="1820" d="M1833 1366l-23 -131h-581l-80 -453h551l-23 -127h-551l-92 -520h623l-25 -135h-778l88 502h-453l-399 -502h-190l1093 1366h840zM1069 1229l-483 -602h379z" />
<glyph unicode="&#xc7;" horiz-adv-x="1316" d="M1378 1309l-63 -113q-17 5 -45 14q-52 21 -133 35.5t-146 14.5q-198 0 -365.5 -93.5t-264.5 -255t-97 -352.5q0 -117 43 -213t121 -158q106 -84 293 -84q104 0 199 24.5t221 84.5l37 -117q-227 -125 -463 -125h-6l-195 -297l-111 35l138 277q-212 44 -327.5 188.5 t-115.5 364.5q0 172 71.5 330t192 272.5t286 183t345.5 68.5q190 0 385 -84z" />
<glyph unicode="&#xc8;" horiz-adv-x="1026" d="M1032 1366l-22 -131h-580l-80 -453h549l-22 -127h-549l-92 -520h622l-24 -135h-779l242 1366h735zM881 1540l-76 -84l-326 203l123 129z" />
<glyph unicode="&#xc9;" horiz-adv-x="1026" d="M1032 1366l-22 -131h-580l-80 -453h549l-22 -127h-549l-92 -520h622l-24 -135h-779l242 1366h735zM895 1647l-375 -195l-57 98l348 236z" />
<glyph unicode="&#xca;" horiz-adv-x="1026" d="M1032 1366l-22 -131h-580l-80 -453h549l-22 -127h-549l-92 -520h622l-24 -135h-779l242 1366h735zM1004 1552l-76 -88l-232 140l-299 -142l-55 105l365 219z" />
<glyph unicode="&#xcb;" horiz-adv-x="1026" d="M1032 1366l-22 -131h-580l-80 -453h549l-22 -127h-549l-92 -520h622l-24 -135h-779l242 1366h735zM1008 1630v-6q0 -37 -32.5 -67.5t-72.5 -30.5q-38 0 -66 27t-28 65q0 41 31.5 72.5t74.5 31.5q38 0 65.5 -27t27.5 -65zM565 1630v-6q0 -39 -32 -68.5t-74 -29.5 q-38 0 -66 27.5t-28 64.5q0 41 32.5 72.5t73.5 31.5q38 0 66 -27t28 -65z" />
<glyph unicode="&#xcc;" horiz-adv-x="497" d="M453 1366l-242 -1366h-156l240 1366h158zM616 1540l-75 -84l-326 203l123 129z" />
<glyph unicode="&#xcd;" horiz-adv-x="497" d="M453 1366l-242 -1366h-156l240 1366h158zM631 1647l-375 -195l-57 98l348 236z" />
<glyph unicode="&#xce;" horiz-adv-x="497" d="M453 1366l-242 -1366h-156l240 1366h158zM739 1552l-75 -88l-232 140l-299 -142l-55 105l364 219z" />
<glyph unicode="&#xcf;" horiz-adv-x="497" d="M453 1366l-242 -1366h-156l240 1366h158zM741 1630l-2 -6q-6 -44 -35 -71t-69 -27q-38 0 -66 27.5t-28 64.5q0 41 31.5 72.5t74.5 31.5q40 0 67 -26t27 -66zM297 1630v-6q0 -40 -31.5 -69t-72.5 -29q-38 0 -66.5 27.5t-28.5 64.5q0 41 32.5 72.5t74.5 31.5q38 0 65 -27 t27 -65z" />
<glyph unicode="&#xd0;" horiz-adv-x="1439" d="M49 0l115 655h-203l23 133h204l101 578h360q344 0 494 -115q95 -73 149 -193.5t54 -260.5q0 -167 -78 -324.5t-217 -271.5q-134 -109 -282.5 -155t-369.5 -46h-350zM424 1237l-80 -449h358l-22 -133h-358l-93 -520h258q196 0 355.5 87.5t250.5 242.5t91 346 q0 189 -105 303q-57 65 -152 94t-249 29h-254z" />
<glyph unicode="&#xd1;" horiz-adv-x="1384" d="M1339 1366l-241 -1366h-150l-549 1124l-198 -1124h-146l240 1366h156l550 -1126l199 1126h139zM1133 1741l81 -88q-76 -77 -131 -111.5t-104 -34.5q-44 0 -133 54q-55 36 -94 36q-46 0 -121 -63l-29 -25l-10 -8l-84 86q25 25 27 25q3 2 10 8.5t18.5 16.5t22.5 20 q86 76 164 76q48 0 118 -45q68 -43 111 -43q34 0 63.5 18t81.5 70z" />
<glyph unicode="&#xd2;" horiz-adv-x="1476" d="M879 1393q235 0 372.5 -147.5t137.5 -399.5q0 -233 -105.5 -434.5t-285 -320t-386.5 -118.5q-235 0 -374.5 149.5t-139.5 401.5q0 174 63 335t168 277.5t249.5 186.5t300.5 70zM850 1257q-116 0 -224.5 -57.5t-188 -153t-127.5 -226.5t-48 -271q0 -209 96 -322.5 t273 -113.5q160 0 296.5 94.5t216 257.5t79.5 354q0 204 -100 321t-273 117zM1106 1540l-76 -84l-325 203l122 129z" />
<glyph unicode="&#xd3;" horiz-adv-x="1476" d="M879 1393q235 0 372.5 -147.5t137.5 -399.5q0 -233 -105.5 -434.5t-285 -320t-386.5 -118.5q-235 0 -374.5 149.5t-139.5 401.5q0 174 63 335t168 277.5t249.5 186.5t300.5 70zM850 1257q-116 0 -224.5 -57.5t-188 -153t-127.5 -226.5t-48 -271q0 -209 96 -322.5 t273 -113.5q160 0 296.5 94.5t216 257.5t79.5 354q0 204 -100 321t-273 117zM1120 1647l-377 -195l-55 98l348 236z" />
<glyph unicode="&#xd4;" horiz-adv-x="1476" d="M879 1393q235 0 372.5 -147.5t137.5 -399.5q0 -233 -105.5 -434.5t-285 -320t-386.5 -118.5q-235 0 -374.5 149.5t-139.5 401.5q0 174 63 335t168 277.5t249.5 186.5t300.5 70zM850 1257q-116 0 -224.5 -57.5t-188 -153t-127.5 -226.5t-48 -271q0 -209 96 -322.5 t273 -113.5q160 0 296.5 94.5t216 257.5t79.5 354q0 204 -100 321t-273 117zM1229 1552l-76 -88l-233 140l-299 -142l-54 105l365 219z" />
<glyph unicode="&#xd5;" horiz-adv-x="1476" d="M879 1393q235 0 372.5 -147.5t137.5 -399.5q0 -233 -105.5 -434.5t-285 -320t-386.5 -118.5q-235 0 -374.5 149.5t-139.5 401.5q0 174 63 335t168 277.5t249.5 186.5t300.5 70zM850 1257q-116 0 -224.5 -57.5t-188 -153t-127.5 -226.5t-48 -271q0 -209 96 -322.5 t273 -113.5q160 0 296.5 94.5t216 257.5t79.5 354q0 204 -100 321t-273 117zM1180 1741l82 -88q-75 -77 -131 -111.5t-105 -34.5t-133 54q-55 36 -94 36q-46 0 -121 -63l-29 -25l-10 -8l-84 86q10 8 27 25q8 8 51 45q86 76 164 76q48 0 118 -45q68 -43 111 -43q34 0 63.5 18 t81.5 70z" />
<glyph unicode="&#xd6;" horiz-adv-x="1476" d="M879 1393q235 0 372.5 -147.5t137.5 -399.5q0 -233 -105.5 -434.5t-285 -320t-386.5 -118.5q-235 0 -374.5 149.5t-139.5 401.5q0 174 63 335t168 277.5t249.5 186.5t300.5 70zM850 1257q-116 0 -224.5 -57.5t-188 -153t-127.5 -226.5t-48 -271q0 -209 96 -322.5 t273 -113.5q160 0 296.5 94.5t216 257.5t79.5 354q0 204 -100 321t-273 117zM1249 1630v-6q0 -37 -32.5 -67.5t-73.5 -30.5q-38 0 -65 27t-27 65q0 41 31.5 72.5t72.5 31.5q40 0 67 -27t27 -65zM805 1630v-6q0 -39 -31.5 -68.5t-73.5 -29.5q-38 0 -66 27.5t-28 64.5 q0 41 32 72.5t75 31.5q38 0 65 -27t27 -65z" />
<glyph unicode="&#xd7;" d="M987 164l-94 -94l-381 379l-381 -379l-94 94l379 381l-379 381l94 94l381 -379l381 379l94 -94l-379 -381z" />
<glyph unicode="&#xd8;" horiz-adv-x="1497" d="M1505 1319l-178 -168q72 -141 72 -311q0 -172 -63 -332t-168 -277t-249 -187.5t-298 -70.5q-121 0 -207 35t-168 117l-162 -154l-82 82l178 168q-38 74 -54.5 143.5t-16.5 159.5q0 174 63 334.5t168 277.5t249.5 187t301.5 70q121 0 205 -34t161 -114l166 158zM307 342 l832 791q-63 66 -128.5 95t-150.5 29q-153 0 -288.5 -97t-216.5 -259.5t-81 -345.5q0 -110 33 -213zM1198 1030l-836 -794q54 -66 119 -94.5t160 -28.5q160 0 296.5 94.5t216 257t79.5 352.5q0 125 -35 213z" />
<glyph unicode="&#xd9;" horiz-adv-x="1386" d="M1348 1366l-152 -860q-23 -129 -68 -217.5t-122 -157.5q-184 -158 -449 -158q-205 0 -320.5 98t-115.5 273q0 77 14 148l154 874h157l-155 -874q-15 -80 -15 -134q0 -122 74 -184.5t219 -62.5q127 0 232 47t168 133q61 81 88 244l147 831h144zM1059 1540l-76 -84 l-324 203l121 129z" />
<glyph unicode="&#xda;" horiz-adv-x="1386" d="M1348 1366l-152 -860q-23 -129 -68 -217.5t-122 -157.5q-184 -158 -449 -158q-205 0 -320.5 98t-115.5 273q0 77 14 148l154 874h157l-155 -874q-15 -80 -15 -134q0 -122 74 -184.5t219 -62.5q127 0 232 47t168 133q61 81 88 244l147 831h144zM1075 1647l-377 -195 l-55 98l348 236z" />
<glyph unicode="&#xdb;" horiz-adv-x="1386" d="M1348 1366l-152 -860q-23 -129 -68 -217.5t-122 -157.5q-184 -158 -449 -158q-205 0 -320.5 98t-115.5 273q0 77 14 148l154 874h157l-155 -874q-15 -80 -15 -134q0 -122 74 -184.5t219 -62.5q127 0 232 47t168 133q61 81 88 244l147 831h144zM1184 1552l-76 -88 l-234 140l-299 -142l-53 105l365 219z" />
<glyph unicode="&#xdc;" horiz-adv-x="1386" d="M1348 1366l-152 -860q-23 -129 -68 -217.5t-122 -157.5q-184 -158 -449 -158q-205 0 -320.5 98t-115.5 273q0 77 14 148l154 874h157l-155 -874q-15 -80 -15 -134q0 -122 74 -184.5t219 -62.5q127 0 232 47t168 133q61 81 88 244l147 831h144zM1161 1630v-6 q0 -37 -32.5 -67.5t-73.5 -30.5q-38 0 -65 27t-27 65q0 41 31.5 72.5t74.5 31.5q38 0 65 -27t27 -65zM719 1630v-6q0 -38 -33 -68t-74 -30q-38 0 -66 27.5t-28 64.5q0 41 32.5 72.5t74.5 31.5q38 0 66 -27.5t28 -64.5z" />
<glyph unicode="&#xdd;" horiz-adv-x="1144" d="M1255 1366l-620 -762l-107 -604h-157l108 623l-340 743h166l275 -621l495 621h180zM975 1651l-375 -195l-57 98l348 236z" />
<glyph unicode="&#xde;" horiz-adv-x="1026" d="M408 1110h143h12h2q0 -2 15 -2q26 0 65 -2q18 -2 27 -2h10h10q159 0 249.5 -81t90.5 -222q0 -106 -57.5 -205.5t-155.5 -165.5q-70 -46 -154.5 -65t-215.5 -19h-177l-61 -346h-156l240 1366h158zM295 475h168q114 0 185.5 23t123.5 77q94 94 94 213q0 120 -92 162 q-61 25 -194 25h-197z" />
<glyph unicode="&#xdf;" horiz-adv-x="1083" d="M27 0l161 915q32 182 73 276.5t116 162.5q150 131 336 131q131 0 208.5 -68.5t77.5 -183.5q0 -116 -81 -213q-23 -29 -50 -52.5t-110 -90.5l-33 -25q-65 -51 -89 -76t-24 -43q0 -38 97 -110l92 -68q141 -107 141 -254q0 -145 -126 -231t-337 -86q-135 0 -221 34l47 105 q73 -21 166 -21q143 0 233.5 55t90.5 142q0 43 -30.5 82t-113.5 102q-105 81 -150.5 136.5t-45.5 101.5t28.5 84t108.5 98q143 108 200.5 180.5t57.5 147.5q0 125 -150 125q-168 0 -266 -137q-66 -88 -104 -304l-162 -915h-141z" />
<glyph unicode="&#xe0;" horiz-adv-x="907" d="M786 111l2 -107q-79 -24 -114 -24q-60 0 -98.5 37.5t-38.5 95.5v22q-105 -82 -180 -115.5t-152 -33.5q-91 0 -146 52.5t-55 141.5q0 94 59 168t183 137q73 37 145 60.5t219 56.5q21 123 21 156q0 94 -94 94q-111 0 -304 -119l-24 -16l-8 -6l-64 96q109 83 220.5 129.5 t203.5 46.5q98 0 156.5 -53t58.5 -142q0 -35 -14 -126l-14 -91l-58 -321l-4 -21l-2 -10v-2v-2v-2l-2 -4l-2 -10q-2 -6 -2 -15l-2 -34q0 -52 45 -52q17 0 65 13zM555 291l33 188q-186 -53 -258 -90q-94 -47 -136 -94.5t-42 -104.5q0 -75 75 -75q67 0 144 41t184 135z M739 1147l-80 -80l-299 209l117 117z" />
<glyph unicode="&#xe1;" horiz-adv-x="907" d="M786 111l2 -107q-79 -24 -114 -24q-60 0 -98.5 37.5t-38.5 95.5v22q-105 -82 -180 -115.5t-152 -33.5q-91 0 -146 52.5t-55 141.5q0 94 59 168t183 137q73 37 145 60.5t219 56.5q21 123 21 156q0 94 -94 94q-111 0 -304 -119l-24 -16l-8 -6l-64 96q109 83 220.5 129.5 t203.5 46.5q98 0 156.5 -53t58.5 -142q0 -35 -14 -126l-14 -91l-58 -321l-4 -21l-2 -10v-2v-2v-2l-2 -4l-2 -10q-2 -6 -2 -15l-2 -34q0 -52 45 -52q17 0 65 13zM555 291l33 188q-186 -53 -258 -90q-94 -47 -136 -94.5t-42 -104.5q0 -75 75 -75q67 0 144 41t184 135z M758 1262l-352 -193l-60 90l330 234z" />
<glyph unicode="&#xe2;" horiz-adv-x="907" d="M786 111l2 -107q-79 -24 -114 -24q-60 0 -98.5 37.5t-38.5 95.5v22q-105 -82 -180 -115.5t-152 -33.5q-91 0 -146 52.5t-55 141.5q0 94 59 168t183 137q73 37 145 60.5t219 56.5q21 123 21 156q0 94 -94 94q-111 0 -304 -119l-24 -16l-8 -6l-64 96q109 83 220.5 129.5 t203.5 46.5q98 0 156.5 -53t58.5 -142q0 -35 -14 -126l-14 -91l-58 -321l-4 -21l-2 -10v-2v-2v-2l-2 -4l-2 -10q-2 -6 -2 -15l-2 -34q0 -52 45 -52q17 0 65 13zM555 291l33 188q-186 -53 -258 -90q-94 -47 -136 -94.5t-42 -104.5q0 -75 75 -75q67 0 144 41t184 135z M836 1143l-80 -80l-191 147l-254 -149l-65 98l334 232z" />
<glyph unicode="&#xe3;" horiz-adv-x="907" d="M786 111l2 -107q-79 -24 -114 -24q-60 0 -98.5 37.5t-38.5 95.5v22q-105 -82 -180 -115.5t-152 -33.5q-91 0 -146 52.5t-55 141.5q0 94 59 168t183 137q73 37 145 60.5t219 56.5q21 123 21 156q0 94 -94 94q-111 0 -304 -119l-24 -16l-8 -6l-64 96q109 83 220.5 129.5 t203.5 46.5q98 0 156.5 -53t58.5 -142q0 -35 -14 -126l-14 -91l-58 -321l-4 -21l-2 -10v-2v-2v-2l-2 -4l-2 -10q-2 -6 -2 -15l-2 -34q0 -52 45 -52q17 0 65 13zM555 291l33 188q-186 -53 -258 -90q-94 -47 -136 -94.5t-42 -104.5q0 -75 75 -75q67 0 144 41t184 135z M809 1343l84 -77q-76 -77 -130 -111.5t-101 -34.5q-55 0 -136 58q-46 32 -73 32q-45 0 -154 -92l-80 80q71 76 123.5 109.5t101.5 33.5q66 0 150 -59q42 -29 63 -29q46 0 152 90z" />
<glyph unicode="&#xe4;" horiz-adv-x="907" d="M786 111l2 -107q-79 -24 -114 -24q-60 0 -98.5 37.5t-38.5 95.5v22q-105 -82 -180 -115.5t-152 -33.5q-91 0 -146 52.5t-55 141.5q0 94 59 168t183 137q73 37 145 60.5t219 56.5q21 123 21 156q0 94 -94 94q-111 0 -304 -119l-24 -16l-8 -6l-64 96q109 83 220.5 129.5 t203.5 46.5q98 0 156.5 -53t58.5 -142q0 -35 -14 -126l-14 -91l-58 -321l-4 -21l-2 -10v-2v-2v-2l-2 -4l-2 -10q-2 -6 -2 -15l-2 -34q0 -52 45 -52q17 0 65 13zM555 291l33 188q-186 -53 -258 -90q-94 -47 -136 -94.5t-42 -104.5q0 -75 75 -75q67 0 144 41t184 135z M743 1313q34 -6 55 -30t21 -56q0 -37 -30 -65.5t-68 -28.5q-35 0 -60.5 25.5t-25.5 60.5q0 38 29 67t67 29q10 0 12 -2zM395 1313q37 -6 57.5 -29t20.5 -57q0 -37 -30 -65.5t-68 -28.5q-35 0 -60.5 25.5t-25.5 60.5q0 38 29 67t67 29q8 0 10 -2z" />
<glyph unicode="&#xe5;" horiz-adv-x="907" d="M786 111l2 -107q-79 -24 -114 -24q-60 0 -98.5 37.5t-38.5 95.5v22q-105 -82 -180 -115.5t-152 -33.5q-91 0 -146 52.5t-55 141.5q0 94 59 168t183 137q73 37 145 60.5t219 56.5q21 123 21 156q0 94 -94 94q-111 0 -304 -119l-24 -16l-8 -6l-64 96q109 83 220.5 129.5 t203.5 46.5q98 0 156.5 -53t58.5 -142q0 -35 -14 -126l-14 -91l-58 -321l-4 -21l-2 -10v-2v-2v-2l-2 -4l-2 -10q-2 -6 -2 -15l-2 -34q0 -52 45 -52q17 0 65 13zM555 291l33 188q-186 -53 -258 -90q-94 -47 -136 -94.5t-42 -104.5q0 -75 75 -75q67 0 144 41t184 135z M588 1395q58 0 96.5 -38.5t38.5 -96.5q0 -73 -61 -133t-136 -60q-60 0 -98.5 38.5t-38.5 98.5q0 75 60.5 133t138.5 58zM571 1323q-41 0 -74.5 -32.5t-33.5 -73.5q0 -34 22 -56t56 -22q43 0 75.5 31.5t32.5 74.5q0 34 -22 56t-56 22z" />
<glyph unicode="&#xe6;" horiz-adv-x="1486" d="M1366 487h-629q-14 -101 -14 -159q0 -107 51 -164.5t146 -57.5q72 0 149 30.5t186 101.5l7 6l55 -92q-109 -94 -209.5 -136.5t-212.5 -42.5q-114 0 -184 49.5t-111 159.5q-128 -108 -221 -155t-180 -47q-83 0 -139 54t-56 134q0 230 324 352q92 34 147.5 49t132.5 25 l8 35q17 80 17 123q0 98 -96 98q-102 0 -318 -135l-16 -10l-64 98q125 95 224 136.5t198 41.5q89 0 137.5 -37t65.5 -117q83 83 161 119.5t171 36.5q132 0 212.5 -87t80.5 -230q0 -61 -23 -179zM770 596l469 8q6 73 6 84q0 82 -43.5 130t-118.5 48q-101 0 -185.5 -73 t-127.5 -197zM573 303v29q0 51 15 143q-229 -57 -330.5 -124t-101.5 -161q0 -77 80 -77q69 0 164 53.5t173 136.5z" />
<glyph unicode="&#xe7;" horiz-adv-x="905" d="M870 899l-65 -102q-119 61 -215 61q-158 0 -271.5 -143t-113.5 -342q0 -127 52.5 -194.5t150.5 -67.5q72 0 146 27t169 89l55 -96q-148 -116 -301 -145l-147 -232l-111 33l96 197q-268 59 -268 387q0 127 42.5 240t114.5 194t172.5 128.5t213.5 47.5q141 0 280 -82z" />
<glyph unicode="&#xe8;" horiz-adv-x="993" d="M772 246l55 -96q-38 -32 -116 -76q-93 -52 -167.5 -74.5t-154.5 -22.5q-167 0 -255.5 99t-88.5 286q0 124 43.5 239t116 198.5t172 133.5t207.5 50q149 0 230 -85t81 -241q0 -63 -18 -168h-658q-18 -90 -18 -141q0 -117 52.5 -178t152.5 -61q55 0 102.5 12.5t128.5 46.5 l45 25q1 1 3.5 2.5t7 4t7.5 5.5l17 8l4 2l6 4q24 15 45 27zM248 596l497 10q7 44 7 68v4q0 88 -47 136t-132 48q-106 0 -189 -68.5t-136 -197.5zM782 1147l-80 -80l-299 209l117 117z" />
<glyph unicode="&#xe9;" horiz-adv-x="993" d="M772 246l55 -96q-38 -32 -116 -76q-93 -52 -167.5 -74.5t-154.5 -22.5q-167 0 -255.5 99t-88.5 286q0 124 43.5 239t116 198.5t172 133.5t207.5 50q149 0 230 -85t81 -241q0 -63 -18 -168h-658q-18 -90 -18 -141q0 -117 52.5 -178t152.5 -61q55 0 102.5 12.5t128.5 46.5 l45 25q1 1 3.5 2.5t7 4t7.5 5.5l17 8l4 2l6 4q24 15 45 27zM248 596l497 10q7 44 7 68v4q0 88 -47 136t-132 48q-106 0 -189 -68.5t-136 -197.5zM801 1262l-352 -193l-60 90l330 234z" />
<glyph unicode="&#xea;" horiz-adv-x="993" d="M772 246l55 -96q-38 -32 -116 -76q-93 -52 -167.5 -74.5t-154.5 -22.5q-167 0 -255.5 99t-88.5 286q0 124 43.5 239t116 198.5t172 133.5t207.5 50q149 0 230 -85t81 -241q0 -63 -18 -168h-658q-18 -90 -18 -141q0 -117 52.5 -178t152.5 -61q55 0 102.5 12.5t128.5 46.5 l45 25q1 1 3.5 2.5t7 4t7.5 5.5l17 8l4 2l6 4q24 15 45 27zM248 596l497 10q7 44 7 68v4q0 88 -47 136t-132 48q-106 0 -189 -68.5t-136 -197.5zM879 1143l-80 -80l-191 147l-254 -149l-65 98l334 232z" />
<glyph unicode="&#xeb;" horiz-adv-x="993" d="M772 246l55 -96q-38 -32 -116 -76q-93 -52 -167.5 -74.5t-154.5 -22.5q-167 0 -255.5 99t-88.5 286q0 124 43.5 239t116 198.5t172 133.5t207.5 50q149 0 230 -85t81 -241q0 -63 -18 -168h-658q-18 -90 -18 -141q0 -117 52.5 -178t152.5 -61q55 0 102.5 12.5t128.5 46.5 l45 25q1 1 3.5 2.5t7 4t7.5 5.5l17 8l4 2l6 4q24 15 45 27zM248 596l497 10q7 44 7 68v4q0 88 -47 136t-132 48q-106 0 -189 -68.5t-136 -197.5zM786 1313q34 -6 55 -30t21 -56q0 -37 -30 -65.5t-68 -28.5q-34 0 -60 25.5t-26 60.5q0 38 29 67t67 29q10 0 12 -2zM438 1313 q35 -6 55.5 -29t20.5 -55q0 -38 -29 -67t-69 -29q-34 0 -59 25.5t-25 60.5q0 38 29 67t67 29q8 0 10 -2z" />
<glyph unicode="&#xec;" horiz-adv-x="436" d="M342 952l-168 -952h-143l168 952h143zM504 1147l-80 -80l-299 209l119 117z" />
<glyph unicode="&#xed;" horiz-adv-x="436" d="M342 952l-168 -952h-143l168 952h143zM522 1262l-352 -193l-59 90l329 234z" />
<glyph unicode="&#xee;" horiz-adv-x="434" d="M342 952l-168 -952h-143l168 952h143zM600 1143l-80 -80l-190 147l-254 -149l-66 98l334 232z" />
<glyph unicode="&#xef;" horiz-adv-x="434" d="M342 952l-168 -952h-143l168 952h143zM508 1313q34 -6 55 -30t21 -56q0 -37 -30.5 -65.5t-68.5 -28.5q-34 0 -60 25.5t-26 60.5q0 38 29.5 67t67.5 29q8 0 12 -2zM160 1313q34 -6 55 -30t21 -56q0 -37 -30.5 -65.5t-68.5 -28.5q-34 0 -59 25.5t-25 60.5q0 38 29.5 67 t67.5 29q6 0 10 -2z" />
<glyph unicode="&#xf0;" horiz-adv-x="1011" d="M1034 1239l-168 -55q46 -82 65 -156t19 -168q0 -110 -30 -245.5t-82 -252.5q-82 -187 -203.5 -287t-267.5 -100q-149 0 -236.5 100t-87.5 269q0 181 66 328t182.5 230t259.5 83q145 0 242 -90q-3 123 -78 235l-236 -79l-39 112l187 64q-96 74 -312 112l45 123 q305 -38 433 -180l202 70zM780 719q-50 62 -118.5 98.5t-135.5 36.5q-90 0 -165 -65.5t-118.5 -178.5t-43.5 -248q0 -124 49.5 -193t138.5 -69q61 0 119 33t96 90q65 96 100.5 195.5t77.5 300.5z" />
<glyph unicode="&#xf1;" horiz-adv-x="1056" d="M342 952l-25 -135q121 92 204 128t173 36q107 0 170.5 -57.5t63.5 -155.5q0 -48 -15 -137l-112 -631h-142l101 575l8 50q14 95 14 123q0 104 -108 104q-83 0 -173 -46t-212 -149l-115 -657h-143l168 952h143zM883 1343l84 -77q-75 -77 -130 -111.5t-102 -34.5 q-53 0 -135 58q-46 32 -74 32q-44 0 -153 -92l-80 80q71 76 123.5 109.5t101.5 33.5q62 0 150 -59q42 -29 63 -29q46 0 152 90z" />
<glyph unicode="&#xf2;" horiz-adv-x="1050" d="M942 625v-13v-6q0 -174 -71 -318t-195 -226t-273 -82q-164 0 -260 103.5t-96 281.5q0 166 72.5 308.5t196 226t266.5 83.5q96 0 174.5 -39t122.5 -108q25 -38 44 -98t19 -97v-16zM438 109q69 7 117 29.5t94 68.5q67 66 104.5 165t37.5 210q0 132 -58.5 203t-165.5 71 q-101 0 -185 -63t-132.5 -171.5t-48.5 -238.5q0 -134 55 -206.5t158 -72.5q14 0 24 5zM815 1147l-82 -80l-299 209l119 117z" />
<glyph unicode="&#xf3;" horiz-adv-x="1050" d="M942 625v-13v-6q0 -174 -71 -318t-195 -226t-273 -82q-164 0 -260 103.5t-96 281.5q0 166 72.5 308.5t196 226t266.5 83.5q96 0 174.5 -39t122.5 -108q25 -38 44 -98t19 -97v-16zM438 109q69 7 117 29.5t94 68.5q67 66 104.5 165t37.5 210q0 132 -58.5 203t-165.5 71 q-101 0 -185 -63t-132.5 -171.5t-48.5 -238.5q0 -134 55 -206.5t158 -72.5q14 0 24 5zM829 1262l-352 -193l-59 90l330 234z" />
<glyph unicode="&#xf4;" horiz-adv-x="1050" d="M942 625v-13v-6q0 -174 -71 -318t-195 -226t-273 -82q-164 0 -260 103.5t-96 281.5q0 166 72.5 308.5t196 226t266.5 83.5q96 0 174.5 -39t122.5 -108q25 -38 44 -98t19 -97v-16zM438 109q69 7 117 29.5t94 68.5q67 66 104.5 165t37.5 210q0 132 -58.5 203t-165.5 71 q-101 0 -185 -63t-132.5 -171.5t-48.5 -238.5q0 -134 55 -206.5t158 -72.5q14 0 24 5zM907 1143l-80 -80l-190 147l-254 -149l-66 98l334 232z" />
<glyph unicode="&#xf5;" horiz-adv-x="1050" d="M942 625v-13v-6q0 -174 -71 -318t-195 -226t-273 -82q-164 0 -260 103.5t-96 281.5q0 166 72.5 308.5t196 226t266.5 83.5q96 0 174.5 -39t122.5 -108q25 -38 44 -98t19 -97v-16zM438 109q69 7 117 29.5t94 68.5q67 66 104.5 165t37.5 210q0 132 -58.5 203t-165.5 71 q-101 0 -185 -63t-132.5 -171.5t-48.5 -238.5q0 -134 55 -206.5t158 -72.5q14 0 24 5zM881 1343l84 -77q-75 -77 -130 -111.5t-102 -34.5q-52 0 -135 58q-46 32 -74 32q-47 0 -153 -92l-80 80q71 76 123.5 109.5t101.5 33.5q62 0 150 -59q42 -29 63 -29q46 0 152 90z" />
<glyph unicode="&#xf6;" horiz-adv-x="1050" d="M942 625v-13v-6q0 -174 -71 -318t-195 -226t-273 -82q-164 0 -260 103.5t-96 281.5q0 166 72.5 308.5t196 226t266.5 83.5q96 0 174.5 -39t122.5 -108q25 -38 44 -98t19 -97v-16zM438 109q69 7 117 29.5t94 68.5q67 66 104.5 165t37.5 210q0 132 -58.5 203t-165.5 71 q-101 0 -185 -63t-132.5 -171.5t-48.5 -238.5q0 -134 55 -206.5t158 -72.5q14 0 24 5zM817 1313q34 -6 55 -30t21 -56q0 -37 -30 -65.5t-68 -28.5q-34 0 -60 25.5t-26 60.5q0 38 29 67t67 29q8 0 12 -2zM469 1313q35 -6 55.5 -29t20.5 -55q0 -38 -29.5 -67t-69.5 -29 q-34 0 -59 25.5t-25 60.5q0 38 29.5 67t67.5 29q6 0 10 -2z" />
<glyph unicode="&#xf7;" d="M512 1075q54 0 91.5 -36.5t37.5 -90.5q0 -52 -37.5 -89.5t-89.5 -37.5t-89.5 37.5t-37.5 89.5t37 89.5t88 37.5zM512 258q54 0 91.5 -36.5t37.5 -90.5q0 -53 -37.5 -90t-89.5 -37t-89.5 37t-37.5 90q0 52 37 89.5t88 37.5zM991 477h-956v135h956v-135z" />
<glyph unicode="&#xf8;" horiz-adv-x="1097" d="M1053 897l-123 -115q35 -85 35 -188q0 -165 -72.5 -306.5t-197 -224.5t-269.5 -83q-78 0 -137.5 23t-116.5 75l-109 -101l-77 84l120 115q-36 76 -36 186q0 167 72 310.5t194.5 227t265.5 83.5q80 0 140 -23.5t120 -78.5l109 102zM231 293l527 489q-72 72 -170 72 q-152 0 -258.5 -137.5t-106.5 -333.5q0 -49 8 -90zM807 670l-526 -492q37 -40 75 -57t90 -17q100 0 184.5 65t133.5 177t49 246q0 40 -6 78z" />
<glyph unicode="&#xf9;" horiz-adv-x="1058" d="M967 952l-168 -952h-144l25 141q-104 -86 -194.5 -123.5t-192.5 -37.5q-106 0 -163.5 54.5t-57.5 155.5q0 54 16 152l107 610h141l-100 -567q-21 -129 -21 -164q0 -110 113 -110q85 0 174 46.5t207 153.5l114 641h144zM817 1147l-80 -80l-299 209l117 117z" />
<glyph unicode="&#xfa;" horiz-adv-x="1058" d="M967 952l-168 -952h-144l25 141q-104 -86 -194.5 -123.5t-192.5 -37.5q-106 0 -163.5 54.5t-57.5 155.5q0 54 16 152l107 610h141l-100 -567q-21 -129 -21 -164q0 -110 113 -110q85 0 174 46.5t207 153.5l114 641h144zM834 1262l-353 -193l-59 90l330 234z" />
<glyph unicode="&#xfb;" horiz-adv-x="1058" d="M967 952l-168 -952h-144l25 141q-104 -86 -194.5 -123.5t-192.5 -37.5q-106 0 -163.5 54.5t-57.5 155.5q0 54 16 152l107 610h141l-100 -567q-21 -129 -21 -164q0 -110 113 -110q85 0 174 46.5t207 153.5l114 641h144zM911 1143l-80 -80l-190 147l-254 -149l-65 98 l333 232z" />
<glyph unicode="&#xfc;" horiz-adv-x="1058" d="M967 952l-168 -952h-144l25 141q-104 -86 -194.5 -123.5t-192.5 -37.5q-106 0 -163.5 54.5t-57.5 155.5q0 54 16 152l107 610h141l-100 -567q-21 -129 -21 -164q0 -110 113 -110q85 0 174 46.5t207 153.5l114 641h144zM821 1313q34 -6 55 -30t21 -56q0 -37 -30 -65.5 t-68 -28.5q-35 0 -60.5 25.5t-25.5 60.5q0 38 29 67t67 29q8 0 12 -2zM473 1313q35 -6 55.5 -29t20.5 -57q0 -37 -30 -65.5t-68 -28.5q-34 0 -59 25.5t-25 60.5q0 38 29 67t67 29q8 0 10 -2z" />
<glyph unicode="&#xfd;" horiz-adv-x="950" d="M993 952l-706 -1177l-31 -49q-84 -130 -144 -172.5t-161 -42.5q-65 0 -133 26l45 96l8 -2l35 -4h2l35 -2q57 0 98.5 31t87.5 108l41 68l117 191l-217 929h149l168 -780l453 780h153zM797 1266l-353 -193l-59 90l330 234z" />
<glyph unicode="&#xfe;" horiz-adv-x="1089" d="M426 1460l-109 -641q115 92 192 127t163 35q144 0 229.5 -99t85.5 -264q0 -167 -72.5 -316t-193 -238t-254.5 -89q-89 0 -151 34t-121 114l-107 -594h-139l336 1931h141zM285 643l-64 -367q55 -93 114 -134.5t134 -41.5q93 0 177 69.5t134.5 185t50.5 243.5 q0 113 -51 178.5t-139 65.5q-172 0 -356 -199z" />
<glyph unicode="&#xff;" horiz-adv-x="950" d="M993 952l-706 -1177l-31 -49q-84 -130 -144 -172.5t-161 -42.5q-65 0 -133 26l45 96l8 -2l35 -4h2l35 -2q57 0 98.5 31t87.5 108l41 68l117 191l-217 929h149l168 -780l453 780h153zM768 1313q34 -6 55 -30t21 -56q0 -37 -30.5 -65.5t-68.5 -28.5q-35 0 -60.5 25.5 t-25.5 60.5q0 38 29.5 67t67.5 29q8 0 12 -2zM420 1313q35 -6 55.5 -29t20.5 -57q0 -37 -30.5 -65.5t-68.5 -28.5q-34 0 -59 25.5t-25 60.5q0 38 29 67t66 29q10 0 12 -2z" />
<glyph unicode="&#x100;" horiz-adv-x="1312" d="M1184 0h-162l-115 502h-555l-291 -502h-161l800 1366h164zM881 625l-131 569l-328 -569h459zM1077 1536h-557l23 127h557z" />
<glyph unicode="&#x101;" horiz-adv-x="907" d="M786 111l2 -107q-71 -24 -108 -24q-66 0 -104.5 36.5t-38.5 96.5v22q-108 -84 -180.5 -116.5t-151.5 -32.5q-92 0 -146.5 52t-54.5 140q0 69 34 132.5t95 105.5q94 68 190.5 105.5t286.5 80.5q21 134 21 156q0 50 -22.5 72t-71.5 22q-64 0 -136.5 -30.5t-199.5 -110.5 l-64 96q236 176 424 176q100 0 157.5 -53.5t57.5 -145.5q0 -43 -14 -122l-80 -451q-6 -35 -6 -64q0 -28 10.5 -38.5t38.5 -10.5q15 0 61 13zM555 291l33 188q-135 -39 -201.5 -65t-126.5 -64q-108 -69 -108 -162q0 -35 20 -54t57 -19q127 0 326 176zM827 1278l-20 -123h-535 l21 123h534z" />
<glyph unicode="&#x102;" horiz-adv-x="1312" d="M1184 0h-162l-115 502h-555l-291 -502h-161l800 1366h164zM881 625l-131 569l-328 -569h459zM1001 1749h115q-85 -254 -340 -254q-127 0 -187.5 61.5t-62.5 192.5h115q3 -70 40.5 -102.5t117.5 -32.5q78 0 126 32t76 103z" />
<glyph unicode="&#x103;" horiz-adv-x="907" d="M786 111l2 -107q-71 -24 -108 -24q-66 0 -104.5 36.5t-38.5 96.5v22q-108 -84 -180.5 -116.5t-151.5 -32.5q-92 0 -146.5 52t-54.5 140q0 69 34 132.5t95 105.5q94 68 190.5 105.5t286.5 80.5q21 134 21 156q0 50 -22.5 72t-71.5 22q-64 0 -136.5 -30.5t-199.5 -110.5 l-64 96q236 176 424 176q100 0 157.5 -53.5t57.5 -145.5q0 -43 -14 -122l-80 -451q-6 -35 -6 -64q0 -28 10.5 -38.5t38.5 -10.5q15 0 61 13zM555 291l33 188q-135 -39 -201.5 -65t-126.5 -64q-108 -69 -108 -162q0 -35 20 -54t57 -19q127 0 326 176zM784 1352h121 q-29 -119 -108 -182.5t-197 -63.5q-107 0 -174.5 60t-67.5 157q0 23 2 29h117v-11q0 -59 28.5 -84.5t92.5 -25.5q145 0 186 121z" />
<glyph unicode="&#x104;" horiz-adv-x="1312" d="M1184 0q-27 -24 -70 -59.5t-60 -51t-38 -38t-28 -40.5t-7 -38q0 -56 63 -56q33 0 72 13l2 -107q-55 -24 -135 -24q-67 0 -108.5 35t-40.5 108q0 127 196 258h-8l-115 502h-555l-291 -502h-161l800 1366h164zM881 625l-131 569l-328 -569h459z" />
<glyph unicode="&#x105;" horiz-adv-x="907" d="M438 -258q0 119 180 248q-37 12 -59 45.5t-22 77.5v22q-105 -82 -180 -115.5t-152 -33.5q-91 0 -146 52.5t-55 141.5q0 94 59 168t183 137q73 37 145 60.5t219 56.5q21 123 21 156q0 94 -94 94q-111 0 -304 -119l-24 -16l-8 -6l-64 96q109 83 220.5 129.5t203.5 46.5 q98 0 156.5 -53t58.5 -142q0 -35 -14 -126l-14 -91l-68 -378q-18 -95 41 -95q17 0 65 13l2 -107q-21 -19 -51.5 -45t-46 -39.5t-36 -32.5t-30.5 -30.5t-20 -26.5t-14 -28.5t-4 -28.5q0 -56 63 -56q33 0 72 13l2 -107q-55 -24 -135 -24q-67 0 -109 35t-41 108zM555 291 l33 188q-186 -53 -258 -90q-94 -47 -136 -94.5t-42 -104.5q0 -75 75 -75q67 0 144 41t184 135z" />
<glyph unicode="&#x106;" horiz-adv-x="1316" d="M1378 1309l-63 -113q-162 48 -202 56t-122 8q-198 0 -365.5 -94t-264.5 -256t-97 -353q0 -114 41.5 -209.5t118.5 -157.5q109 -86 299 -86q104 0 198 24.5t220 84.5l37 -117q-212 -125 -476 -125q-277 0 -440.5 153.5t-163.5 412.5q0 174 71.5 332t191.5 273t286.5 183 t349.5 68q197 0 381 -84zM1219 1647l-379 -195l-56 98l349 236z" />
<glyph unicode="&#x107;" horiz-adv-x="905" d="M870 899l-65 -102q-67 35 -113.5 48t-99.5 13q-105 0 -194 -66t-141 -179t-52 -246q0 -125 53 -190.5t154 -65.5q73 0 145.5 27t165.5 89l55 -96q-112 -83 -202.5 -118.5t-190.5 -35.5q-158 0 -248 104.5t-90 287.5q0 171 72 311.5t198.5 220.5t280.5 80 q75 0 132.5 -17.5t139.5 -64.5zM895 1262l-352 -193l-60 90l330 234z" />
<glyph unicode="&#x108;" horiz-adv-x="1316" d="M1378 1309l-63 -113q-162 48 -202 56t-122 8q-198 0 -365.5 -94t-264.5 -256t-97 -353q0 -114 41.5 -209.5t118.5 -157.5q109 -86 299 -86q104 0 198 24.5t220 84.5l37 -117q-212 -125 -476 -125q-277 0 -440.5 153.5t-163.5 412.5q0 174 71.5 332t191.5 273t286.5 183 t349.5 68q197 0 381 -84zM1329 1552l-76 -88l-235 140l-299 -142l-53 105l368 219z" />
<glyph unicode="&#x10a;" horiz-adv-x="1316" d="M1378 1309l-63 -113q-162 48 -202 56t-122 8q-198 0 -365.5 -94t-264.5 -256t-97 -353q0 -114 41.5 -209.5t118.5 -157.5q109 -86 299 -86q104 0 198 24.5t220 84.5l37 -117q-212 -125 -476 -125q-277 0 -440.5 153.5t-163.5 412.5q0 174 71.5 332t191.5 273t286.5 183 t349.5 68q197 0 381 -84zM1083 1630v-6q0 -40 -31.5 -69t-74.5 -29q-38 0 -65 27t-27 65q0 41 31.5 72.5t72.5 31.5q38 0 66 -27.5t28 -64.5z" />
<glyph unicode="&#x10b;" horiz-adv-x="905" d="M870 899l-65 -102q-67 35 -113.5 48t-99.5 13q-105 0 -194 -66t-141 -179t-52 -246q0 -125 53 -190.5t154 -65.5q73 0 145.5 27t165.5 89l55 -96q-112 -83 -202.5 -118.5t-190.5 -35.5q-158 0 -248 104.5t-90 287.5q0 171 72 311.5t198.5 220.5t280.5 80 q75 0 132.5 -17.5t139.5 -64.5zM643 1337q34 0 58 -25t24 -61q0 -40 -28 -68t-68 -28q-36 0 -61 25t-25 61q0 39 29.5 67.5t70.5 28.5z" />
<glyph unicode="&#x10c;" horiz-adv-x="1316" d="M1378 1309l-63 -113q-162 48 -202 56t-122 8q-198 0 -365.5 -94t-264.5 -256t-97 -353q0 -114 41.5 -209.5t118.5 -157.5q109 -86 299 -86q104 0 198 24.5t220 84.5l37 -117q-212 -125 -476 -125q-277 0 -440.5 153.5t-163.5 412.5q0 174 71.5 332t191.5 273t286.5 183 t349.5 68q197 0 381 -84zM1323 1694l-369 -228l-278 228l61 90l244 -142l309 142z" />
<glyph unicode="&#x10d;" horiz-adv-x="905" d="M870 899l-65 -102q-67 35 -113.5 48t-99.5 13q-105 0 -194 -66t-141 -179t-52 -246q0 -125 53 -190.5t154 -65.5q73 0 145.5 27t165.5 89l55 -96q-112 -83 -202.5 -118.5t-190.5 -35.5q-158 0 -248 104.5t-90 287.5q0 171 72 311.5t198.5 220.5t280.5 80 q75 0 132.5 -17.5t139.5 -64.5zM930 1311l-334 -242l-256 242l80 75l190 -147l254 147z" />
<glyph unicode="&#x10e;" horiz-adv-x="1439" d="M295 1366h360q185 0 293 -27q270 -70 352 -290q52 -126 52 -254q0 -171 -87.5 -338t-234.5 -275q-192 -144 -418 -174q-53 -8 -206 -8h-351zM236 135h258q143 0 272.5 52.5t222 141t147 212t54.5 260.5q0 115 -39.5 208.5t-108.5 143.5q-61 46 -143.5 65t-214.5 19h-254z M1118 1694l-368 -228l-279 228l61 90l244 -142l309 142z" />
<glyph unicode="&#x10f;" horiz-adv-x="1163" d="M1102 1460l-256 -1460h-144l25 135q-99 -84 -185.5 -121t-181.5 -37q-146 0 -231.5 98.5t-85.5 264.5q0 170 70 318.5t187.5 236.5t252.5 88q101 0 166 -41t125 -143l117 661h141zM758 317l55 308q-53 120 -114.5 173.5t-147.5 53.5q-92 0 -174 -68t-131 -181.5 t-49 -242.5q0 -247 198 -247q187 0 363 204zM1327 1460l-104 -338h-95l60 338h139z" />
<glyph unicode="&#x110;" horiz-adv-x="1439" d="M49 0l115 655h-203l23 133h204l101 578h360q344 0 494 -115q95 -73 149 -193.5t54 -260.5q0 -167 -78 -324.5t-217 -271.5q-134 -109 -282.5 -155t-369.5 -46h-350zM424 1237l-80 -449h358l-22 -133h-358l-93 -520h258q196 0 355.5 87.5t250.5 242.5t91 346 q0 189 -105 303q-57 65 -152 94t-249 29h-254z" />
<glyph unicode="&#x111;" horiz-adv-x="1105" d="M930 1278l31 182h141l-31 -182h70l-19 -123h-73l-203 -1155h-144l25 135q-99 -84 -185.5 -121t-181.5 -37q-146 0 -231.5 98.5t-85.5 264.5q0 170 70 318.5t187.5 236.5t252.5 88q101 0 166 -41t125 -143l63 356h-321l20 123h324zM758 317l55 308q-53 120 -114.5 173.5 t-147.5 53.5q-92 0 -174 -68t-131 -181.5t-49 -242.5q0 -247 198 -247q187 0 363 204z" />
<glyph unicode="&#x112;" horiz-adv-x="1026" d="M1032 1366l-22 -131h-580l-80 -453h549l-22 -127h-549l-92 -520h622l-24 -135h-779l242 1366h735zM967 1536h-557l20 127h559z" />
<glyph unicode="&#x113;" horiz-adv-x="993" d="M772 246l55 -96q-226 -173 -434 -173q-169 0 -258.5 97.5t-89.5 283.5q0 125 43.5 240.5t116 200t172.5 134.5t209 50q148 0 228.5 -85.5t80.5 -242.5q0 -71 -18 -166h-658q-18 -90 -18 -135q0 -245 205 -245q82 0 157.5 28.5t208.5 108.5zM248 596l497 10q7 65 7 72 q0 87 -48 135.5t-133 48.5q-104 0 -188.5 -70t-134.5 -196zM897 1278l-20 -123h-535l20 123h535z" />
<glyph unicode="&#x114;" horiz-adv-x="1026" d="M1032 1366l-22 -131h-580l-80 -453h549l-22 -127h-549l-92 -520h622l-24 -135h-779l242 1366h735zM924 1749h114q-85 -254 -342 -254q-121 0 -185.5 61t-64.5 177v16h115q3 -70 40.5 -102.5t117.5 -32.5q79 0 127.5 32t77.5 103z" />
<glyph unicode="&#x115;" horiz-adv-x="993" d="M772 246l55 -96q-226 -173 -434 -173q-169 0 -258.5 97.5t-89.5 283.5q0 125 43.5 240.5t116 200t172.5 134.5t209 50q148 0 228.5 -85.5t80.5 -242.5q0 -71 -18 -166h-658q-18 -90 -18 -135q0 -245 205 -245q82 0 157.5 28.5t208.5 108.5zM248 596l497 10q7 65 7 72 q0 87 -48 135.5t-133 48.5q-104 0 -188.5 -70t-134.5 -196zM805 1352h121q-28 -118 -107 -182t-198 -64q-107 0 -174.5 60t-67.5 157q0 23 2 29h117v-11q0 -59 28 -84.5t92 -25.5q149 0 187 121z" />
<glyph unicode="&#x116;" horiz-adv-x="1026" d="M1032 1366l-22 -131h-580l-80 -453h549l-22 -127h-549l-92 -520h622l-24 -135h-779l242 1366h735zM803 1630v-6q0 -40 -32 -69t-75 -29q-38 0 -65 27t-27 65q0 41 32 72.5t75 31.5q37 0 64.5 -27.5t27.5 -64.5z" />
<glyph unicode="&#x117;" horiz-adv-x="993" d="M772 246l55 -96q-226 -173 -434 -173q-169 0 -258.5 97.5t-89.5 283.5q0 125 43.5 240.5t116 200t172.5 134.5t209 50q148 0 228.5 -85.5t80.5 -242.5q0 -71 -18 -166h-658q-18 -90 -18 -135q0 -245 205 -245q82 0 157.5 28.5t208.5 108.5zM248 596l497 10q7 65 7 72 q0 87 -48 135.5t-133 48.5q-104 0 -188.5 -70t-134.5 -196zM659 1337q34 0 58 -25t24 -61q0 -40 -28 -68t-68 -28q-36 0 -61 25t-25 61q0 39 29.5 67.5t70.5 28.5z" />
<glyph unicode="&#x118;" horiz-adv-x="1026" d="M483 -258q0 126 197 258h-625l242 1366h735l-22 -131h-580l-80 -453h549l-22 -127h-549l-92 -520h622l-24 -135q-27 -24 -70 -59.5t-60 -51t-38 -38t-28 -40.5t-7 -38q0 -56 63 -56q33 0 72 13l2 -107q-55 -24 -135 -24q-67 0 -109 35t-41 108z" />
<glyph unicode="&#x119;" horiz-adv-x="993" d="M772 246l55 -96q-158 -150 -229.5 -238t-71.5 -139q0 -56 64 -56q33 0 72 13l2 -107q-55 -24 -136 -24q-67 0 -108.5 35t-40.5 108q0 114 182 264q-103 -29 -172 -29q-167 0 -255.5 99t-88.5 286q0 124 43.5 239t116 198.5t172 133.5t207.5 50q149 0 230 -85t81 -241 q0 -63 -18 -168h-658q-18 -90 -18 -141q0 -117 52.5 -178t152.5 -61q144 0 366 137zM248 596l497 10q7 44 7 68v4q0 88 -47 136t-132 48q-106 0 -189 -68.5t-136 -197.5z" />
<glyph unicode="&#x11a;" horiz-adv-x="1026" d="M1032 1366l-22 -131h-580l-80 -453h549l-22 -127h-549l-92 -520h622l-24 -135h-779l242 1366h735zM1055 1694l-369 -228l-280 228l63 90l244 -142l309 142z" />
<glyph unicode="&#x11b;" horiz-adv-x="993" d="M772 246l55 -96q-226 -173 -434 -173q-169 0 -258.5 97.5t-89.5 283.5q0 125 43.5 240.5t116 200t172.5 134.5t209 50q148 0 228.5 -85.5t80.5 -242.5q0 -71 -18 -166h-658q-18 -90 -18 -135q0 -245 205 -245q82 0 157.5 28.5t208.5 108.5zM248 596l497 10q7 65 7 72 q0 87 -48 135.5t-133 48.5q-104 0 -188.5 -70t-134.5 -196zM944 1311l-334 -242l-256 242l80 75l191 -147l254 147z" />
<glyph unicode="&#x11c;" horiz-adv-x="1398" d="M1374 1309l-61 -113q-96 34 -162 46.5t-152 12.5q-154 0 -290 -54.5t-233.5 -147.5t-154.5 -224t-57 -278q0 -213 123.5 -334t341.5 -121q129 0 301 51l88 502h158l-102 -586l-37 -14q-3 0 -33 -10q-90 -33 -198 -52.5t-199 -19.5q-281 0 -444 154.5t-163 421.5 q0 174 70.5 331t190.5 270t286 180t350 67q99 0 180 -17.5t197 -64.5zM1335 1552l-75 -88l-236 140l-299 -142l-53 105l368 219z" />
<glyph unicode="&#x11d;" horiz-adv-x="1048" d="M1044 956l-18 -110h-184q32 -45 42.5 -78.5t10.5 -85.5q0 -175 -137.5 -302.5t-327.5 -127.5q-58 0 -113 22l-84 -98q63 -30 224 -53l137 -19q174 -25 249 -78t75 -151q0 -101 -77.5 -184.5t-213 -131.5t-299.5 -48q-203 0 -314.5 67.5t-111.5 190.5q0 92 61.5 166 t169.5 112q18 7 37 14q-123 43 -123 72q0 23 103 129q13 13 30 33t37 41q-43 46 -59.5 90.5t-16.5 112.5q0 117 60.5 220t162.5 164.5t216 61.5q70 0 147 -29h317zM569 866q-117 0 -197.5 -91t-80.5 -222q0 -89 44.5 -136.5t129.5 -47.5q116 0 199.5 92t83.5 221 q0 89 -46.5 136.5t-132.5 47.5zM328 12q-82 -22 -125 -41.5t-80 -52.5q-78 -65 -78 -143q0 -69 72 -105.5t207 -36.5q183 0 309.5 69t126.5 167q0 51 -62 74q-31 12 -133 26q-183 29 -237 43zM909 1143l-80 -80l-188 147l-254 -149l-68 98l334 232z" />
<glyph unicode="&#x11e;" horiz-adv-x="1398" d="M1374 1309l-61 -113q-96 34 -162 46.5t-152 12.5q-154 0 -290 -54.5t-233.5 -147.5t-154.5 -224t-57 -278q0 -213 123.5 -334t341.5 -121q129 0 301 51l88 502h158l-102 -586l-37 -14q-3 0 -33 -10q-90 -33 -198 -52.5t-199 -19.5q-281 0 -444 154.5t-163 421.5 q0 174 70.5 331t190.5 270t286 180t350 67q99 0 180 -17.5t197 -64.5zM1227 1749h114q-85 -254 -342 -254q-121 0 -185 61t-64 177v16h114q3 -70 40.5 -102.5t117.5 -32.5q79 0 128 32t77 103z" />
<glyph unicode="&#x11f;" horiz-adv-x="1048" d="M1044 956l-18 -110h-184q32 -45 42.5 -78.5t10.5 -85.5q0 -175 -137.5 -302.5t-327.5 -127.5q-58 0 -113 22l-84 -98q63 -30 224 -53l137 -19q174 -25 249 -78t75 -151q0 -101 -77.5 -184.5t-213 -131.5t-299.5 -48q-203 0 -314.5 67.5t-111.5 190.5q0 92 61.5 166 t169.5 112q18 7 37 14q-123 43 -123 72q0 23 103 129q13 13 30 33t37 41q-43 46 -59.5 90.5t-16.5 112.5q0 117 60.5 220t162.5 164.5t216 61.5q70 0 147 -29h317zM569 866q-117 0 -197.5 -91t-80.5 -222q0 -89 44.5 -136.5t129.5 -47.5q116 0 199.5 92t83.5 221 q0 89 -46.5 136.5t-132.5 47.5zM328 12q-82 -22 -125 -41.5t-80 -52.5q-78 -65 -78 -143q0 -69 72 -105.5t207 -36.5q183 0 309.5 69t126.5 167q0 51 -62 74q-31 12 -133 26q-183 29 -237 43zM811 1352h121q-28 -118 -107 -182t-198 -64q-107 0 -174.5 60t-67.5 157 q0 25 2 29h117v-11q0 -59 28.5 -84.5t92.5 -25.5q148 0 186 121z" />
<glyph unicode="&#x120;" horiz-adv-x="1398" d="M1374 1309l-61 -113q-96 34 -162 46.5t-152 12.5q-154 0 -290 -54.5t-233.5 -147.5t-154.5 -224t-57 -278q0 -213 123.5 -334t341.5 -121q129 0 301 51l88 502h158l-102 -586l-37 -14q-3 0 -33 -10q-90 -33 -198 -52.5t-199 -19.5q-281 0 -444 154.5t-163 421.5 q0 174 70.5 331t190.5 270t286 180t350 67q99 0 180 -17.5t197 -64.5zM1130 1630v-6q0 -40 -31.5 -69t-74.5 -29q-37 0 -64.5 27t-27.5 65q0 41 31.5 72.5t74.5 31.5q38 0 65 -27.5t27 -64.5z" />
<glyph unicode="&#x121;" horiz-adv-x="1048" d="M1044 956l-18 -110h-184q32 -45 42.5 -78.5t10.5 -85.5q0 -175 -137.5 -302.5t-327.5 -127.5q-58 0 -113 22l-84 -98q63 -30 224 -53l137 -19q174 -25 249 -78t75 -151q0 -101 -77.5 -184.5t-213 -131.5t-299.5 -48q-203 0 -314.5 67.5t-111.5 190.5q0 92 61.5 166 t169.5 112q18 7 37 14q-123 43 -123 72q0 23 103 129q13 13 30 33t37 41q-43 46 -59.5 90.5t-16.5 112.5q0 117 60.5 220t162.5 164.5t216 61.5q70 0 147 -29h317zM569 866q-117 0 -197.5 -91t-80.5 -222q0 -89 44.5 -136.5t129.5 -47.5q116 0 199.5 92t83.5 221 q0 89 -46.5 136.5t-132.5 47.5zM328 12q-82 -22 -125 -41.5t-80 -52.5q-78 -65 -78 -143q0 -69 72 -105.5t207 -36.5q183 0 309.5 69t126.5 167q0 51 -62 74q-31 12 -133 26q-183 29 -237 43zM653 1337q34 0 58 -25t24 -61q0 -40 -28 -68t-68 -28q-36 0 -61 25t-25 61 q0 39 29.5 67.5t70.5 28.5z" />
<glyph unicode="&#x122;" horiz-adv-x="1398" d="M1374 1309l-61 -113q-96 34 -162 46.5t-152 12.5q-154 0 -290 -54.5t-233.5 -147.5t-154.5 -224t-57 -278q0 -213 123.5 -334t341.5 -121q129 0 301 51l88 502h158l-102 -586l-37 -14q-3 0 -33 -10q-90 -33 -198 -52.5t-199 -19.5q-281 0 -444 154.5t-163 421.5 q0 174 70.5 331t190.5 270t286 180t350 67q99 0 180 -17.5t197 -64.5zM778 -84l-114 -371h-105l66 371h153z" />
<glyph unicode="&#x123;" horiz-adv-x="1048" d="M1044 956l-18 -110h-184q32 -45 42.5 -78.5t10.5 -85.5q0 -175 -137.5 -302.5t-327.5 -127.5q-58 0 -113 22l-84 -98q63 -30 224 -53l137 -19q174 -25 249 -78t75 -151q0 -101 -77.5 -184.5t-213 -131.5t-299.5 -48q-203 0 -314.5 67.5t-111.5 190.5q0 92 61.5 166 t169.5 112q18 7 37 14q-123 43 -123 72q0 23 103 129q13 13 30 33t37 41q-43 46 -59.5 90.5t-16.5 112.5q0 117 60.5 220t162.5 164.5t216 61.5q70 0 147 -29h317zM569 866q-117 0 -197.5 -91t-80.5 -222q0 -89 44.5 -136.5t129.5 -47.5q116 0 199.5 92t83.5 221 q0 89 -46.5 136.5t-132.5 47.5zM328 12q-82 -22 -125 -41.5t-80 -52.5q-78 -65 -78 -143q0 -69 72 -105.5t207 -36.5q183 0 309.5 69t126.5 167q0 51 -62 74q-31 12 -133 26q-183 29 -237 43zM555 1090l102 337h97l-60 -337h-139z" />
<glyph unicode="&#x124;" horiz-adv-x="1394" d="M1350 1366l-240 -1366h-158l115 653h-739l-117 -653h-156l240 1366h158l-105 -588h742l104 588h156zM1174 1552l-76 -88l-236 140l-299 -142l-53 105l369 219z" />
<glyph unicode="&#x126;" horiz-adv-x="1394" d="M1141 1059l53 307h156l-54 -307h113l-23 -127h-112l-164 -932h-158l115 653h-739l-117 -653h-156l164 932h-108l22 127h109l53 307h158l-56 -307h744zM1118 932h-743l-27 -154h742z" />
<glyph unicode="&#x127;" horiz-adv-x="1071" d="M375 1155l-60 -338q123 89 214 126.5t184 37.5q102 0 167.5 -61.5t65.5 -157.5q0 -18 -10 -84l-119 -678h-139l108 616q17 99 17 125q0 57 -30 83t-97 26q-85 0 -171 -45.5t-220 -159.5l-113 -645h-141l205 1155h-109l20 123h109l33 182h139l-33 -182h287l-20 -123h-287z " />
<glyph unicode="&#x12a;" horiz-adv-x="497" d="M453 1366l-242 -1366h-156l240 1366h158zM627 1536h-461l22 127h461z" />
<glyph unicode="&#x12b;" horiz-adv-x="434" d="M342 952l-168 -952h-143l168 952h143zM532 1278l-20 -123h-457l21 123h456z" />
<glyph unicode="&#x12d;" horiz-adv-x="434" d="M342 952l-168 -952h-143l168 952h143zM489 1352h121q-28 -118 -107 -182t-198 -64q-107 0 -174.5 60t-67.5 157q0 20 3 29h116v-11q0 -59 28.5 -84.5t92.5 -25.5q145 0 186 121z" />
<glyph unicode="&#x12e;" horiz-adv-x="497" d="M80 0h-25l240 1366h158l-242 -1370q-69 -34 -111.5 -76.5t-42.5 -79.5q0 -15 12.5 -25t32.5 -10q39 0 101 35l30 -73q-101 -52 -167 -52q-55 0 -88 26t-33 69q0 109 135 190z" />
<glyph unicode="&#x12f;" horiz-adv-x="434" d="M68 0h-35l168 952h141l-168 -958q-73 -57 -102 -91t-29 -63q0 -15 12 -25t33 -10q38 0 100 35l31 -73q-101 -52 -168 -52q-55 0 -88 26t-33 69q0 101 138 190zM338 1376h8q29 0 52.5 -27.5t23.5 -60.5q0 -38 -29 -68t-67 -30q-35 0 -61.5 26.5t-26.5 61.5q0 40 29.5 69 t70.5 29z" />
<glyph unicode="&#x130;" horiz-adv-x="497" d="M453 1366l-242 -1366h-156l240 1366h158zM518 1630v-6q0 -40 -32 -69t-76 -29q-37 0 -65 27t-28 65q0 41 32 72.5t75 31.5q38 0 66 -27.5t28 -64.5z" />
<glyph unicode="&#x131;" horiz-adv-x="434" d="M342 952l-168 -952h-143l168 952h143z" />
<glyph unicode="&#x132;" horiz-adv-x="1093" d="M453 1366l-242 -1366h-156l240 1366h158zM1055 1366l-168 -948q-23 -147 -73.5 -231.5t-147 -134t-269.5 -79.5l-6 123q175 47 241.5 105t92.5 186l172 979h158z" />
<glyph unicode="&#x133;" horiz-adv-x="897" d="M338 1376h8q28 0 52 -28t24 -60q0 -38 -30 -68t-68 -30q-35 0 -61.5 26.5t-26.5 61.5q0 40 30.5 69t71.5 29zM342 952l-168 -952h-143l168 952h143zM801 1376h8q29 0 53.5 -28t24.5 -60q0 -39 -30 -68.5t-69 -29.5q-37 0 -63.5 26.5t-26.5 61.5q0 41 30 69.5t73 28.5z M805 952l-178 -1020q-29 -197 -112.5 -290t-268.5 -134l-23 109q123 43 181 104t69 156q4 32 4 33l187 1042h141z" />
<glyph unicode="&#x136;" horiz-adv-x="1259" d="M1321 1366l-809 -651l592 -715h-211l-559 692l-123 -692h-156l240 1366h158l-109 -614l750 614h227zM559 -84l-115 -371h-104l66 371h153z" />
<glyph unicode="&#x137;" horiz-adv-x="952" d="M975 952l-553 -448l393 -504h-182l-375 498l-88 -498h-139l258 1460h139l-162 -919l498 411h211zM459 -84l-105 -338h-94l59 338h140z" />
<glyph unicode="&#x138;" horiz-adv-x="952" d="M975 952l-553 -448l393 -504h-182l-375 498l-88 -498h-139l168 952h139l-72 -411l498 411h211z" />
<glyph unicode="&#x139;" horiz-adv-x="948" d="M823 137l-22 -137h-746l240 1366h158l-217 -1229h587zM766 1647l-379 -195l-55 98l348 236z" />
<glyph unicode="&#x13a;" horiz-adv-x="436" d="M432 1460l-258 -1460h-143l258 1460h143zM700 1718l-378 -194l-56 96l348 238z" />
<glyph unicode="&#x13b;" horiz-adv-x="948" d="M823 137l-22 -137h-746l240 1366h158l-217 -1229h587zM436 -84l-112 -371h-105l66 371h151z" />
<glyph unicode="&#x13c;" horiz-adv-x="436" d="M432 1460l-258 -1460h-141l258 1460h141zM180 -84l-102 -338h-96l59 338h139z" />
<glyph unicode="&#x13d;" horiz-adv-x="948" d="M823 137l-22 -137h-746l240 1366h158l-217 -1229h587zM719 1366l-115 -371h-104l65 371h154z" />
<glyph unicode="&#x13e;" horiz-adv-x="493" d="M432 1460l-258 -1460h-143l258 1460h143zM657 1460l-104 -338h-94l59 338h139z" />
<glyph unicode="&#x13f;" horiz-adv-x="948" d="M823 137l-22 -137h-746l240 1366h158l-217 -1229h587zM557 743q34 0 58 -25t24 -61q0 -40 -28 -68t-68 -28q-36 0 -61 25t-25 61q0 39 29.5 67.5t70.5 28.5z" />
<glyph unicode="&#x140;" horiz-adv-x="503" d="M432 1460l-258 -1460h-143l258 1460h143zM477 797q34 0 58 -25t24 -61q0 -40 -28 -68.5t-68 -28.5q-36 0 -61 25t-25 61q0 39 29.5 68t70.5 29z" />
<glyph unicode="&#x141;" horiz-adv-x="1028" d="M881 0h-744l96 543l-184 -123l27 162l184 120l117 664h155l-100 -569l332 219l-27 -158l-331 -219l-89 -502h588z" />
<glyph unicode="&#x142;" horiz-adv-x="602" d="M246 0h-142l105 600l-178 -117l24 131l176 115l129 731h142l-111 -626l180 118l-24 -131l-178 -116z" />
<glyph unicode="&#x143;" horiz-adv-x="1384" d="M1339 1366l-241 -1366h-150l-549 1124l-198 -1124h-146l240 1366h156l550 -1126l199 1126h139zM1159 1647l-379 -195l-55 98l348 236z" />
<glyph unicode="&#x144;" horiz-adv-x="1056" d="M342 952l-25 -135q124 94 205 129t172 35q110 0 172 -57t62 -160q0 -40 -15 -133l-112 -631h-142l109 625q14 77 14 123q0 104 -110 104q-84 0 -174 -46t-209 -149l-115 -657h-143l168 952h143zM891 1262l-352 -193l-60 90l330 234z" />
<glyph unicode="&#x145;" horiz-adv-x="1384" d="M1339 1366l-241 -1366h-150l-549 1124l-198 -1124h-146l240 1366h156l550 -1126l199 1126h139zM694 -84l-112 -371h-105l66 371h151z" />
<glyph unicode="&#x146;" horiz-adv-x="1056" d="M342 952l-25 -135q124 94 205 129t172 35q110 0 172 -57t62 -160q0 -40 -15 -133l-112 -631h-142l109 625q14 77 14 123q0 104 -110 104q-84 0 -174 -46t-209 -149l-115 -657h-143l168 952h143zM477 -84l-104 -338h-94l59 338h139z" />
<glyph unicode="&#x147;" horiz-adv-x="1384" d="M1339 1366l-241 -1366h-150l-549 1124l-198 -1124h-146l240 1366h156l550 -1126l199 1126h139zM1225 1694l-369 -228l-278 228l61 90l244 -142l309 142z" />
<glyph unicode="&#x148;" horiz-adv-x="1056" d="M342 952l-25 -135q124 94 205 129t172 35q110 0 172 -57t62 -160q0 -40 -15 -133l-112 -631h-142l109 625q14 77 14 123q0 104 -110 104q-84 0 -174 -46t-209 -149l-115 -657h-143l168 952h143zM926 1311l-334 -242l-256 242l80 75l190 -147l254 147z" />
<glyph unicode="&#x149;" horiz-adv-x="1107" d="M393 952l-24 -135q125 94 205 129t171 35q110 0 172 -57t62 -160q0 -47 -14 -133l-113 -631h-141l108 625q15 82 15 123q0 104 -111 104q-84 0 -174 -46t-209 -149l-115 -657h-143l168 952h143zM311 1339l-104 -338h-94l59 338h139z" />
<glyph unicode="&#x14a;" horiz-adv-x="1357" d="M375 948l-168 -948h-156l242 1366h156l-46 -252q166 138 294.5 199t254.5 61q80 0 148 -24.5t102 -65.5q55 -67 55 -188q0 -64 -20 -176l-94 -531h2l-45 -262q-23 -147 -74 -231.5t-147.5 -133.5t-268.5 -79l-8 122q174 47 241.5 106t92.5 185l135 762q25 138 25 203 q0 76 -48 122t-128 46q-113 0 -238.5 -58t-243.5 -165z" />
<glyph unicode="&#x14b;" horiz-adv-x="1056" d="M342 952l-25 -135q124 94 205 129t172 35q110 0 172 -57t62 -160q0 -40 -15 -133l-79 -451q-28 -197 -111 -290t-270 -134l-21 109q123 43 181 104t67 156q6 21 6 33l82 467q14 77 14 123q0 104 -110 104q-84 0 -174 -46t-209 -149l-115 -657h-143l168 952h143z" />
<glyph unicode="&#x14c;" horiz-adv-x="1476" d="M872 1393q238 0 377.5 -147t139.5 -400q0 -233 -105.5 -434.5t-285.5 -320t-388 -118.5q-233 0 -372.5 149.5t-139.5 399.5q0 173 62.5 334t166.5 278.5t247.5 188t297.5 70.5zM852 1257q-116 0 -225 -57.5t-188.5 -152.5t-128 -225t-48.5 -269q0 -212 96 -326t273 -114 q159 0 295.5 95t216.5 257t80 350q0 207 -99 324.5t-272 117.5zM1188 1536h-557l22 127h557z" />
<glyph unicode="&#x14d;" horiz-adv-x="1050" d="M580 983q170 0 266 -105.5t96 -293.5q0 -137 -56.5 -263.5t-158.5 -216.5q-141 -124 -321 -124q-166 0 -262.5 101.5t-96.5 276.5q0 169 71.5 313t194.5 228t267 84zM567 856q-152 0 -259 -138t-107 -335q0 -134 55 -206.5t158 -72.5q105 0 191.5 64t136 175t49.5 245 q0 127 -59 197.5t-165 70.5zM911 1278l-20 -123h-535l21 123h534z" />
<glyph unicode="&#x150;" horiz-adv-x="1476" d="M872 1393q238 0 377.5 -147t139.5 -400q0 -233 -105.5 -434.5t-285.5 -320t-388 -118.5q-233 0 -372.5 149.5t-139.5 399.5q0 173 62.5 334t166.5 278.5t247.5 188t297.5 70.5zM852 1257q-116 0 -225 -57.5t-188.5 -152.5t-128 -225t-48.5 -269q0 -212 96 -326t273 -114 q159 0 295.5 95t216.5 257t80 350q0 207 -99 324.5t-272 117.5zM1059 1665l-322 -213l-59 82l289 248zM1366 1665l-322 -213l-59 82l289 248z" />
<glyph unicode="&#x151;" horiz-adv-x="1050" d="M580 983q170 0 266 -105.5t96 -293.5q0 -137 -56.5 -263.5t-158.5 -216.5q-141 -124 -321 -124q-166 0 -262.5 101.5t-96.5 276.5q0 169 71.5 313t194.5 228t267 84zM567 856q-152 0 -259 -138t-107 -335q0 -134 55 -206.5t158 -72.5q105 0 191.5 64t136 175t49.5 245 q0 127 -59 197.5t-165 70.5zM1108 1284l-330 -178l-59 70l301 213zM825 1284l-329 -178l-60 70l301 213z" />
<glyph unicode="&#x152;" horiz-adv-x="1822" d="M1829 1366l-23 -131h-581l-80 -453h551l-23 -127h-551l-92 -520h625l-25 -135h-911q-306 0 -459 147q-75 74 -116.5 180.5t-41.5 229.5q0 223 125 414.5t342 300.5q104 54 224.5 74t334.5 20h701zM1067 1235h-35q-31 0 -37 -2h-28h-4q-252 0 -433 -139 q-123 -94 -193.5 -236t-70.5 -295q0 -213 146 -334q60 -49 148 -71.5t222 -22.5h92z" />
<glyph unicode="&#x153;" horiz-adv-x="1716" d="M1497 248l55 -96q-126 -91 -230.5 -131.5t-213.5 -40.5q-120 0 -198 57t-109 166q-86 -117 -177 -168t-214 -51q-169 0 -265 104.5t-96 290.5q0 161 74 301t199 222.5t268 82.5q192 0 276 -137q23 -38 41 -84q97 117 192 169t212 52q145 0 227 -86t82 -237 q0 -49 -16 -140l-5 -22l-2 -8h-659l-2 -25v-8q-12 -90 -12 -125q0 -106 54 -165.5t152 -59.5q155 0 343 122l8 7zM971 598l497 12q5 34 5 54v8v6q0 89 -45.5 139.5t-127.5 50.5q-104 0 -190 -71t-139 -199zM567 860q-99 0 -183.5 -62t-133.5 -168.5t-49 -230.5 q0 -138 59 -213t168 -75q155 0 261 137.5t106 337.5q0 132 -59 203t-169 71z" />
<glyph unicode="&#x154;" horiz-adv-x="1169" d="M295 1366h321q145 0 225 -15.5t136 -54.5q102 -70 102 -227q0 -146 -106 -264q-54 -56 -110.5 -85t-160.5 -52q63 -20 97 -103l215 -565h-180l-181 504q-26 73 -62 100t-108 27h-159l-113 -631h-156zM344 754h199q88 0 148.5 18.5t109.5 61.5q51 41 81.5 104t30.5 125 q0 47 -20 85t-55 58q-61 31 -201 31h-207zM983 1647l-379 -195l-55 98l348 236z" />
<glyph unicode="&#x155;" horiz-adv-x="659" d="M711 950l-60 -125q-29 15 -55 15q-145 0 -324 -269l-100 -571h-141l168 952h141l-31 -172q4 6 21 25q66 80 140.5 124t141.5 44q42 0 99 -23zM786 1262l-352 -193l-59 90l330 234z" />
<glyph unicode="&#x156;" horiz-adv-x="1169" d="M295 1366h321q145 0 225 -15.5t136 -54.5q102 -70 102 -227q0 -146 -106 -264q-54 -56 -110.5 -85t-160.5 -52q63 -20 97 -103l215 -565h-180l-181 504q-26 73 -62 100t-108 27h-159l-113 -631h-156zM344 754h199q88 0 148.5 18.5t109.5 61.5q51 41 81.5 104t30.5 125 q0 47 -20 85t-55 58q-61 31 -201 31h-207zM518 -84l-112 -371h-105l66 371h151z" />
<glyph unicode="&#x157;" horiz-adv-x="659" d="M711 950l-60 -125q-29 15 -55 15q-145 0 -324 -269l-100 -571h-141l168 952h141l-31 -172q4 6 21 25q66 79 140 123.5t140 44.5q44 0 101 -23zM170 -84l-102 -338h-97l60 338h139z" />
<glyph unicode="&#x158;" horiz-adv-x="1169" d="M295 1366h321q145 0 225 -15.5t136 -54.5q102 -70 102 -227q0 -146 -106 -264q-54 -56 -110.5 -85t-160.5 -52q63 -20 97 -103l215 -565h-180l-181 504q-26 73 -62 100t-108 27h-159l-113 -631h-156zM344 754h199q88 0 148.5 18.5t109.5 61.5q51 41 81.5 104t30.5 125 q0 47 -20 85t-55 58q-61 31 -201 31h-207zM1022 1694l-369 -228l-280 228l63 90l244 -142l309 142z" />
<glyph unicode="&#x159;" horiz-adv-x="659" d="M711 950l-60 -125q-29 15 -55 15q-145 0 -324 -269l-100 -571h-141l168 952h141l-31 -172q4 6 21 25q66 80 140.5 124t141.5 44q42 0 99 -23zM793 1311l-334 -242l-256 242l80 75l190 -147l254 147z" />
<glyph unicode="&#x15a;" horiz-adv-x="1054" d="M1028 1346l-47 -113q-131 29 -248 29q-170 0 -279.5 -70.5t-109.5 -179.5q0 -63 44 -102.5t196 -114.5q200 -100 270 -175t70 -192q0 -131 -81 -235.5t-225.5 -163t-326.5 -58.5q-128 0 -314 41l46 123q178 -29 258 -29q204 0 342.5 90t138.5 222q0 59 -38 102.5 t-130 89.5l-111 56q-100 52 -145.5 82.5t-83.5 70.5q-74 80 -74 182q0 107 72 196.5t196 141.5t271 52q161 0 309 -45zM985 1647l-379 -195l-53 98l346 236z" />
<glyph unicode="&#x15b;" horiz-adv-x="804" d="M748 952l-48 -108q-115 24 -186 24q-110 0 -181 -42.5t-71 -108.5q0 -32 25 -55.5t108 -67.5l62 -33q121 -64 169 -121t48 -135q0 -145 -133 -236.5t-344 -91.5q-122 0 -240 39l41 105q114 -27 192 -27q140 0 234 56t94 139q0 40 -25 68.5t-94 66.5l-147 80 q-78 43 -112 88t-34 108q0 123 114.5 204t287.5 81q108 0 240 -33zM817 1262l-352 -193l-59 90l329 234z" />
<glyph unicode="&#x15c;" horiz-adv-x="1054" d="M1028 1346l-47 -113q-131 29 -248 29q-170 0 -279.5 -70.5t-109.5 -179.5q0 -63 44 -102.5t196 -114.5q200 -100 270 -175t70 -192q0 -131 -81 -235.5t-225.5 -163t-326.5 -58.5q-128 0 -314 41l46 123q178 -29 258 -29q204 0 342.5 90t138.5 222q0 59 -38 102.5 t-130 89.5l-111 56q-100 52 -145.5 82.5t-83.5 70.5q-74 80 -74 182q0 107 72 196.5t196 141.5t271 52q161 0 309 -45zM1057 1552l-74 -88l-235 140l-299 -142l-54 105l367 219z" />
<glyph unicode="&#x15d;" horiz-adv-x="804" d="M748 952l-48 -108q-115 24 -186 24q-110 0 -181 -42.5t-71 -108.5q0 -32 25 -55.5t108 -67.5l62 -33q121 -64 169 -121t48 -135q0 -145 -133 -236.5t-344 -91.5q-122 0 -240 39l41 105q114 -27 192 -27q140 0 234 56t94 139q0 40 -25 68.5t-94 66.5l-147 80 q-78 43 -112 88t-34 108q0 123 114.5 204t287.5 81q108 0 240 -33zM846 1143l-80 -80l-188 147l-254 -149l-68 98l334 232z" />
<glyph unicode="&#x15e;" horiz-adv-x="1054" d="M408 -23l-29 -79h8l19 -2q45 -1 73.5 -30.5t28.5 -74.5q0 -91 -86 -146t-246 -65l31 98q178 6 178 82q0 39 -82 39q-24 0 -61 -4l61 176q-82 0 -147 8t-179 33l46 123q178 -29 258 -29q204 0 342.5 90t138.5 222q0 59 -38 102.5t-130 89.5l-111 56q-100 52 -145.5 82.5 t-83.5 70.5q-74 80 -74 182q0 107 72 196.5t196 141.5t271 52q161 0 309 -45l-47 -113q-131 29 -248 29q-170 0 -279.5 -70.5t-109.5 -179.5q0 -63 44.5 -103.5t195.5 -113.5q200 -100 270 -175t70 -192q0 -174 -142.5 -298.5t-373.5 -152.5z" />
<glyph unicode="&#x15f;" horiz-adv-x="804" d="M303 -16l-29 -68q97 -3 97 -88q0 -86 -77 -133t-218 -49l41 96q131 3 131 59q0 31 -62 31q-22 0 -47 -4l56 149q-122 0 -238 39l41 105q111 -27 192 -27q141 0 234.5 56t93.5 139q0 40 -25 68.5t-94 66.5l-147 80q-78 43 -112 88t-34 108q0 123 114.5 204t287.5 81 q108 0 240 -33l-48 -108q-112 24 -186 24q-110 0 -181 -42.5t-71 -108.5q0 -32 25 -55.5t108 -67.5l62 -33q121 -64 169 -121t48 -135q0 -124 -99.5 -210t-271.5 -111z" />
<glyph unicode="&#x160;" horiz-adv-x="1073" d="M1028 1346l-47 -113q-122 29 -242 29q-175 0 -285 -68.5t-110 -177.5q0 -69 48 -111t222 -127q168 -79 239 -159.5t71 -190.5q0 -130 -80.5 -234.5t-223.5 -163.5t-321 -59q-140 0 -322 41l46 123q170 -29 266 -29q198 0 335.5 89.5t137.5 218.5q0 60 -38.5 105 t-129.5 91l-111 56q-169 87 -236 161.5t-67 178.5q0 107 72 195.5t197.5 139t277.5 50.5q156 0 301 -45zM399 1700l76 88l234 -139l299 141l53 -104l-365 -220z" />
<glyph unicode="&#x161;" horiz-adv-x="808" d="M748 952l-48 -108q-115 24 -190 24q-108 0 -178 -42.5t-70 -108.5q0 -32 25 -55.5t108 -67.5l62 -33q121 -64 169 -121t48 -135q0 -143 -132.5 -235.5t-336.5 -92.5q-140 0 -240 35l-8 4l41 105l25 -6q15 -2 36 -11q100 -10 138 -10q136 0 228.5 55.5t92.5 137.5 q0 62 -74 110q-74 42 -100 56q-112 61 -147 86q-91 64 -91 166q0 121 114 200.5t288 79.5q105 0 240 -33zM805 1311l-334 -242l-256 242l80 75l190 -147l254 147z" />
<glyph unicode="&#x162;" horiz-adv-x="1103" d="M1202 1366l-22 -131h-445l-219 -1235h-158l220 1235h-449l23 131h1050zM500 -84l-113 -371h-104l65 371h152z" />
<glyph unicode="&#x163;" horiz-adv-x="589" d="M594 952l-19 -108h-243l-109 -606q-6 -54 -6 -68q0 -38 27.5 -56t87.5 -18q38 0 114 15l-20 -111q-93 -18 -133 -18q-221 0 -221 168q0 14 6 55l112 639h-159l20 108h158l47 260h139l-45 -260h244zM268 -84l-104 -338h-94l59 338h139z" />
<glyph unicode="&#x164;" horiz-adv-x="1103" d="M1202 1366l-22 -131h-445l-219 -1235h-158l220 1235h-449l23 131h1050zM1069 1694l-369 -228l-278 228l61 90l244 -142l309 142z" />
<glyph unicode="&#x165;" horiz-adv-x="589" d="M594 952l-19 -108h-243l-109 -606q-6 -54 -6 -68q0 -38 27.5 -56t87.5 -18q38 0 114 15l-20 -111q-93 -18 -133 -18q-221 0 -221 168q0 14 6 55l112 639h-159l20 108h158l47 260h139l-45 -260h244zM657 1460l-104 -338h-96l61 338h139z" />
<glyph unicode="&#x166;" horiz-adv-x="1103" d="M522 928l56 307h-449l23 131h1050l-22 -131h-445l-55 -307h215l-23 -127h-215l-141 -801h-158l142 801h-185l23 127h184z" />
<glyph unicode="&#x167;" horiz-adv-x="589" d="M166 711l22 133h-157l18 108h160l47 260h137l-45 -260h246l-21 -108h-241l-25 -133h244l-19 -109h-243l-66 -364q-6 -42 -6 -68q0 -38 27.5 -56t87.5 -18q38 0 112 15l-18 -111q-93 -18 -133 -18q-221 0 -221 168q0 20 6 55l69 397h-159l20 109h158z" />
<glyph unicode="&#x169;" horiz-adv-x="1058" d="M967 952l-168 -952h-144l25 141q-104 -86 -194.5 -123.5t-190.5 -37.5q-108 0 -165.5 53.5t-57.5 154.5q0 69 16 154l107 610h141l-100 -567q-21 -118 -21 -162q0 -112 115 -112q83 0 174 48t205 152l114 641h144zM889 1343l84 -77q-140 -146 -232 -146q-52 0 -137 58 q-45 32 -74 32q-27 0 -56.5 -18t-94.5 -74l-80 80q68 76 120.5 109.5t104.5 33.5q61 0 150 -59q39 -29 63 -29q27 0 58.5 18.5t93.5 71.5z" />
<glyph unicode="&#x16a;" horiz-adv-x="1386" d="M1348 1366l-152 -860q-25 -136 -73 -227.5t-132 -159.5q-179 -146 -436 -146q-204 0 -319 97.5t-115 269.5q0 66 14 152l154 874h157l-155 -874q-15 -83 -15 -121q0 -126 72.5 -193t210.5 -67q107 0 206 34.5t159 92.5q57 57 85 119t48 178l147 831h144zM1143 1536h-557 l22 127h557z" />
<glyph unicode="&#x16b;" horiz-adv-x="1058" d="M967 952l-168 -952h-144l25 141q-104 -86 -194.5 -123.5t-190.5 -37.5q-108 0 -165.5 53.5t-57.5 154.5q0 69 16 154l107 610h141l-100 -567q-21 -118 -21 -162q0 -112 115 -112q83 0 174 48t205 152l114 641h144zM891 1278l-21 -123h-534l18 123h537z" />
<glyph unicode="&#x16d;" horiz-adv-x="1058" d="M967 952l-168 -952h-144l25 141q-104 -86 -194.5 -123.5t-190.5 -37.5q-108 0 -165.5 53.5t-57.5 154.5q0 69 16 154l107 610h141l-100 -567q-21 -118 -21 -162q0 -112 115 -112q83 0 174 48t205 152l114 641h144zM795 1352h120q-29 -119 -108 -182.5t-197 -63.5 q-107 0 -174 60t-67 157q0 23 2 29h116v-11q0 -59 28.5 -84.5t92.5 -25.5q146 0 187 121z" />
<glyph unicode="&#x16e;" horiz-adv-x="1386" d="M1348 1366l-152 -860q-25 -136 -73 -227.5t-132 -159.5q-179 -146 -436 -146q-204 0 -319 97.5t-115 269.5q0 66 14 152l154 874h157l-155 -874q-15 -83 -15 -121q0 -126 72.5 -193t210.5 -67q107 0 206 34.5t159 92.5q57 57 85 119t48 178l147 831h144zM915 1796 q64 0 105 -39.5t41 -101.5q0 -80 -63 -142.5t-144 -62.5q-63 0 -104 40t-41 101q0 82 62 143.5t144 61.5zM901 1720q-45 0 -80 -34t-35 -78q0 -37 22.5 -59.5t59.5 -22.5q45 0 80 34t35 78q0 37 -22.5 59.5t-59.5 22.5z" />
<glyph unicode="&#x16f;" horiz-adv-x="1058" d="M967 952l-168 -952h-144l25 141q-104 -86 -194.5 -123.5t-190.5 -37.5q-108 0 -165.5 53.5t-57.5 154.5q0 69 16 154l107 610h141l-100 -567q-21 -118 -21 -162q0 -112 115 -112q83 0 174 48t205 152l114 641h144zM668 1395q60 0 98.5 -37.5t38.5 -95.5q0 -75 -60.5 -135 t-136.5 -60q-60 0 -98.5 38.5t-38.5 98.5q0 74 60.5 132.5t136.5 58.5zM653 1323q-41 0 -74.5 -32.5t-33.5 -73.5q0 -35 21 -56.5t55 -21.5q43 0 76.5 32t33.5 72q0 37 -21.5 58.5t-56.5 21.5z" />
<glyph unicode="&#x170;" horiz-adv-x="1386" d="M1348 1366l-152 -860q-25 -136 -73 -227.5t-132 -159.5q-179 -146 -436 -146q-204 0 -319 97.5t-115 269.5q0 66 14 152l154 874h157l-155 -874q-15 -83 -15 -121q0 -126 72.5 -193t210.5 -67q107 0 206 34.5t159 92.5q57 57 85 119t48 178l147 831h144zM979 1665 l-322 -213l-59 82l289 248zM1284 1665l-319 -213l-60 82l289 248z" />
<glyph unicode="&#x171;" horiz-adv-x="1058" d="M967 952l-168 -952h-144l25 141q-104 -86 -194.5 -123.5t-190.5 -37.5q-108 0 -165.5 53.5t-57.5 154.5q0 69 16 154l107 610h141l-100 -567q-21 -118 -21 -162q0 -112 115 -112q83 0 174 48t205 152l114 641h144zM1073 1284l-330 -178l-59 70l301 213zM791 1284 l-330 -178l-60 70l301 213z" />
<glyph unicode="&#x172;" horiz-adv-x="1386" d="M891 -160l31 -73q-101 -52 -168 -52q-55 0 -88 26t-33 69q0 47 26 86.5t97 103.5q-105 -27 -205 -27q-201 0 -315.5 97.5t-114.5 269.5q0 66 14 152l154 874h157l-155 -874q-15 -83 -15 -121q0 -126 72.5 -193t210.5 -67q107 0 206 34.5t159 92.5q57 57 85 119t48 178 l147 831h144l-152 -860q-19 -91 -34.5 -141.5t-50 -105.5t-79 -101t-131.5 -125q-95 -89 -125.5 -126.5t-30.5 -66.5q0 -15 13 -25t33 -10q41 0 100 35z" />
<glyph unicode="&#x173;" horiz-adv-x="1058" d="M682 0h-27l25 141q-104 -86 -194.5 -123.5t-190.5 -37.5q-108 0 -165.5 53.5t-57.5 154.5q0 69 16 154l107 610h141l-100 -567q-21 -118 -21 -162q0 -112 115 -112q83 0 174 48t205 152l114 641h144l-168 -952q-77 -57 -108.5 -93t-31.5 -67q0 -15 12.5 -25t33.5 -10 q38 0 100 35l29 -73q-98 -52 -166 -52q-55 0 -88 26t-33 69q0 101 135 190z" />
<glyph unicode="&#x174;" horiz-adv-x="1927" d="M2040 1366l-666 -1366h-180l-150 1130l-548 -1130h-179l-178 1366h160l141 -1159l564 1159h167l156 -1159l553 1159h160zM1425 1552l-73 -88l-238 140l-299 -142l-51 105l366 219z" />
<glyph unicode="&#x176;" horiz-adv-x="1144" d="M1255 1366l-620 -762l-107 -604h-157l108 623l-340 743h166l275 -621l495 621h180zM1042 1552l-73 -88l-236 140l-299 -142l-53 105l367 219z" />
<glyph unicode="&#x177;" horiz-adv-x="950" d="M993 952l-706 -1177q-34 -56 -75.5 -114.5t-64.5 -82.5q-70 -67 -202 -67q-63 0 -127 26l45 96q52 -8 84 -8q52 0 94 32t88 107l158 259l-217 929h149l168 -780l453 780h153zM831 1143l-79 -80l-189 147l-254 -149l-67 98l333 232z" />
<glyph unicode="&#x178;" horiz-adv-x="1144" d="M1255 1366l-620 -762l-107 -604h-157l108 623l-340 743h166l275 -621l495 621h180zM1065 1630v-6q0 -37 -33 -67.5t-74 -30.5q-38 0 -65 27t-27 65q0 41 32 72.5t75 31.5q38 0 65 -27t27 -65zM621 1630v-6q0 -39 -31.5 -68.5t-73.5 -29.5q-38 0 -66 27.5t-28 64.5 q0 41 32.5 72.5t73.5 31.5q38 0 65.5 -27t27.5 -65z" />
<glyph unicode="&#x179;" horiz-adv-x="1064" d="M1098 1366l-21 -125l-899 -1108h721l-25 -133h-913l23 127l897 1108h-695l23 131h889zM987 1647l-379 -195l-55 98l348 236z" />
<glyph unicode="&#x17a;" horiz-adv-x="870" d="M836 952l-19 -114l-637 -707h520l-22 -131h-713l21 117l630 706h-495l22 129h693zM803 1262l-354 -193l-58 90l330 234z" />
<glyph unicode="&#x17b;" horiz-adv-x="1064" d="M1098 1366l-21 -125l-899 -1108h721l-25 -133h-913l23 127l897 1108h-695l23 131h889zM803 1630v-6q0 -40 -32 -69t-75 -29q-38 0 -65 27t-27 65q0 41 32 72.5t75 31.5q37 0 64.5 -27.5t27.5 -64.5z" />
<glyph unicode="&#x17c;" horiz-adv-x="870" d="M836 952l-19 -114l-637 -707h520l-22 -131h-713l21 117l630 706h-495l22 129h693zM535 1376h8q29 0 52 -27t23 -61q0 -38 -30 -68t-68 -30q-35 0 -61.5 26.5t-26.5 61.5q0 40 31 69t72 29z" />
<glyph unicode="&#x17d;" horiz-adv-x="1064" d="M1098 1366l-21 -125l-899 -1108h721l-25 -133h-913l23 127l897 1108h-695l23 131h889zM395 1700l76 88l234 -139l299 141l53 -104l-365 -220z" />
<glyph unicode="&#x17e;" horiz-adv-x="870" d="M836 952l-19 -114l-637 -707h520l-22 -131h-713l21 117l630 706h-495l22 129h693zM811 1311l-334 -242l-256 242l80 75l191 -147l253 147z" />
<glyph unicode="&#x192;" horiz-adv-x="958" d="M1067 1456l-53 -106l-4 2q-34 6 -86 6q-167 0 -230 -123q-27 -49 -63 -145q-1 -5 -3.5 -12t-2.5 -9q-2 -5 -6.5 -13.5t-6.5 -15.5l-26 -84h233l-41 -116h-231l-289 -840q-3 -6 -16 -45q-1 -1 -2.5 -4.5t-4 -10t-4.5 -12.5q-3 -12 -12 -39q-37 -99 -129 -186t-209 -133 l-41 119l31 18q92 53 138 111t93 184l289 838h-164l41 116h162l39 105l2 4l6 18l2 7q0 4 2 6q2 8 8 22.5t9 24.5q46 135 96 200q104 138 307 138q71 0 166 -25z" />
<glyph unicode="&#x1cd;" horiz-adv-x="1312" d="M1184 0h-162l-115 502h-555l-291 -502h-161l800 1366h164zM881 625l-131 569l-328 -569h459zM1151 1694l-369 -228l-278 228l61 90l244 -142l309 142z" />
<glyph unicode="&#x1ce;" horiz-adv-x="907" d="M786 111l2 -107q-71 -24 -108 -24q-66 0 -104.5 36.5t-38.5 96.5v22q-108 -84 -180.5 -116.5t-151.5 -32.5q-92 0 -146.5 52t-54.5 140q0 69 34 132.5t95 105.5q94 68 190.5 105.5t286.5 80.5q21 134 21 156q0 50 -22.5 72t-71.5 22q-64 0 -136.5 -30.5t-199.5 -110.5 l-64 96q236 176 424 176q100 0 157.5 -53.5t57.5 -145.5q0 -43 -14 -122l-80 -451q-6 -35 -6 -64q0 -28 10.5 -38.5t38.5 -10.5q15 0 61 13zM555 291l33 188q-135 -39 -201.5 -65t-126.5 -64q-108 -69 -108 -162q0 -35 20 -54t57 -19q127 0 326 176zM905 1311l-334 -242 l-256 242l80 75l191 -147l254 147z" />
<glyph unicode="&#x1d3;" horiz-adv-x="1386" d="M1348 1366l-152 -860q-25 -136 -73 -227.5t-132 -159.5q-179 -146 -436 -146q-204 0 -319 97.5t-115 269.5q0 66 14 152l154 874h157l-155 -874q-15 -83 -15 -121q0 -126 72.5 -193t210.5 -67q107 0 206 34.5t159 92.5q57 57 85 119t48 178l147 831h144zM1210 1694 l-370 -228l-279 228l62 90l245 -142l308 142z" />
<glyph unicode="&#x1d4;" horiz-adv-x="1058" d="M967 952l-168 -952h-144l25 141q-104 -86 -194.5 -123.5t-190.5 -37.5q-108 0 -165.5 53.5t-57.5 154.5q0 69 16 154l107 610h141l-100 -567q-21 -118 -21 -162q0 -112 115 -112q83 0 174 48t205 152l114 641h144zM944 1311l-334 -242l-256 242l80 75l191 -147l254 147z " />
<glyph unicode="&#x1e6;" horiz-adv-x="1398" d="M1374 1309l-61 -113q-96 34 -162 46.5t-152 12.5q-154 0 -290 -54.5t-233.5 -147.5t-154.5 -224t-57 -278q0 -213 123.5 -334t341.5 -121q129 0 301 51l88 502h158l-102 -586l-37 -14q-3 0 -33 -10q-90 -33 -198 -52.5t-199 -19.5q-281 0 -444 154.5t-163 421.5 q0 174 70.5 331t190.5 270t286 180t350 67q99 0 180 -17.5t197 -64.5zM1335 1694l-368 -228l-279 228l62 90l243 -142l310 142z" />
<glyph unicode="&#x1e7;" horiz-adv-x="1048" d="M1044 956l-18 -110h-184q32 -45 42.5 -78.5t10.5 -85.5q0 -175 -137.5 -302.5t-327.5 -127.5q-58 0 -113 22l-84 -98q63 -30 224 -53l137 -19q174 -25 249 -78t75 -151q0 -101 -77.5 -184.5t-213 -131.5t-299.5 -48q-203 0 -314.5 67.5t-111.5 190.5q0 92 61.5 166 t169.5 112q18 7 37 14q-123 43 -123 72q0 23 103 129q13 13 30 33t37 41q-43 46 -59.5 90.5t-16.5 112.5q0 117 60.5 220t162.5 164.5t216 61.5q70 0 147 -29h317zM569 866q-117 0 -197.5 -91t-80.5 -222q0 -89 44.5 -136.5t129.5 -47.5q116 0 199.5 92t83.5 221 q0 89 -46.5 136.5t-132.5 47.5zM328 12q-82 -22 -125 -41.5t-80 -52.5q-78 -65 -78 -143q0 -69 72 -105.5t207 -36.5q183 0 309.5 69t126.5 167q0 51 -62 74q-31 12 -133 26q-183 29 -237 43zM965 1311l-334 -242l-256 242l80 75l190 -147l254 147z" />
<glyph unicode="&#x218;" horiz-adv-x="1054" d="M1028 1346l-47 -113q-131 29 -248 29q-170 0 -279.5 -70.5t-109.5 -179.5q0 -63 44 -102.5t196 -114.5q200 -100 270 -175t70 -192q0 -131 -81 -235.5t-225.5 -163t-326.5 -58.5q-128 0 -314 41l46 123q178 -29 258 -29q204 0 342.5 90t138.5 222q0 59 -38 102.5 t-130 89.5l-111 56q-100 52 -145.5 82.5t-83.5 70.5q-74 80 -74 182q0 107 72 196.5t196 141.5t271 52q161 0 309 -45zM502 -84l-115 -371h-104l65 371h154z" />
<glyph unicode="&#x219;" horiz-adv-x="804" d="M748 952l-48 -108q-115 24 -186 24q-110 0 -181 -42.5t-71 -108.5q0 -32 25 -55.5t108 -67.5l62 -33q121 -64 169 -121t48 -135q0 -145 -133 -236.5t-344 -91.5q-122 0 -240 39l41 105q114 -27 192 -27q140 0 234 56t94 139q0 40 -25 68.5t-94 66.5l-147 80 q-78 43 -112 88t-34 108q0 123 114.5 204t287.5 81q108 0 240 -33zM350 -84l-104 -338h-94l59 338h139z" />
<glyph unicode="&#x21a;" horiz-adv-x="1103" d="M1202 1366l-22 -131h-445l-219 -1235h-158l220 1235h-449l23 131h1050zM500 -84l-113 -371h-104l65 371h152z" />
<glyph unicode="&#x21b;" horiz-adv-x="589" d="M594 952l-19 -108h-243l-109 -606q-6 -54 -6 -68q0 -38 27.5 -56t87.5 -18q38 0 114 15l-20 -111q-93 -18 -133 -18q-221 0 -221 168q0 14 6 55l112 639h-159l20 108h158l47 260h139l-45 -260h244zM268 -84l-104 -338h-94l59 338h139z" />
<glyph unicode="&#x2c6;" horiz-adv-x="737" d="M678 1143l-80 -80l-190 147l-254 -149l-66 98l334 232z" />
<glyph unicode="&#x2c7;" d="M774 1311l-334 -242l-256 242l80 75l191 -147l254 147z" />
<glyph unicode="&#x2c9;" horiz-adv-x="737" d="M745 1303l-20 -123h-528l20 123h528z" />
<glyph unicode="&#x2d8;" horiz-adv-x="544" d="M547 1352h121q-31 -120 -109 -183t-197 -63q-107 0 -174 60t-67 157q0 23 2 29h117v-11q0 -58 28 -84t90 -26q76 0 121 29t68 92z" />
<glyph unicode="&#x2d9;" d="M481 1337q35 0 58.5 -24.5t23.5 -61.5q0 -38 -29 -67t-67 -29q-35 0 -60.5 25.5t-25.5 60.5q0 38 30 67t70 29z" />
<glyph unicode="&#x2da;" horiz-adv-x="327" d="M297 1395q59 0 97 -37.5t38 -97.5q0 -74 -60.5 -133.5t-135.5 -59.5q-60 0 -99 38.5t-39 98.5q0 75 60.5 133t138.5 58zM281 1323q-42 0 -75.5 -32.5t-33.5 -73.5q0 -34 22 -56t56 -22q43 0 75.5 31.5t32.5 74.5q0 34 -21.5 56t-55.5 22z" />
<glyph unicode="&#x2db;" horiz-adv-x="589" d="M86 -258q0 32 12 63t36.5 61t45.5 52.5t59.5 50t56.5 40.5t57 37.5t44 27.5l39 -70q-23 -20 -59.5 -51t-52.5 -45t-38 -35.5t-30.5 -35t-15.5 -30.5t-7 -34q0 -56 64 -56q33 0 72 13l2 -107q-55 -24 -135 -24q-67 0 -109 35t-41 108z" />
<glyph unicode="&#x2dc;" horiz-adv-x="737" d="M686 1343l84 -77q-74 -78 -127 -112t-104 -34q-52 0 -146 64q-41 26 -61 26q-53 0 -156 -92l-80 80q69 77 121.5 110t104.5 33q55 0 159 -67q35 -21 51 -21q45 0 154 90z" />
<glyph unicode="&#x2dd;" d="M782 1284l-329 -178l-60 70l301 213zM500 1284l-330 -178l-59 70l301 213z" />
<glyph unicode="&#x1e84;" horiz-adv-x="1927" d="M2040 1366l-666 -1366h-180l-150 1130l-548 -1130h-179l-178 1366h160l141 -1159l564 1159h167l156 -1159l553 1159h160zM1444 1630v-6q0 -40 -31.5 -69t-75.5 -29q-37 0 -64.5 27t-27.5 65q0 41 32 72.5t75 31.5q38 0 65 -27.5t27 -64.5zM1001 1630v-6q0 -37 -32 -67.5 t-72 -30.5q-38 0 -65 27t-27 65q0 41 31.5 72.5t72.5 31.5q38 0 65 -27t27 -65z" />
<glyph unicode="&#x2000;" horiz-adv-x="938" />
<glyph unicode="&#x2001;" horiz-adv-x="1876" />
<glyph unicode="&#x2002;" horiz-adv-x="938" />
<glyph unicode="&#x2003;" horiz-adv-x="1876" />
<glyph unicode="&#x2004;" horiz-adv-x="625" />
<glyph unicode="&#x2005;" horiz-adv-x="469" />
<glyph unicode="&#x2006;" horiz-adv-x="312" />
<glyph unicode="&#x2007;" horiz-adv-x="312" />
<glyph unicode="&#x2008;" horiz-adv-x="234" />
<glyph unicode="&#x2009;" horiz-adv-x="375" />
<glyph unicode="&#x200a;" horiz-adv-x="104" />
<glyph unicode="&#x2010;" horiz-adv-x="641" d="M530 485h-483l21 121h483z" />
<glyph unicode="&#x2011;" horiz-adv-x="641" d="M530 485h-483l21 121h483z" />
<glyph unicode="&#x2012;" horiz-adv-x="1085" d="M1010 606l-21 -121h-952l22 121h951z" />
<glyph unicode="&#x2013;" horiz-adv-x="1085" d="M1010 606l-21 -121h-952l22 121h951z" />
<glyph unicode="&#x2014;" horiz-adv-x="2033" d="M1958 606l-21 -121h-1900l22 121h1899z" />
<glyph unicode="&#x2015;" horiz-adv-x="2033" d="M1958 606l-21 -121h-1900l22 121h1899z" />
<glyph unicode="&#x2017;" d="M0 -119h1024v-96h-1024v96zM0 -356h1024v-99h-1024v99z" />
<glyph unicode="&#x2018;" horiz-adv-x="456" d="M432 1393l-72 -412h-167l124 412h115z" />
<glyph unicode="&#x2019;" horiz-adv-x="462" d="M467 1393l-125 -412h-115l74 412h166z" />
<glyph unicode="&#x201a;" horiz-adv-x="524" d="M322 178l-125 -407h-115l72 407h168z" />
<glyph unicode="&#x201c;" horiz-adv-x="743" d="M719 1393l-68 -385h-166l117 385h117zM438 1393l-67 -385h-166l117 385h116z" />
<glyph unicode="&#x201d;" horiz-adv-x="743" d="M465 1393l-117 -385h-117l70 385h164zM745 1393l-116 -385h-117l68 385h165z" />
<glyph unicode="&#x201e;" horiz-adv-x="743" d="M315 178l-116 -381h-117l68 381h165zM596 178l-117 -381h-117l68 381h166z" />
<glyph unicode="&#x2020;" horiz-adv-x="1044" d="M999 782l-22 -120h-383l-164 -893h-131l147 893h-376l20 120h379l96 584h160l-109 -584h383z" />
<glyph unicode="&#x2021;" horiz-adv-x="1044" d="M1030 952l-20 -121h-377l-64 -337h381l-22 -123h-381l-111 -602h-131l101 602h-388l21 123h387l55 337h-383l23 121h381l67 414h160l-74 -414h375z" />
<glyph unicode="&#x2022;" d="M512 977q121 0 203 -81.5t82 -201.5q0 -118 -83 -201t-200 -83q-120 0 -202.5 81.5t-82.5 200.5q0 118 83 201.5t200 83.5z" />
<glyph unicode="&#x2026;" horiz-adv-x="1515" d="M1155 186h8q32 0 57 -27.5t25 -64.5q0 -41 -32 -71.5t-76 -30.5q-38 0 -64 26t-26 64q0 43 32 73.5t76 30.5zM682 186h10q32 0 57 -27.5t25 -64.5q0 -41 -32 -71.5t-76 -30.5q-40 0 -65.5 25t-25.5 65q0 42 32 73t75 31zM211 186h10q32 0 57 -27.5t25 -64.5 q0 -41 -32 -71.5t-76 -30.5q-39 0 -65 25t-26 63q0 44 32 75t75 31z" />
<glyph unicode="&#x202f;" horiz-adv-x="375" />
<glyph unicode="&#x2030;" horiz-adv-x="2011" d="M1923 430v-4v-4q0 -184 -113.5 -315.5t-271.5 -131.5q-115 0 -177.5 70.5t-62.5 198.5q0 187 112.5 319.5t270.5 132.5q67 0 121.5 -28.5t79.5 -75.5q14 -27 27.5 -76.5t13.5 -75.5v-10zM727 1155v-16q2 -4 2 -23q0 -181 -114 -312.5t-271 -131.5q-114 0 -177 71t-63 199 q0 187 112.5 320t270.5 133q78 0 134 -34.5t81 -96.5q25 -69 25 -107v-2zM1276 1341l-1114 -1376l-88 60l1114 1380zM1239 459v-37q0 -121 -51.5 -224t-140 -163t-193.5 -60q-114 0 -176 70.5t-62 198.5q0 187 112.5 319.5t270.5 132.5q111 0 175.5 -63.5t64.5 -173.5z M1657 588q-95 0 -164.5 -97t-69.5 -229q0 -85 38.5 -131.5t107.5 -46.5q95 0 162 95t67 229q0 85 -37 132.5t-104 47.5zM461 1286q-94 0 -163 -95.5t-69 -227.5q0 -86 37.5 -133.5t106.5 -47.5q96 0 163.5 95t67.5 229q0 86 -37.5 133t-105.5 47zM975 588 q-97 0 -165.5 -96.5t-68.5 -231.5q0 -83 38 -129.5t106 -46.5q96 0 163.5 95t67.5 229q0 86 -36.5 133t-104.5 47z" />
<glyph unicode="&#x2039;" horiz-adv-x="536" d="M459 788l-240 -301l127 -311l-98 -47l-201 377l313 342z" />
<glyph unicode="&#x203a;" horiz-adv-x="536" d="M430 477l-311 -344l-99 62l238 301l-127 309l100 49z" />
<glyph unicode="&#x203e;" horiz-adv-x="737" d="M745 1303l-20 -123h-528l20 123h528z" />
<glyph unicode="&#x2044;" horiz-adv-x="968" d="M1200 1341l-1112 -1376l-88 60l1114 1380z" />
<glyph unicode="&#x205f;" horiz-adv-x="469" />
<glyph unicode="&#x20a3;" horiz-adv-x="1325" d="M1018 1366l-23 -131h-565l-80 -453h463l-22 -127h-463l-117 -655h-156l240 1366h723zM1393 780l-60 -125q-29 15 -55 15q-145 0 -324 -269l-71 -401h-140l138 782h141l-31 -172l6 8q11 11 15 17q66 78 141 123t141 45q42 0 99 -23z" />
<glyph unicode="&#x20a4;" horiz-adv-x="1034" d="M217 543l37 119h-211l23 120h227l41 127q79 247 208.5 366.5t317.5 119.5q62 0 113.5 -12.5t146.5 -49.5l-65 -104q-108 39 -185 39q-155 0 -256 -107q-51 -59 -80.5 -121.5t-76.5 -214.5l-13 -43h488l-23 -120h-503l-37 -119h518l-23 -121h-534q-46 -138 -78.5 -197 t-81.5 -94h713l-23 -131h-928l-4 119q86 3 137.5 62.5t104.5 215.5l8 25h-180l22 121h197z" />
<glyph unicode="&#x20a7;" horiz-adv-x="2041" d="M295 1366h301h4l33 -2l155 -6q126 -5 207.5 -89t81.5 -210q0 -101 -53 -200.5t-141 -160.5q-121 -80 -256 -92q-29 -4 -133 -4h-177l-106 -602h-156zM340 731h168q107 0 169 16.5t116 59.5t86 107.5t32 129.5q0 53 -20 93.5t-57 60.5q-34 19 -78 26t-131 7h-197z M1464 752l-14 -86h-193l-86 -482q-6 -27 -6 -53q0 -59 90 -59q37 0 93 12l-17 -88q-62 -14 -104 -14q-176 0 -176 133q0 7 4 43l90 508h-127l16 86h125l37 206h111l-35 -206h192zM2015 752l-39 -86q-83 20 -147 20q-87 0 -143 -34t-56 -87q0 -26 20.5 -45t84.5 -53l49 -27 q97 -51 134.5 -95t37.5 -107q0 -115 -106 -188t-273 -73q-99 0 -191 31l33 84q78 -22 154 -22q110 0 185 44.5t75 110.5q0 31 -20 54t-76 53l-117 63q-61 34 -88 70t-27 86q0 98 90.5 162.5t227.5 64.5q85 0 192 -26z" />
<glyph unicode="&#x20ac;" horiz-adv-x="1026" d="M1143 1237l-80 -84q-75 61 -137.5 88t-130.5 27q-264 0 -412 -348h535l-23 -123h-555q-13 -59 -18 -84q-1 -3 -5 -19q-2 -9 -10 -73h557l-22 -121h-543q-2 -12 -2 -27v-12v-12q0 -167 75.5 -262t209.5 -95q75 0 148.5 26.5t170.5 88.5l51 -84q-107 -80 -201 -115 t-200 -35q-191 0 -297.5 124.5t-106.5 348.5v11v14q0 14 3 29h-185l23 121h174q0 42 35 176h-181l23 123h197q47 110 82 170t85 116q165 183 396 183q102 0 182.5 -35.5t161.5 -116.5z" />
<glyph unicode="&#x2101;" horiz-adv-x="1835" d="M1618 1503l-950 -1681l-113 45l950 1681zM848 535h-100l-72 311h-342l-178 -311h-101l494 843h100zM662 922l-82 350l-203 -350h285zM1780 819l-29 -69q-86 18 -154 18q-104 0 -171.5 -43.5t-67.5 -110.5q0 -39 26.5 -63t120.5 -72q124 -61 167.5 -107.5t43.5 -117.5 q0 -123 -110.5 -203t-280.5 -80q-67 0 -192 25l28 76q108 -17 158 -17q126 0 211.5 55.5t85.5 137.5q0 36 -23.5 63t-79.5 54l-69 34q-105 54 -146 99.5t-41 109.5q0 100 97 170t235 70q100 0 191 -29z" />
<glyph unicode="&#x2113;" d="M510 551q-46 -242 -57 -308t-11 -118q0 -51 37 -51q53 0 105 110q15 37 39 37q26 0 26 -31q0 -47 -53 -122q-75 -97 -156 -97q-64 0 -100.5 48t-36.5 133q0 66 21 260q-83 -78 -101 -78q-10 0 -19 10.5t-9 22.5q0 19 41 55q12 11 48.5 48.5t53.5 57.5q73 385 168 615 q96 246 235 246q58 0 93.5 -45.5t35.5 -120.5q0 -82 -33 -183.5t-92 -199.5q-67 -113 -235 -289zM532 682q122 136 189 274.5t67 257.5q0 40 -13 65.5t-34 25.5q-23 0 -46.5 -25.5t-37.5 -65.5q-63 -177 -125 -532z" />
<glyph unicode="&#x2122;" horiz-adv-x="1624" d="M1573 590h-119l-84 584l-223 -584h-96l-224 586l-86 -586h-110l121 776h120l234 -610l231 610h119zM641 1280h-254v-690h-117v690h-254v86h625v-86z" />
<glyph unicode="&#x2126;" horiz-adv-x="1572" d="M1507 0h-598l37 317q57 38 82 60q180 154 180 420q0 142 -56 261.5t-153 188t-213 68.5q-85 0 -162.5 -40.5t-133 -109.5t-88.5 -165.5t-33 -202.5q0 -269 186 -426q13 -11 76 -54l37 -317h-598v313h49q13 -72 44.5 -100.5t96.5 -28.5h299l-6 78q-132 55 -184 92 q-230 167 -230 430q0 164 88.5 307.5t238.5 228.5t322 85t322 -84.5t239 -227.5t89 -307q0 -132 -59.5 -243.5t-168.5 -186.5q-58 -38 -186 -94l-6 -78h299q63 0 95.5 29.5t45.5 99.5h49v-313z" />
<glyph unicode="&#x2202;" horiz-adv-x="1011" d="M260 1237l-39 123q116 57 188 78.5t148 21.5q191 0 300.5 -142.5t109.5 -389.5q0 -183 -51.5 -371.5t-139.5 -323.5q-80 -123 -187 -189.5t-227 -66.5q-155 0 -242 99t-87 276q0 178 67 323t185.5 227.5t263.5 82.5q133 0 260 -72v23q0 173 -72.5 279t-191.5 106 q-104 0 -285 -84zM791 743l-9 9q-50 47 -120 76.5t-136 29.5q-85 0 -155 -48t-113 -134q-76 -162 -76 -316q0 -120 52 -189t141 -69q222 0 350 379q34 95 66 262z" />
<glyph unicode="&#x2205;" horiz-adv-x="1265" d="M899 1366l98 -51l-98 -182q231 -159 231 -416q0 -137 -67 -251.5t-183.5 -180.5t-256.5 -66q-92 0 -162 33l-129 -252l-99 51l125 250q-221 164 -221 414q0 137 66.5 251.5t181.5 180t252 65.5q81 0 166 -28zM852 1028l-338 -676q65 -16 119 -16q158 0 270.5 111 t112.5 268q0 97 -44.5 181.5t-119.5 131.5zM410 406l340 673q-61 17 -111 17q-160 0 -273.5 -111t-113.5 -268q0 -183 158 -311z" />
<glyph unicode="&#x2206;" horiz-adv-x="1253" d="M1245 0h-1233l658 1409zM981 104l-387 938l-436 -938h823z" />
<glyph unicode="&#x220f;" horiz-adv-x="1685" d="M1645 -252h-594v53h6q125 0 164 86q16 39 16 150v1180q0 55 -2.5 89.5t-12 62.5t-23 42.5t-40.5 24t-59.5 12t-85.5 2.5h-33h-137h-58h-36h-19h-10q-64 0 -100 -4h-17h-4l-4 2l-4 -2l-2 -2q-4 -2 -15 -2h-4q-21 0 -46.5 -12t-37.5 -27q-28 -35 -28 -186v-1180 q0 -130 28 -172q20 -30 60.5 -47t91.5 -17h6v-53h-594v53h6q51 0 91.5 17t60.5 47q29 43 29 172v1210q0 84 -12 129.5t-40 67.5q-53 41 -129 41h-6v53h1594v-53h-7q-124 0 -163 -86q-17 -38 -17 -152v-1210q0 -77 6 -113t23 -59q51 -64 151 -64h7v-53z" />
<glyph unicode="&#x2211;" horiz-adv-x="1409" d="M1169 -195h-989v123l430 791l-430 713v118h973v-442h-139l-23 328h-645l436 -721l-450 -795h682l14 330h141v-445z" />
<glyph unicode="&#x2212;" d="M989 477h-956v135h956v-135z" />
<glyph unicode="&#x2218;" d="M518 983q114 0 195.5 -84.5t81.5 -202.5q0 -119 -82 -202.5t-199 -83.5t-200 84t-83 202q0 120 83.5 203.5t203.5 83.5zM516 885q-79 0 -133.5 -55.5t-54.5 -133.5t54.5 -133t131.5 -55q76 0 130 55t54 133q0 77 -53.5 133t-128.5 56z" />
<glyph unicode="&#x2219;" horiz-adv-x="579" d="M215 780h2h4q32 0 57 -28.5t25 -63.5q0 -41 -32.5 -72.5t-75.5 -31.5q-39 0 -65 26t-26 66q0 41 33 73.5t74 32.5q4 0 4 -2z" />
<glyph unicode="&#x221a;" horiz-adv-x="1124" d="M1055 1860l-312 -1930l-495 1014l-195 -96l-33 72l299 145l400 -807l260 1612z" />
<glyph unicode="&#x221e;" horiz-adv-x="1460" d="M692 418l-6 -6q-148 -176 -342 -176q-132 0 -212.5 83t-80.5 218t83 223t212 88q104 0 192.5 -52t192.5 -175q60 74 111 118q124 109 274 109q130 0 212.5 -84.5t82.5 -218.5q0 -135 -79 -222t-202 -87q-168 0 -317 143q-35 33 -82 86l-6 -6q0 -2 -2 -4l-2 -4l-2 -2 q-2 -5 -4 -5v-2q-6 -6 -10 -12q-8 -5 -11 -10zM813 557l-12 -16q75 -78 98 -99q106 -100 219 -100q89 0 140 53t51 144q0 89 -53 145.5t-136 56.5q-79 0 -160.5 -49t-146.5 -135zM637 512l27 33q-62 64 -105 102q-104 94 -217 94q-86 0 -137 -53.5t-51 -144.5 q0 -88 49.5 -144.5t126.5 -56.5q140 0 297 160z" />
<glyph unicode="&#x222b;" horiz-adv-x="561" d="M440 1786l-2 2q-20 10 -30 10q-54 0 -54 -131v-43l2 -31v-4v-4q0 -6 2 -24l2 -33v-12q9 -79 9 -211v-64v-61v-705q0 -379 -60 -553q-47 -139 -182 -139q-55 0 -89 24.5t-34 63.5q0 29 20.5 49.5t49.5 20.5q40 0 65 -45q20 -37 43 -37q29 0 46.5 34t17.5 91v22l-2 60 l-2 16v12l-2 35v14q-7 81 -7 111v22v19q-2 74 -2 131v49v707q0 383 60 555q23 67 70.5 103t113.5 36q54 0 87.5 -25t33.5 -65q0 -29 -21 -48.5t-53 -19.5q-23 0 -37 11.5t-45 56.5z" />
<glyph unicode="&#x223c;" d="M111 541l-91 57q55 124 123 182t158 58q77 0 229 -70q90 -42 126.5 -54t72.5 -12q57 0 97 30t87 108l93 -54q-60 -121 -131 -176t-166 -55q-43 0 -95.5 18t-191.5 80q-75 37 -131 37q-54 0 -95 -33.5t-85 -115.5z" />
<glyph unicode="&#x2243;" d="M111 549l-91 59q59 125 125.5 181.5t155.5 56.5q74 0 229 -70q92 -42 127 -53.5t70 -11.5q58 0 98 30t88 109l93 -55q-60 -121 -131 -176.5t-166 -55.5q-43 0 -95.5 18t-191.5 81q-76 36 -131 36t-96.5 -34t-83.5 -115zM1006 446v-120h-986v120h986z" />
<glyph unicode="&#x2248;" horiz-adv-x="1124" d="M1001 836l78 -68q-56 -95 -121.5 -135.5t-166.5 -40.5q-35 0 -58.5 4.5t-105.5 26.5q-27 10 -35 10l-31 8q-16 3 -46 13.5t-40 13.5q-80 30 -149 30q-62 0 -96.5 -21.5t-112.5 -107.5l-88 70q71 92 139.5 132t157.5 40q61 0 180 -33l78 -24q123 -37 147.5 -43t54.5 -6 q61 0 101 24.5t114 106.5zM1001 514l78 -70q-52 -91 -122.5 -132.5t-170.5 -41.5q-66 0 -131 21l-32 10l-15 4q-30 7 -35 10l-2 2h-4l-16 7h-2l-29 10l-63 18q-92 25 -133 25q-56 0 -97 -25.5t-110 -103.5l-88 69q70 94 138.5 133t160.5 39q83 0 178 -32l78 -25q14 -4 24 -8 q17 -4 19 -6q111 -35 161 -35q60 0 103 27t110 104z" />
<glyph unicode="&#x2260;" horiz-adv-x="1124" d="M1106 289h-604l-172 -338l-94 49l147 289h-352v112h407l144 285h-551v113h608l164 325l96 -49l-139 -276h346v-113h-404l-143 -285h547v-112z" />
<glyph unicode="&#x2264;" horiz-adv-x="1124" d="M1077 240l-1018 477v112l1018 480v-127l-856 -408l856 -407v-127zM1077 0h-1018v113h1018v-113z" />
<glyph unicode="&#x2265;" horiz-adv-x="1124" d="M1077 717l-1018 -477v127l856 407l-856 408v127l1018 -480v-112zM1077 0h-1018v113h1018v-113z" />
<glyph unicode="&#x25fc;" horiz-adv-x="952" d="M0 952h952v-952h-952v952z" />
</font>
</defs>
</svg>
