<?xml version="1.0" standalone="no"?>
<!DOCTYPE svg PUBLIC "-//W3C//DTD SVG 1.1//EN" "http://www.w3.org/Graphics/SVG/1.1/DTD/svg11.dtd" >
<svg xmlns="http://www.w3.org/2000/svg" xmlns:xlink="http://www.w3.org/1999/xlink" version="1.1">
<metadata></metadata>
<defs>
<font id="pru_sans_ot2demi_italic" horiz-adv-x="1179" >
<font-face units-per-em="2048" ascent="1464" descent="-584" />
<missing-glyph horiz-adv-x="573" />
<glyph unicode="ff" horiz-adv-x="1372" d="M461 803l-142 -803h-253l141 803h-178l30 170h179l12 74q35 221 151 325q132 113 338 113q81 0 181 -25l-74 -178q-36 8 -84 8q-58 0 -108.5 -15.5t-78.5 -41.5q-26 -26 -41 -66t-30 -125l-12 -69h387l14 84q20 118 56 193t98 128q124 109 331 109q106 0 199 -29 l-74 -178q-64 12 -117 12q-108 0 -160.5 -55t-80.5 -197l-12 -67h256l-31 -170h-256l-141 -803h-254l141 803h-387z" />
<glyph unicode="fi" horiz-adv-x="1226" d="M1075 1393q56 0 90.5 -33.5t34.5 -87.5q0 -66 -51.5 -117t-118.5 -51q-54 0 -89.5 33.5t-35.5 85.5q0 67 51.5 118.5t118.5 51.5zM1130 973l-172 -973h-251l141 803h-387l-142 -803h-253l141 803h-178l30 170h179l12 74q40 245 184 350q124 88 301 88q82 0 185 -25 l-74 -178q-31 8 -82 8q-196 0 -240 -145q-6 -19 -20 -103l-12 -69h638z" />
<glyph unicode="fl" horiz-adv-x="1251" d="M1241 1464l-258 -1464h-254l141 803h-409l-142 -803h-253l141 803h-178l30 170h179l12 74q38 225 141 319q128 119 348 119q78 0 170 -21l-71 -178h-7q-57 4 -69 4q-119 0 -177 -56t-81 -192l-12 -69h409l86 491h254z" />
<glyph unicode="ffi" horiz-adv-x="1867" d="M1133 973h639l-173 -973h-251l141 803h-387l-141 -803h-254l141 803h-387l-142 -803h-253l141 803h-178l30 170h179l12 74q35 221 151 325q132 113 338 113q81 0 181 -25l-74 -178q-36 8 -84 8q-58 0 -108.5 -15.5t-78.5 -41.5q-26 -26 -41 -66t-30 -125l-12 -69h387 l14 84q20 118 56 193t98 128q124 109 331 109q106 0 199 -29l-74 -178q-64 12 -117 12q-108 0 -160.5 -55t-80.5 -197zM1720 1393q52 0 86.5 -34t34.5 -85q0 -69 -51.5 -119.5t-122.5 -50.5q-50 0 -84.5 34t-34.5 85q0 69 51.5 119.5t120.5 50.5z" />
<glyph unicode="ffl" horiz-adv-x="1892" d="M1542 973l86 491h254l-258 -1464h-254l141 803h-409l-141 -803h-254l141 803h-387l-142 -803h-253l141 803h-178l30 170h179l12 74q35 221 151 325q132 113 338 113q78 0 181 -25l-74 -178q-36 8 -84 8q-58 0 -108.5 -15.5t-78.5 -41.5q-26 -26 -41 -66t-30 -125l-12 -69 h387l14 84q20 118 56 193t98 128q124 109 331 109q106 0 199 -29l-74 -178q-66 12 -117 12q-108 0 -160.5 -55t-80.5 -197l-12 -67h409z" />
<glyph unicode=" "  horiz-adv-x="573" />
<glyph unicode="&#x09;" horiz-adv-x="573" />
<glyph unicode="&#xa0;" horiz-adv-x="573" />
<glyph unicode="!" horiz-adv-x="573" d="M543 1366l-195 -963h-217l133 963h279zM221 289q56 0 91.5 -34.5t35.5 -88.5q0 -70 -56 -125t-128 -55q-54 0 -89.5 34t-35.5 86q0 72 54.5 127.5t127.5 55.5z" />
<glyph unicode="&#x22;" horiz-adv-x="739" d="M698 1397l-82 -455h-217l82 455h217zM340 1397l-82 -455h-217l82 455h217z" />
<glyph unicode="#" horiz-adv-x="1146" d="M1067 1073l-41 -127h-184l-70 -215h184l-41 -129h-184l-115 -366h-137l115 366h-182l-111 -366h-141l112 366h-186l43 129h184l70 215h-182l41 127h182l102 332h140l-103 -332h180l101 332h143l-104 -332h184zM702 946h-180l-69 -215h180z" />
<glyph unicode="$" d="M1016 1262l-72 -183h-8q-3 0 -23 4q-75 11 -168 11q-114 0 -191 -39.5t-77 -98.5q0 -61 121 -114q27 -14 64 -29q168 -70 230 -136t62 -173q0 -118 -67 -211t-189 -146q-82 -33 -239 -59l-56 -188h-127l54 186h-19q-18 2 -26 2h-9h-4l-18 -2l-23 2q-172 18 -213 29l-4 2 l78 196l4 -2q9 0 21 -2q8 0 14 -2q115 -16 219 -16q151 0 233.5 39.5t82.5 111.5q0 81 -152 150l-12 6q-151 68 -207 109q-109 75 -109 213q0 166 133 265.5t359 102.5l51 180h125l-51 -180q104 0 213 -28z" />
<glyph unicode="%" horiz-adv-x="1480" d="M508 1401q123 0 194.5 -75t71.5 -204q0 -184 -120.5 -317t-286.5 -133q-125 0 -198 77t-73 209q0 183 121 313t291 130zM1376 1323l-1177 -1354l-97 78l1176 1356zM1114 705q123 0 196.5 -79.5t73.5 -211.5q0 -88 -33 -169t-87.5 -140t-130 -94.5t-156.5 -35.5 q-126 0 -198 76.5t-72 208.5q0 183 120 314t287 131zM471 1247q-78 0 -130 -77t-52 -193q0 -148 110 -148q125 0 172 158q17 63 17 109q0 74 -30 112.5t-87 38.5zM1081 549q-75 0 -128.5 -78t-53.5 -188q0 -72 30 -111t85 -39q119 0 166 158q16 59 16 112q0 69 -30 107.5 t-85 38.5z" />
<glyph unicode="&#x26;" horiz-adv-x="1456" d="M1335 170l-151 -193q-21 13 -43.5 27.5t-38.5 24.5l-178 118l-17 11q-131 -94 -248.5 -136t-250.5 -42q-182 0 -292 92.5t-110 246.5q0 207 187 345q62 49 202 127q-43 100 -43 192q0 179 125.5 296.5t315.5 117.5q130 0 210 -68t80 -178q0 -176 -202 -317 q-67 -47 -179 -103q89 -166 238 -287q65 74 115 189h219q-42 -113 -75 -168t-107 -137l14 -9q180 -125 203 -137zM623 897q115 54 165 105t50 116q0 40 -24.5 63t-65.5 23q-65 0 -110.5 -53t-45.5 -129q0 -56 31 -125zM754 285l-33 34l-19 19l-6 6q-106 110 -140.5 153 t-76.5 119q-106 -61 -153 -123.5t-47 -140.5q0 -75 56 -119.5t152 -44.5q141 0 267 97z" />
<glyph unicode="'" horiz-adv-x="382" d="M340 1397l-82 -455h-217l82 455h217z" />
<glyph unicode="(" horiz-adv-x="706" d="M596 1401l145 -117q-136 -161 -214.5 -296.5t-127.5 -295.5q-55 -187 -55 -358q0 -134 31.5 -259t103.5 -274l-184 -112q-100 132 -159.5 331t-59.5 400q0 266 119.5 491.5t400.5 489.5z" />
<glyph unicode=")" horiz-adv-x="706" d="M111 -311l-144 114q96 115 147 188.5t95 160.5q151 284 151 583q0 138 -31 267t-100 282l185 117q118 -171 170.5 -329.5t52.5 -340.5q0 -280 -134 -545t-392 -497z" />
<glyph unicode="*" d="M885 1229l-195 -113l184 -65l-75 -142l-166 101l8 -205l-154 -27l35 209l-182 -145l-80 119l199 110l-191 64l78 141l164 -100l-8 204l149 31l-28 -209l180 146z" />
<glyph unicode="+" d="M1071 449h-397v-379h-199v379h-399v200h399v377h199v-377h397v-200z" />
<glyph unicode="," horiz-adv-x="573" d="M467 260l-174 -493h-168l86 493h256z" />
<glyph unicode="-" horiz-adv-x="643" d="M588 649l-37 -200h-531l37 200h531z" />
<glyph unicode="." horiz-adv-x="573" d="M313 289q57 0 93 -35t36 -90q0 -71 -55.5 -124.5t-128.5 -53.5q-54 0 -89.5 34t-35.5 86q0 72 54 127.5t126 55.5z" />
<glyph unicode="/" d="M1001 1444l-958 -1575l-121 57l959 1575z" />
<glyph unicode="0" d="M696 1399q198 0 306 -141t108 -402q0 -263 -109 -483q-94 -192 -236.5 -296t-313.5 -104q-113 0 -192 41t-134 129q-90 146 -90 375q0 337 166 584q197 297 495 297zM655 1184q-95 0 -162.5 -77.5t-117.5 -242.5q-60 -192 -60 -387q0 -141 43.5 -215t128.5 -74 q101 0 183 106.5t125 295.5q34 141 34 297q0 297 -174 297z" />
<glyph unicode="1" d="M672 0h-266l196 1118h-2l-356 -164l-62 172l525 273l198 -76z" />
<glyph unicode="2" d="M231 1096l-38 190q124 54 255.5 84.5t235.5 30.5q170 0 278.5 -91.5t108.5 -234.5q0 -278 -366 -604q-114 -104 -318 -250h571l-38 -221h-924l-14 178q95 78 229 174q238 173 360 289q100 97 154.5 194t54.5 179q0 74 -52 118t-138 44q-73 0 -179 -24t-180 -56z" />
<glyph unicode="3" d="M-2 -16l35 198q176 9 281 27.5t188 54.5q188 80 188 228q0 161 -332 161h-18h-10h-39h-33l33 185q223 8 347 70.5t124 168.5q0 103 -146 103q-117 0 -346 -70l-34 184q279 103 469 103q151 0 240 -71.5t89 -192.5t-85 -213.5t-244 -143.5q131 -23 203.5 -98t72.5 -189 q0 -175 -139.5 -293t-413.5 -173q-176 -36 -430 -39z" />
<glyph unicode="4" d="M1028 287h-180l-51 -287h-250l51 287h-606l-17 186l838 934l219 -72l-147 -841h180zM635 494l92 526l-457 -526h365z" />
<glyph unicode="5" d="M1094 1366l-37 -211h-510l-82 -219q263 -29 381.5 -118t118.5 -257q0 -169 -124.5 -300t-352 -205t-525.5 -79l27 197q415 33 567 148q55 40 85 93.5t30 112.5q0 80 -66.5 128.5t-204.5 70.5q-61 9 -170 14l-20 164l172 461h711z" />
<glyph unicode="6" d="M1126 1397l-18 -197q-253 -28 -463.5 -161.5t-304.5 -325.5q85 75 164 109t172 34q149 0 244.5 -105.5t95.5 -269.5q0 -213 -156 -357t-385 -144q-209 0 -324.5 124t-115.5 347q0 257 132 460t379 329t580 157zM309 502v-6q-2 -14 -2 -39q0 -121 55.5 -190.5t151.5 -69.5 q100 0 172 79t72 189q0 83 -46.5 129.5t-129.5 46.5q-58 0 -120.5 -25t-103.5 -65q-49 -46 -49 -49z" />
<glyph unicode="7" d="M1153 1180l-860 -1221l-250 109l782 1085h-643l37 213h940z" />
<glyph unicode="8" d="M371 719q-95 74 -138 147t-43 164q0 189 187 285q148 80 340 80q172 0 277.5 -77.5t105.5 -203.5q0 -104 -69.5 -191t-235.5 -188q131 -84 185 -157.5t54 -169.5q0 -119 -80 -219.5t-219 -159t-303 -58.5q-189 0 -312.5 90t-123.5 228q0 174 199 321q55 41 176 109z M610 852l6 4l9 2q92 43 152.5 111.5t60.5 128.5q0 49 -43.5 77.5t-118.5 28.5q-98 0 -165 -47.5t-67 -116.5q0 -65 74 -127q15 -13 51 -37t41 -24zM547 588l-6 4q-10 -5 -25 -14q-242 -136 -242 -275q0 -57 54 -92t143 -35q115 0 199 59.5t84 141.5q0 101 -164 188 q-5 5 -43 23z" />
<glyph unicode="9" d="M10 -20l19 196q260 31 471.5 165.5t296.5 322.5q-84 -75 -163 -109.5t-171 -34.5q-151 0 -246.5 105.5t-95.5 269.5q0 212 156.5 357t386.5 145q206 0 322 -125t116 -346q0 -251 -137 -456.5t-385.5 -333.5t-569.5 -156zM625 1180q-102 0 -175 -79t-73 -190 q0 -83 46.5 -129.5t131.5 -46.5q134 0 262 125q8 11 10 21t2 43q0 117 -55 186.5t-149 69.5z" />
<glyph unicode=":" horiz-adv-x="573" d="M375 987q57 0 93 -35t36 -90q0 -71 -56 -124.5t-129 -53.5q-54 0 -89 34t-35 87q0 72 54 127t126 55zM252 289q57 0 93 -35t36 -90q0 -71 -55.5 -124.5t-128.5 -53.5q-54 0 -89.5 34t-35.5 86q0 72 54 127.5t126 55.5z" />
<glyph unicode=";" horiz-adv-x="573" d="M397 987q57 0 91 -32.5t34 -86.5q0 -75 -53.5 -129.5t-126.5 -54.5q-57 0 -93 34t-36 87q0 72 55.5 127t128.5 55zM406 260l-179 -493h-168l88 493h259z" />
<glyph unicode="&#x3c;" d="M1018 141l-856 580v14l856 543v-104l-592 -381l592 -385v-267z" />
<glyph unicode="=" d="M1102 612h-1024v201h1024v-201zM1102 283h-1024v200h1024v-200z" />
<glyph unicode="&#x3e;" d="M1018 684l-856 -543v105l592 383l-592 385v264l856 -580v-14z" />
<glyph unicode="?" horiz-adv-x="1030" d="M530 602l-34 -199h-209l28 322q202 57 310 142.5t108 189.5q0 61 -41 93t-119 32q-142 0 -342 -78l-53 180q262 115 479 115q157 0 254 -79t97 -208q0 -151 -126 -285t-352 -225zM381 289q56 0 91.5 -34.5t35.5 -88.5q0 -71 -55 -125.5t-127 -54.5q-56 0 -91.5 35 t-35.5 90q0 71 54.5 124.5t127.5 53.5z" />
<glyph unicode="@" horiz-adv-x="1787" d="M987 635l72 190q-15 84 -94 84q-43 0 -79.5 -30t-74.5 -97q-61 -109 -61 -192q0 -66 53 -66q32 0 73 25t111 86zM887 352l31 86q-54 -47 -101 -67.5t-104 -20.5q-93 0 -148 56.5t-55 152.5q0 170 121 334q133 182 301 182q63 0 111.5 -27.5t70.5 -74.5l29 78h223 l-195 -537q165 41 258 146t93 249q0 160 -121 252t-330 92q-158 0 -301 -55.5t-247 -149t-165 -223t-61 -272.5q0 -109 39.5 -188.5t122.5 -139.5q144 -102 344 -102q133 0 266.5 45t312.5 149l78 -120q-306 -228 -676 -228q-304 0 -491 156q-189 155 -189 424 q0 139 49.5 269.5t140 235.5t210.5 184t269.5 122t309.5 43q269 0 433 -127q86 -66 126.5 -149t40.5 -195q0 -287 -241 -451q-101 -69 -221.5 -100t-288.5 -31h-4z" />
<glyph unicode="A" horiz-adv-x="1445" d="M1315 0h-281l-86 401h-545l-227 -401h-287l807 1366h289zM907 596l-110 506l-283 -506h393z" />
<glyph unicode="B" horiz-adv-x="1253" d="M272 1366h377q274 0 396 -72t122 -235q0 -178 -147 -262q-66 -37 -178 -70q151 -29 215.5 -97.5t64.5 -197.5q0 -120 -56.5 -211.5t-160.5 -138.5q-99 -45 -219.5 -63.5t-316.5 -18.5h-338zM444 811h123q149 0 232.5 57t83.5 160q0 72 -55.5 105.5t-174.5 33.5h-145z M338 205h125q181 0 276 60.5t95 176.5q0 181 -283 181h-139z" />
<glyph unicode="C" horiz-adv-x="1372" d="M1415 1290l-104 -184q-173 68 -320 68q-128 0 -243 -48t-198 -129.5t-132 -195t-49 -238.5q0 -167 96.5 -264.5t263.5 -97.5q84 0 182 26t248 88l70 -200q-162 -78 -287 -112t-254 -34q-278 0 -447 159.5t-169 420.5q0 345 266 596q266 248 645 248q116 0 245.5 -31 t186.5 -72z" />
<glyph unicode="D" horiz-adv-x="1503" d="M272 1366h402q373 0 566.5 -152t193.5 -444q0 -377 -272.5 -573.5t-794.5 -196.5h-336zM344 217h137q343 0 516 170q69 68 106.5 164.5t37.5 208.5q0 395 -475 395h-156z" />
<glyph unicode="E" horiz-adv-x="1144" d="M1135 1366l-37 -209h-586l-61 -348h553l-37 -203h-553l-68 -385h625l-39 -221h-901l241 1366h863z" />
<glyph unicode="F" horiz-adv-x="1060" d="M1116 1366l-37 -207h-567l-63 -356h536l-35 -205h-536l-107 -598h-276l241 1366h844z" />
<glyph unicode="G" horiz-adv-x="1425" d="M1321 655l-104 -585q-161 -58 -268 -79.5t-236 -21.5q-297 0 -469 157t-172 427q0 341 266 592q266 248 645 248q116 0 245.5 -31t186.5 -72l-104 -184q-173 68 -320 68q-127 0 -242.5 -48t-198.5 -129.5t-132 -194t-49 -237.5q0 -177 102.5 -270.5t294.5 -93.5 q86 0 209 28l76 426h270z" />
<glyph unicode="H" horiz-adv-x="1472" d="M1444 1366l-242 -1366h-276l108 616h-620l-109 -616h-274l241 1366h275l-96 -547h620l96 547h277z" />
<glyph unicode="I" horiz-adv-x="581" d="M551 1366l-242 -1366h-278l241 1366h279z" />
<glyph unicode="J" horiz-adv-x="718" d="M698 1366l-168 -958q-37 -201 -170 -299t-423 -138l-9 207q69 16 113 28t81.5 30t58 36t38 48.5t27.5 64.5t20 88l158 893h274z" />
<glyph unicode="K" horiz-adv-x="1351" d="M1411 1366l-713 -635l494 -731h-330l-434 684l-121 -684h-276l241 1366h277l-105 -592l629 592h338z" />
<glyph unicode="L" horiz-adv-x="1050" d="M938 221l-39 -221h-868l241 1366h277l-203 -1145h592z" />
<glyph unicode="M" horiz-adv-x="1761" d="M1632 1366l-43 -1366h-264l45 954l-496 -954h-229l-172 954l-276 -954h-267l432 1366h289l185 -979l512 979h284z" />
<glyph unicode="N" horiz-adv-x="1452" d="M1423 1366l-241 -1366h-267l-460 926l-166 -926h-258l241 1366h256l471 -940l170 940h254z" />
<glyph unicode="O" horiz-adv-x="1550" d="M913 1397q256 0 410 -156.5t154 -417.5q0 -170 -67.5 -327.5t-180.5 -272.5t-268 -183.5t-322 -68.5q-258 0 -412.5 161.5t-154.5 428.5q0 174 65.5 329t177.5 266t267.5 176t330.5 65zM850 1163q-117 0 -215.5 -60.5t-167.5 -174.5q-98 -164 -98 -348q0 -172 86 -270.5 t237 -98.5q132 0 244 78.5t177 213t65 292.5q0 172 -87 270t-241 98z" />
<glyph unicode="P" horiz-adv-x="1159" d="M272 1366h373q139 0 211.5 -9t132.5 -34q94 -40 138 -110t44 -179q0 -220 -154.5 -339.5t-438.5 -119.5h-168l-103 -575h-276zM442 770h136q154 0 234.5 59t80.5 172q0 83 -55.5 122.5t-173.5 39.5h-152z" />
<glyph unicode="Q" horiz-adv-x="1544" d="M1276 -53l-12 -209q-86 -12 -195 -12q-202 0 -380.5 57t-313.5 164q-140 110 -212.5 262.5t-72.5 335.5q0 236 107.5 431.5t295 308t414.5 112.5q261 0 415.5 -155.5t154.5 -418.5q0 -212 -107.5 -410t-279.5 -304q-77 -46 -164.5 -70.5t-216.5 -34.5q203 -65 405 -65 q74 0 162 8zM852 1163q-119 0 -217.5 -60t-167.5 -175q-98 -162 -98 -348q0 -172 86 -270.5t237 -98.5q132 0 244 78.5t177 213t65 292.5q0 172 -87 270t-239 98z" />
<glyph unicode="R" horiz-adv-x="1259" d="M272 1366h373q140 0 212 -9t134 -34q180 -76 180 -274q0 -145 -103 -258t-269 -148q60 -10 86 -37.5t57 -111.5l178 -494h-286l-162 479q-17 48 -54 74.5t-88 26.5h-120l-103 -580h-276zM442 770h136q154 0 234.5 59t80.5 172q0 83 -55.5 122.5t-173.5 39.5h-152z" />
<glyph unicode="S" horiz-adv-x="1128" d="M1102 1352l-70 -201q-142 25 -239 25q-152 0 -247 -46t-95 -120q0 -87 129 -150q20 -8 77 -33q207 -83 281 -157t74 -197q0 -139 -91 -254t-251 -180.5t-355 -65.5q-158 0 -350 47l72 216q166 -31 301 -31q166 0 268.5 56.5t102.5 148.5q0 81 -86 131q-33 18 -123 55 q-191 75 -265.5 152t-74.5 198q0 127 82 230t227.5 161t325.5 58q136 0 307 -43z" />
<glyph unicode="T" horiz-adv-x="1165" d="M1231 1157h-422l-205 -1157h-276l204 1157h-430l37 209h1129z" />
<glyph unicode="U" horiz-adv-x="1462" d="M1440 1366l-137 -778q-28 -162 -77.5 -265.5t-133.5 -175.5q-95 -84 -229 -129t-288 -45q-238 0 -352 96.5t-114 297.5q0 87 20 217l139 782h275l-135 -782q-19 -104 -19 -166q0 -110 60.5 -162.5t187.5 -52.5q179 0 279 94.5t135 296.5l137 772h252z" />
<glyph unicode="V" horiz-adv-x="1372" d="M1485 1366l-778 -1366h-291l-285 1366h283l198 -1085l590 1085h283z" />
<glyph unicode="W" horiz-adv-x="2004" d="M2116 1366l-639 -1366h-287l-137 967l-486 -967h-276l-160 1366h266l105 -1010l502 1010h243l150 -1010l450 1010h269z" />
<glyph unicode="X" horiz-adv-x="1306" d="M1364 1366l-545 -643l357 -723h-312l-217 530l-432 -530h-326l609 717l-322 649h332l190 -455l363 455h303z" />
<glyph unicode="Y" horiz-adv-x="1269" d="M1382 1366l-622 -768l-107 -598h-274l106 598l-354 768h305l209 -547l412 547h325z" />
<glyph unicode="Z" horiz-adv-x="1167" d="M1200 1366l-33 -184l-848 -959h703l-39 -223h-1040l37 205l847 954h-669l37 207h1005z" />
<glyph unicode="[" horiz-adv-x="784" d="M815 1366l-35 -192h-254l-221 -1264h254l-35 -195h-518l291 1651h518z" />
<glyph unicode="\" d="M862 -74l-141 -57l-406 1575l140 57z" />
<glyph unicode="]" horiz-adv-x="772" d="M-31 -285l35 193h254l221 1263h-254l35 195h518l-291 -1651h-518z" />
<glyph unicode="^" d="M1157 578h-104l-381 591l-385 -591h-267l580 856h14z" />
<glyph unicode="_" d="M1071 -307h-962v123h962v-123z" />
<glyph unicode="`" horiz-adv-x="479" d="M469 1206l-92 -119l-375 191l121 160z" />
<glyph unicode="a" horiz-adv-x="1021" d="M891 172l-8 -154q-114 -43 -195 -43q-153 0 -153 125v19v4q-187 -143 -347 -143q-86 0 -143 61.5t-57 155.5q0 117 80.5 203t248.5 149q111 40 287 76q8 63 8 77q0 93 -90 93q-116 0 -336 -117l-59 153q116 75 256.5 122.5t249.5 47.5q229 0 229 -231q0 -55 -14 -135 l-66 -367q-4 -24 -4 -37q0 -65 64 -65q12 0 49 6zM545 287l33 184q-3 0 -7 -2q-168 -40 -244.5 -89t-76.5 -118q0 -37 20 -60.5t52 -23.5q85 0 223 109z" />
<glyph unicode="b" horiz-adv-x="1193" d="M279 129l-23 -129h-246l258 1464h252l-110 -624q85 86 166 125t178 39q150 0 238.5 -112t88.5 -300q0 -169 -69.5 -311t-189.5 -224t-263 -82q-97 0 -160 34.5t-120 119.5zM373 623l-54 -293q46 -77 96 -110.5t117 -33.5q117 0 198 109.5t81 267.5q0 215 -168 215 q-78 0 -141.5 -36.5t-128.5 -118.5z" />
<glyph unicode="c" horiz-adv-x="983" d="M924 924l-93 -172q-119 51 -217 51q-141 0 -232 -104t-91 -267q0 -117 48 -178t140 -61q108 0 289 94l72 -150q-129 -85 -232.5 -122.5t-208.5 -37.5q-170 0 -276.5 120t-106.5 309q0 258 171.5 426.5t433.5 168.5q86 0 156 -18t147 -59z" />
<glyph unicode="d" horiz-adv-x="1193" d="M1188 1464l-258 -1464h-244l27 147q-78 -82 -174 -128t-187 -46q-146 0 -231.5 113t-85.5 307q0 265 144.5 436.5t367.5 171.5q95 0 160.5 -34.5t119.5 -112.5l107 610h254zM739 354l54 293q-47 77 -97 110.5t-116 33.5q-120 0 -201.5 -110.5t-81.5 -270.5 q0 -107 42 -159t128 -52q154 0 272 155z" />
<glyph unicode="e" horiz-adv-x="1069" d="M829 295l74 -143q-141 -95 -254.5 -137t-230.5 -42q-180 0 -286.5 114t-106.5 306q0 169 78 309t214.5 221t300.5 81q166 0 256.5 -93.5t90.5 -265.5q0 -49 -21 -190h-645q-10 -46 -10 -88q0 -91 51 -140t145 -49q78 0 149 24t195 93zM334 610l385 8q6 56 6 70 q0 150 -139 150q-87 0 -153.5 -60t-98.5 -168z" />
<glyph unicode="f" horiz-adv-x="729" d="M934 1458l-74 -178q-76 12 -117 12q-107 0 -160 -56t-81 -196l-13 -67h256l-30 -170h-256l-142 -803h-254l142 803h-176l30 170h177l14 84q37 222 154 326t331 104q100 0 199 -29z" />
<glyph unicode="g" horiz-adv-x="1097" d="M1090 973l-31 -174h-174q33 -57 33 -127q0 -112 -60.5 -205t-166.5 -147t-234 -54q-57 0 -121 15l-74 -88q100 -32 344 -66q109 -16 148.5 -24.5t79.5 -26.5q68 -31 97.5 -71t29.5 -103q0 -187 -213 -303q-169 -91 -426 -91q-143 0 -263.5 32t-167.5 83q-51 54 -51 141 q0 104 66.5 171t204.5 102q-14 4 -30.5 9t-24 7t-11.5 2q-23 6 -39 22.5t-16 31.5q0 32 100 129q25 27 98 100q-57 52 -81.5 107.5t-24.5 127.5q0 180 147 304t359 124q87 0 172 -28h330zM537 838q-91 0 -149 -70.5t-58 -179.5q0 -158 139 -158q91 0 151 72t60 180 q0 156 -143 156zM287 -25q-103 -32 -149 -73t-46 -99q0 -60 67 -91t193 -31q147 0 241.5 46.5t94.5 118.5q0 37 -51.5 59.5t-177.5 37.5q-89 13 -172 32z" />
<glyph unicode="h" horiz-adv-x="1177" d="M920 0h-256l108 610q6 40 6 56q0 104 -96 104q-66 0 -138 -37.5t-167 -120.5l-107 -612h-254l258 1464h254l-110 -633q101 92 184 131t180 39q127 0 194.5 -65.5t67.5 -190.5q0 -40 -10 -96z" />
<glyph unicode="i" horiz-adv-x="528" d="M391 1415q53 0 87 -34.5t34 -86.5q0 -67 -51.5 -117.5t-120.5 -50.5q-53 0 -87 33t-34 84q0 67 52.5 119.5t119.5 52.5zM440 973l-172 -973h-252l172 973h252z" />
<glyph unicode="j" horiz-adv-x="540" d="M446 1415q52 0 86.5 -34t34.5 -85q0 -67 -52 -118.5t-120 -51.5q-54 0 -87.5 33t-33.5 86q0 66 52.5 118t119.5 52zM494 973l-177 -998q-41 -214 -161.5 -324t-350.5 -145l-20 183q149 44 203 107t88 231l166 946h252z" />
<glyph unicode="k" horiz-adv-x="1093" d="M1100 973l-496 -438l344 -535h-295l-297 492l-86 -492h-254l258 1464h254l-155 -889l399 398h328z" />
<glyph unicode="l" horiz-adv-x="538" d="M272 0h-256l258 1464h256z" />
<glyph unicode="m" horiz-adv-x="1701" d="M1438 0h-246l94 541q21 121 21 139q0 90 -76 90q-56 0 -131.5 -42.5t-141.5 -111.5l-108 -616h-246l107 602q8 39 8 82q0 41 -19.5 63.5t-56.5 22.5q-53 0 -129.5 -43.5t-142.5 -110.5l-109 -616h-246l172 973h240l-25 -139q112 91 199.5 130.5t173.5 39.5 q83 0 126.5 -42.5t55.5 -136.5q121 97 210 138t182 41q106 0 162.5 -51.5t56.5 -149.5q0 -44 -23 -185z" />
<glyph unicode="n" horiz-adv-x="1153" d="M899 0h-252l94 537q19 109 19 133q0 102 -92 102q-64 0 -132 -36t-159 -118l-109 -618h-252l172 973h244l-26 -148q106 97 190 138t176 41q120 0 183 -69.5t63 -201.5q0 -47 -10 -112z" />
<glyph unicode="o" horiz-adv-x="1142" d="M645 1006q186 0 295 -116.5t109 -314.5q0 -127 -44.5 -238.5t-122 -191t-186.5 -125t-233 -45.5q-193 0 -306.5 115.5t-113.5 312.5q0 169 78.5 307t216.5 217t307 79zM594 803q-116 0 -196.5 -111.5t-80.5 -271.5q0 -112 47.5 -174t133.5 -62q153 0 231 172 q47 106 47 222q0 109 -47 167t-135 58z" />
<glyph unicode="p" horiz-adv-x="1193" d="M287 125l-107 -598h-252l256 1446h238l-27 -148q98 95 184 137t181 42q149 0 237 -112t88 -300q0 -169 -69.5 -311t-189.5 -224t-263 -82q-95 0 -157.5 34t-118.5 116zM377 623l-53 -293q46 -77 96 -110.5t117 -33.5q117 0 197.5 109.5t80.5 267.5q0 215 -168 215 q-79 0 -142.5 -36t-127.5 -119z" />
<glyph unicode="q" horiz-adv-x="1200" d="M1110 973l-256 -1446h-254l115 618q-75 -80 -168.5 -125t-184.5 -45q-149 0 -235 112.5t-86 305.5q0 267 143 439t367 172q94 0 172 -42t121 -116l22 127h244zM745 356l54 293q-46 77 -96 110.5t-117 33.5q-118 0 -200.5 -110.5t-82.5 -268.5q0 -213 172 -213 q79 0 142.5 36t127.5 119z" />
<glyph unicode="r" horiz-adv-x="788" d="M821 973l-88 -219q-24 8 -51 8q-104 0 -219 -129q-39 -41 -107 -144l-86 -489h-254l172 973h246l-35 -197q85 114 163.5 164.5t172.5 50.5q43 0 86 -18z" />
<glyph unicode="s" horiz-adv-x="901" d="M823 973l-61 -174q-124 22 -201 22q-88 0 -142 -25.5t-54 -66.5q0 -37 37 -66t133 -69q121 -49 174 -113.5t53 -161.5q0 -157 -147.5 -249.5t-395.5 -92.5q-138 0 -270 35l65 183q129 -21 215 -21q118 0 185 30.5t67 84.5q0 40 -28 65.5t-107 59.5q-136 59 -195 122.5 t-59 153.5q0 140 132.5 225.5t350.5 85.5q111 0 248 -28z" />
<glyph unicode="t" horiz-adv-x="745" d="M745 973l-28 -168h-260l-80 -453q-10 -62 -10 -88q0 -88 120 -88q35 0 119 12l-31 -178q-123 -33 -223 -33q-248 0 -248 226q0 34 9 84l92 518h-176l28 168h176l54 299h252l-54 -299h260z" />
<glyph unicode="u" horiz-adv-x="1150" d="M1065 973l-170 -973h-244l25 147q-121 -95 -217 -136.5t-193 -41.5q-103 0 -156 56t-53 163q0 48 17 164l108 621h252l-94 -537q-18 -93 -18 -133q0 -102 90 -102q62 0 131 36t162 117l108 619h252z" />
<glyph unicode="v" horiz-adv-x="1069" d="M1096 973l-559 -973h-275l-209 973h266l132 -699l383 699h262z" />
<glyph unicode="w" horiz-adv-x="1572" d="M1602 973l-480 -973h-262l-82 692l-319 -692h-266l-136 973h246l78 -692l317 692h258l80 -692l322 692h244z" />
<glyph unicode="x" horiz-adv-x="1060" d="M1059 973l-418 -459l293 -514h-287l-180 338l-264 -338h-301l467 514l-260 459h280l158 -293l221 293h291z" />
<glyph unicode="y" horiz-adv-x="1069" d="M1106 973l-649 -1129q-101 -179 -181 -247q-109 -95 -272 -95q-71 0 -176 27l68 184q68 -10 102 -10q71 0 115 34t110 140l58 92l-215 1004h266l133 -725l381 725h260z" />
<glyph unicode="z" horiz-adv-x="970" d="M938 973l-31 -172l-585 -588h491l-37 -213h-821l33 188l579 582h-461l37 203h795z" />
<glyph unicode="{" horiz-adv-x="739" d="M477 -285h-225q-85 0 -135.5 52.5t-50.5 138.5q0 18 6 59l53 301q8 41 8 90q0 75 -27 112.5t-86 43.5l33 182q77 8 123.5 69t69.5 185l28 170q19 109 95.5 178.5t177.5 69.5h223l-35 -192h-112q-82 0 -109 -168l-27 -154q-20 -99 -63.5 -159t-116.5 -89q53 -28 77 -69.5 t24 -106.5q0 -30 -9 -80l-47 -270q-10 -68 -10 -92q0 -78 57 -78h113z" />
<glyph unicode="|" horiz-adv-x="563" d="M360 -342h-159v1708h159v-1708z" />
<glyph unicode="}" horiz-adv-x="745" d="M739 694l-30 -182q-78 -7 -124 -65.5t-69 -180.5l-51 -301q-19 -110 -94.5 -180t-175.5 -70h-226l35 193h113q76 0 106 170l47 270q20 103 65 165t120 91q-54 30 -78.5 70t-24.5 102q0 29 8 76l27 154q10 68 10 92q0 76 -57 76h-113l33 192h223q87 0 139 -52t52 -140 q0 -16 -6 -56l-31 -170q-10 -51 -10 -96q0 -75 27 -113.5t85 -44.5z" />
<glyph unicode="~" d="M967 1503l39 -24q-126 -213 -277 -213q-62 0 -182 47q-98 37 -158 37q-32 0 -61 -8.5t-41 -20.5l-76 -76l-37 23q73 120 135.5 167.5t145.5 47.5q29 0 56.5 -7t113.5 -36q113 -39 161 -39q92 0 181 102z" />
<glyph unicode="&#xa1;" horiz-adv-x="573" d="M371 1049q56 0 90.5 -32.5t34.5 -86.5q0 -75 -54.5 -130t-126.5 -55q-57 0 -93 34t-36 87q0 72 56 127.5t129 55.5zM401 631l-141 -963h-278l202 963h217z" />
<glyph unicode="&#xa2;" d="M1028 924l-94 -172q-121 51 -217 51q-140 0 -231 -105t-91 -266q0 -117 48.5 -178t142.5 -61q57 0 121 21.5t163 72.5l72 -150q-222 -151 -422 -160l-51 -178h-119l53 191q-136 40 -210 147t-74 264q0 132 50 250t142 201q73 67 158.5 100t216.5 47l49 179h119l-49 -181 q112 -15 223 -73z" />
<glyph unicode="&#xa3;" d="M1249 1343l-100 -194q-118 35 -205 35q-126 0 -204.5 -81t-145.5 -282h475l-35 -200h-506l-39 -129q-70 -217 -167 -275h718l-36 -217h-1045l-16 193q106 9 161 63t101 193l55 172h-215l35 200h244q83 244 172 363q159 215 460 215q134 0 293 -56z" />
<glyph unicode="&#xa4;" d="M948 279l96 -146q-206 -162 -458 -162q-221 0 -338 122.5t-123 359.5h-195l31 174h178v2v2v6q0 47 21 104v4l4 9l2 12h-180l32 180h207q98 218 252 330.5t352 112.5q117 0 212.5 -36.5t191.5 -119.5l-148 -152q-74 56 -136.5 80.5t-129.5 24.5q-99 0 -173.5 -56.5 t-143.5 -183.5h479l-33 -180h-512l-2 -12q-4 -16 -12 -45q-3 -19 -6 -52q-2 -12 -2 -18l-4 -12h514l-31 -174h-496q12 -281 234 -281q70 0 143.5 25t173.5 82z" />
<glyph unicode="&#xa5;" d="M1286 1366l-420 -530h246l-31 -172h-356l-37 -84l-4 -25h379l-31 -172h-379l-67 -383h-264l67 383h-377l31 172h377l4 25l-10 84h-353l31 172h246l-236 530h301l197 -526l385 526h301z" />
<glyph unicode="&#xa6;" horiz-adv-x="563" d="M360 1366v-750h-159v750h159zM360 -342h-159v758h159v-758z" />
<glyph unicode="&#xa7;" d="M1126 1350l-71 -176q-146 28 -275 28q-254 0 -254 -131q0 -43 27 -72.5t94 -58.5q57 -28 96 -43q167 -73 230 -136.5t63 -156.5q0 -180 -217 -307q84 -78 84 -170q0 -42 -18 -94t-47 -88q-68 -92 -195.5 -140.5t-304.5 -48.5q-189 0 -334 45l78 181q141 -33 272 -33 q126 0 194 35t68 100q0 45 -47.5 82.5t-187.5 101.5q-163 75 -223 135t-60 146q0 202 224 321q-78 64 -78 158q0 163 152.5 265t396.5 102q157 0 333 -45zM631 694l-150 74q-125 -54 -125 -145q0 -72 107 -129l199 -103q126 60 126 152q0 35 -41 74.5t-116 76.5z" />
<glyph unicode="&#xa8;" horiz-adv-x="677" d="M578 1380q43 0 72.5 -30.5t29.5 -73.5q0 -58 -43 -100.5t-102 -42.5q-49 0 -78 28t-29 74q0 58 45 101.5t105 43.5zM147 1380q46 0 74.5 -28t28.5 -74q0 -58 -45 -101.5t-105 -43.5q-46 0 -74 27t-28 73q0 61 43.5 104t105.5 43z" />
<glyph unicode="&#xa9;" horiz-adv-x="1652" d="M827 1407q298 0 512 -211q211 -211 211 -516q0 -238 -137 -422q-109 -146 -259 -222.5t-327 -76.5q-299 0 -512 213t-213 512q0 305 213 512q220 211 512 211zM827 1317q-174 0 -320 -84.5t-230 -230t-84 -318.5q0 -130 50 -247.5t134.5 -202.5t202 -135t247.5 -50 q174 0 319.5 84t229.5 230t84 321q0 130 -50 247t-134.5 201.5t-201.5 134.5t-247 50zM1090 483l65 -127q-79 -49 -152 -69.5t-167 -20.5q-203 0 -332 115.5t-129 296.5q0 188 139 309t356 121q131 0 250 -45l17 -6l-47 -129l-17 6q-35 12 -89.5 21.5t-94.5 9.5 q-139 0 -221 -75.5t-82 -201.5q0 -122 73 -197t191 -75q105 0 223 59l8 4l6 2z" />
<glyph unicode="&#xaa;" horiz-adv-x="614" d="M586 885l-6 -101l-5 -2l-26 -10q-46 -16 -82 -16q-49 0 -73 20.5t-29 65.5q-111 -84 -195 -84q-53 0 -87 34.5t-34 88.5q0 37 17.5 76.5t44.5 64.5q52 49 114.5 77t182.5 56l2 14q2 8 2 21q3 57 -50 57q-71 0 -165 -57l-21 -12l-4 -2l-41 100q156 106 301 106 q137 0 137 -137q0 -49 -8 -88l-39 -219q-2 -8 -2 -23q0 -34 27 -34l35 4h4zM547 670l-19 -109h-522l19 109h522zM389 1053l-2 -2q-97 -28 -138.5 -58t-41.5 -71q0 -35 37 -35q48 0 127 63z" />
<glyph unicode="&#xab;" horiz-adv-x="931" d="M883 801l-221 -295l124 -305l-161 -82l-203 387l338 375zM524 799l-227 -293l121 -307l-156 -82l-201 389l336 377z" />
<glyph unicode="&#xac;" d="M1034 0h-160v432h-731v115h891v-547z" />
<glyph unicode="&#xad;" horiz-adv-x="643" d="M588 649l-37 -200h-531l37 200h531z" />
<glyph unicode="&#xae;" horiz-adv-x="1652" d="M827 1407q298 0 512 -211q211 -211 211 -516q0 -238 -137 -422q-109 -146 -259 -222.5t-327 -76.5q-299 0 -512 213t-213 512q0 305 213 512q220 211 512 211zM827 1317q-174 0 -320 -84.5t-230 -230t-84 -318.5q0 -130 50 -247.5t134.5 -202.5t202 -135t247.5 -50 q174 0 319.5 84t229.5 230t84 321q0 130 -50 247t-134.5 201.5t-201.5 134.5t-247 50zM1217 285h-234l-156 299q-24 43 -73 43h-29v-342h-205v805h279q150 0 219 -31q54 -23 85.5 -71t31.5 -105q0 -66 -51 -127.5t-115 -73.5l-11 -2l7 -2q44 -13 65 -57zM725 963v-213h59 q142 0 142 114q0 99 -135 99h-66z" />
<glyph unicode="&#xaf;" horiz-adv-x="737" d="M633 1155h-559l28 172h560z" />
<glyph unicode="&#xb0;" d="M590 1389q119 0 200.5 -81.5t81.5 -199.5q0 -117 -82 -198t-200 -81q-119 0 -201 81.5t-82 199.5q0 116 82.5 197.5t200.5 81.5zM588 1272q-66 0 -112 -47t-46 -115q0 -69 46.5 -116.5t113.5 -47.5q66 0 114 48.5t48 115.5t-48 114.5t-116 47.5z" />
<glyph unicode="&#xb1;" d="M1053 629h-410v-410h-108v410h-410v108h410v410h108v-410h410v-108zM1053 0h-928v109h928v-109z" />
<glyph unicode="&#xb2;" horiz-adv-x="757" d="M369 870h260l-27 -145h-479l-12 113q49 35 82 57q139 95 216.5 174.5t77.5 126.5q0 55 -75 55q-62 0 -179 -43l-28 129q136 62 260 62q97 0 153 -43t56 -117q0 -188 -305 -369z" />
<glyph unicode="&#xb3;" horiz-adv-x="712" d="M244 1231l-29 112q163 56 258 56q166 0 166 -127q0 -66 -46.5 -114t-117.5 -56q66 -2 102.5 -35.5t36.5 -93.5q0 -143 -194 -209q-125 -43 -275 -43h-34l20 119q162 8 236.5 37t74.5 86q0 65 -147 65h-62l21 113q221 3 221 92q0 35 -59 35q-52 0 -172 -37z" />
<glyph unicode="&#xb4;" horiz-adv-x="477" d="M479 1278l-440 -186l-49 114l428 232z" />
<glyph unicode="&#xb5;" horiz-adv-x="1150" d="M651 0l25 147q-116 -95 -210 -136.5t-190 -41.5h-8h-8q-12 0 -16 2l-41 -207h-234l213 1209h252l-94 -537l-6 -37q-12 -76 -12 -96q0 -102 90 -102q62 0 132 36t161 117l108 619h252l-170 -973h-244z" />
<glyph unicode="&#xb6;" horiz-adv-x="1163" d="M1169 1366l-280 -1602h-160l256 1457h-96l-258 -1457h-160l145 838q-126 12 -198 39q-90 35 -140.5 112.5t-50.5 180.5q0 121 66.5 225.5t175.5 157.5q58 28 137 38.5t225 10.5h338z" />
<glyph unicode="&#xb7;" horiz-adv-x="677" d="M315 834q56 0 90.5 -34t34.5 -89q0 -73 -54 -127t-126 -54q-57 0 -93 35t-36 90q0 69 56 124t128 55z" />
<glyph unicode="&#xb8;" horiz-adv-x="737" d="M348 -309l-135 37l121 262h190z" />
<glyph unicode="&#xb9;" horiz-adv-x="679" d="M549 1354l-111 -633h-170l86 489l-149 -69l-45 116l274 140z" />
<glyph unicode="&#xba;" horiz-adv-x="614" d="M434 1384q106 0 172 -67t66 -174q0 -75 -31 -152q-43 -107 -132 -171t-198 -64q-103 0 -168 68t-65 175q0 155 106.5 270t249.5 115zM578 670l-19 -109h-549l19 109h549zM401 1251q-67 0 -112 -66.5t-45 -166.5q0 -62 26.5 -94.5t77.5 -32.5q97 0 137 127q19 59 19 106 q0 127 -103 127z" />
<glyph unicode="&#xbb;" horiz-adv-x="931" d="M872 502l-337 -385l-129 84l229 301l-123 299l158 82zM510 502l-340 -385l-131 84l233 301l-118 299l151 78z" />
<glyph unicode="&#xbc;" horiz-adv-x="1341" d="M520 1354l-110 -633h-170l86 489l-150 -69l-45 116l275 140zM1255 1321l-1138 -1356l-117 82l1139 1360zM1087 260l-22 -129h-88l-23 -131h-155l22 131h-293l-12 107l424 440l127 -37l-68 -381h88zM877 442l-170 -182h137z" />
<glyph unicode="&#xbd;" horiz-adv-x="1462" d="M520 1354l-110 -633h-170l86 489l-150 -69l-45 116l275 140zM1255 1321l-1138 -1356l-117 82l1139 1360zM795 483l-29 129q136 62 262 62q95 0 151 -43t56 -117q0 -67 -35.5 -128.5t-112.5 -129.5q-51 -46 -159 -111h260l-25 -145h-479l-12 113q180 121 278.5 214.5 t98.5 145.5q0 25 -19 39t-53 14q-65 0 -182 -43z" />
<glyph unicode="&#xbe;" horiz-adv-x="1400" d="M1333 1321l-1138 -1356l-117 82l1139 1360zM229 1231l-26 112q159 56 250 56q78 0 125 -34.5t47 -94.5q0 -63 -46 -110.5t-118 -57.5q66 -2 103.5 -35.5t37.5 -93.5q0 -112 -131 -182t-340 -70h-35l21 119q313 15 313 123q0 65 -149 65h-62l21 113q99 0 160 24.5t61 63.5 t-60 39q-42 0 -161 -33zM1143 131h-88l-23 -131h-155l22 131h-293l-12 107l424 440l127 -37l-68 -381h88zM922 260l32 182l-170 -182h138z" />
<glyph unicode="&#xbf;" horiz-adv-x="1030" d="M705 1079q55 0 92 -35t37 -88q0 -72 -55.5 -126t-127.5 -54q-57 0 -93 34.5t-36 88.5q0 72 55.5 126t127.5 54zM799 -39l53 -180q-261 -115 -483 -115q-155 0 -250.5 79t-95.5 208q0 152 121 282t356 228l35 199h208l-28 -322q-201 -56 -309.5 -142t-108.5 -192 q0 -60 41 -91.5t119 -31.5q139 0 342 78z" />
<glyph unicode="&#xc0;" horiz-adv-x="1445" d="M1315 0h-281l-86 401h-545l-227 -401h-287l807 1366h289zM907 596l-110 506l-283 -506h393zM1143 1616l-82 -135l-432 159l116 187z" />
<glyph unicode="&#xc1;" horiz-adv-x="1445" d="M1315 0h-281l-86 401h-545l-227 -401h-287l807 1366h289zM907 596l-110 506l-283 -506h393zM1149 1642l-2 -2l-490 -161l-34 133l475 213z" />
<glyph unicode="&#xc2;" horiz-adv-x="1445" d="M1315 0h-281l-86 401h-545l-227 -401h-287l807 1366h289zM907 596l-110 506l-283 -506h393zM1260 1614l-97 -131l-274 135l-332 -135l-51 131l420 213z" />
<glyph unicode="&#xc3;" horiz-adv-x="1445" d="M1315 0h-281l-86 401h-545l-227 -401h-287l807 1366h289zM907 596l-110 506l-283 -506h393zM1204 1786l76 -115q-96 -77 -160 -110t-119 -33t-131 33q-79 36 -120 36q-28 0 -79 -23.5t-85 -51.5l-78 112q89 74 151 107t115 33q51 0 146 -41q79 -31 110 -31q53 0 174 84z " />
<glyph unicode="&#xc4;" horiz-adv-x="1445" d="M1315 0h-281l-86 401h-545l-227 -401h-287l807 1366h289zM907 596l-110 506l-283 -506h393zM1178 1782q45 0 75.5 -31.5t30.5 -77.5q0 -62 -46.5 -107.5t-109.5 -45.5q-49 0 -79.5 29.5t-30.5 76.5q0 61 48.5 108.5t111.5 47.5zM659 1782q46 0 77.5 -32t31.5 -79 q0 -58 -48 -104.5t-108 -46.5q-50 0 -80 30t-30 80q0 61 47 106.5t110 45.5z" />
<glyph unicode="&#xc5;" horiz-adv-x="1445" d="M1315 0h-281l-86 401h-545l-227 -401h-287l807 1366h289zM907 596l-110 506l-283 -506h393zM924 1853q74 0 122 -46.5t48 -118.5q0 -92 -73 -164t-167 -72q-73 0 -121.5 46.5t-48.5 117.5q0 95 72 166t168 71zM905 1751q-46 0 -81.5 -34.5t-35.5 -80.5q0 -35 23.5 -59.5 t58.5 -24.5q44 0 81.5 37t37.5 80q0 37 -23 59.5t-61 22.5z" />
<glyph unicode="&#xc6;" horiz-adv-x="1961" d="M1950 1366l-37 -209h-535l-61 -348h504l-37 -203h-504l-68 -385h576l-39 -221h-854l72 399h-459l-309 -399h-310l1086 1366h975zM1102 1176l-445 -578h344z" />
<glyph unicode="&#xc7;" horiz-adv-x="1372" d="M371 -344l153 332q-218 51 -335 196t-117 365q0 345 266 596q266 248 645 248q116 0 245.5 -31t186.5 -72l-104 -184q-173 68 -320 68q-127 0 -242.5 -48t-198.5 -129.5t-132 -194t-49 -237.5q0 -169 96.5 -266.5t263.5 -97.5q84 0 182 26t248 88l70 -200 q-153 -79 -249.5 -107t-244.5 -37l-221 -360z" />
<glyph unicode="&#xc8;" horiz-adv-x="1144" d="M1135 1366l-37 -209h-586l-61 -348h553l-37 -203h-553l-68 -385h625l-39 -221h-901l241 1366h863zM1024 1616l-82 -135l-432 159l117 187z" />
<glyph unicode="&#xc9;" horiz-adv-x="1144" d="M1135 1366l-37 -209h-586l-61 -348h553l-37 -203h-553l-68 -385h625l-39 -221h-901l241 1366h863zM1030 1642l-2 -2l-489 -161l-35 133l475 213z" />
<glyph unicode="&#xca;" horiz-adv-x="1144" d="M1135 1366l-37 -209h-586l-61 -348h553l-37 -203h-553l-68 -385h625l-39 -221h-901l241 1366h863zM1139 1614l-97 -131l-274 135l-332 -135l-51 131l420 213z" />
<glyph unicode="&#xcb;" horiz-adv-x="1144" d="M1135 1366l-37 -209h-586l-61 -348h553l-37 -203h-553l-68 -385h625l-39 -221h-901l241 1366h863zM1057 1782q45 0 75.5 -31.5t30.5 -77.5q0 -61 -46.5 -107t-108.5 -46q-51 0 -82 29.5t-31 76.5q0 62 49 109t113 47zM539 1782q46 0 77 -32t31 -79q0 -58 -47.5 -104.5 t-107.5 -46.5q-50 0 -80.5 30.5t-30.5 79.5q0 60 47.5 106t110.5 46z" />
<glyph unicode="&#xcc;" horiz-adv-x="581" d="M551 1366l-242 -1366h-278l241 1366h279zM715 1616l-82 -135l-432 159l116 187z" />
<glyph unicode="&#xcd;" horiz-adv-x="581" d="M551 1366l-242 -1366h-278l241 1366h279zM721 1642l-2 -2l-490 -161l-34 133l475 213z" />
<glyph unicode="&#xce;" horiz-adv-x="581" d="M551 1366l-242 -1366h-278l241 1366h279zM831 1614l-96 -131l-274 135l-332 -135l-51 131l420 213z" />
<glyph unicode="&#xcf;" horiz-adv-x="581" d="M551 1366l-242 -1366h-278l241 1366h279zM743 1782q46 0 77.5 -32t31.5 -79q0 -60 -47 -105.5t-109 -45.5q-49 0 -79.5 29.5t-30.5 76.5q0 62 47 109t110 47zM227 1782q46 0 77.5 -32t31.5 -79q0 -58 -48 -104.5t-108 -46.5q-50 0 -80 30t-30 80q0 60 47 106t110 46z" />
<glyph unicode="&#xd0;" horiz-adv-x="1511" d="M39 0l108 610h-208l34 197h209l99 559h401q372 0 566 -152t194 -442q0 -222 -94 -385q-93 -161 -244 -237q-308 -150 -729 -150h-336zM518 1155l-61 -348h319l-35 -197h-319l-70 -393h137q318 0 489 144t171 411q0 383 -475 383h-156z" />
<glyph unicode="&#xd1;" horiz-adv-x="1452" d="M1423 1366l-241 -1366h-267l-460 926l-166 -926h-258l241 1366h256l471 -940l170 940h254zM1198 1786l76 -115q-95 -76 -160 -109.5t-119 -33.5q-55 0 -131 33q-79 36 -123 36q-28 0 -78.5 -23.5t-82.5 -51.5l-78 112q89 75 150 107.5t116 32.5q50 0 145 -41 q79 -31 109 -31q55 0 176 84z" />
<glyph unicode="&#xd2;" horiz-adv-x="1550" d="M913 1397q256 0 410 -156.5t154 -417.5q0 -170 -67.5 -327.5t-180.5 -272.5t-268 -183.5t-322 -68.5q-258 0 -412.5 161.5t-154.5 428.5q0 174 65.5 329t177.5 266t267.5 176t330.5 65zM850 1163q-117 0 -215.5 -60.5t-167.5 -174.5q-98 -164 -98 -348q0 -172 86 -270.5 t237 -98.5q132 0 244 78.5t177 213t65 292.5q0 172 -87 270t-241 98zM1161 1616l-82 -135l-432 159l115 187z" />
<glyph unicode="&#xd3;" horiz-adv-x="1550" d="M913 1397q256 0 410 -156.5t154 -417.5q0 -170 -67.5 -327.5t-180.5 -272.5t-268 -183.5t-322 -68.5q-258 0 -412.5 161.5t-154.5 428.5q0 174 65.5 329t177.5 266t267.5 176t330.5 65zM850 1163q-117 0 -215.5 -60.5t-167.5 -174.5q-98 -164 -98 -348q0 -172 86 -270.5 t237 -98.5q132 0 244 78.5t177 213t65 292.5q0 172 -87 270t-241 98zM1167 1642l-2 -2l-491 -161l-33 133l475 213z" />
<glyph unicode="&#xd4;" horiz-adv-x="1550" d="M913 1397q256 0 410 -156.5t154 -417.5q0 -170 -67.5 -327.5t-180.5 -272.5t-268 -183.5t-322 -68.5q-258 0 -412.5 161.5t-154.5 428.5q0 174 65.5 329t177.5 266t267.5 176t330.5 65zM850 1163q-117 0 -215.5 -60.5t-167.5 -174.5q-98 -164 -98 -348q0 -172 86 -270.5 t237 -98.5q132 0 244 78.5t177 213t65 292.5q0 172 -87 270t-241 98zM1278 1614l-96 -131l-275 135l-332 -135l-51 131l420 213z" />
<glyph unicode="&#xd5;" horiz-adv-x="1550" d="M913 1397q256 0 410 -156.5t154 -417.5q0 -170 -67.5 -327.5t-180.5 -272.5t-268 -183.5t-322 -68.5q-258 0 -412.5 161.5t-154.5 428.5q0 174 65.5 329t177.5 266t267.5 176t330.5 65zM850 1163q-117 0 -215.5 -60.5t-167.5 -174.5q-98 -164 -98 -348q0 -172 86 -270.5 t237 -98.5q132 0 244 78.5t177 213t65 292.5q0 172 -87 270t-241 98zM1221 1786l75 -115q-95 -77 -159.5 -110t-118.5 -33t-133 33q-79 36 -121 36q-28 0 -80.5 -24.5t-81.5 -50.5l-78 112q87 74 148.5 107t115.5 33q53 0 148 -41q79 -31 108 -31q56 0 177 84z" />
<glyph unicode="&#xd6;" horiz-adv-x="1550" d="M913 1397q256 0 410 -156.5t154 -417.5q0 -170 -67.5 -327.5t-180.5 -272.5t-268 -183.5t-322 -68.5q-258 0 -412.5 161.5t-154.5 428.5q0 174 65.5 329t177.5 266t267.5 176t330.5 65zM850 1163q-117 0 -215.5 -60.5t-167.5 -174.5q-98 -164 -98 -348q0 -172 86 -270.5 t237 -98.5q132 0 244 78.5t177 213t65 292.5q0 172 -87 270t-241 98zM1229 1782q45 0 75.5 -31.5t30.5 -77.5q0 -62 -46 -107.5t-109 -45.5q-51 0 -82 29.5t-31 76.5q0 62 49 109t113 47zM711 1782q46 0 77 -32t31 -79q0 -58 -47.5 -104.5t-107.5 -46.5q-50 0 -80.5 30.5 t-30.5 79.5q0 60 47.5 106t110.5 46z" />
<glyph unicode="&#xd7;" d="M1030 254l-145 -145l-293 292l-293 -292l-147 147l292 291l-292 295l147 145l293 -293l293 293l145 -147l-293 -293z" />
<glyph unicode="&#xd8;" horiz-adv-x="1550" d="M1569 1311l-178 -158q46 -80 66 -156.5t20 -175.5q0 -171 -67 -328.5t-179 -271.5t-267 -182t-323 -68q-131 0 -225 36t-183 120l-172 -152l-81 95l178 155q-46 86 -66 163t-20 177q0 172 65 326t176 265t265.5 176t326.5 65q132 0 226 -34t182 -114l172 156zM389 432 l703 631q-47 53 -104 76.5t-136 23.5q-212 0 -352 -186q-131 -172 -131 -393q0 -79 20 -152zM1155 948l-706 -635q46 -54 102.5 -78t138.5 -24q135 0 247 77t176.5 211t64.5 296q0 83 -23 153z" />
<glyph unicode="&#xd9;" horiz-adv-x="1462" d="M1440 1366l-137 -778q-28 -162 -77.5 -265.5t-133.5 -175.5q-95 -84 -229 -129t-288 -45q-238 0 -352 96.5t-114 297.5q0 87 20 217l139 782h275l-135 -782q-19 -104 -19 -166q0 -110 60.5 -162.5t187.5 -52.5q179 0 279 94.5t135 296.5l137 772h252zM1153 1616l-82 -135 l-432 159l117 187z" />
<glyph unicode="&#xda;" horiz-adv-x="1462" d="M1440 1366l-137 -778q-28 -162 -77.5 -265.5t-133.5 -175.5q-95 -84 -229 -129t-288 -45q-238 0 -352 96.5t-114 297.5q0 87 20 217l139 782h275l-135 -782q-19 -104 -19 -166q0 -110 60.5 -162.5t187.5 -52.5q179 0 279 94.5t135 296.5l137 772h252zM1161 1642l-2 -2 l-491 -161l-33 133l475 213z" />
<glyph unicode="&#xdb;" horiz-adv-x="1462" d="M1440 1366l-137 -778q-28 -162 -77.5 -265.5t-133.5 -175.5q-95 -84 -229 -129t-288 -45q-238 0 -352 96.5t-114 297.5q0 87 20 217l139 782h275l-135 -782q-19 -104 -19 -166q0 -110 60.5 -162.5t187.5 -52.5q179 0 279 94.5t135 296.5l137 772h252zM1268 1614l-97 -131 l-274 135l-332 -135l-51 131l420 213z" />
<glyph unicode="&#xdc;" horiz-adv-x="1462" d="M1440 1366l-137 -778q-28 -162 -77.5 -265.5t-133.5 -175.5q-95 -84 -229 -129t-288 -45q-238 0 -352 96.5t-114 297.5q0 87 20 217l139 782h275l-135 -782q-19 -104 -19 -166q0 -110 60.5 -162.5t187.5 -52.5q179 0 279 94.5t135 296.5l137 772h252zM1192 1782 q45 0 75.5 -31.5t30.5 -77.5q0 -62 -46 -107.5t-109 -45.5q-51 0 -82 29.5t-31 76.5q0 62 49 109t113 47zM674 1782q46 0 77 -32t31 -79q0 -58 -47.5 -104.5t-107.5 -46.5q-50 0 -80.5 30.5t-30.5 79.5q0 60 47.5 106t110.5 46z" />
<glyph unicode="&#xdd;" horiz-adv-x="1269" d="M1382 1366l-622 -768l-107 -598h-274l106 598l-354 768h305l209 -547l412 547h325zM1081 1645l-2 -3l-489 -161l-35 133l475 213z" />
<glyph unicode="&#xde;" horiz-adv-x="1118" d="M362 299l-53 -299h-278l241 1366h279l-43 -246h156q227 0 346.5 -87t119.5 -253q0 -217 -165 -349t-435 -132h-168zM471 918l-74 -424h125q141 0 229.5 74t88.5 194q0 156 -228 156h-141z" />
<glyph unicode="&#xdf;" horiz-adv-x="1200" d="M18 0l160 903q53 293 176 428q69 77 174 118.5t232 41.5q161 0 255.5 -71.5t94.5 -194.5q0 -91 -43.5 -170t-155.5 -191l-8 -8q-50 -49 -68 -73.5t-18 -43.5q0 -23 20.5 -47t86.5 -80q79 -67 111 -125t32 -135q0 -160 -142 -265t-356 -105q-98 0 -207 28l80 185 q78 -19 133 -19q100 0 167 41t67 102q0 38 -28.5 80t-102.5 111q-129 123 -129 195q0 40 35 87.5t129 133.5q76 70 110.5 126t34.5 111q0 53 -38 85t-101 32q-117 0 -185.5 -89.5t-103.5 -287.5l-160 -903h-252z" />
<glyph unicode="&#xe0;" horiz-adv-x="1021" d="M891 172l-8 -154q-114 -43 -195 -43q-153 0 -153 125v19v4q-187 -143 -347 -143q-86 0 -143 61.5t-57 155.5q0 117 80.5 203t248.5 149q111 40 287 76q8 63 8 77q0 93 -90 93q-116 0 -336 -117l-59 153q116 75 256.5 122.5t249.5 47.5q229 0 229 -231q0 -55 -14 -135 l-66 -367q-4 -24 -4 -37q0 -65 64 -65q12 0 49 6zM545 287l33 184q-3 0 -7 -2q-168 -40 -244.5 -89t-76.5 -118q0 -37 20 -60.5t52 -23.5q85 0 223 109zM866 1206l-92 -119l-375 191l121 160z" />
<glyph unicode="&#xe1;" horiz-adv-x="1021" d="M891 172l-8 -154q-114 -43 -195 -43q-153 0 -153 125v19v4q-187 -143 -347 -143q-86 0 -143 61.5t-57 155.5q0 117 80.5 203t248.5 149q111 40 287 76q8 63 8 77q0 93 -90 93q-116 0 -336 -117l-59 153q116 75 256.5 122.5t249.5 47.5q229 0 229 -231q0 -55 -14 -135 l-66 -367q-4 -24 -4 -37q0 -65 64 -65q12 0 49 6zM545 287l33 184q-3 0 -7 -2q-168 -40 -244.5 -89t-76.5 -118q0 -37 20 -60.5t52 -23.5q85 0 223 109zM879 1278l-441 -186l-49 114l428 232z" />
<glyph unicode="&#xe2;" horiz-adv-x="1021" d="M891 172l-8 -154q-114 -43 -195 -43q-153 0 -153 125v19v4q-187 -143 -347 -143q-86 0 -143 61.5t-57 155.5q0 117 80.5 203t248.5 149q111 40 287 76q8 63 8 77q0 93 -90 93q-116 0 -336 -117l-59 153q116 75 256.5 122.5t249.5 47.5q229 0 229 -231q0 -55 -14 -135 l-66 -367q-4 -24 -4 -37q0 -65 64 -65q12 0 49 6zM545 287l33 184q-3 0 -7 -2q-168 -40 -244.5 -89t-76.5 -118q0 -37 20 -60.5t52 -23.5q85 0 223 109zM934 1198l-98 -117l-244 150l-293 -150l-57 119l385 236z" />
<glyph unicode="&#xe3;" horiz-adv-x="1021" d="M891 172l-8 -154q-114 -43 -195 -43q-153 0 -153 125v19v4q-187 -143 -347 -143q-86 0 -143 61.5t-57 155.5q0 117 80.5 203t248.5 149q111 40 287 76q8 63 8 77q0 93 -90 93q-116 0 -336 -117l-59 153q116 75 256.5 122.5t249.5 47.5q229 0 229 -231q0 -55 -14 -135 l-66 -367q-4 -24 -4 -37q0 -65 64 -65q12 0 49 6zM545 287l33 184q-3 0 -7 -2q-168 -40 -244.5 -89t-76.5 -118q0 -37 20 -60.5t52 -23.5q85 0 223 109zM956 1393l58 -101q-106 -81 -177.5 -116t-127.5 -35q-44 0 -86 26l-37 23q-38 24 -78 24q-56 0 -170 -79l-59 104 q188 141 288 141q49 0 133 -47q43 -22 74 -22q58 0 182 82z" />
<glyph unicode="&#xe4;" horiz-adv-x="1021" d="M891 172l-8 -154q-114 -43 -195 -43q-153 0 -153 125v19v4q-187 -143 -347 -143q-86 0 -143 61.5t-57 155.5q0 117 80.5 203t248.5 149q111 40 287 76q8 63 8 77q0 93 -90 93q-116 0 -336 -117l-59 153q116 75 256.5 122.5t249.5 47.5q229 0 229 -231q0 -55 -14 -135 l-66 -367q-4 -24 -4 -37q0 -65 64 -65q12 0 49 6zM545 287l33 184q-3 0 -7 -2q-168 -40 -244.5 -89t-76.5 -118q0 -37 20 -60.5t52 -23.5q85 0 223 109zM881 1380q41 0 71.5 -30.5t30.5 -73.5q0 -58 -43 -100.5t-102 -42.5q-50 0 -78.5 27.5t-28.5 74.5q0 58 45 101.5 t105 43.5zM451 1380q46 0 74 -28t28 -74q0 -59 -44.5 -102t-105.5 -43q-46 0 -74 27t-28 73q0 61 44 104t106 43z" />
<glyph unicode="&#xe5;" horiz-adv-x="1021" d="M891 172l-8 -154q-114 -43 -195 -43q-153 0 -153 125v19v4q-187 -143 -347 -143q-86 0 -143 61.5t-57 155.5q0 117 80.5 203t248.5 149q111 40 287 76q8 63 8 77q0 93 -90 93q-116 0 -336 -117l-59 153q116 75 256.5 122.5t249.5 47.5q229 0 229 -231q0 -55 -14 -135 l-66 -367q-4 -24 -4 -37q0 -65 64 -65q12 0 49 6zM545 287l33 184q-3 0 -7 -2q-168 -40 -244.5 -89t-76.5 -118q0 -37 20 -60.5t52 -23.5q85 0 223 109zM655 1444q66 0 110 -43.5t44 -108.5q0 -85 -66.5 -149t-152.5 -64q-67 0 -110.5 43t-43.5 109q0 86 65.5 149.5 t153.5 63.5zM635 1348q-40 0 -71.5 -30.5t-31.5 -70.5q0 -31 22 -51t54 -20q41 0 71 29t30 69q0 32 -21 53t-53 21z" />
<glyph unicode="&#xe6;" horiz-adv-x="1544" d="M188 676l-63 151q156 93 276 135t232 42q78 0 122 -27.5t70 -93.5q78 66 149 94.5t156 28.5q151 0 234.5 -96t83.5 -269q0 -57 -18 -186h-605q-12 -64 -12 -101q0 -176 178 -176q109 0 244 72l8 6l31 16l41 23l74 -143q-140 -94 -253 -135.5t-231 -41.5q-188 0 -272 119 q-20 28 -41 72q-149 -108 -232 -147t-167 -39q-89 0 -147 61.5t-58 155.5q0 118 81 204t248 146q101 34 277 71l2 15q2 10 2 47q0 111 -90 111q-99 0 -320 -115zM860 610l344 8q6 43 6 74q0 72 -35.5 110t-103.5 38q-80 0 -128.5 -53t-82.5 -177zM557 332v4q0 56 12 135 q-4 -2 -59 -16q-268 -62 -268 -193q0 -37 20 -60.5t53 -23.5q90 0 244 127q-2 14 -2 27z" />
<glyph unicode="&#xe7;" horiz-adv-x="983" d="M924 924l-93 -172q-119 51 -217 51q-141 0 -232 -105t-91 -266q0 -117 48 -178t140 -61q108 0 289 94l72 -150q-184 -127 -353 -153l-172 -293l-135 37l121 262q-137 40 -211 148t-74 268q0 127 46 237.5t126 189t192 123.5t241 45q86 0 156 -18t147 -59z" />
<glyph unicode="&#xe8;" horiz-adv-x="1067" d="M858 1206l-92 -119l-375 191l121 160zM944 455h-645q-10 -44 -10 -88q0 -93 48.5 -141t141.5 -48q72 0 152.5 27t197.5 90l74 -143q-138 -95 -251.5 -137t-235.5 -42q-177 0 -284 114.5t-107 303.5q0 128 45.5 242t124.5 195.5t189 128.5t234 47q345 0 345 -359 q0 -71 -19 -190zM334 610l385 8q6 40 6 70q0 150 -139 150q-87 0 -153.5 -60t-98.5 -168z" />
<glyph unicode="&#xe9;" horiz-adv-x="1067" d="M870 1278l-440 -186l-49 114l428 232zM944 455h-645q-10 -44 -10 -88q0 -93 48.5 -141t141.5 -48q72 0 152.5 27t197.5 90l74 -143q-138 -95 -251.5 -137t-235.5 -42q-177 0 -284 114.5t-107 303.5q0 128 45.5 242t124.5 195.5t189 128.5t234 47q345 0 345 -359 q0 -71 -19 -190zM334 610l385 8q6 40 6 70q0 150 -139 150q-87 0 -153.5 -60t-98.5 -168z" />
<glyph unicode="&#xea;" horiz-adv-x="1069" d="M829 295l74 -143q-141 -95 -254.5 -137t-230.5 -42q-180 0 -286.5 114t-106.5 306q0 169 78 309t214.5 221t300.5 81q166 0 256.5 -93.5t90.5 -265.5q0 -49 -21 -190h-645q-10 -46 -10 -88q0 -91 51 -140t145 -49q78 0 149 24t195 93zM334 610l385 8q6 56 6 70 q0 150 -139 150q-87 0 -153.5 -60t-98.5 -168zM965 1198l-97 -117l-245 150l-291 -150l-58 119l385 236z" />
<glyph unicode="&#xeb;" horiz-adv-x="1060" d="M870 1380q44 0 74.5 -30t30.5 -74q0 -57 -44.5 -100t-103.5 -43q-46 0 -75 28t-29 72q0 59 44.5 103t102.5 44zM440 1380q46 0 75.5 -27.5t29.5 -70.5q0 -60 -45.5 -104.5t-106.5 -44.5q-44 0 -72 28t-28 72q0 59 44.5 103t102.5 44zM944 455h-645q-10 -44 -10 -88 q0 -93 48.5 -141t141.5 -48q72 0 152.5 27t197.5 90l74 -143q-138 -95 -251.5 -137t-235.5 -42q-177 0 -284 114.5t-107 303.5q0 128 45.5 242t124.5 195.5t189 128.5t234 47q345 0 345 -359q0 -71 -19 -190zM334 610l385 8q6 40 6 70q0 150 -139 150q-87 0 -153.5 -60 t-98.5 -168z" />
<glyph unicode="&#xec;" horiz-adv-x="522" d="M602 1206l-92 -119l-375 191l121 160zM449 973l-173 -973h-251l172 973h252z" />
<glyph unicode="&#xed;" horiz-adv-x="522" d="M614 1278l-440 -186l-49 114l428 232zM449 973l-173 -973h-251l172 973h252z" />
<glyph unicode="&#xee;" horiz-adv-x="526" d="M451 973l-172 -973h-252l172 973h252zM713 1198l-99 -117l-243 150l-293 -150l-58 119l386 236z" />
<glyph unicode="&#xef;" horiz-adv-x="526" d="M449 973l-173 -973h-251l172 973h252zM608 1380q43 0 74 -30.5t31 -73.5q0 -57 -44.5 -100t-103.5 -43q-47 0 -75.5 27t-28.5 73q0 59 44.5 103t102.5 44zM178 1380q46 0 75.5 -29t29.5 -75q0 -57 -45 -100t-105 -43q-46 0 -74 27t-28 73q0 61 42.5 104t104.5 43z" />
<glyph unicode="&#xf0;" horiz-adv-x="1079" d="M1094 1221l-150 -45q74 -139 74 -310q0 -161 -60 -345.5t-157 -321.5q-75 -106 -184 -165t-228 -59q-170 0 -267 107t-97 295q0 173 72 318.5t196.5 229t273.5 83.5q94 0 201 -39q-23 92 -70 151l-229 -67l-33 135l127 37q-110 52 -276 75l63 183q188 -22 299.5 -60 t196.5 -108l203 65zM750 709l-5 4l-2 2q-31 32 -88 54t-112 22q-69 0 -126.5 -45t-94.5 -128q-48 -104 -48 -223q0 -92 39.5 -144t108.5 -52q177 0 276 309q39 125 45 176q3 7 7 25z" />
<glyph unicode="&#xf1;" horiz-adv-x="1153" d="M969 1393l75 -101q-93 -80 -158 -115.5t-120 -35.5q-44 0 -92 26l-43 23q-46 24 -82 24q-54 0 -154 -79l-78 104q84 74 147 107.5t120 33.5q48 0 133 -43q53 -26 84 -26q62 0 168 82zM899 0h-252l94 537q19 109 19 133q0 102 -92 102q-64 0 -132 -36t-159 -118l-109 -618 h-252l172 973h244l-26 -148q106 97 190 138t176 41q120 0 183 -69.5t63 -201.5q0 -47 -10 -112z" />
<glyph unicode="&#xf2;" horiz-adv-x="1142" d="M637 1006q186 0 294.5 -116.5t108.5 -314.5q0 -170 -75.5 -307t-209.5 -215t-300 -78q-193 0 -306.5 115.5t-113.5 312.5q0 169 78.5 307t216.5 217t307 79zM586 803q-116 0 -196.5 -111.5t-80.5 -271.5q0 -113 47 -174.5t133 -61.5q154 0 232 172q47 106 47 222 q0 109 -47 167t-135 58zM899 1206l-92 -119l-375 191l121 160z" />
<glyph unicode="&#xf3;" horiz-adv-x="1142" d="M637 1006q186 0 294.5 -116.5t108.5 -314.5q0 -170 -75.5 -307t-209.5 -215t-300 -78q-193 0 -306.5 115.5t-113.5 312.5q0 169 78.5 307t216.5 217t307 79zM586 803q-116 0 -196.5 -111.5t-80.5 -271.5q0 -113 47 -174.5t133 -61.5q154 0 232 172q47 106 47 222 q0 109 -47 167t-135 58zM911 1278l-440 -186l-49 114l428 232z" />
<glyph unicode="&#xf4;" horiz-adv-x="1142" d="M637 1006q186 0 294.5 -116.5t108.5 -314.5q0 -170 -75.5 -307t-209.5 -215t-300 -78q-193 0 -306.5 115.5t-113.5 312.5q0 169 78.5 307t216.5 217t307 79zM586 803q-116 0 -196.5 -111.5t-80.5 -271.5q0 -113 47 -174.5t133 -61.5q154 0 232 172q47 106 47 222 q0 109 -47 167t-135 58zM1006 1198l-99 -117l-243 150l-293 -150l-58 119l385 236z" />
<glyph unicode="&#xf5;" horiz-adv-x="1142" d="M637 1006q186 0 294.5 -116.5t108.5 -314.5q0 -170 -75.5 -307t-209.5 -215t-300 -78q-193 0 -306.5 115.5t-113.5 312.5q0 169 78.5 307t216.5 217t307 79zM586 803q-116 0 -196.5 -111.5t-80.5 -271.5q0 -113 47 -174.5t133 -61.5q154 0 232 172q47 106 47 222 q0 109 -47 167t-135 58zM987 1393l57 -101q-109 -81 -180 -116t-127 -35q-45 0 -84 26l-37 23q-41 24 -77 24q-56 0 -170 -79l-60 104q186 141 287 141q49 0 135 -47q43 -22 74 -22q58 0 182 82z" />
<glyph unicode="&#xf6;" horiz-adv-x="1142" d="M637 1006q186 0 294.5 -116.5t108.5 -314.5q0 -170 -75.5 -307t-209.5 -215t-300 -78q-193 0 -306.5 115.5t-113.5 312.5q0 169 78.5 307t216.5 217t307 79zM586 803q-116 0 -196.5 -111.5t-80.5 -271.5q0 -113 47 -174.5t133 -61.5q154 0 232 172q47 106 47 222 q0 109 -47 167t-135 58zM913 1380q43 0 73 -30.5t30 -73.5q0 -58 -43.5 -100.5t-102.5 -42.5q-49 0 -77.5 28t-28.5 74q0 58 44.5 101.5t104.5 43.5zM483 1380q46 0 74.5 -28t28.5 -74q0 -58 -45 -101.5t-105 -43.5q-46 0 -74 27t-28 73q0 61 43.5 104t105.5 43z" />
<glyph unicode="&#xf7;" d="M1128 465h-1077v164h1077v-164zM592 1100q64 0 107.5 -43.5t43.5 -108.5q0 -64 -43.5 -107.5t-107.5 -43.5q-65 0 -108.5 43.5t-43.5 107.5t44 108t108 44zM592 289q64 0 107.5 -43.5t43.5 -108.5t-43.5 -108t-107.5 -43q-65 0 -108.5 43.5t-43.5 107.5q0 65 44 108.5 t108 43.5z" />
<glyph unicode="&#xf8;" horiz-adv-x="1163" d="M1124 915l-123 -110q52 -112 52 -236q0 -167 -76 -303t-209.5 -213.5t-298.5 -77.5q-96 0 -165 25t-134 82l-121 -105l-76 91l125 112q-51 105 -51 226q0 166 79 304t215.5 217t301.5 79q92 0 159 -25t132 -82l115 105zM324 371l415 364q-51 68 -139 68q-116 0 -197 -111 t-81 -270v-12v-15zM778 616l-413 -366q52 -66 137 -66q151 0 231 174q47 106 47 224v10v6q0 6 -2 18z" />
<glyph unicode="&#xf9;" horiz-adv-x="1150" d="M1065 973l-170 -973h-244l25 147q-121 -95 -217 -136.5t-193 -41.5q-103 0 -156 56t-53 163q0 48 17 164l108 621h252l-94 -537q-18 -93 -18 -133q0 -102 90 -102q62 0 131 36t162 117l108 619h252zM903 1206l-92 -119l-375 191l121 160z" />
<glyph unicode="&#xfa;" horiz-adv-x="1150" d="M1065 973l-170 -973h-244l25 147q-121 -95 -217 -136.5t-193 -41.5q-103 0 -156 56t-53 163q0 48 17 164l108 621h252l-94 -537q-18 -93 -18 -133q0 -102 90 -102q62 0 131 36t162 117l108 619h252zM913 1278l-440 -186l-49 114l428 232z" />
<glyph unicode="&#xfb;" horiz-adv-x="1150" d="M1065 973l-170 -973h-244l25 147q-121 -95 -217 -136.5t-193 -41.5q-103 0 -156 56t-53 163q0 48 17 164l108 621h252l-94 -537q-18 -93 -18 -133q0 -102 90 -102q62 0 131 36t162 117l108 619h252zM1006 1198l-99 -117l-243 150l-293 -150l-58 119l385 236z" />
<glyph unicode="&#xfc;" horiz-adv-x="1150" d="M1065 973l-170 -973h-244l25 147q-121 -95 -217 -136.5t-193 -41.5q-103 0 -156 56t-53 163q0 48 17 164l108 621h252l-94 -537q-18 -93 -18 -133q0 -102 90 -102q62 0 131 36t162 117l108 619h252zM913 1380q43 0 73 -30.5t30 -73.5q0 -58 -43.5 -100.5t-102.5 -42.5 q-49 0 -77.5 28t-28.5 74q0 58 44.5 101.5t104.5 43.5zM483 1380q46 0 74.5 -28t28.5 -74q0 -58 -45 -101.5t-105 -43.5q-46 0 -74 27t-28 73q0 61 43.5 104t105.5 43z" />
<glyph unicode="&#xfd;" horiz-adv-x="1069" d="M1106 973l-649 -1129q-101 -179 -181 -247q-109 -95 -272 -95q-71 0 -176 27l68 184q68 -10 102 -10q71 0 115 34t110 140l58 92l-215 1004h266l133 -725l381 725h260zM883 1278l-441 -186l-49 114l428 232z" />
<glyph unicode="&#xfe;" horiz-adv-x="1189" d="M520 1464l-110 -624q74 77 166.5 120.5t183.5 43.5q146 0 233.5 -114t87.5 -304q0 -168 -70 -308.5t-192 -221.5t-268 -81q-92 0 -152 34.5t-114 119.5l-105 -602h-252l340 1937h252zM373 623l-54 -293q47 -77 97 -110.5t116 -33.5q117 0 198 111t81 272q0 108 -40 158.5 t-126 50.5q-79 0 -142.5 -36t-129.5 -119z" />
<glyph unicode="&#xff;" horiz-adv-x="1069" d="M1106 973l-649 -1129q-101 -179 -181 -247q-109 -95 -272 -95q-71 0 -176 27l68 184q68 -10 102 -10q71 0 115 34t110 140l58 92l-215 1004h266l133 -725l381 725h260zM868 1380q43 0 73 -30.5t30 -73.5q0 -58 -43.5 -100.5t-102.5 -42.5q-49 0 -77.5 27.5t-28.5 74.5 q0 58 44.5 101.5t104.5 43.5zM438 1380q46 0 74.5 -28t28.5 -74q0 -58 -45 -101.5t-105 -43.5q-46 0 -74 27t-28 73q0 61 43.5 104t105.5 43z" />
<glyph unicode="&#x100;" horiz-adv-x="1445" d="M1315 0h-281l-86 401h-545l-227 -401h-287l807 1366h289zM907 596l-110 506l-283 -506h393zM1192 1511h-645l31 172h643z" />
<glyph unicode="&#x101;" horiz-adv-x="1021" d="M891 172l-8 -154q-112 -43 -191 -43q-75 0 -116 32t-41 91v25q-100 -75 -181.5 -109t-163.5 -34q-88 0 -145 62t-57 157q0 77 39.5 145t111.5 115q82 56 176 89.5t289 76.5q8 57 8 75q0 95 -90 95q-119 0 -336 -117l-59 153q127 78 261 124t239 46q233 0 233 -231 q0 -65 -12 -135l-66 -367q-4 -24 -4 -35q0 -67 64 -67q14 0 49 6zM578 471l-29 -8q-162 -38 -230.5 -84t-68.5 -115q0 -38 20 -62t52 -24q88 0 223 109zM924 1161h-613l27 160h612z" />
<glyph unicode="&#x102;" horiz-adv-x="1445" d="M1315 0h-281l-86 401h-545l-227 -401h-287l807 1366h289zM907 596l-110 506l-283 -506h393zM586 1782h137q4 -64 42 -92.5t120 -28.5q75 0 121.5 29t74.5 92h152q-32 -127 -128.5 -195.5t-242.5 -68.5q-129 0 -203.5 59.5t-74.5 161.5z" />
<glyph unicode="&#x103;" horiz-adv-x="1021" d="M891 172l-8 -154q-112 -43 -191 -43q-75 0 -116 32t-41 91v25q-100 -75 -181.5 -109t-163.5 -34q-88 0 -145 62t-57 157q0 77 39.5 145t111.5 115q82 56 176 89.5t289 76.5q8 57 8 75q0 95 -90 95q-119 0 -336 -117l-59 153q127 78 261 124t239 46q233 0 233 -231 q0 -65 -12 -135l-66 -367q-4 -24 -4 -35q0 -67 64 -67q14 0 49 6zM578 471l-29 -8q-162 -38 -230.5 -84t-68.5 -115q0 -38 20 -62t52 -24q88 0 223 109zM803 1393h139q-31 -127 -116.5 -196t-213.5 -69q-106 0 -175.5 60t-69.5 151q0 29 4 41l2 13h141v-17q0 -102 125 -102 q68 0 106.5 28t57.5 91z" />
<glyph unicode="&#x104;" horiz-adv-x="1445" d="M934 -242q0 120 164 242h-64l-86 401h-545l-227 -401h-287l807 1366h289l330 -1366q-162 -101 -162 -164q0 -51 53 -51q32 0 72 10l-8 -153q-26 -14 -75 -26.5t-97 -12.5q-65 0 -114.5 37.5t-49.5 117.5zM907 596l-110 506l-283 -506h393z" />
<glyph unicode="&#x105;" horiz-adv-x="1021" d="M891 172l-8 -154q-83 -40 -143 -90t-60 -92q0 -51 53 -51q32 0 72 10l-8 -153q-26 -14 -75 -26.5t-97 -12.5q-65 0 -114.5 37.5t-49.5 117.5q0 116 147 230q-73 27 -73 112v23q-187 -143 -347 -143q-86 0 -143 61.5t-57 155.5q0 117 80.5 203t248.5 149q111 40 287 76 q8 63 8 77q0 93 -90 93q-116 0 -336 -117l-59 153q116 75 256.5 122.5t249.5 47.5q229 0 229 -231q0 -55 -14 -135l-66 -367q-4 -24 -4 -37q0 -65 64 -65q12 0 49 6zM545 287l33 184q-3 0 -7 -2q-168 -40 -244.5 -89t-76.5 -118q0 -37 20 -60.5t52 -23.5q85 0 223 109z" />
<glyph unicode="&#x106;" horiz-adv-x="1353" d="M1397 1319l-94 -199q-98 31 -165 42.5t-145 11.5q-288 0 -458 -151.5t-170 -408.5q0 -214 95 -312.5t300 -98.5q100 0 187 22t214 80l64 -192q-164 -82 -277.5 -113t-247.5 -31q-286 0 -457 162t-171 432q0 379 253.5 606.5t675.5 227.5q102 0 185 -16t211 -62z M1274 1642l-488 -161l-34 133l473 213z" />
<glyph unicode="&#x107;" horiz-adv-x="983" d="M924 924l-93 -172q-120 51 -217 51q-140 0 -231.5 -104.5t-91.5 -264.5q0 -241 194 -241q105 0 283 94l72 -150q-131 -86 -232.5 -123t-208.5 -37q-167 0 -275 117.5t-108 300.5q0 176 77.5 314t217 215t316.5 77q89 0 153.5 -16.5t143.5 -60.5zM938 1278l-440 -186 l-49 114l428 232z" />
<glyph unicode="&#x108;" horiz-adv-x="1353" d="M1397 1319l-94 -199q-98 31 -165 42.5t-145 11.5q-288 0 -458 -151.5t-170 -408.5q0 -214 95 -312.5t300 -98.5q100 0 187 22t214 80l64 -192q-164 -82 -277.5 -113t-247.5 -31q-286 0 -457 162t-171 432q0 379 253.5 606.5t675.5 227.5q102 0 185 -16t211 -62z M1350 1614l-99 -131l-274 135l-334 -135l-51 131l424 213z" />
<glyph unicode="&#x10a;" horiz-adv-x="1353" d="M1397 1319l-94 -199q-98 31 -165 42.5t-145 11.5q-288 0 -458 -151.5t-170 -408.5q0 -214 95 -312.5t300 -98.5q100 0 187 22t214 80l64 -192q-164 -82 -277.5 -113t-247.5 -31q-286 0 -457 162t-171 432q0 379 253.5 606.5t675.5 227.5q102 0 185 -16t211 -62z M1034 1782q44 0 75.5 -31.5t31.5 -77.5q0 -62 -46.5 -107.5t-109.5 -45.5q-46 0 -78.5 31t-32.5 75q0 61 48.5 108.5t111.5 47.5z" />
<glyph unicode="&#x10b;" horiz-adv-x="983" d="M924 924l-93 -172q-120 51 -217 51q-140 0 -231.5 -104.5t-91.5 -264.5q0 -241 194 -241q105 0 283 94l72 -150q-131 -86 -232.5 -123t-208.5 -37q-167 0 -275 117.5t-108 300.5q0 176 77.5 314t217 215t316.5 77q89 0 153.5 -16.5t143.5 -60.5zM705 1366q46 0 75 -29 t29 -75q0 -55 -46.5 -99.5t-103.5 -44.5q-44 0 -73 29t-29 72q0 57 45.5 102t102.5 45z" />
<glyph unicode="&#x10c;" horiz-adv-x="1353" d="M1397 1319l-94 -199q-98 31 -165 42.5t-145 11.5q-288 0 -458 -151.5t-170 -408.5q0 -214 95 -312.5t300 -98.5q100 0 187 22t214 80l64 -192q-164 -82 -277.5 -113t-247.5 -31q-286 0 -457 162t-171 432q0 379 253.5 606.5t675.5 227.5q102 0 185 -16t211 -62z M1346 1708l-416 -217l-334 217l88 123l281 -141l335 141z" />
<glyph unicode="&#x10d;" horiz-adv-x="983" d="M924 924l-93 -172q-120 51 -217 51q-140 0 -231.5 -104.5t-91.5 -264.5q0 -241 194 -241q105 0 283 94l72 -150q-131 -86 -232.5 -123t-208.5 -37q-167 0 -275 117.5t-108 300.5q0 176 77.5 314t217 215t316.5 77q89 0 153.5 -16.5t143.5 -60.5zM1020 1329l-385 -237 l-309 237l100 117l246 -148l291 148z" />
<glyph unicode="&#x10e;" horiz-adv-x="1503" d="M272 1366h402q370 0 565 -150.5t195 -435.5q0 -384 -271 -582t-796 -198h-336zM344 217h137q315 0 487.5 143.5t172.5 407.5q0 191 -120 289t-355 98h-156zM1212 1708l-415 -217l-334 217l88 123l280 -141l336 141z" />
<glyph unicode="&#x10f;" horiz-adv-x="1263" d="M1188 1464l-258 -1464h-244l27 147q-183 -174 -361 -174q-145 0 -231 112.5t-86 301.5q0 269 144 441.5t368 172.5q92 0 159 -35t121 -112l107 610h254zM739 354l54 293q-48 77 -97.5 110.5t-117.5 33.5q-117 0 -199 -111.5t-82 -271.5q0 -108 41.5 -158.5t130.5 -50.5 q74 0 138.5 37t131.5 118zM1481 1464l-135 -364h-140l66 364h209z" />
<glyph unicode="&#x110;" horiz-adv-x="1511" d="M39 0l108 610h-208l34 197h209l99 559h401q372 0 566 -152t194 -442q0 -222 -94 -385q-93 -161 -244 -237q-308 -150 -729 -150h-336zM518 1155l-61 -348h319l-35 -197h-319l-70 -393h137q318 0 489 144t171 411q0 383 -475 383h-156z" />
<glyph unicode="&#x111;" horiz-adv-x="1193" d="M909 1321l25 143h254l-25 -143h80l-29 -160h-79l-205 -1161h-244l27 147q-183 -174 -361 -174q-145 0 -231 112.5t-86 301.5q0 269 144 441.5t368 172.5q92 0 158 -35t122 -112l54 307h-277l27 160h278zM739 354l54 293q-48 77 -97.5 110.5t-117.5 33.5 q-117 0 -199 -111.5t-82 -271.5q0 -108 41.5 -158.5t130.5 -50.5q74 0 138.5 37t131.5 118z" />
<glyph unicode="&#x112;" horiz-adv-x="1144" d="M1135 1366l-37 -209h-586l-61 -348h553l-37 -203h-553l-68 -385h625l-39 -221h-901l241 1366h863zM1065 1511h-643l31 172h643z" />
<glyph unicode="&#x113;" horiz-adv-x="1069" d="M829 295l74 -143q-150 -100 -256 -139.5t-227 -39.5q-180 0 -287.5 113.5t-107.5 302.5q0 172 78 313t215.5 221.5t304.5 80.5q166 0 254 -94t88 -271q0 -45 -21 -184h-645q-10 -51 -10 -88q0 -91 51 -140t145 -49q78 0 150 24.5t194 92.5zM334 610l385 8q6 49 6 70 q0 73 -36 111.5t-105 38.5q-85 0 -150 -59.5t-100 -168.5zM950 1161h-610l25 160h612z" />
<glyph unicode="&#x114;" horiz-adv-x="1144" d="M1135 1366l-37 -209h-586l-61 -348h553l-37 -203h-553l-68 -385h625l-39 -221h-901l241 1366h863zM432 1782h137q4 -64 42 -92.5t118 -28.5q76 0 123.5 29t75.5 92h151q-34 -127 -129.5 -195.5t-240.5 -68.5q-129 0 -204 60t-75 161q0 27 2 43z" />
<glyph unicode="&#x115;" horiz-adv-x="1069" d="M829 295l74 -143q-150 -100 -256 -139.5t-227 -39.5q-180 0 -287.5 113.5t-107.5 302.5q0 172 78 313t215.5 221.5t304.5 80.5q166 0 254 -94t88 -271q0 -45 -21 -184h-645q-10 -51 -10 -88q0 -91 51 -140t145 -49q78 0 150 24.5t194 92.5zM334 610l385 8q6 49 6 70 q0 73 -36 111.5t-105 38.5q-85 0 -150 -59.5t-100 -168.5zM827 1393h138q-31 -126 -116.5 -195.5t-211.5 -69.5q-107 0 -177.5 60t-70.5 151q0 13 4 41l4 13h142q-2 -8 -2 -17q0 -102 127 -102q66 0 104.5 28t58.5 91z" />
<glyph unicode="&#x116;" horiz-adv-x="1144" d="M1135 1366l-37 -209h-586l-61 -348h553l-37 -203h-553l-68 -385h625l-39 -221h-901l241 1366h863zM776 1782q44 0 75.5 -31.5t31.5 -77.5q0 -62 -46.5 -107.5t-109.5 -45.5q-46 0 -78.5 31t-32.5 75q0 61 48.5 108.5t111.5 47.5z" />
<glyph unicode="&#x117;" horiz-adv-x="1069" d="M829 295l74 -143q-150 -100 -256 -139.5t-227 -39.5q-180 0 -287.5 113.5t-107.5 302.5q0 172 78 313t215.5 221.5t304.5 80.5q166 0 254 -94t88 -271q0 -45 -21 -184h-645q-10 -51 -10 -88q0 -91 51 -140t145 -49q78 0 150 24.5t194 92.5zM334 610l385 8q6 49 6 70 q0 73 -36 111.5t-105 38.5q-85 0 -150 -59.5t-100 -168.5zM705 1366q46 0 75 -29t29 -75q0 -55 -46.5 -99.5t-103.5 -44.5q-44 0 -73 29t-29 72q0 57 45.5 102t102.5 45z" />
<glyph unicode="&#x118;" horiz-adv-x="1144" d="M551 -242q0 120 164 242h-684l241 1366h863l-37 -209h-586l-61 -348h553l-37 -203h-553l-68 -385h625l-39 -221q-162 -101 -162 -164q0 -51 53 -51q32 0 72 10l-8 -153q-26 -14 -75 -26.5t-97 -12.5q-65 0 -114.5 37.5t-49.5 117.5z" />
<glyph unicode="&#x119;" horiz-adv-x="1069" d="M829 295l74 -143q-185 -164 -236 -218.5t-51 -97.5q0 -51 54 -51q31 0 71 10l-8 -153q-26 -14 -75 -26.5t-97 -12.5q-65 0 -114.5 37.5t-49.5 117.5q0 115 135 226q-68 -11 -114 -11q-180 0 -286.5 114t-106.5 306q0 169 78 309t214.5 221t300.5 81q166 0 256.5 -93.5 t90.5 -265.5q0 -49 -21 -190h-645q-10 -46 -10 -88q0 -91 51 -140t145 -49q78 0 149 24t195 93zM334 610l385 8q6 56 6 70q0 150 -139 150q-87 0 -153.5 -60t-98.5 -168z" />
<glyph unicode="&#x11a;" horiz-adv-x="1144" d="M1135 1366l-37 -209h-586l-61 -348h553l-37 -203h-553l-68 -385h625l-39 -221h-901l241 1366h863zM1133 1708l-416 -217l-332 217l88 123l279 -141l335 141z" />
<glyph unicode="&#x11b;" horiz-adv-x="1069" d="M829 295l74 -143q-150 -100 -256 -139.5t-227 -39.5q-180 0 -287.5 113.5t-107.5 302.5q0 172 78 313t215.5 221.5t304.5 80.5q166 0 254 -94t88 -271q0 -45 -21 -184h-645q-10 -51 -10 -88q0 -91 51 -140t145 -49q78 0 150 24.5t194 92.5zM334 610l385 8q6 49 6 70 q0 73 -36 111.5t-105 38.5q-85 0 -150 -59.5t-100 -168.5zM1036 1329l-385 -237l-307 237l98 117l248 -148l291 148z" />
<glyph unicode="&#x11c;" horiz-adv-x="1431" d="M1421 1315l-96 -199q-109 34 -175 47t-140 13q-299 0 -471 -157t-172 -429q0 -191 107.5 -297.5t299.5 -106.5q91 0 199 29l78 440h270l-104 -585q-167 -60 -266.5 -80.5t-219.5 -20.5q-306 0 -482.5 158.5t-176.5 435.5q0 198 73 360t211 275q116 92 287 145.5t354 53.5 q113 0 207 -18t217 -64zM1350 1614l-97 -131l-274 135l-334 -135l-51 131l422 213z" />
<glyph unicode="&#x11d;" horiz-adv-x="1118" d="M1090 973l-31 -174h-174q33 -54 33 -131q0 -169 -134.5 -284.5t-330.5 -115.5q-46 0 -117 15q-4 -4 -20.5 -24t-36.5 -44q-1 -2 -5 -6q-4 -6 -10 -12q0 -2 -2 -2q80 -25 139 -37q23 -3 66 -13q82 -10 242 -34q134 -20 193 -69t59 -140q0 -111 -81 -201.5t-223.5 -141.5 t-318.5 -51q-239 0 -368.5 65t-129.5 185q0 208 271 279q-73 20 -97 34.5t-24 37.5q0 20 28 52t170 177q-57 54 -81.5 109t-24.5 126q0 181 146.5 304.5t361.5 123.5q90 0 170 -28h330zM537 838q-89 0 -148 -72t-59 -180q0 -72 36.5 -114t100.5 -42q91 0 152 72t61 178 q0 73 -38.5 115.5t-104.5 42.5zM287 -27q-103 -32 -149 -72t-46 -98t69 -90t193 -32q143 0 238.5 46t95.5 115q0 28 -22 46.5t-74 31.5q-47 13 -180 31q-42 5 -125 22zM944 1198l-96 -117l-246 150l-291 -150l-57 119l385 236z" />
<glyph unicode="&#x11e;" horiz-adv-x="1431" d="M1421 1315l-96 -199q-109 34 -175 47t-140 13q-299 0 -471 -157t-172 -429q0 -191 107.5 -297.5t299.5 -106.5q91 0 199 29l78 440h270l-104 -585q-167 -60 -266.5 -80.5t-219.5 -20.5q-306 0 -482.5 158.5t-176.5 435.5q0 198 73 360t211 275q116 92 287 145.5t354 53.5 q113 0 207 -18t217 -64zM674 1782h137q5 -65 41.5 -93t118.5 -28q76 0 123 29t75 92h152q-34 -127 -130.5 -195.5t-242.5 -68.5q-129 0 -203.5 59.5t-74.5 161.5q0 11 4 43z" />
<glyph unicode="&#x11f;" horiz-adv-x="1118" d="M1090 973l-31 -174h-174q33 -54 33 -131q0 -169 -134.5 -284.5t-330.5 -115.5q-46 0 -117 15q-4 -4 -20.5 -24t-36.5 -44q-1 -2 -5 -6q-4 -6 -10 -12q0 -2 -2 -2q80 -25 139 -37q23 -3 66 -13q82 -10 242 -34q134 -20 193 -69t59 -140q0 -111 -81 -201.5t-223.5 -141.5 t-318.5 -51q-239 0 -368.5 65t-129.5 185q0 208 271 279q-73 20 -97 34.5t-24 37.5q0 20 28 52t170 177q-57 54 -81.5 109t-24.5 126q0 181 146.5 304.5t361.5 123.5q90 0 170 -28h330zM537 838q-89 0 -148 -72t-59 -180q0 -72 36.5 -114t100.5 -42q91 0 152 72t61 178 q0 73 -38.5 115.5t-104.5 42.5zM287 -27q-103 -32 -149 -72t-46 -98t69 -90t193 -32q143 0 238.5 46t95.5 115q0 28 -22 46.5t-74 31.5q-47 13 -180 31q-42 5 -125 22zM815 1393h139q-32 -126 -117.5 -195.5t-211.5 -69.5q-107 0 -177.5 60t-70.5 151q0 20 6 41l2 13h141 q-2 -8 -2 -17q0 -102 127 -102q68 0 106.5 28t57.5 91z" />
<glyph unicode="&#x120;" horiz-adv-x="1431" d="M1421 1315l-96 -199q-109 34 -175 47t-140 13q-299 0 -471 -157t-172 -429q0 -191 107.5 -297.5t299.5 -106.5q91 0 199 29l78 440h270l-104 -585q-167 -60 -266.5 -80.5t-219.5 -20.5q-306 0 -482.5 158.5t-176.5 435.5q0 198 73 360t211 275q116 92 287 145.5t354 53.5 q113 0 207 -18t217 -64zM1047 1782q44 0 75 -31.5t31 -77.5q0 -62 -46.5 -107.5t-109.5 -45.5q-46 0 -78 31t-32 75q0 61 48.5 108.5t111.5 47.5z" />
<glyph unicode="&#x121;" horiz-adv-x="1118" d="M1090 973l-31 -174h-174q33 -54 33 -131q0 -169 -134.5 -284.5t-330.5 -115.5q-46 0 -117 15q-4 -4 -20.5 -24t-36.5 -44q-1 -2 -5 -6q-4 -6 -10 -12q0 -2 -2 -2q80 -25 139 -37q23 -3 66 -13q82 -10 242 -34q134 -20 193 -69t59 -140q0 -111 -81 -201.5t-223.5 -141.5 t-318.5 -51q-239 0 -368.5 65t-129.5 185q0 208 271 279q-73 20 -97 34.5t-24 37.5q0 20 28 52t170 177q-57 54 -81.5 109t-24.5 126q0 181 146.5 304.5t361.5 123.5q90 0 170 -28h330zM537 838q-89 0 -148 -72t-59 -180q0 -72 36.5 -114t100.5 -42q91 0 152 72t61 178 q0 73 -38.5 115.5t-104.5 42.5zM287 -27q-103 -32 -149 -72t-46 -98t69 -90t193 -32q143 0 238.5 46t95.5 115q0 28 -22 46.5t-74 31.5q-47 13 -180 31q-42 5 -125 22zM649 1366q46 0 75.5 -29t29.5 -75q0 -55 -46.5 -99.5t-103.5 -44.5q-44 0 -73 29t-29 72q0 57 45 102 t102 45z" />
<glyph unicode="&#x122;" horiz-adv-x="1431" d="M1421 1315l-96 -199q-109 34 -175 47t-140 13q-299 0 -471 -157t-172 -429q0 -191 107.5 -297.5t299.5 -106.5q91 0 199 29l78 440h270l-104 -585q-167 -60 -266.5 -80.5t-219.5 -20.5q-306 0 -482.5 158.5t-176.5 435.5q0 198 73 360t211 275q116 92 287 145.5t354 53.5 q113 0 207 -18t217 -64zM842 -82l-154 -412h-156l72 412h238z" />
<glyph unicode="&#x123;" horiz-adv-x="1118" d="M1090 973l-31 -174h-174q33 -54 33 -131q0 -169 -134.5 -284.5t-330.5 -115.5q-46 0 -117 15q-4 -4 -20.5 -24t-36.5 -44q-1 -2 -5 -6q-4 -6 -10 -12q0 -2 -2 -2q80 -25 139 -37q23 -3 66 -13q82 -10 242 -34q134 -20 193 -69t59 -140q0 -111 -81 -201.5t-223.5 -141.5 t-318.5 -51q-239 0 -368.5 65t-129.5 185q0 208 271 279q-73 20 -97 34.5t-24 37.5q0 20 28 52t170 177q-57 54 -81.5 109t-24.5 126q0 181 146.5 304.5t361.5 123.5q90 0 170 -28h330zM537 838q-89 0 -148 -72t-59 -180q0 -72 36.5 -114t100.5 -42q91 0 152 72t61 178 q0 73 -38.5 115.5t-104.5 42.5zM287 -27q-103 -32 -149 -72t-46 -98t69 -90t193 -32q143 0 238.5 46t95.5 115q0 28 -22 46.5t-74 31.5q-47 13 -180 31q-42 5 -125 22zM506 1096l137 364h137l-65 -364h-209z" />
<glyph unicode="&#x124;" horiz-adv-x="1472" d="M1444 1366l-242 -1366h-276l108 616h-620l-109 -616h-274l241 1366h275l-96 -547h620l96 547h277zM1278 1614l-98 -131l-273 135l-334 -135l-51 131l422 213z" />
<glyph unicode="&#x126;" horiz-adv-x="1472" d="M1130 1157l37 209h277l-37 -209h98l-30 -172h-99l-174 -985h-276l108 616h-620l-109 -616h-274l174 985h-96l30 172h97l36 209h275l-37 -209h620zM1100 985h-621l-28 -166h620z" />
<glyph unicode="&#x127;" horiz-adv-x="1169" d="M475 1161l-57 -330q103 92 185.5 131t174.5 39q131 0 198.5 -64.5t67.5 -188.5q0 -43 -10 -99l-114 -649h-256l108 610q6 27 6 54q0 55 -23.5 80.5t-74.5 25.5q-64 0 -133.5 -36.5t-169.5 -121.5l-107 -612h-254l205 1161h-108l26 160h111l24 143h254l-24 -143h248 l-29 -160h-248z" />
<glyph unicode="&#x12a;" horiz-adv-x="581" d="M551 1366l-242 -1366h-278l241 1366h279zM702 1511h-544l30 172h545z" />
<glyph unicode="&#x12b;" horiz-adv-x="526" d="M475 973l-172 -973h-252l172 973h252zM641 1161h-532l24 160h535z" />
<glyph unicode="&#x12d;" horiz-adv-x="526" d="M475 973l-172 -973h-252l172 973h252zM571 1393h138q-31 -126 -116.5 -195.5t-211.5 -69.5q-107 0 -177.5 60t-70.5 151q0 13 4 41l4 13h140v-17q0 -102 127 -102q66 0 104.5 28t58.5 91z" />
<glyph unicode="&#x12e;" horiz-adv-x="581" d="M119 0h-86l239 1366h279l-242 -1366h-37q-137 -92 -137 -152q0 -17 13 -27.5t34 -10.5q45 0 105 28l37 -90q-126 -63 -201 -63q-61 0 -100 33.5t-39 86.5q0 54 31.5 99t103.5 96z" />
<glyph unicode="&#x12f;" horiz-adv-x="526" d="M78 0h-62l172 973h252l-172 -973h-30q-138 -92 -138 -152q0 -17 13 -27.5t34 -10.5q45 0 105 28l37 -90q-126 -63 -201 -63q-62 0 -100.5 34t-38.5 88q0 52 33.5 102.5t95.5 90.5zM391 1415q53 0 87 -34.5t34 -86.5q0 -66 -51.5 -117t-118.5 -51q-54 0 -88.5 34t-34.5 87 q0 64 53 116t119 52z" />
<glyph unicode="&#x130;" horiz-adv-x="581" d="M551 1366l-242 -1366h-278l241 1366h279zM510 1782q44 0 75 -31.5t31 -77.5q0 -62 -46 -107.5t-109 -45.5q-46 0 -78.5 31t-32.5 75q0 61 48.5 108.5t111.5 47.5z" />
<glyph unicode="&#x131;" horiz-adv-x="526" d="M475 973l-172 -973h-252l172 973h252z" />
<glyph unicode="&#x132;" horiz-adv-x="1302" d="M551 1366l-242 -1366h-278l241 1366h279zM1280 1366l-168 -958q-34 -198 -169.5 -298.5t-422.5 -138.5l-10 207q71 17 115 30t82 31t59 36t38 48t26 63.5t18 86.5l160 893h272z" />
<glyph unicode="&#x133;" horiz-adv-x="1044" d="M391 1415q53 0 87 -34.5t34 -86.5q0 -66 -51.5 -117t-118.5 -51q-54 0 -88.5 34t-34.5 87q0 64 53 116t119 52zM440 973l-172 -973h-252l172 973h252zM950 1415q51 0 86 -34t35 -85q0 -67 -52 -118.5t-120 -51.5q-54 0 -87.5 33t-33.5 86q0 66 52.5 118t119.5 52z M997 973l-176 -998q-38 -212 -159 -323t-353 -146l-20 183q102 29 156.5 66t85 99t49.5 173l165 946h252z" />
<glyph unicode="&#x136;" horiz-adv-x="1351" d="M1411 1366l-713 -635l494 -731h-330l-434 684l-121 -684h-276l241 1366h277l-105 -592l629 592h338zM604 -82l-153 -412h-156l72 412h237z" />
<glyph unicode="&#x137;" horiz-adv-x="1085" d="M1100 973l-496 -438l344 -535h-295l-297 492l-86 -492h-254l258 1464h254l-155 -889l399 398h328zM520 -82l-137 -364h-137l63 364h211z" />
<glyph unicode="&#x138;" horiz-adv-x="1085" d="M1100 973l-496 -438l344 -535h-295l-297 492l-86 -492h-254l172 973h254l-69 -398l399 398h328z" />
<glyph unicode="&#x139;" horiz-adv-x="1050" d="M938 221l-39 -221h-868l241 1366h277l-203 -1145h592zM891 1642l-490 -161l-34 133l475 213z" />
<glyph unicode="&#x13a;" horiz-adv-x="530" d="M272 0h-256l258 1464h256zM807 1673l-490 -160l-34 134l475 213z" />
<glyph unicode="&#x13b;" horiz-adv-x="1050" d="M938 221l-39 -221h-868l241 1366h277l-203 -1145h592zM539 -82l-156 -412h-156l74 412h238z" />
<glyph unicode="&#x13c;" horiz-adv-x="530" d="M272 0h-256l258 1464h256zM248 -82l-137 -364h-138l64 364h211z" />
<glyph unicode="&#x13d;" horiz-adv-x="1050" d="M938 221l-39 -221h-868l241 1366h277l-203 -1145h592zM885 1366l-156 -412h-156l74 412h238z" />
<glyph unicode="&#x13e;" horiz-adv-x="587" d="M272 0h-256l258 1464h256zM807 1464l-135 -364h-140l66 364h209z" />
<glyph unicode="&#x13f;" horiz-adv-x="1050" d="M938 221l-39 -221h-868l241 1366h277l-203 -1145h592zM696 821q47 0 77 -29t30 -75q0 -55 -46.5 -99.5t-105.5 -44.5q-43 0 -72.5 29t-29.5 72q0 57 45 102t102 45z" />
<glyph unicode="&#x140;" horiz-adv-x="659" d="M272 0h-256l258 1464h256zM625 807q46 0 75 -29.5t29 -75.5q0 -55 -46 -99t-103 -44q-44 0 -73.5 28.5t-29.5 71.5q0 57 45.5 102.5t102.5 45.5z" />
<glyph unicode="&#x141;" horiz-adv-x="1091" d="M981 221l-39 -221h-870l75 428l-118 -80v223l164 109l120 686h279l-88 -500l336 226v-222l-381 -256l-70 -393h592z" />
<glyph unicode="&#x142;" horiz-adv-x="724" d="M367 0h-256l92 512l-176 -117l32 199l179 117l133 753h256l-109 -608l178 117l-32 -199l-179 -117z" />
<glyph unicode="&#x143;" horiz-adv-x="1452" d="M1423 1366l-241 -1366h-267l-460 926l-166 -926h-258l241 1366h256l471 -940l170 940h254zM1204 1642l-489 -161l-35 133l475 213z" />
<glyph unicode="&#x144;" horiz-adv-x="1150" d="M432 973l-26 -148q117 104 192.5 141.5t169.5 37.5q121 0 185.5 -69t64.5 -200q0 -56 -10 -114l-109 -621h-252l94 537q19 110 19 125q0 110 -90 110q-66 0 -134.5 -35.5t-158.5 -118.5l-109 -618h-252l172 973h244zM963 1278l-441 -186l-47 114l428 232z" />
<glyph unicode="&#x145;" horiz-adv-x="1452" d="M1423 1366l-241 -1366h-267l-460 926l-166 -926h-258l241 1366h256l471 -940l170 940h254zM717 -82l-156 -412h-155l73 412h238z" />
<glyph unicode="&#x146;" horiz-adv-x="1150" d="M432 973l-26 -148q117 104 192.5 141.5t169.5 37.5q121 0 185.5 -69t64.5 -200q0 -56 -10 -114l-109 -621h-252l94 537q19 110 19 125q0 110 -90 110q-66 0 -134.5 -35.5t-158.5 -118.5l-109 -618h-252l172 973h244zM563 -82l-137 -364h-137l65 364h209z" />
<glyph unicode="&#x147;" horiz-adv-x="1452" d="M1423 1366l-241 -1366h-267l-460 926l-166 -926h-258l241 1366h256l471 -940l170 940h254zM1303 1708l-416 -217l-334 217l88 123l281 -141l335 141z" />
<glyph unicode="&#x148;" horiz-adv-x="1150" d="M432 973l-26 -148q117 104 192.5 141.5t169.5 37.5q121 0 185.5 -69t64.5 -200q0 -56 -10 -114l-109 -621h-252l94 537q19 110 19 125q0 110 -90 110q-66 0 -134.5 -35.5t-158.5 -118.5l-109 -618h-252l172 973h244zM1024 1329l-385 -237l-307 237l98 117l246 -148 l293 148z" />
<glyph unicode="&#x149;" horiz-adv-x="1204" d="M348 1362l-135 -363h-135l63 363h207zM485 973l-26 -148q117 104 192.5 141.5t169.5 37.5q121 0 185.5 -69t64.5 -200q0 -56 -10 -114l-109 -621h-252l95 537q18 104 18 125q0 110 -90 110q-66 0 -134.5 -35.5t-158.5 -118.5l-108 -618h-252l172 973h243z" />
<glyph unicode="&#x14a;" horiz-adv-x="1460" d="M471 948l-166 -948h-274l241 1366h273l-33 -186q293 196 541 196q146 0 233 -61q41 -31 66.5 -86t25.5 -115q0 -72 -22 -201l-142 -794q-38 -206 -167 -301t-424 -135l-9 204q99 22 155 41.5t95.5 54t57 78.5t30.5 121l113 639q16 91 16 152q0 72 -44.5 111.5 t-123.5 39.5q-185 0 -442 -176z" />
<glyph unicode="&#x14b;" horiz-adv-x="1150" d="M432 973l-26 -148q117 104 192.5 141.5t169.5 37.5q121 0 185.5 -69t64.5 -200q0 -59 -10 -114l-74 -418q-32 -204 -157.5 -319t-352.5 -150l-21 184q151 44 207.5 110t81.5 226l49 283q19 110 19 125q0 110 -90 110q-66 0 -134.5 -35.5t-158.5 -118.5l-109 -618h-252 l172 973h244z" />
<glyph unicode="&#x14c;" horiz-adv-x="1550" d="M913 1397q252 0 408 -156.5t156 -409.5q0 -174 -67 -333.5t-180 -274.5t-269.5 -183.5t-327.5 -68.5q-252 0 -406.5 162t-154.5 426q0 174 65 329.5t177 267t268 176.5t331 65zM850 1163q-96 0 -185 -46.5t-154 -125t-103.5 -186.5t-38.5 -225q0 -171 86 -270t235 -99 q99 0 189 46t155.5 124t104.5 185.5t39 226.5q0 173 -87 271.5t-241 98.5zM1239 1511h-643l29 172h645z" />
<glyph unicode="&#x14d;" horiz-adv-x="1142" d="M647 1006q182 0 292 -116t110 -308q0 -174 -76 -312.5t-211 -216.5t-305 -78q-187 0 -300.5 116t-113.5 308q0 172 78.5 311t216.5 217.5t309 78.5zM594 803q-114 0 -195.5 -113t-81.5 -270q0 -114 47.5 -175t135.5 -61q115 0 195.5 115t80.5 279q0 109 -47 167t-135 58z M1001 1161h-610l25 160h612z" />
<glyph unicode="&#x150;" horiz-adv-x="1550" d="M913 1397q252 0 408 -156.5t156 -409.5q0 -174 -67 -333.5t-180 -274.5t-269.5 -183.5t-327.5 -68.5q-252 0 -406.5 162t-154.5 426q0 174 65 329.5t177 267t268 176.5t331 65zM850 1163q-96 0 -185 -46.5t-154 -125t-103.5 -186.5t-38.5 -225q0 -171 86 -270t235 -99 q99 0 189 46t155.5 124t104.5 185.5t39 226.5q0 173 -87 271.5t-241 98.5zM1096 1698l-383 -219l-86 92l356 254zM1491 1698l-383 -219l-88 92l358 254z" />
<glyph unicode="&#x151;" horiz-adv-x="1142" d="M647 1006q182 0 292 -116t110 -308q0 -174 -76 -312.5t-211 -216.5t-305 -78q-187 0 -300.5 116t-113.5 308q0 172 78.5 311t216.5 217.5t309 78.5zM594 803q-114 0 -195.5 -113t-81.5 -270q0 -114 47.5 -175t135.5 -61q115 0 195.5 115t80.5 279q0 109 -47 167t-135 58z M1186 1280l-307 -190l-97 88l269 227zM850 1280l-307 -190l-97 88l269 227z" />
<glyph unicode="&#x152;" horiz-adv-x="1933" d="M1923 1366l-37 -211h-555l-61 -346h522l-37 -205h-522l-68 -385h594l-39 -219h-886q-350 0 -543 135q-110 77 -163.5 195t-53.5 288q0 248 121.5 420t351.5 250q227 78 594 78h782zM1051 1149h-68q-312 0 -485.5 -142.5t-173.5 -398.5q0 -96 28 -173t80 -122 q54 -46 154 -74t213 -28h86z" />
<glyph unicode="&#x153;" horiz-adv-x="1746" d="M1632 455h-645q-10 -44 -10 -88q0 -93 48.5 -141t141.5 -48q72 0 153 27t198 90l73 -143q-132 -91 -245 -131.5t-236 -40.5q-106 0 -185.5 43.5t-117.5 121.5q-90 -91 -174 -130.5t-189 -39.5q-180 0 -290.5 118.5t-110.5 309.5q0 125 45.5 236.5t123 191.5t186 126.5 t229.5 46.5q117 0 188 -39.5t127 -133.5q88 91 178.5 132t204.5 41q161 0 243.5 -91t82.5 -268q0 -71 -19 -190zM1022 610l385 8q6 41 6 70q0 150 -139 150q-87 0 -153.5 -60t-98.5 -168zM600 803q-130 0 -213 -131q-70 -110 -70 -254q0 -114 45.5 -174t133.5 -60 q120 0 200 114t80 284q0 221 -176 221z" />
<glyph unicode="&#x154;" horiz-adv-x="1259" d="M272 1366h373q117 0 151 -1.5t78 -10.5q151 -26 224 -101t73 -204q0 -144 -108 -261q-54 -58 -109 -88.5t-155 -56.5q61 -12 87.5 -39.5t55.5 -109.5l178 -494h-286l-162 479q-34 101 -142 101h-120l-103 -580h-276zM442 770h136q315 0 315 240q0 78 -56 115.5t-173 37.5 h-152zM1112 1642l-487 -161l-37 133l475 213z" />
<glyph unicode="&#x155;" horiz-adv-x="780" d="M821 973l-88 -219q-29 10 -53 10q-77 0 -152.5 -64t-171.5 -211l-86 -489h-254l172 973h246l-35 -197q83 114 162 164.5t174 50.5q43 0 86 -18zM928 1278l-441 -186l-49 114l428 232z" />
<glyph unicode="&#x156;" horiz-adv-x="1259" d="M272 1366h373q117 0 151 -1.5t78 -10.5q151 -26 224 -101t73 -204q0 -144 -108 -261q-54 -58 -109 -88.5t-155 -56.5q61 -12 87.5 -39.5t55.5 -109.5l178 -494h-286l-162 479q-34 101 -142 101h-120l-103 -580h-276zM442 770h136q315 0 315 240q0 78 -56 115.5t-173 37.5 h-152zM627 -82l-156 -412h-156l74 412h238z" />
<glyph unicode="&#x157;" horiz-adv-x="780" d="M821 973l-88 -219q-31 10 -53 10q-77 0 -152.5 -64t-171.5 -211l-86 -489h-254l172 973h246l-35 -197q83 114 161.5 164.5t172.5 50.5q45 0 88 -18zM238 -82l-138 -364h-137l64 364h211z" />
<glyph unicode="&#x158;" horiz-adv-x="1259" d="M272 1366h373q117 0 151 -1.5t78 -10.5q151 -26 224 -101t73 -204q0 -144 -108 -261q-54 -58 -109 -88.5t-155 -56.5q61 -12 87.5 -39.5t55.5 -109.5l178 -494h-286l-162 479q-34 101 -142 101h-120l-103 -580h-276zM442 770h136q315 0 315 240q0 78 -56 115.5t-173 37.5 h-152zM1126 1708l-415 -217l-334 217l88 123l280 -141l336 141z" />
<glyph unicode="&#x159;" horiz-adv-x="780" d="M821 973l-88 -219q-29 10 -53 10q-77 0 -152.5 -64t-171.5 -211l-86 -489h-254l172 973h246l-35 -197q83 114 162 164.5t174 50.5q43 0 86 -18zM897 1329l-385 -237l-307 237l98 117l248 -148l291 148z" />
<glyph unicode="&#x15a;" horiz-adv-x="1128" d="M1102 1352l-70 -201q-156 25 -239 25q-152 0 -247 -46t-95 -120q0 -52 35 -87.5t122 -74.5q180 -78 228 -103t94 -65q82 -70 82 -201q0 -141 -91.5 -257.5t-251.5 -182.5t-356 -66q-167 0 -348 47l72 216q177 -31 299 -31q165 0 269 55t104 143q0 66 -38 103t-159 86 q-204 82 -278 156t-74 194q0 130 82 233.5t228.5 161.5t330.5 58q122 0 301 -43zM1124 1642l-489 -161l-35 133l475 213z" />
<glyph unicode="&#x15b;" horiz-adv-x="901" d="M823 973l-61 -174q-124 22 -199 22q-92 0 -145 -26t-53 -70q0 -35 35 -63t128 -66q124 -49 179 -112.5t55 -155.5q0 -163 -146.5 -257t-402.5 -94q-123 0 -264 35l65 183q129 -21 211 -21q123 0 189.5 30t66.5 85q0 37 -24 61.5t-86 52.5q-101 45 -140 68t-73 57 q-66 66 -66 158q0 143 133.5 229t354.5 86q110 0 243 -28zM889 1278l-440 -186l-50 114l428 232z" />
<glyph unicode="&#x15c;" horiz-adv-x="1128" d="M1102 1352l-70 -201q-156 25 -239 25q-152 0 -247 -46t-95 -120q0 -52 35 -87.5t122 -74.5q180 -78 228 -103t94 -65q82 -70 82 -201q0 -141 -91.5 -257.5t-251.5 -182.5t-356 -66q-167 0 -348 47l72 216q177 -31 299 -31q165 0 269 55t104 143q0 66 -38 103t-159 86 q-204 82 -278 156t-74 194q0 130 82 233.5t228.5 161.5t330.5 58q122 0 301 -43zM1169 1614l-96 -131l-274 135l-334 -135l-51 131l422 213z" />
<glyph unicode="&#x15d;" horiz-adv-x="901" d="M823 973l-61 -174q-124 22 -199 22q-92 0 -145 -26t-53 -70q0 -35 35 -63t128 -66q124 -49 179 -112.5t55 -155.5q0 -163 -146.5 -257t-402.5 -94q-123 0 -264 35l65 183q129 -21 211 -21q123 0 189.5 30t66.5 85q0 37 -24 61.5t-86 52.5q-101 45 -140 68t-73 57 q-66 66 -66 158q0 143 133.5 229t354.5 86q110 0 243 -28zM940 1198l-98 -117l-244 150l-293 -150l-57 119l385 236z" />
<glyph unicode="&#x15e;" horiz-adv-x="1128" d="M227 -205l62 178q-164 5 -324 47l72 216q177 -31 299 -31q165 0 269 55t104 143q0 66 -38 103t-159 86q-204 82 -278 156t-74 194q0 130 82 233.5t228.5 161.5t330.5 58q122 0 301 -43l-70 -201q-156 25 -239 25q-152 0 -247 -46t-95 -120q0 -51 35.5 -88t121.5 -74 q180 -78 228 -103t94 -65q82 -70 82 -201q0 -192 -159.5 -328.5t-420.5 -170.5l-29 -82h7l20 -2q44 -1 72 -31t28 -74q0 -94 -92.5 -149.5t-259.5 -61.5l21 113q170 3 170 67q0 39 -82 39q-23 0 -60 -4z" />
<glyph unicode="&#x15f;" horiz-adv-x="901" d="M264 -23h-49q-125 0 -266 35l65 183q129 -21 211 -21q123 0 189.5 30t66.5 85q0 37 -24 61.5t-86 52.5q-101 45 -140 68t-73 57q-66 66 -66 158q0 143 133.5 229t354.5 86q110 0 243 -28l-61 -174q-124 22 -199 22q-92 0 -145 -26t-53 -70q0 -35 35 -63t128 -66 q124 -49 179 -112.5t55 -155.5q0 -268 -371 -336l-29 -78h9q47 0 75.5 -25.5t28.5 -66.5q0 -83 -80.5 -131t-226.5 -53l16 98q150 3 150 59q0 33 -72 33q-20 0 -51 -4z" />
<glyph unicode="&#x160;" horiz-adv-x="1144" d="M1118 1708l-416 -217l-333 217l88 123l280 -141l336 141zM1102 1352l-70 -201q-144 25 -241 25q-155 0 -247.5 -45.5t-92.5 -122.5q0 -36 22.5 -68.5t61.5 -54.5q14 -8 112 -51q130 -56 221 -109q144 -81 144 -248q0 -141 -91.5 -257t-251.5 -181.5t-356 -65.5 q-179 0 -348 47l72 216q171 -31 305 -31q135 0 244 47q123 54 123 158q0 73 -66 118q-41 28 -143 68q-192 78 -266 154t-74 196q0 193 179 321t449 128q130 0 314 -43z" />
<glyph unicode="&#x161;" horiz-adv-x="985" d="M907 1323l-387 -238l-307 238l100 117l244 -148l293 148zM823 973l-61 -174q-116 22 -205 22q-90 0 -141 -24.5t-51 -67.5q0 -64 131 -119q28 -12 54 -23.5t36 -15.5q176 -84 176 -252q0 -157 -147 -249.5t-396 -92.5q-141 0 -270 35l65 183q120 -21 222 -21 q245 0 245 113q0 35 -19 57t-71 47q-24 10 -52 24.5t-34 16.5q-213 101 -213 260q0 138 133 223.5t348 85.5q102 0 250 -28z" />
<glyph unicode="&#x162;" horiz-adv-x="1165" d="M1231 1157h-422l-205 -1157h-276l204 1157h-430l37 209h1129zM584 -82l-156 -412h-156l74 412h238z" />
<glyph unicode="&#x163;" horiz-adv-x="735" d="M745 973l-28 -168h-260l-80 -453q-12 -66 -12 -90q0 -44 28.5 -65t91.5 -21q42 0 121 12l-31 -178q-127 -33 -221 -33q-127 0 -188.5 56t-61.5 170q0 25 9 84l92 518h-176l28 168h176l54 299h252l-54 -299h260zM369 -82l-138 -364h-137l66 364h209z" />
<glyph unicode="&#x164;" horiz-adv-x="1165" d="M1231 1157h-422l-205 -1157h-276l204 1157h-430l37 209h1129zM1137 1708l-416 -217l-334 217l88 123l281 -141l336 141z" />
<glyph unicode="&#x165;" horiz-adv-x="735" d="M745 973l-28 -168h-260l-80 -453q-12 -66 -12 -90q0 -44 28.5 -65t91.5 -21q42 0 121 12l-31 -178q-127 -33 -221 -33q-127 0 -188.5 56t-61.5 170q0 25 9 84l92 518h-176l28 168h176l54 299h252l-54 -299h260zM870 1464l-135 -364h-139l66 364h208z" />
<glyph unicode="&#x166;" horiz-adv-x="1165" d="M496 944l36 213h-430l37 209h1129l-37 -209h-422l-37 -213h180l-30 -172h-181l-135 -772h-276l135 772h-189l31 172h189z" />
<glyph unicode="&#x167;" horiz-adv-x="735" d="M440 717h258l-28 -168h-258l-35 -197q-12 -66 -12 -90q0 -44 28.5 -65t91.5 -21q39 0 121 12l-31 -178q-127 -33 -221 -33q-127 0 -188.5 56t-61.5 170q0 23 9 84l47 262h-176l28 168h176l17 88h-176l28 168h176l54 299h252l-54 -299h260l-28 -168h-260z" />
<glyph unicode="&#x169;" horiz-adv-x="1150" d="M1065 973l-170 -973h-244l25 147q-119 -95 -213 -136.5t-193 -41.5q-213 0 -213 221q0 58 17 162l108 621h252l-94 -537q-18 -102 -18 -127q0 -108 90 -108q66 0 134 35.5t159 117.5l108 619h252zM989 1393l58 -101q-105 -80 -177.5 -115.5t-130.5 -35.5q-45 0 -84 26 l-37 23q-43 24 -81 24q-54 0 -168 -79l-58 104q180 141 289 141q50 0 127 -43q45 -26 80 -26q61 0 182 82z" />
<glyph unicode="&#x16a;" horiz-adv-x="1462" d="M1442 1366l-137 -778q-29 -166 -81 -271t-141 -178q-96 -80 -225.5 -123t-275.5 -43q-243 0 -358 96t-115 298q0 88 22 217l135 782h279l-137 -782q-19 -108 -19 -164q0 -114 59.5 -165.5t190.5 -51.5q177 0 277 95t137 296l137 772h252zM1208 1511h-645l31 172h645z" />
<glyph unicode="&#x16b;" horiz-adv-x="1150" d="M1065 973l-170 -973h-244l25 147q-119 -95 -213 -136.5t-193 -41.5q-213 0 -213 221q0 58 17 162l108 621h252l-94 -537q-18 -102 -18 -127q0 -108 90 -108q66 0 134 35.5t159 117.5l108 619h252zM967 1161h-611l27 160h610z" />
<glyph unicode="&#x16d;" horiz-adv-x="1150" d="M1065 973l-170 -973h-244l25 147q-119 -95 -213 -136.5t-193 -41.5q-213 0 -213 221q0 58 17 162l108 621h252l-94 -537q-18 -102 -18 -127q0 -108 90 -108q66 0 134 35.5t159 117.5l108 619h252zM844 1393h139q-31 -126 -117.5 -195.5t-212.5 -69.5q-107 0 -177 60 t-70 151q0 20 6 41l2 13h141q-2 -8 -2 -17q0 -102 127 -102q68 0 106.5 28t57.5 91z" />
<glyph unicode="&#x16e;" horiz-adv-x="1462" d="M1442 1366l-137 -778q-29 -166 -81 -271t-141 -178q-96 -80 -225.5 -123t-275.5 -43q-243 0 -358 96t-115 298q0 88 22 217l135 782h279l-137 -782q-19 -108 -19 -164q0 -114 59.5 -165.5t190.5 -51.5q177 0 277 95t137 296l137 772h252zM952 1853q75 0 123.5 -46 t48.5 -117q0 -92 -73 -165t-166 -73q-73 0 -121.5 46.5t-48.5 117.5q0 92 72.5 164.5t164.5 72.5zM938 1751q-47 0 -83 -34.5t-36 -80.5q0 -35 23.5 -59.5t58.5 -24.5q46 0 82.5 36.5t36.5 80.5q0 37 -22.5 59.5t-59.5 22.5z" />
<glyph unicode="&#x16f;" horiz-adv-x="1150" d="M1065 973l-170 -973h-244l25 147q-119 -95 -213 -136.5t-193 -41.5q-213 0 -213 221q0 58 17 162l108 621h252l-94 -537q-18 -102 -18 -127q0 -108 90 -108q66 0 134 35.5t159 117.5l108 619h252zM723 1444q66 0 110 -43t44 -107q0 -87 -66 -151t-156 -64 q-65 0 -107 43.5t-42 110.5q0 83 65.5 147t151.5 64zM705 1348q-40 0 -71.5 -31.5t-31.5 -69.5q0 -31 21 -51t53 -20q40 0 70 30t30 70q0 30 -20.5 51t-50.5 21z" />
<glyph unicode="&#x170;" horiz-adv-x="1462" d="M1442 1366l-137 -778q-29 -166 -81 -271t-141 -178q-96 -80 -225.5 -123t-275.5 -43q-243 0 -358 96t-115 298q0 88 22 217l135 782h279l-137 -782q-19 -108 -19 -164q0 -114 59.5 -165.5t190.5 -51.5q177 0 277 95t137 296l137 772h252zM1047 1698l-383 -219l-86 92 l356 254zM1442 1698l-383 -219l-88 92l358 254z" />
<glyph unicode="&#x171;" horiz-adv-x="1150" d="M1065 973l-170 -973h-244l25 147q-119 -95 -213 -136.5t-193 -41.5q-213 0 -213 221q0 58 17 162l108 621h252l-94 -537q-18 -102 -18 -127q0 -108 90 -108q66 0 134 35.5t159 117.5l108 619h252zM1126 1280l-307 -190l-96 88l268 227zM791 1280l-308 -190l-96 88 l268 227z" />
<glyph unicode="&#x172;" horiz-adv-x="1462" d="M911 -162l37 -90q-126 -63 -200 -63q-61 0 -100.5 33.5t-39.5 86.5q0 97 111 179q-67 -11 -135 -11q-244 0 -359.5 95.5t-115.5 298.5q0 88 22 217l135 782h279l-137 -782q-19 -108 -19 -164q0 -114 59.5 -165.5t190.5 -51.5q177 0 277 95t137 296l137 772h252l-137 -778 q-19 -99 -39 -163.5t-48.5 -121.5t-75.5 -105.5t-106.5 -96t-156.5 -111.5q-119 -84 -119 -142q0 -17 13 -27.5t34 -10.5q44 0 104 28z" />
<glyph unicode="&#x173;" horiz-adv-x="1150" d="M696 0h-45l25 147q-119 -95 -213 -136.5t-193 -41.5q-213 0 -213 221q0 58 17 162l108 621h252l-94 -537q-18 -102 -18 -127q0 -108 90 -108q66 0 134 35.5t159 117.5l108 619h252l-170 -973h-39q-137 -90 -137 -152q0 -17 13 -27.5t34 -10.5q44 0 104 28l39 -90 q-129 -63 -202 -63q-62 0 -101 34t-39 88q0 52 33.5 102.5t95.5 90.5z" />
<glyph unicode="&#x174;" horiz-adv-x="2004" d="M2116 1366l-639 -1366h-287l-137 967l-486 -967h-276l-160 1366h266l105 -1010l502 1010h243l150 -1010l450 1010h269zM1544 1614l-98 -131l-272 135l-336 -135l-50 131l422 213z" />
<glyph unicode="&#x176;" horiz-adv-x="1269" d="M1382 1366l-622 -768l-107 -598h-274l106 598l-354 768h305l209 -547l412 547h325zM1155 1614l-96 -131l-275 135l-333 -135l-52 131l422 213z" />
<glyph unicode="&#x177;" horiz-adv-x="1069" d="M1106 973l-649 -1129q-116 -200 -210.5 -271t-246.5 -71q-61 0 -172 27l68 184q59 -10 102 -10q72 0 114.5 33t110.5 141l58 92l-215 1004h266l133 -725l381 725h260zM956 1198l-96 -117l-246 150l-290 -150l-58 119l385 236z" />
<glyph unicode="&#x178;" horiz-adv-x="1269" d="M1382 1366l-622 -768l-107 -598h-274l106 598l-354 768h305l209 -547l412 547h325zM1090 1782q45 0 75.5 -31.5t30.5 -77.5q0 -61 -47 -107t-109 -46q-51 0 -81.5 29.5t-30.5 76.5q0 62 49 109t113 47zM571 1782q46 0 77.5 -32t31.5 -79q0 -58 -48 -104.5t-108 -46.5 q-50 0 -80 30t-30 80q0 60 47 106t110 46z" />
<glyph unicode="&#x179;" horiz-adv-x="1167" d="M1200 1366l-33 -184l-848 -959h703l-39 -223h-1040l37 205l847 954h-669l37 207h1005zM1073 1642l-489 -161l-35 133l475 213z" />
<glyph unicode="&#x17a;" horiz-adv-x="970" d="M938 973l-31 -172l-585 -588h491l-37 -213h-821l33 188l579 582h-461l37 203h795zM893 1278l-440 -186l-50 114l428 232z" />
<glyph unicode="&#x17b;" horiz-adv-x="1167" d="M1200 1366l-33 -184l-848 -959h703l-39 -223h-1040l37 205l847 954h-669l37 207h1005zM760 1782q52 0 86.5 -34t34.5 -87q0 -67 -51.5 -117.5t-120.5 -50.5q-53 0 -87 33t-34 84q0 68 52 120t120 52z" />
<glyph unicode="&#x17c;" horiz-adv-x="970" d="M938 973l-31 -172l-585 -588h491l-37 -213h-821l33 188l579 582h-461l37 203h795zM596 1415q52 0 86.5 -34.5t34.5 -86.5q0 -67 -51.5 -117.5t-120.5 -50.5q-53 0 -87 33t-34 84q0 67 52 119.5t120 52.5z" />
<glyph unicode="&#x17d;" horiz-adv-x="1167" d="M1200 1366l-33 -184l-848 -959h703l-39 -223h-1040l37 205l847 954h-669l37 207h1005zM393 1704l96 131l275 -135l332 135l51 -131l-420 -213z" />
<glyph unicode="&#x17e;" horiz-adv-x="970" d="M938 973l-31 -172l-585 -588h491l-37 -213h-821l33 188l579 582h-461l37 203h795zM934 1323l-385 -238l-309 238l100 117l246 -150l291 150z" />
<glyph unicode="&#x192;" d="M1241 1403l-86 -186q-55 12 -96 12q-185 0 -256 -195l-23 -61h246l-65 -191h-246l-258 -749q-58 -171 -183.5 -292t-300.5 -175l-63 190q124 61 189 131.5t106 188.5l244 706h-177l66 191h180l37 102q52 142 115 211q131 146 377 146q103 0 194 -29z" />
<glyph unicode="&#x1cd;" horiz-adv-x="1445" d="M1315 0h-281l-86 401h-545l-227 -401h-287l807 1366h289zM907 596l-110 506l-283 -506h393zM1270 1708l-416 -217l-334 217l88 123l281 -141l336 141z" />
<glyph unicode="&#x1ce;" horiz-adv-x="1021" d="M891 172l-8 -154q-112 -43 -191 -43q-75 0 -116 32t-41 91v25q-100 -75 -181.5 -109t-163.5 -34q-88 0 -145 62t-57 157q0 77 39.5 145t111.5 115q82 56 176 89.5t289 76.5q8 57 8 75q0 95 -90 95q-119 0 -336 -117l-59 153q127 78 261 124t239 46q233 0 233 -231 q0 -65 -12 -135l-66 -367q-4 -24 -4 -35q0 -67 64 -67q14 0 49 6zM578 471l-29 -8q-162 -38 -230.5 -84t-68.5 -115q0 -38 20 -62t52 -24q88 0 223 109zM999 1329l-385 -237l-309 237l101 117l245 -148l291 148z" />
<glyph unicode="&#x1d3;" horiz-adv-x="1462" d="M1442 1366l-137 -778q-29 -166 -81 -271t-141 -178q-96 -80 -225.5 -123t-275.5 -43q-243 0 -358 96t-115 298q0 88 22 217l135 782h279l-137 -782q-19 -108 -19 -164q0 -114 59.5 -165.5t190.5 -51.5q177 0 277 95t137 296l137 772h252zM1305 1708l-416 -217l-334 217 l88 123l281 -141l336 141z" />
<glyph unicode="&#x1d4;" horiz-adv-x="1150" d="M1065 973l-170 -973h-244l25 147q-119 -95 -213 -136.5t-193 -41.5q-213 0 -213 221q0 58 17 162l108 621h252l-94 -537q-18 -102 -18 -127q0 -108 90 -108q66 0 134 35.5t159 117.5l108 619h252zM1022 1329l-385 -237l-309 237l100 117l246 -148l293 148z" />
<glyph unicode="&#x1e6;" horiz-adv-x="1431" d="M1421 1315l-96 -199q-109 34 -175 47t-140 13q-299 0 -471 -157t-172 -429q0 -191 107.5 -297.5t299.5 -106.5q91 0 199 29l78 440h270l-104 -585q-167 -60 -266.5 -80.5t-219.5 -20.5q-306 0 -482.5 158.5t-176.5 435.5q0 198 73 360t211 275q116 92 287 145.5t354 53.5 q113 0 207 -18t217 -64zM1360 1708l-416 -217l-334 217l88 123l281 -141l336 141z" />
<glyph unicode="&#x1e7;" horiz-adv-x="1118" d="M1090 973l-31 -174h-174q33 -54 33 -131q0 -169 -134.5 -284.5t-330.5 -115.5q-46 0 -117 15q-4 -4 -20.5 -24t-36.5 -44q-1 -2 -5 -6q-4 -6 -10 -12q0 -2 -2 -2q80 -25 139 -37q23 -3 66 -13q82 -10 242 -34q134 -20 193 -69t59 -140q0 -111 -81 -201.5t-223.5 -141.5 t-318.5 -51q-239 0 -368.5 65t-129.5 185q0 208 271 279q-73 20 -97 34.5t-24 37.5q0 20 28 52t170 177q-57 54 -81.5 109t-24.5 126q0 181 146.5 304.5t361.5 123.5q90 0 170 -28h330zM537 838q-89 0 -148 -72t-59 -180q0 -72 36.5 -114t100.5 -42q91 0 152 72t61 178 q0 73 -38.5 115.5t-104.5 42.5zM287 -27q-103 -32 -149 -72t-46 -98t69 -90t193 -32q143 0 238.5 46t95.5 115q0 28 -22 46.5t-74 31.5q-47 13 -180 31q-42 5 -125 22zM973 1329l-385 -237l-309 237l100 117l246 -148l290 148z" />
<glyph unicode="&#x218;" horiz-adv-x="1128" d="M1102 1352l-70 -201q-156 25 -239 25q-152 0 -247 -46t-95 -120q0 -52 35 -87.5t122 -74.5q180 -78 228 -103t94 -65q82 -70 82 -201q0 -141 -91.5 -257.5t-251.5 -182.5t-356 -66q-167 0 -348 47l72 216q177 -31 299 -31q165 0 269 55t104 143q0 66 -38 103t-159 86 q-204 82 -278 156t-74 194q0 130 82 233.5t228.5 161.5t330.5 58q122 0 301 -43zM539 -82l-156 -412h-156l74 412h238z" />
<glyph unicode="&#x219;" horiz-adv-x="901" d="M823 973l-61 -174q-124 22 -199 22q-92 0 -145 -26t-53 -70q0 -35 35 -63t128 -66q124 -49 179 -112.5t55 -155.5q0 -163 -146.5 -257t-402.5 -94q-123 0 -264 35l65 183q129 -21 211 -21q123 0 189.5 30t66.5 85q0 37 -24 61.5t-86 52.5q-101 45 -140 68t-73 57 q-66 66 -66 158q0 143 133.5 229t354.5 86q110 0 243 -28zM432 -82l-137 -364h-137l63 364h211z" />
<glyph unicode="&#x21a;" horiz-adv-x="1165" d="M1231 1157h-422l-205 -1157h-276l204 1157h-430l37 209h1129zM584 -82l-156 -412h-156l74 412h238z" />
<glyph unicode="&#x21b;" horiz-adv-x="735" d="M745 973l-28 -168h-260l-80 -453q-12 -66 -12 -90q0 -44 28.5 -65t91.5 -21q42 0 121 12l-31 -178q-127 -33 -221 -33q-127 0 -188.5 56t-61.5 170q0 25 9 84l92 518h-176l28 168h176l54 299h252l-54 -299h260zM369 -82l-138 -364h-137l66 364h209z" />
<glyph unicode="&#x2c6;" horiz-adv-x="737" d="M713 1198l-99 -117l-243 150l-293 -150l-58 119l386 236z" />
<glyph unicode="&#x2c7;" horiz-adv-x="1024" d="M694 1329l-385 -237l-309 237l100 117l246 -148l291 148z" />
<glyph unicode="&#x2c9;" horiz-adv-x="737" d="M633 1155h-559l28 172h560z" />
<glyph unicode="&#x2d8;" horiz-adv-x="569" d="M453 1393h139q-34 -128 -119 -196.5t-211 -68.5q-107 0 -177.5 59t-70.5 150q0 11 4 43l5 13h141v-2l-2 -13v-2q0 -102 123 -102q67 0 106.5 28t61.5 91z" />
<glyph unicode="&#x2d9;" horiz-adv-x="1024" d="M389 1366q46 0 75.5 -29t29.5 -73q0 -57 -45.5 -101.5t-104.5 -44.5q-43 0 -72.5 29t-29.5 72q0 57 45 102t102 45z" />
<glyph unicode="&#x2da;" horiz-adv-x="366" d="M217 1444q66 0 110 -43.5t44 -108.5q0 -85 -66.5 -149t-152.5 -64q-67 0 -110.5 43t-43.5 109q0 86 65.5 149.5t153.5 63.5zM197 1348q-40 0 -71.5 -30.5t-31.5 -70.5q0 -31 22 -51t54 -20q41 0 70.5 29t29.5 69q0 32 -20.5 53t-52.5 21z" />
<glyph unicode="&#x2db;" horiz-adv-x="1024" d="M137 -242q0 38 17 76t40 66.5t59.5 60.5t63.5 50.5t65.5 44t51.5 34.5l84 -90q-162 -101 -162 -164q0 -51 54 -51q31 0 71 10l-8 -153q-26 -14 -75 -26.5t-97 -12.5q-65 0 -114.5 37.5t-49.5 117.5z" />
<glyph unicode="&#x2dc;" horiz-adv-x="737" d="M678 1393l57 -101q-105 -80 -176.5 -115.5t-128.5 -35.5q-44 0 -86 26l-37 23q-37 24 -80 24q-54 0 -168 -79l-59 104q183 141 289 141q51 0 127 -43q51 -26 80 -26q58 0 182 82z" />
<glyph unicode="&#x2dd;" horiz-adv-x="1024" d="M741 1280l-307 -190l-96 88l268 227zM406 1280l-308 -190l-96 88l268 227z" />
<glyph unicode="&#x1e84;" horiz-adv-x="2004" d="M2116 1366l-639 -1366h-287l-137 967l-486 -967h-276l-160 1366h266l105 -1010l502 1010h243l150 -1010l450 1010h269zM1456 1782q46 0 77.5 -31.5t31.5 -77.5q0 -62 -46.5 -107.5t-109.5 -45.5q-49 0 -80 29.5t-31 76.5q0 63 47.5 109.5t110.5 46.5zM940 1782 q44 0 75.5 -31.5t31.5 -77.5q0 -62 -46.5 -107.5t-109.5 -45.5q-46 0 -78.5 31t-32.5 75q0 61 48.5 108.5t111.5 47.5z" />
<glyph unicode="&#x2000;" horiz-adv-x="938" />
<glyph unicode="&#x2001;" horiz-adv-x="1876" />
<glyph unicode="&#x2002;" horiz-adv-x="938" />
<glyph unicode="&#x2003;" horiz-adv-x="1876" />
<glyph unicode="&#x2004;" horiz-adv-x="625" />
<glyph unicode="&#x2005;" horiz-adv-x="469" />
<glyph unicode="&#x2006;" horiz-adv-x="312" />
<glyph unicode="&#x2007;" horiz-adv-x="312" />
<glyph unicode="&#x2008;" horiz-adv-x="234" />
<glyph unicode="&#x2009;" horiz-adv-x="375" />
<glyph unicode="&#x200a;" horiz-adv-x="104" />
<glyph unicode="&#x2010;" horiz-adv-x="643" d="M588 649l-37 -200h-531l37 200h531z" />
<glyph unicode="&#x2011;" horiz-adv-x="643" d="M588 649l-37 -200h-531l37 200h531z" />
<glyph unicode="&#x2012;" horiz-adv-x="1103" d="M1083 633l-28 -168h-994l29 168h993z" />
<glyph unicode="&#x2013;" horiz-adv-x="1103" d="M1083 633l-28 -168h-994l29 168h993z" />
<glyph unicode="&#x2014;" horiz-adv-x="2048" d="M2030 633l-29 -168h-1985l29 168h1985z" />
<glyph unicode="&#x2015;" horiz-adv-x="2048" d="M2030 633l-29 -168h-1985l29 168h1985z" />
<glyph unicode="&#x2017;" horiz-adv-x="1024" d="M0 -119h1024v-96h-1024v96zM0 -356h1024v-99h-1024v99z" />
<glyph unicode="&#x2018;" horiz-adv-x="573" d="M449 1397l-87 -494h-258l177 494h168z" />
<glyph unicode="&#x2019;" horiz-adv-x="573" d="M467 1397l-174 -494h-168l86 494h256z" />
<glyph unicode="&#x201a;" horiz-adv-x="573" d="M467 260l-174 -493h-168l86 493h256z" />
<glyph unicode="&#x201c;" horiz-adv-x="929" d="M803 1397l-82 -455h-256l170 455h168zM444 1397l-82 -455h-256l173 455h165z" />
<glyph unicode="&#x201d;" horiz-adv-x="929" d="M821 1397l-170 -455h-166l82 455h254zM463 1397l-170 -455h-166l82 455h254z" />
<glyph unicode="&#x201e;" horiz-adv-x="929" d="M821 260l-170 -455h-166l82 455h254zM463 260l-170 -455h-166l82 455h254z" />
<glyph unicode="&#x2020;" d="M1108 821l-35 -194h-379l-164 -863h-231l135 863h-383l35 194h381l84 545h283l-105 -545h379z" />
<glyph unicode="&#x2021;" d="M1143 983l-33 -190h-383l-49 -261h385l-33 -188h-387l-111 -580h-229l90 580h-387l33 188h385l43 261h-381l33 190h377l61 383h283l-74 -383h377z" />
<glyph unicode="&#x2022;" d="M588 977q121 0 202.5 -81.5t81.5 -201.5q0 -118 -82.5 -201t-199.5 -83q-120 0 -202.5 81.5t-82.5 200.5q0 118 83 201.5t200 83.5z" />
<glyph unicode="&#x2026;" horiz-adv-x="2048" d="M1733 289q57 0 93 -35t36 -90q0 -71 -56 -124.5t-129 -53.5q-54 0 -89.5 34t-35.5 86q0 72 54.5 127.5t126.5 55.5zM1051 289q57 0 93 -35t36 -90q0 -71 -56 -124.5t-129 -53.5q-54 0 -89.5 34t-35.5 86q0 72 54.5 127.5t126.5 55.5zM369 289q57 0 93 -35t36 -90 q0 -71 -56 -124.5t-129 -53.5q-54 0 -89.5 34t-35.5 86q0 72 54.5 127.5t126.5 55.5z" />
<glyph unicode="&#x202f;" horiz-adv-x="375" />
<glyph unicode="&#x2030;" horiz-adv-x="2209" d="M1845 705q121 0 193.5 -78t72.5 -209q0 -183 -119 -313t-286 -130q-126 0 -198 76.5t-72 208.5q0 120 55 222.5t149 162.5t205 60zM506 1401q124 0 196 -76t72 -207q0 -151 -94 -280q-123 -166 -313 -166q-126 0 -198.5 76t-72.5 208q0 120 55 222.5t149.5 162.5 t205.5 60zM1376 1323l-1177 -1354l-99 78l1178 1356zM1114 705q123 0 196.5 -78.5t73.5 -210.5q0 -181 -120 -311t-287 -130q-126 0 -198 76.5t-72 208.5q0 183 120 314t287 131zM1810 549q-76 0 -130 -78t-54 -188q0 -72 30 -111t85 -39q121 0 168 158q16 59 16 112 q0 69 -30 107.5t-85 38.5zM473 1247q-79 0 -131.5 -77t-52.5 -193q0 -148 110 -148q128 0 172 158q17 59 17 113q0 147 -115 147zM1081 549q-76 0 -130 -78t-54 -188q0 -72 30 -111t85 -39q121 0 168 158q16 59 16 112q0 69 -30 107.5t-85 38.5z" />
<glyph unicode="&#x2039;" horiz-adv-x="565" d="M524 799l-227 -293l121 -307l-156 -82l-201 389l336 377z" />
<glyph unicode="&#x203a;" horiz-adv-x="565" d="M506 502l-338 -385l-129 84l229 301l-123 299l158 82z" />
<glyph unicode="&#x203e;" horiz-adv-x="737" d="M633 1155h-559l28 172h560z" />
<glyph unicode="&#x2044;" horiz-adv-x="1048" d="M1161 1323l-1177 -1354l-97 78l1176 1356z" />
<glyph unicode="&#x205f;" horiz-adv-x="469" />
<glyph unicode="&#x20a3;" horiz-adv-x="1447" d="M1116 1366l-37 -207h-567l-63 -356h401l-35 -205h-401l-107 -598h-276l241 1366h844zM1501 803l-82 -203q-31 8 -49 8q-71 0 -141 -59.5t-160 -196.5l-61 -352h-236l141 803h230l-33 -182q77 104 150 151t159 47q46 0 82 -16z" />
<glyph unicode="&#x20a4;" horiz-adv-x="1216" d="M115 864h223q81 222 158 322q163 213 458 213q77 0 140 -12t155 -44l-100 -194q-122 35 -203 35q-121 0 -198 -73t-140 -247h496l-35 -200h-526l-37 -115h541l-35 -201h-580q-25 -47 -48.5 -75t-61.5 -56h718l-36 -217h-1045l-16 193q89 9 137 42t86 113h-143l34 201h181 l34 115h-192z" />
<glyph unicode="&#x20a7;" horiz-adv-x="2289" d="M272 1366h373q160 0 245 -15t154 -55q127 -74 127 -258q0 -223 -153.5 -343t-439.5 -120h-168l-103 -575h-276zM442 770h136q315 0 315 240q0 78 -56 115.5t-173 37.5h-152zM2275 752l-47 -136q-95 19 -153 19q-70 0 -112 -20t-42 -54q0 -28 27.5 -49.5t99.5 -50.5 q97 -41 138.5 -89.5t41.5 -121.5q0 -127 -114 -200t-314 -73q-89 0 -205 27l52 143q93 -16 163 -16q95 0 147 23.5t52 66.5q0 27 -19 46.5t-67 41.5q-126 57 -170.5 102t-44.5 117q0 112 103.5 179t275.5 67q75 0 188 -22zM1667 752l-22 -131h-203l-62 -353q-10 -51 -10 -69 q0 -35 22.5 -51.5t71.5 -16.5q24 0 95 10l-25 -139q-103 -25 -172 -25q-99 0 -147 43.5t-48 133.5q0 27 7 63l71 404h-135l20 131h138l43 233h194l-41 -233h203z" />
<glyph unicode="&#x20ac;" d="M948 279l96 -146q-206 -162 -458 -162q-221 0 -338 122.5t-123 359.5h-195l31 174h178v2v2v6q0 47 21 104v4l4 9l2 12h-180l32 180h207q98 218 252 330.5t352 112.5q117 0 212.5 -36.5t191.5 -119.5l-148 -152q-74 56 -136.5 80.5t-129.5 24.5q-99 0 -173.5 -56.5 t-143.5 -183.5h479l-33 -180h-512l-2 -12q-4 -16 -12 -45q-3 -19 -6 -52q-2 -12 -2 -18l-4 -12h514l-31 -174h-496q12 -281 234 -281q70 0 143.5 25t173.5 82z" />
<glyph unicode="&#x2101;" horiz-adv-x="1865" d="M1640 1444l-960 -1573l-121 57l961 1573zM840 547h-170l-52 239h-325l-137 -239h-172l483 819h174zM594 903l-66 305l-170 -305h236zM1819 813l-43 -121q-92 15 -144 15q-91 0 -148 -28.5t-57 -72.5q0 -30 21 -51.5t74 -44.5q101 -44 132.5 -60t59.5 -40q49 -43 49 -121 q0 -129 -119.5 -216t-297.5 -87q-93 0 -209 26l43 131q114 -18 178 -18q98 0 160.5 33.5t62.5 85.5q0 40 -22.5 61.5t-94.5 50.5q-122 49 -166.5 94t-44.5 117q0 119 108 195t277 76q67 0 181 -25z" />
<glyph unicode="&#x2113;" horiz-adv-x="1024" d="M510 551q-46 -242 -57 -308t-11 -118q0 -51 37 -51q53 0 105 110q15 37 39 37q26 0 26 -31q0 -47 -53 -122q-75 -97 -156 -97q-64 0 -100.5 48t-36.5 133q0 66 21 260q-83 -78 -101 -78q-10 0 -19 10.5t-9 22.5q0 19 41 55q12 11 48.5 48.5t53.5 57.5q73 385 168 615 q96 246 235 246q58 0 93.5 -45.5t35.5 -120.5q0 -82 -33 -183.5t-92 -199.5q-67 -113 -235 -289zM532 682q122 136 189 274.5t67 257.5q0 40 -13 65.5t-34 25.5q-23 0 -46.5 -25.5t-37.5 -65.5q-63 -177 -125 -532z" />
<glyph unicode="&#x2122;" horiz-adv-x="1642" d="M1567 1366l-25 -776h-168l23 497l-269 -497h-143l-96 497l-148 -497h-159l247 776h179l102 -530l283 530h174zM737 1366l-24 -129h-240l-115 -647h-172l115 647h-246l25 129h657z" />
<glyph unicode="&#x2126;" horiz-adv-x="1572" d="M1507 0h-598l37 317q57 38 82 60q180 154 180 420q0 142 -56 261.5t-153 188t-213 68.5q-85 0 -162.5 -40.5t-133 -109.5t-88.5 -165.5t-33 -202.5q0 -269 186 -426q13 -11 76 -54l37 -317h-598v313h49q13 -72 44.5 -100.5t96.5 -28.5h299l-6 78q-132 55 -184 92 q-230 167 -230 430q0 164 88.5 307.5t238.5 228.5t322 85t322 -84.5t239 -227.5t89 -307q0 -132 -59.5 -243.5t-168.5 -186.5q-58 -38 -186 -94l-6 -78h299q63 0 95.5 29.5t45.5 99.5h49v-313z" />
<glyph unicode="&#x2202;" horiz-adv-x="1069" d="M258 1126l-72 197q164 75 242.5 98t167.5 23q214 0 335.5 -146t121.5 -403q0 -186 -58 -369.5t-159 -320.5q-79 -108 -194.5 -169t-240.5 -61q-178 0 -277 106.5t-99 295.5q0 172 73 317.5t199 229.5t276 84q98 0 209 -54q-8 123 -67 194t-156 71q-65 0 -129 -19.5 t-172 -73.5zM764 705v4q-42 37 -99.5 60.5t-109.5 23.5q-112 0 -189 -115.5t-77 -282.5q0 -96 39 -151.5t106 -55.5q113 0 198 133.5t132 383.5z" />
<glyph unicode="&#x2205;" horiz-adv-x="1265" d="M899 1366l98 -51l-98 -182q231 -159 231 -416q0 -137 -67 -251.5t-183.5 -180.5t-256.5 -66q-92 0 -162 33l-129 -252l-99 51l125 250q-221 164 -221 414q0 137 66.5 251.5t181.5 180t252 65.5q81 0 166 -28zM852 1028l-338 -676q65 -16 119 -16q158 0 270.5 111 t112.5 268q0 97 -44.5 181.5t-119.5 131.5zM410 406l340 673q-61 17 -111 17q-160 0 -273.5 -111t-113.5 -268q0 -183 158 -311z" />
<glyph unicode="&#x2206;" horiz-adv-x="1253" d="M1245 0h-1233l658 1409zM981 104l-387 938l-436 -938h823z" />
<glyph unicode="&#x220f;" horiz-adv-x="1685" d="M1645 -252h-594v53h6q125 0 164 86q16 39 16 150v1180q0 55 -2.5 89.5t-12 62.5t-23 42.5t-40.5 24t-59.5 12t-85.5 2.5h-33h-137h-58h-36h-19h-10q-64 0 -100 -4h-17h-4l-4 2l-4 -2l-2 -2q-4 -2 -15 -2h-4q-21 0 -46.5 -12t-37.5 -27q-28 -35 -28 -186v-1180 q0 -130 28 -172q20 -30 60.5 -47t91.5 -17h6v-53h-594v53h6q51 0 91.5 17t60.5 47q29 43 29 172v1210q0 84 -12 129.5t-40 67.5q-53 41 -129 41h-6v53h1594v-53h-7q-124 0 -163 -86q-17 -38 -17 -152v-1210q0 -77 6 -113t23 -59q51 -64 151 -64h7v-53z" />
<glyph unicode="&#x2211;" horiz-adv-x="1409" d="M1051 -197h-990v123l431 793l-431 713v118h973v-442h-139l-23 328h-645l437 -721l-451 -797h682l14 332h142v-447z" />
<glyph unicode="&#x2212;" d="M1087 449h-995v200h995v-200z" />
<glyph unicode="&#x2218;" horiz-adv-x="1024" d="M518 983q114 0 195.5 -84.5t81.5 -202.5q0 -119 -82 -202.5t-199 -83.5t-200 84t-83 202q0 120 83.5 203.5t203.5 83.5zM516 885q-79 0 -133.5 -55.5t-54.5 -133.5t54.5 -133t131.5 -55q76 0 130 55t54 133q0 77 -53.5 133t-128.5 56z" />
<glyph unicode="&#x2219;" horiz-adv-x="677" d="M315 834q56 0 90.5 -34t34.5 -89q0 -73 -54 -127t-126 -54q-57 0 -93 35t-36 90q0 69 56 124t128 55z" />
<glyph unicode="&#x221a;" horiz-adv-x="1124" d="M1055 1860l-312 -1930l-495 1014l-195 -96l-33 72l299 145l400 -807l260 1612z" />
<glyph unicode="&#x221e;" horiz-adv-x="1460" d="M692 418l-6 -6q-148 -176 -342 -176q-132 0 -212.5 83t-80.5 218t83 223t212 88q104 0 192.5 -52t192.5 -175q60 74 111 118q124 109 274 109q130 0 212.5 -84.5t82.5 -218.5q0 -135 -79 -222t-202 -87q-168 0 -317 143q-35 33 -82 86l-6 -6q0 -2 -2 -4l-2 -4l-2 -2 q-2 -5 -4 -5v-2q-6 -6 -10 -12q-8 -5 -11 -10zM813 557l-12 -16q75 -78 98 -99q106 -100 219 -100q89 0 140 53t51 144q0 89 -53 145.5t-136 56.5q-79 0 -160.5 -49t-146.5 -135zM637 512l27 33q-62 64 -105 102q-104 94 -217 94q-86 0 -137 -53.5t-51 -144.5 q0 -88 49.5 -144.5t126.5 -56.5q140 0 297 160z" />
<glyph unicode="&#x222b;" horiz-adv-x="561" d="M440 1786l-2 2q-20 10 -30 10q-54 0 -54 -131v-43l2 -31v-4v-4q0 -6 2 -24l2 -33v-12q9 -79 9 -211v-64v-61v-705q0 -379 -60 -553q-47 -139 -182 -139q-55 0 -89 24.5t-34 63.5q0 29 20.5 49.5t49.5 20.5q40 0 65 -45q20 -37 43 -37q29 0 46.5 34t17.5 91v22l-2 60 l-2 16v12l-2 35v14q-7 81 -7 111v22v19q-2 74 -2 131v49v707q0 383 60 555q23 67 70.5 103t113.5 36q54 0 87.5 -25t33.5 -65q0 -29 -21 -48.5t-53 -19.5q-23 0 -37 11.5t-45 56.5z" />
<glyph unicode="&#x223c;" horiz-adv-x="1024" d="M111 541l-91 57q55 124 123 182t158 58q77 0 229 -70q90 -42 126.5 -54t72.5 -12q57 0 97 30t87 108l93 -54q-60 -121 -131 -176t-166 -55q-43 0 -95.5 18t-191.5 80q-75 37 -131 37q-54 0 -95 -33.5t-85 -115.5z" />
<glyph unicode="&#x2243;" horiz-adv-x="1024" d="M111 549l-91 59q59 125 125.5 181.5t155.5 56.5q74 0 229 -70q92 -42 127 -53.5t70 -11.5q58 0 98 30t88 109l93 -55q-60 -121 -131 -176.5t-166 -55.5q-43 0 -95.5 18t-191.5 81q-76 36 -131 36t-96.5 -34t-83.5 -115zM1006 446v-120h-986v120h986z" />
<glyph unicode="&#x2248;" horiz-adv-x="1124" d="M1001 836l78 -68q-56 -95 -121.5 -135.5t-166.5 -40.5q-35 0 -58.5 4.5t-105.5 26.5q-27 10 -35 10l-31 8q-16 3 -46 13.5t-40 13.5q-80 30 -149 30q-62 0 -96.5 -21.5t-112.5 -107.5l-88 70q71 92 139.5 132t157.5 40q61 0 180 -33l78 -24q123 -37 147.5 -43t54.5 -6 q61 0 101 24.5t114 106.5zM1001 514l78 -70q-52 -91 -122.5 -132.5t-170.5 -41.5q-66 0 -131 21l-32 10l-15 4q-30 7 -35 10l-2 2h-4l-16 7h-2l-29 10l-63 18q-92 25 -133 25q-56 0 -97 -25.5t-110 -103.5l-88 69q70 94 138.5 133t160.5 39q83 0 178 -32l78 -25q14 -4 24 -8 q17 -4 19 -6q111 -35 161 -35q60 0 103 27t110 104z" />
<glyph unicode="&#x2260;" horiz-adv-x="1124" d="M1106 289h-604l-172 -338l-94 49l147 289h-352v112h407l144 285h-551v113h608l164 325l96 -49l-139 -276h346v-113h-404l-143 -285h547v-112z" />
<glyph unicode="&#x2264;" horiz-adv-x="1124" d="M1077 240l-1018 477v112l1018 480v-127l-856 -408l856 -407v-127zM1077 0h-1018v113h1018v-113z" />
<glyph unicode="&#x2265;" horiz-adv-x="1124" d="M1077 717l-1018 -477v127l856 407l-856 408v127l1018 -480v-112zM1077 0h-1018v113h1018v-113z" />
<glyph unicode="&#x25fc;" horiz-adv-x="972" d="M0 973h973v-973h-973v973z" />
</font>
</defs>
</svg>
