<?xml version="1.0" standalone="no"?>
<!DOCTYPE svg PUBLIC "-//W3C//DTD SVG 1.1//EN" "http://www.w3.org/Graphics/SVG/1.1/DTD/svg11.dtd" >
<svg xmlns="http://www.w3.org/2000/svg" xmlns:xlink="http://www.w3.org/1999/xlink" version="1.1">
<metadata></metadata>
<defs>
<font id="pru_sans_ot2_boldbold_italic" horiz-adv-x="1280" >
<font-face units-per-em="2048" ascent="1466" descent="-582" />
<missing-glyph horiz-adv-x="585" />
<glyph unicode="ff" horiz-adv-x="1519" d="M920 776h-373l-137 -776h-328l137 776h-188l37 211h188l12 64q38 230 162.5 334t360.5 104q122 0 237 -33l-88 -221l-16 2q-61 6 -86 6q-121 0 -174.5 -49.5t-75.5 -181.5l-4 -25h372l13 64q38 230 162 334t360 104q123 0 238 -33l-89 -221l-16 2q-61 6 -86 6 q-121 0 -174.5 -49.5t-75.5 -181.5l-4 -25h264l-37 -211h-264l-137 -776h-328z" />
<glyph unicode="fi" horiz-adv-x="1384" d="M1309 987l-174 -987h-326l137 776h-397l-137 -776h-330l137 776h-188l37 211h188l12 64q38 231 162.5 334.5t364.5 103.5q117 0 209 -29l-89 -223l-12 2q-25 2 -57 2q-128 0 -180.5 -47t-75.5 -182l-4 -25h723zM1219 1440q69 0 114 -43.5t45 -110.5q0 -88 -57 -146.5 t-143 -58.5q-72 0 -118 43t-46 109q0 89 58 148t147 59z" />
<glyph unicode="fl" horiz-adv-x="1417" d="M1012 987l84 479h329l-258 -1466h-329l137 776h-424l-137 -776h-330l137 776h-190l37 211h190l12 64q38 230 162.5 334t360.5 104q111 0 213 -31l-88 -223q-50 6 -87 6q-114 0 -165.5 -50t-73.5 -179l-4 -25h424z" />
<glyph unicode=" "  horiz-adv-x="585" />
<glyph unicode="&#x09;" horiz-adv-x="585" />
<glyph unicode="&#xa0;" horiz-adv-x="585" />
<glyph unicode="!" horiz-adv-x="759" d="M678 1366l-205 -926h-274l116 926h363zM313 356q74 0 121 -44.5t47 -114.5q0 -91 -60.5 -153t-150.5 -62q-75 0 -123.5 44.5t-48.5 114.5q0 92 61.5 153.5t153.5 61.5z" />
<glyph unicode="&#x22;" horiz-adv-x="849" d="M803 897h-268l90 502h268zM387 897h-268l90 502h268z" />
<glyph unicode="#" horiz-adv-x="1103" d="M1108 1094l-45 -140h-189l-73 -231h186l-45 -141h-186l-105 -338h-166l107 338h-186l-101 -338h-170l105 338h-189l45 141h191l71 231h-186l45 140h186l99 307h164l-99 -307h187l94 307h170l-98 -307h188zM711 954h-189l-73 -231h190z" />
<glyph unicode="$" d="M578 190l-54 -194h-157l49 190h-13h-8h-8h-39q-140 3 -272 31l104 258q140 -26 285 -26q131 0 201.5 28t70.5 80q0 32 -37.5 58.5t-130.5 60.5q-172 62 -243.5 133.5t-71.5 183.5q0 103 47.5 188.5t134.5 137.5q68 41 141.5 61t190.5 27l51 182h160l-51 -182 q66 -3 123 -12l10 -2q62 -10 100 -21l-96 -244q-118 23 -211 23q-112 0 -175 -24.5t-63 -67.5q0 -57 152 -101q127 -38 217 -104q113 -79 113 -221q0 -105 -51 -194.5t-144 -147.5q-70 -45 -143 -68t-182 -33z" />
<glyph unicode="%" horiz-adv-x="1636" d="M1479 1309l-1217 -1336l-108 93l1210 1335zM508 1407q135 0 218 -83.5t83 -221.5q0 -183 -116.5 -305.5t-289.5 -122.5q-140 0 -223.5 81t-83.5 216q0 190 116 313t296 123zM479 1231q-62 0 -105.5 -70t-43.5 -168q0 -65 25 -101t71 -36q62 0 105.5 70t43.5 168 q0 65 -25 101t-71 36zM1243 711q135 0 218 -83.5t83 -221.5q0 -183 -116 -306t-289 -123q-140 0 -224 81t-84 216q0 191 116 314t296 123zM1217 535q-63 0 -107.5 -70t-44.5 -168q0 -65 25 -101t71 -36q62 0 107 70t45 167q0 64 -26 101t-70 37z" />
<glyph unicode="&#x26;" horiz-adv-x="1554" d="M1462 213l-184 -240q-123 55 -305 170q-135 -89 -247 -126t-249 -37q-186 0 -311 73q-158 91 -158 277q0 196 158 332q50 43 102.5 74t139.5 67q-43 96 -43 172q0 189 133.5 307.5t345.5 118.5q151 0 240.5 -68.5t89.5 -183.5q0 -259 -381 -434q64 -97 202 -213 q57 59 95 147h286q-66 -168 -176 -293q167 -93 262 -143zM694 922q90 40 131 82t41 94q0 32 -19.5 50.5t-51.5 18.5q-52 0 -90.5 -42t-38.5 -99q0 -59 28 -104zM770 305q-68 53 -144.5 136t-105.5 137q-78 -37 -120 -88t-42 -109q0 -66 50.5 -103.5t138.5 -37.5 q116 0 223 65z" />
<glyph unicode="'" horiz-adv-x="432" d="M387 897h-268l90 502h268z" />
<glyph unicode="(" horiz-adv-x="782" d="M541 -205l-234 -141q-235 306 -235 704q0 347 219 684q65 97 133 176.5t184 192.5l197 -156q-204 -250 -295.5 -472t-91.5 -464q0 -267 123 -524z" />
<glyph unicode=")" horiz-adv-x="782" d="M197 1270l231 141q238 -309 238 -704q0 -349 -220 -684q-65 -97 -133 -176.5t-184 -192.5l-199 156q205 251 297 472.5t92 465.5q0 138 -29 262t-93 260z" />
<glyph unicode="*" horiz-adv-x="909" d="M918 1198l-50 -201l-229 31l115 -201l-195 -88l-51 217l-141 -233l-154 119l176 186l-252 -31l51 201l226 -27l-115 199l195 96l55 -219l137 232l162 -121l-176 -187z" />
<glyph unicode="+" d="M1051 432h-402v-383h-219v383h-403v219h403v381h219v-381h402v-219z" />
<glyph unicode="," horiz-adv-x="663" d="M440 313l-213 -549h-204l96 549h321z" />
<glyph unicode="-" horiz-adv-x="657" d="M563 424h-561l45 254h561z" />
<glyph unicode="." horiz-adv-x="745" d="M305 356q72 0 120 -45t48 -114q0 -91 -61 -153t-150 -62q-75 0 -123.5 44.5t-48.5 114.5q0 92 61.5 153.5t153.5 61.5z" />
<glyph unicode="/" d="M1024 1403l-965 -1499l-131 65l965 1501z" />
<glyph unicode="0" horiz-adv-x="1277" d="M713 1130q-48 0 -91 -31t-73 -89q-55 -101 -87 -244.5t-32 -288.5q0 -231 131 -231q125 0 207 205q34 87 56 207t22 219q0 123 -34 188t-99 65zM745 1403q218 0 342.5 -140t124.5 -386q0 -156 -39 -312t-110 -282q-86 -152 -221.5 -233t-302.5 -81q-218 0 -344.5 143 t-126.5 388q0 159 38 313t107 274q88 154 224 235t308 81z" />
<glyph unicode="1" horiz-adv-x="1282" d="M793 0h-342l186 1055l-340 -154l-78 219l549 285l256 -92z" />
<glyph unicode="2" d="M1020 0h-973l-27 236q292 202 455 335q326 270 326 422q0 62 -45 94.5t-131 32.5q-147 0 -344 -73l-50 249q124 52 257 81.5t243 29.5q200 0 320 -92t120 -246q0 -249 -286 -510q-59 -54 -117 -100t-238 -180h539z" />
<glyph unicode="3" horiz-adv-x="1277" d="M51 -16l43 252q301 11 459 75t158 176q0 74 -73 105t-249 31h-84l41 231q205 10 319.5 61t114.5 129q0 84 -139 84q-123 0 -322 -61l-38 238q265 96 483 96q168 0 265 -72.5t97 -198.5t-80.5 -220.5t-230.5 -145.5q143 -34 205.5 -97t62.5 -173q0 -138 -89.5 -247 t-256.5 -173q-239 -87 -686 -90z" />
<glyph unicode="4" d="M1159 242h-190l-43 -242h-322l43 242h-602l-22 227l856 946l280 -90l-145 -827h190zM692 498l80 446l-438 -446h358z" />
<glyph unicode="5" d="M37 -27l33 252q274 21 417 70q215 78 215 225q0 92 -83.5 134t-266.5 42h-41h-16l-23 201l174 469h750l-47 -264h-494l-63 -172q255 -28 369 -116t114 -257q0 -159 -96.5 -282t-278.5 -197q-126 -50 -278.5 -74.5t-384.5 -30.5z" />
<glyph unicode="6" d="M426 467v-16q0 -95 46 -149t128 -54q83 0 141 59t58 144q0 63 -40.5 101t-107.5 38q-52 0 -112 -26t-111 -70q-2 -8 -2 -27zM1241 1393l-18 -246q-258 -19 -464 -130.5t-298 -283.5q164 131 327 131q154 0 252.5 -97.5t98.5 -250.5q0 -239 -156.5 -393t-400.5 -154 q-217 0 -355.5 136t-138.5 350q0 230 124.5 428t350.5 329q152 89 304.5 129.5t373.5 51.5z" />
<glyph unicode="7" d="M1221 1139l-854 -1194l-293 131l757 1028h-638l47 266h989z" />
<glyph unicode="8" d="M625 555q-125 -66 -176.5 -115.5t-51.5 -103.5q0 -49 47 -79t125 -30q98 0 162 43t64 109q0 46 -38 85.5t-132 90.5zM762 1163q-85 0 -138 -36.5t-53 -94.5q0 -41 31.5 -75.5t102.5 -71.5q200 95 200 198q0 38 -37 59t-104 21h-2zM954 729q119 -72 165 -136.5t46 -158.5 q0 -202 -178 -333.5t-452 -131.5q-220 0 -351 88.5t-131 237.5q0 126 80 227t264 205q-81 60 -116 121t-35 143q0 185 149 297.5t393 112.5q196 0 314.5 -77.5t118.5 -205.5q0 -107 -61 -196t-206 -193z" />
<glyph unicode="9" d="M836 883q4 27 4 49q0 87 -48 139.5t-126 52.5q-83 0 -142 -59.5t-59 -142.5q0 -65 40 -102.5t109 -37.5q109 0 222 101zM23 -23l20 246q572 67 760 414q-140 -129 -324 -129q-157 0 -254.5 106.5t-97.5 276.5q0 224 163.5 367t418.5 143q221 0 345 -126.5t124 -352.5 q0 -230 -123 -427t-350 -329q-154 -91 -308.5 -134t-373.5 -55z" />
<glyph unicode=":" horiz-adv-x="745" d="M305 356q72 0 120 -45t48 -114q0 -91 -61 -153t-150 -62q-75 0 -123.5 44.5t-48.5 114.5q0 92 61.5 153.5t153.5 61.5zM418 1001q74 0 121 -45.5t47 -115.5q0 -91 -60 -152t-149 -61q-77 0 -124.5 43.5t-47.5 113.5q0 94 60.5 155.5t152.5 61.5z" />
<glyph unicode=";" horiz-adv-x="745" d="M473 313l-211 -549h-205l97 549h319zM418 1001q74 0 121 -45.5t47 -115.5q0 -91 -60 -152t-149 -61q-77 0 -124.5 43.5t-47.5 113.5q0 94 60.5 155.5t152.5 61.5z" />
<glyph unicode="&#x3c;" d="M1067 141l-856 580v14l856 543v-104l-592 -381l592 -385v-267z" />
<glyph unicode="=" d="M1153 627h-1024v211h1024v-211zM1153 264h-1024v211h1024v-211z" />
<glyph unicode="&#x3e;" d="M1067 684l-856 -543v105l592 383l-592 385v264l856 -580v-14z" />
<glyph unicode="?" horiz-adv-x="1089" d="M420 356q74 0 121 -44.5t47 -114.5q0 -91 -60 -153t-149 -62q-75 0 -123.5 44.5t-48.5 114.5q0 92 60.5 153.5t152.5 61.5zM588 590l-27 -148h-262l23 316q192 49 296.5 122t104.5 156q0 44 -35 68t-98 24q-124 0 -336 -71l-66 229q275 117 504 117q177 0 279 -83.5 t102 -229.5q0 -167 -124.5 -295t-360.5 -205z" />
<glyph unicode="@" horiz-adv-x="1730" d="M969 635l71 190q-7 38 -35 61t-65 23q-75 0 -141 -114q-30 -53 -49 -111t-19 -96q0 -30 14.5 -47t40.5 -17q34 0 70.5 20.5t91.5 71.5zM1364 317l78 -120q-1 -1 -3 -2t-12.5 -8t-27.5 -19q-289 -199 -627 -199q-313 0 -499.5 155.5t-186.5 416.5q0 176 77.5 335.5 t209 275t313 183.5t381.5 68q272 0 435 -129.5t163 -345.5q0 -175 -100.5 -312t-278.5 -206q-85 -34 -165.5 -47t-200.5 -13h-19h-4q-13 0 -29 2l31 86q-105 -88 -211 -88q-86 0 -141 56.5t-55 144.5q0 90 37.5 190t101.5 177q124 157 287 157q58 0 105.5 -27.5t72.5 -74.5 l28 78h224l-195 -537q98 28 159.5 65t108.5 97q82 105 82 239q0 155 -121.5 246.5t-328.5 91.5q-158 0 -301 -56t-247 -150.5t-165 -225.5t-61 -274q0 -192 142 -308t374 -116q137 0 264.5 43.5t304.5 150.5z" />
<glyph unicode="A" horiz-adv-x="1533" d="M1407 0h-397l-68 334h-536l-183 -334h-338l809 1366h377zM891 578l-96 462l-252 -462h348z" />
<glyph unicode="B" horiz-adv-x="1314" d="M258 1366h500q198 0 305 -41q86 -32 132 -94.5t46 -147.5q0 -148 -91.5 -240.5t-264.5 -121.5q167 -31 237 -97t70 -192q0 -136 -77.5 -238.5t-217.5 -152.5q-63 -23 -130 -32t-175 -9h-576zM512 829h88q80 0 117.5 6t68.5 23q40 23 64 65t24 89q0 61 -45.5 84.5 t-164.5 23.5h-101zM410 256h75q125 0 179 12q157 35 157 199q0 74 -52 103.5t-181 29.5h-10h-11h-96z" />
<glyph unicode="C" horiz-adv-x="1386" d="M1430 1290l-127 -239q-71 32 -157 51.5t-159 19.5q-113 0 -215.5 -42.5t-176.5 -114.5t-117.5 -172t-43.5 -211q0 -157 85 -240.5t245 -83.5q155 0 391 111l105 -236q-129 -80 -275.5 -123t-288.5 -43q-287 0 -463 160.5t-176 423.5q0 179 71.5 337t195.5 270.5 t298.5 177.5t372.5 65q249 0 435 -111z" />
<glyph unicode="D" horiz-adv-x="1544" d="M420 270h67q295 0 458 138.5t163 390.5q0 188 -115 254q-46 26 -121 37.5t-208 11.5h-97zM258 1366h414q251 0 366 -20q227 -38 338 -163.5t111 -342.5q0 -296 -170.5 -515t-454.5 -288q-91 -23 -181 -30t-286 -7h-379z" />
<glyph unicode="E" horiz-adv-x="1224" d="M1001 0h-985l242 1366h948l-47 -262h-590l-49 -277h557l-43 -254h-557l-53 -297h627z" />
<glyph unicode="F" horiz-adv-x="1126" d="M1141 1108h-572l-53 -293h541l-43 -254h-541l-100 -561h-357l242 1366h928z" />
<glyph unicode="G" horiz-adv-x="1419" d="M938 268l68 391h344l-103 -587q-107 -49 -245.5 -77t-274.5 -28q-309 0 -489.5 157.5t-180.5 426.5q0 182 72 340t197.5 270t302.5 176t381 64q125 0 246 -29.5t208 -81.5l-127 -239q-178 71 -338 71q-157 0 -287 -71t-204 -195t-74 -274q0 -330 357 -330q88 0 147 16z " />
<glyph unicode="H" horiz-adv-x="1523" d="M1266 0h-355l105 592h-539l-104 -592h-357l242 1366h356l-92 -518h539l92 518h354z" />
<glyph unicode="I" horiz-adv-x="636" d="M379 0h-363l242 1366h363z" />
<glyph unicode="J" horiz-adv-x="778" d="M768 1366l-164 -926q-37 -230 -190 -338t-477 -133l-11 264q175 28 240.5 78.5t91.5 177.5l156 877h354z" />
<glyph unicode="K" horiz-adv-x="1411" d="M1264 0h-416l-350 682l-121 -682h-361l242 1366h360l-102 -573l543 573h422l-641 -627z" />
<glyph unicode="L" horiz-adv-x="1116" d="M969 0h-953l242 1366h360l-192 -1090h592z" />
<glyph unicode="M" horiz-adv-x="1748" d="M1599 0h-327l47 831l-426 -831h-287l-147 831l-215 -831h-338l418 1366h370l154 -866l436 866h363z" />
<glyph unicode="N" horiz-adv-x="1499" d="M1241 0h-342l-412 797q-21 -124 -36 -199q-24 -164 -105 -598h-330l242 1366l330 -2l422 -815q80 460 143 817h330z" />
<glyph unicode="O" horiz-adv-x="1599" d="M918 1401q289 0 455.5 -158.5t166.5 -433.5q0 -235 -110.5 -427.5t-304 -302.5t-429.5 -110q-284 0 -459.5 164t-175.5 428q0 178 65.5 334t179 267t272.5 175t340 64zM864 1100q-115 0 -211 -66.5t-151.5 -181t-55.5 -250.5q0 -149 76 -236t205 -87q178 0 303 144.5 t125 348.5q0 150 -79 239t-212 89z" />
<glyph unicode="P" horiz-adv-x="1265" d="M514 795h102q129 0 191.5 48t62.5 148q0 68 -44.5 97.5t-145.5 29.5h-111zM258 1366h492q175 0 270 -31q106 -35 161.5 -115t55.5 -198q0 -226 -155 -345.5t-447 -119.5h-164l-98 -557h-357z" />
<glyph unicode="Q" horiz-adv-x="1599" d="M1337 -49l-16 -264q-111 -13 -186 -13q-369 0 -652 172q-202 121 -306.5 301.5t-104.5 407.5q0 180 62.5 343t176.5 278q229 229 598 229q295 0 463 -155t168 -427q0 -173 -58.5 -330t-164.5 -270q-97 -100 -234 -158.5t-276 -58.5h-2h-14q-4 2 -25 2q195 -65 420 -65 q61 0 151 8zM879 1102q-189 0 -306.5 -145t-117.5 -377q0 -155 74.5 -240.5t209.5 -85.5q121 0 215 68t148 196q53 118 53 260q0 157 -71 240.5t-205 83.5z" />
<glyph unicode="R" horiz-adv-x="1316" d="M514 793h86q120 0 193 55.5t73 144.5q0 67 -45 96t-149 29h-101zM1192 0h-381l-133 426q-20 63 -52 86t-102 23h-57l-94 -535h-357l242 1366h496q141 0 202 -10q130 -20 207.5 -103t77.5 -204q0 -165 -133 -283q-54 -47 -108.5 -72.5t-139.5 -44.5q75 -20 108 -52.5 t62 -115.5z" />
<glyph unicode="S" horiz-adv-x="1175" d="M1079 1108l-4 -10q-129 28 -239 28q-155 0 -242.5 -34.5t-87.5 -96.5q0 -40 40.5 -70t141.5 -67q119 -43 172 -67.5t90 -53.5q123 -91 123 -248q0 -145 -94.5 -263t-261.5 -184.5t-373 -66.5q-211 0 -389 54l100 272q156 -33 295 -33q158 0 246 41t88 113 q0 45 -35.5 69.5t-167.5 69.5q-144 51 -215 111q-116 101 -116 248q0 221 182.5 349t498.5 128q177 0 332 -47q0 -3 -84 -242z" />
<glyph unicode="T" horiz-adv-x="1206" d="M1268 1106h-408l-194 -1106h-357l195 1106h-416l47 260h1180z" />
<glyph unicode="U" horiz-adv-x="1507" d="M1499 1366l-127 -723q-32 -185 -76.5 -290t-124.5 -185q-189 -195 -557 -195q-526 0 -526 408q0 76 25 215l135 770h354l-139 -793q-17 -92 -17 -129q0 -84 61 -132t167 -48q89 0 163 31.5t117 87.5q31 40 50 95t36 155l129 733h330z" />
<glyph unicode="V" horiz-adv-x="1447" d="M1561 1366l-775 -1366h-374l-285 1366h352l178 -1018l535 1018h369z" />
<glyph unicode="W" horiz-adv-x="2056" d="M2169 1366l-621 -1366h-358l-129 856l-440 -856h-345l-149 1366h371l80 -907l458 907h295l148 -907l379 907h311z" />
<glyph unicode="X" horiz-adv-x="1378" d="M1249 0h-407l-166 485l-375 -485h-416l600 715l-315 651h405l146 -426l319 426h396l-535 -641z" />
<glyph unicode="Y" horiz-adv-x="1355" d="M1468 1366l-628 -776l-105 -590h-354l104 590l-358 776h451l165 -498l359 498h366z" />
<glyph unicode="Z" horiz-adv-x="1234" d="M1059 0h-1125l48 262l802 846h-643l45 258h1086l-41 -229l-801 -854h680z" />
<glyph unicode="[" horiz-adv-x="841" d="M569 -317h-614l297 1683h614l-43 -242h-274l-211 -1200h274z" />
<glyph unicode="\" d="M772 -31l-154 -65l-436 1499l156 67z" />
<glyph unicode="]" horiz-adv-x="841" d="M535 -317h-615l43 241h275l211 1200h-275l43 242h614z" />
<glyph unicode="^" d="M1208 578h-104l-381 591l-385 -591h-266l579 856h15z" />
<glyph unicode="_" d="M1120 -307h-962v123h962v-123z" />
<glyph unicode="`" horiz-adv-x="532" d="M631 1235l-90 -131l-435 190l107 172z" />
<glyph unicode="a" horiz-adv-x="1095" d="M535 287l30 176q-256 -44 -256 -180q0 -29 18.5 -46.5t47.5 -17.5q32 0 62.5 13t97.5 55zM971 215l-19 -188q-48 -22 -114 -37t-117 -15q-86 0 -129 32t-55 104q-174 -136 -332 -136q-99 0 -160 60.5t-61 159.5q0 211 223 329q69 38 158 64t229 51q6 24 6 51q0 66 -88 66 q-102 0 -289 -86l-30 -15l-64 197q301 162 535 162q127 0 201.5 -57.5t74.5 -155.5q0 -49 -18 -150l-45 -262q-21 -115 -21 -129q0 -51 59 -51q32 0 56 6z" />
<glyph unicode="b" horiz-adv-x="1251" d="M446 627l-49 -277q69 -108 178 -108q102 0 169 91t67 230q0 83 -37 127.5t-106 44.5q-111 0 -222 -108zM350 137l-24 -137h-316l258 1466h326l-105 -594q192 146 355 146q146 0 230.5 -102t84.5 -279q0 -232 -102 -416q-66 -117 -171 -180.5t-233 -63.5 q-95 0 -167.5 38.5t-135.5 121.5z" />
<glyph unicode="c" horiz-adv-x="1034" d="M821 326l88 -189q-121 -83 -227.5 -120t-222.5 -37q-195 0 -311.5 120t-116.5 322q0 274 169.5 434t458.5 160q192 0 347 -86l-121 -205q-98 43 -201 43q-133 0 -218 -88.5t-85 -228.5q0 -97 48.5 -151t137.5 -54q52 0 107 17.5t147 62.5z" />
<glyph unicode="d" horiz-adv-x="1251" d="M737 373l49 278q-68 101 -176 101q-101 0 -166 -88.5t-65 -225.5q0 -86 36 -131t105 -45q94 0 217 111zM999 0h-313l27 147q-174 -174 -361 -174q-150 0 -238.5 104t-88.5 279q0 231 106 414q67 118 173.5 183t232.5 65q196 0 290 -139l103 587h327z" />
<glyph unicode="e" horiz-adv-x="1114" d="M408 618l309 9q4 39 4 69q0 127 -109 127q-148 0 -204 -205zM879 328l88 -178q-134 -93 -254.5 -135t-253.5 -42q-204 0 -317 112.5t-113 315.5q0 176 78 316.5t216.5 219.5t311.5 79q186 0 289.5 -100t103.5 -279q0 -76 -14 -150l-10 -57h-633q-4 -14 -4 -47 q0 -83 40.5 -121.5t129.5 -38.5q142 0 342 105z" />
<glyph unicode="f" horiz-adv-x="819" d="M1028 1456l-88 -221l-16 2q-61 6 -86 6q-121 0 -174.5 -49.5t-75.5 -181.5l-4 -25h264l-37 -211h-264l-137 -776h-328l137 776h-188l37 211h188l12 64q38 230 162.5 334t360.5 104q122 0 237 -33z" />
<glyph unicode="g" horiz-adv-x="1134" d="M289 -47q-142 -41 -142 -125q0 -53 65 -84t175 -31q123 0 202 37t79 94q0 29 -35.5 45.5t-124.5 26.5q-130 14 -219 37zM545 823q-70 0 -117 -61.5t-47 -153.5q0 -65 28 -100t80 -35q72 0 120 60.5t48 152.5q0 65 -29 101t-83 36zM1106 770h-174q26 -53 26 -111 q0 -161 -138.5 -269.5t-342.5 -108.5q-21 0 -100 6q-2 -3 -10.5 -13t-16.5 -20q-27 -31 -45 -49q71 -28 203 -45q6 -1 13.5 -2t11.5 -1.5t6 -0.5t5 -0.5l9 -1.5t10 -2q79 -12 90 -13q203 -23 281 -71t78 -150q0 -118 -86 -212.5t-239.5 -147t-346.5 -52.5 q-239 0 -375.5 71.5t-136.5 197.5q0 95 69 159.5t199 90.5q-125 26 -125 65q0 28 43 68q63 59 152 164l24 24q-124 89 -124 244q0 184 146.5 305t369.5 121q96 0 215 -29h346z" />
<glyph unicode="h" horiz-adv-x="1234" d="M991 0h-332l101 565q8 49 8 80q0 74 -70 74q-110 0 -254 -125l-104 -594h-330l258 1466h330l-106 -604q116 86 198.5 121t171.5 35q119 0 189.5 -60t70.5 -161q0 -51 -12 -125z" />
<glyph unicode="i" horiz-adv-x="585" d="M336 0h-326l174 987h326zM418 1440q70 0 115 -43t45 -111q0 -88 -57.5 -146.5t-143.5 -58.5q-72 0 -118 43t-46 109q0 89 58.5 148t146.5 59z" />
<glyph unicode="j" horiz-adv-x="587" d="M516 987l-162 -915q-37 -270 -179 -401t-435 -165l-21 234q160 44 219.5 108t88.5 224l161 915h328zM422 1440q70 0 115 -43t45 -111q0 -88 -57.5 -146.5t-143.5 -58.5q-72 0 -118 43t-46 109q0 89 58.5 148t146.5 59z" />
<glyph unicode="k" horiz-adv-x="1173" d="M1040 0h-378l-234 494l-88 -494h-330l258 1466h330l-152 -862l347 383h397l-449 -438z" />
<glyph unicode="l" horiz-adv-x="591" d="M342 0h-332l258 1466h332z" />
<glyph unicode="m" horiz-adv-x="1777" d="M1534 0h-315l98 551q0 6 2 12q0 6 2 12q6 47 6 74q0 68 -57 68q-47 0 -113 -37t-125 -96l-102 -584h-316l99 551q12 74 12 96q0 70 -63 70q-45 0 -111 -37.5t-123 -95.5l-102 -584h-316l174 987h305l-22 -131q108 90 188 126t172 36q197 0 232 -170q109 92 194 131 t177 39q106 0 171.5 -56.5t65.5 -148.5q0 -61 -22 -190z" />
<glyph unicode="n" horiz-adv-x="1214" d="M969 0h-328l90 512q17 84 17 127q0 78 -74 78q-97 0 -234 -131l-104 -586h-326l174 987h314l-25 -137q198 168 389 168q109 0 172.5 -59t63.5 -160q0 -70 -21 -187z" />
<glyph unicode="o" horiz-adv-x="1204" d="M649 1020q209 0 333 -116.5t124 -313.5q0 -176 -78.5 -316.5t-218 -219.5t-313.5 -79q-212 0 -338.5 115t-126.5 309q0 178 79 320t220 221.5t319 79.5zM610 768q-94 0 -160.5 -99t-66.5 -239q0 -92 38.5 -143t106.5 -51q94 0 161 99t67 238q0 92 -38.5 143.5 t-107.5 51.5z" />
<glyph unicode="p" horiz-adv-x="1257" d="M446 623l-49 -273q61 -108 185 -108q97 0 162 88t65 219q0 86 -39.5 136t-105.5 50q-106 0 -218 -112zM360 135l-106 -608h-326l256 1460h301l-24 -139q113 96 192 133t172 37q157 0 246.5 -102t89.5 -279q0 -229 -106 -418q-64 -117 -168 -180.5t-230 -63.5 q-200 0 -297 160z" />
<glyph unicode="q" horiz-adv-x="1257" d="M743 371l50 274q-72 109 -177 109q-98 0 -164.5 -92t-66.5 -226q0 -88 35.5 -134t103.5 -46q101 0 219 115zM922 -473h-328l106 598q-78 -80 -154 -117t-163 -37q-163 0 -257.5 104.5t-94.5 284.5q0 227 102 408q68 120 175 185t237 65q194 0 303 -152l20 121h312z" />
<glyph unicode="r" horiz-adv-x="870" d="M911 989l-106 -276h-4q-10 2 -29 2q-94 0 -181 -74t-179 -231l-72 -410h-330l174 987h316l-33 -192q153 211 352 211q49 0 92 -17z" />
<glyph unicode="s" horiz-adv-x="966" d="M909 975l-82 -209q-87 22 -200 22q-176 0 -176 -69q0 -49 124 -86q263 -76 263 -271q0 -182 -151 -282t-425 -100q-173 0 -309 40l90 226q129 -21 217 -21q221 0 221 78q0 48 -116 82q-96 29 -172 86q-89 68 -89 182q0 167 135 263t371 96q169 0 299 -37z" />
<glyph unicode="t" horiz-adv-x="837" d="M707 244l-39 -224q-125 -45 -275 -45q-148 0 -219.5 56t-71.5 172q0 33 13 104l82 471h-187l37 209h186l58 326h330l-58 -326h268l-36 -209h-269l-65 -375q-12 -64 -12 -92q0 -43 26.5 -61.5t89.5 -18.5q43 0 142 13z" />
<glyph unicode="u" horiz-adv-x="1214" d="M963 0h-324l25 139q-191 -159 -359 -159q-120 0 -186 67.5t-66 190.5q0 41 23 180l100 569h328l-98 -565q0 -2 -3 -8q-6 -27 -6 -49q0 -80 74 -80q105 0 240 129l100 573h326z" />
<glyph unicode="v" horiz-adv-x="1130" d="M1169 987l-546 -987h-369l-203 987h344l105 -653l338 653h331z" />
<glyph unicode="w" horiz-adv-x="1642" d="M1681 987l-479 -987h-344l-55 651l-279 -651h-346l-127 987h311l60 -639l270 639h340l58 -639l268 639h323z" />
<glyph unicode="x" horiz-adv-x="1132" d="M999 0h-378l-138 295l-209 -295h-380l458 520l-250 467h365l125 -260l162 260h372l-409 -467z" />
<glyph unicode="y" horiz-adv-x="1114" d="M1153 987l-610 -1096q-83 -148 -140 -219q-72 -89 -163.5 -130.5t-216.5 -41.5q-121 0 -236 37l90 225q47 -8 94 -8q78 0 128 33t110 125l35 53l-209 1022h342l104 -653l340 653h332z" />
<glyph unicode="z" horiz-adv-x="1034" d="M846 0h-891l43 242l524 491h-422l45 254h865l-37 -217l-531 -500h451z" />
<glyph unicode="{" horiz-adv-x="819" d="M573 -317h-294q-89 0 -147 58.5t-58 149.5q0 24 4 56l49 286q10 62 10 99q0 68 -25.5 100t-88.5 39l40 231q82 3 125 58.5t66 187.5l29 170q20 117 97.5 182.5t197.5 65.5h292l-43 -242h-125q-49 0 -71 -31.5t-39 -127.5l-27 -154q-20 -104 -57 -151t-119 -72 q59 -31 81 -65.5t22 -98.5q0 -30 -7 -70l-49 -270q-12 -67 -12 -96q0 -35 16 -50.5t52 -15.5h124z" />
<glyph unicode="|" horiz-adv-x="593" d="M467 -342h-340v1708h340v-1708z" />
<glyph unicode="}" horiz-adv-x="819" d="M190 1366h295q89 0 147 -59.5t58 -151.5q0 -21 -4 -53l-29 -162q-10 -58 -10 -98q0 -68 27 -100.5t90 -39.5l-41 -231q-84 -4 -125 -57t-66 -189l-53 -295q-22 -120 -97.5 -183.5t-195.5 -63.5h-292l43 241h124q47 0 69.5 32.5t39.5 127.5l49 278q22 106 59 152.5 t119 71.5q-58 28 -80 61.5t-22 95.5q0 38 6 76l25 146q12 68 12 98q0 34 -15.5 48.5t-50.5 14.5h-125z" />
<glyph unicode="~" d="M1016 1503l39 -24q-64 -110 -131.5 -161.5t-147.5 -51.5q-32 0 -67.5 9.5t-147.5 49.5q-71 25 -125 25q-30 0 -59 -8.5t-41 -20.5l-57 -57l-19 -19l-37 23q70 118 132.5 166.5t144.5 48.5q36 0 65.5 -7.5t136.5 -45.5q86 -29 132 -29q52 0 92 22.5t90 79.5z" />
<glyph unicode="&#xa1;" horiz-adv-x="759" d="M14 -336l205 926h275l-117 -926h-363zM422 1049q75 0 123.5 -45t48.5 -115q0 -92 -61.5 -153.5t-153.5 -61.5q-74 0 -121 45t-47 115q0 91 60.5 153t150.5 62z" />
<glyph unicode="&#xa2;" d="M965 623l92 -197q-213 -138 -443 -150l-53 -188h-153l55 197q-154 57 -223.5 153t-69.5 252q0 126 44 241.5t124 198.5q79 83 172.5 123.5t239.5 55.5l51 184h153l-53 -184q139 -17 246 -80l-121 -207q-93 43 -203 43q-135 0 -218 -88.5t-83 -231.5q0 -98 45.5 -150 t130.5 -52q56 0 113 17t154 63z" />
<glyph unicode="&#xa3;" horiz-adv-x="1339" d="M1374 1343l-137 -245q-95 30 -199 30q-117 0 -180 -45t-106 -159l-29 -76h461l-45 -254h-502q-31 -122 -74.5 -198t-109.5 -120h714l-49 -276h-1120l-21 242q105 8 165.5 61.5t103.5 177.5l37 113h-217l45 254h254l43 119q83 228 234 332t400 104q160 0 332 -60z" />
<glyph unicode="&#xa4;" d="M1040 328l129 -193q-121 -86 -236 -125t-247 -39q-249 0 -391 142q-57 60 -84 127t-39 182h-199l35 209h178v2v2q0 18 8.5 58.5t14.5 54.5h-178l37 215h213q46 104 87.5 165t104.5 117q167 144 420 144q135 0 244 -37.5t215 -120.5l-187 -191q-133 93 -247 93 q-92 0 -157 -39.5t-120 -130.5h444l-36 -215h-488q-6 -10 -14 -52.5t-8 -60.5v-2v-2h487l-35 -209h-467q12 -105 61 -152t146 -47q71 0 138 23t171 82z" />
<glyph unicode="&#xa5;" horiz-adv-x="1390" d="M1415 1366l-383 -494h215l-37 -208h-342l-47 -66l-8 -43h379l-37 -207h-379l-61 -348h-344l61 348h-377l37 207h377l8 43l-28 66h-338l36 208h211l-211 494h383l154 -494l332 494h399z" />
<glyph unicode="&#xa6;" horiz-adv-x="593" d="M467 1366v-739h-340v739h340zM467 -342h-340v748h340v-748z" />
<glyph unicode="&#xa7;" horiz-adv-x="1171" d="M565 475l86 -39q44 20 72.5 56t28.5 73q0 36 -34.5 63.5t-133.5 69.5l-99 43q-47 -13 -75.5 -45.5t-28.5 -72.5q0 -42 31.5 -67.5t152.5 -80.5zM1143 1346l-88 -220q-132 29 -279 29q-209 0 -209 -86q0 -29 27.5 -49.5t105.5 -48.5q163 -62 234 -109q131 -82 131 -217 q0 -94 -59 -184t-160 -148q49 -41 67.5 -78.5t18.5 -95.5q0 -180 -154.5 -281.5t-425.5 -101.5q-206 0 -381 51l95 224q135 -33 264 -33q112 0 173.5 25t61.5 71q0 20 -15 34t-52 32q-2 2 -97 41q-201 85 -274.5 156t-73.5 180q0 214 230 323q-78 69 -78 176 q0 170 149 264.5t416 94.5q187 0 373 -49z" />
<glyph unicode="&#xa8;" horiz-adv-x="745" d="M268 1423q57 0 94 -35t37 -90q0 -69 -47 -117t-116 -48q-59 0 -96.5 33t-37.5 87q0 74 47 122t119 48zM754 1423q58 0 94.5 -34.5t36.5 -88.5q0 -72 -46.5 -119.5t-117.5 -47.5q-59 0 -96 33t-37 87q0 74 47 122t119 48z" />
<glyph unicode="&#xa9;" horiz-adv-x="1652" d="M827 1407q117 0 227 -36.5t199 -103t156.5 -155t104 -198.5t36.5 -226q0 -200 -96.5 -367.5t-263 -264.5t-363.5 -97t-364 97t-264 264t-97 364q0 196 97.5 362.5t264.5 263.5t363 97zM827 1311q-171 0 -315.5 -84t-228.5 -228.5t-84 -314.5q0 -171 84 -316t228.5 -229 t315.5 -84q170 0 315 84t229.5 228t84.5 313q0 129 -49.5 246t-134 201t-201 134t-244.5 50zM1178 360l-17 -8q-96 -48 -167 -67t-152 -19q-207 0 -340 115t-133 295q0 190 144 312t368 122q135 0 254 -45l16 -6l-55 -158l-17 4l-8 2t-9.5 3t-10.5 3l-7 2q-3 0 -6 3h-2 l-16 2q-11 2 -25 4q-54 8 -94 8q-123 0 -197.5 -66.5t-74.5 -175.5q0 -103 64.5 -170t164.5 -67q101 0 219 59q2 0 10 4q3 2 5 2z" />
<glyph unicode="&#xaa;" horiz-adv-x="673" d="M674 903l-10 -123q-69 -32 -138 -32q-54 0 -81 19.5t-33 63.5q-99 -83 -191 -83q-57 0 -93 37.5t-36 97.5q0 108 85 174t269 100v6v4l3 4v13q0 41 -50 41q-60 0 -184 -62l-37 123q164 96 311 96q75 0 120.5 -35.5t45.5 -93.5q0 -42 -10 -94l-27 -149q-12 -54 -12 -80 q0 -31 37 -31q15 0 31 4zM412 946l16 101q-67 -13 -105 -41.5t-38 -63.5q0 -15 11 -26t28 -11h2q23 0 67 29l10 6zM604 526h-561l20 125h562z" />
<glyph unicode="&#xab;" horiz-adv-x="987" d="M410 211l-183 -105l-211 408l344 389l162 -100l-227 -289zM795 211l-183 -105l-211 408l344 389l162 -100l-227 -289z" />
<glyph unicode="&#xac;" d="M1085 0h-159v432h-731v115h890v-547z" />
<glyph unicode="&#xad;" horiz-adv-x="657" d="M563 424h-561l45 254h561z" />
<glyph unicode="&#xae;" horiz-adv-x="1652" d="M827 1407q117 0 227 -36.5t199 -103t156.5 -155t104 -198.5t36.5 -226q0 -200 -96.5 -367.5t-263 -264.5t-363.5 -97t-364 97t-264 264t-97 364q0 196 97.5 362.5t264.5 263.5t363 97zM827 1311q-171 0 -315.5 -84t-228.5 -228.5t-84 -314.5q0 -171 84 -316t228.5 -229 t315.5 -84q170 0 315 84t229.5 228t84.5 313q0 129 -49.5 246t-134 201t-201 134t-244.5 50zM1241 285h-287l-139 276l-6 12q-18 37 -57 37h-4v-325h-254v805h325q139 0 205 -27q62 -25 97.5 -73.5t35.5 -108.5q0 -68 -49 -126t-119 -71l-10 -2l12 -6q15 -4 35 -19l4 -2 l21 -20q4 -4 14 -19zM748 760h32q119 0 119 96q0 44 -25 62t-86 18h-40v-176z" />
<glyph unicode="&#xaf;" horiz-adv-x="974" d="M754 1184h-559l32 196h559z" />
<glyph unicode="&#xb0;" d="M639 1389q117 0 200 -81.5t83 -195.5q0 -118 -82 -200.5t-201 -82.5q-118 0 -200.5 82t-82.5 199q0 115 83 197t200 82zM637 1266q-63 0 -107.5 -45.5t-44.5 -110.5q0 -66 45 -112t109 -46q62 0 108 46.5t46 109.5q0 65 -46 111.5t-110 46.5z" />
<glyph unicode="&#xb1;" d="M1104 629h-410v-410h-108v410h-410v108h410v410h108v-410h410v-108zM1104 0h-928v109h928v-109z" />
<glyph unicode="&#xb2;" horiz-adv-x="716" d="M627 723h-512l-17 133q16 13 33 23l8 6q32 19 41 26q126 85 219 164q72 66 72 111t-68 45q-54 0 -178 -41l-35 153q149 62 279 62q108 0 168.5 -45.5t60.5 -126.5q0 -111 -127 -223q-51 -45 -157 -117h243z" />
<glyph unicode="&#xb3;" horiz-adv-x="716" d="M242 1212l-27 138q147 55 266 55q91 0 143 -36.5t52 -100.5q0 -61 -36.5 -106.5t-96.5 -59.5q114 -26 114 -123q0 -166 -237 -231q-56 -15 -134.5 -23.5t-135.5 -5.5l-39 2l28 156q291 12 291 88q0 45 -125 45h-76l25 135q91 6 149 26t58 46q0 13 -13.5 21.5t-35.5 8.5 q-51 0 -170 -35z" />
<glyph unicode="&#xb4;" horiz-adv-x="530" d="M637 1278l-492 -174l-49 141l484 221z" />
<glyph unicode="&#xb5;" horiz-adv-x="1187" d="M954 0h-303l29 164q-94 -98 -186.5 -142.5t-196.5 -41.5l-37 -216h-307l215 1223h328l-103 -577q-4 -24 -4 -50q0 -79 74 -79q103 0 242 139l100 567h323z" />
<glyph unicode="&#xb6;" d="M930 -242h-185l256 1448h-98l-256 -1448h-184l147 830q-196 10 -288.5 87.5t-92.5 231.5q0 181 98.5 301t268.5 146q67 12 264 12h354z" />
<glyph unicode="&#xb7;" horiz-adv-x="745" d="M395 870q74 0 121 -44.5t47 -114.5q0 -91 -60.5 -153t-150.5 -62q-75 0 -123.5 44.5t-48.5 114.5q0 92 61.5 153.5t153.5 61.5z" />
<glyph unicode="&#xb8;" horiz-adv-x="974" d="M467 -348l-156 39l140 309h213z" />
<glyph unicode="&#xb9;" horiz-adv-x="696" d="M494 721h-213l81 465l-147 -64l-55 135l299 148l147 -51z" />
<glyph unicode="&#xba;" horiz-adv-x="737" d="M637 526h-590l21 125h589zM483 1384q122 0 195.5 -72t73.5 -190q0 -163 -102 -268.5t-259 -105.5q-125 0 -198.5 70t-73.5 188q0 166 102 272t262 106zM461 1223q-54 0 -92.5 -58.5t-38.5 -138.5q0 -54 22 -83.5t62 -29.5q52 0 89.5 57.5t37.5 137.5q0 54 -21.5 84.5 t-58.5 30.5z" />
<glyph unicode="&#xbb;" horiz-adv-x="970" d="M500 799l182 104l211 -389l-342 -408l-164 101l227 307zM115 799l182 104l211 -389l-342 -408l-164 101l227 307z" />
<glyph unicode="&#xbc;" horiz-adv-x="1433" d="M1257 111h-92l-20 -111h-182l20 111h-309l-17 135l435 442l168 -45l-68 -383h92zM494 721h-213l81 465l-147 -64l-53 135l297 148l147 -51zM993 260l37 205l-188 -205h151zM1368 1298l-1147 -1335l-145 117l1141 1329z" />
<glyph unicode="&#xbd;" horiz-adv-x="1433" d="M1294 0h-512l-16 133q16 13 33 23l8 6q32 19 41 26q126 85 219 164q72 66 72 111t-68 45q-61 0 -180 -41l-33 154q147 61 279 61q108 0 168.5 -45.5t60.5 -126.5q0 -111 -127 -223q-48 -42 -158 -117h244zM1368 1298l-1147 -1335l-145 117l1141 1329zM494 721h-213 l81 465l-147 -64l-53 135l297 148l147 -51z" />
<glyph unicode="&#xbe;" horiz-adv-x="1433" d="M211 1212l-27 138q147 55 267 55q91 0 142.5 -36.5t51.5 -100.5q0 -61 -36.5 -106.5t-96.5 -59.5q115 -27 115 -123q0 -165 -238 -231q-56 -15 -134.5 -23.5t-135.5 -5.5l-39 2l29 156q290 12 290 88q0 45 -125 45h-75l24 135q91 6 149 26t58 46q0 13 -13.5 21.5 t-35.5 8.5q-51 0 -170 -35zM1257 111h-92l-20 -111h-182l20 111h-309l-17 135l433 442l167 -45l-67 -383h92zM1008 260l36 205l-188 -205h152zM1368 1298l-1147 -1335l-145 117l1141 1329z" />
<glyph unicode="&#xbf;" horiz-adv-x="1089" d="M653 1085q75 0 122.5 -44.5t47.5 -114.5q0 -94 -60.5 -154.5t-152.5 -60.5q-74 0 -121 44.5t-47 114.5q0 91 60.5 153t150.5 62zM442 477l27 148h262l-22 -316q-192 -51 -296 -122.5t-104 -153.5q0 -46 34 -70t99 -24q128 0 334 71l66 -229q-266 -117 -504 -117 q-177 0 -278 83t-101 228q0 169 123.5 297.5t359.5 204.5z" />
<glyph unicode="&#xc0;" horiz-adv-x="1533" d="M1407 0h-397l-68 334h-536l-183 -334h-338l809 1366h377zM891 578l-96 462l-252 -462h348zM1198 1628l-90 -131l-434 191l106 172z" />
<glyph unicode="&#xc1;" horiz-adv-x="1533" d="M1407 0h-397l-68 334h-536l-183 -334h-338l809 1366h377zM891 578l-96 462l-252 -462h348zM1143 1671l-492 -174l-49 141l483 222z" />
<glyph unicode="&#xc2;" horiz-adv-x="1533" d="M1407 0h-397l-68 334h-536l-183 -334h-338l809 1366h377zM891 578l-96 462l-252 -462h348zM1280 1632l-104 -135l-267 152l-327 -152l-58 145l406 230z" />
<glyph unicode="&#xc3;" horiz-adv-x="1533" d="M1407 0h-397l-68 334h-536l-183 -334h-338l809 1366h377zM891 578l-96 462l-252 -462h348zM1188 1812l86 -126q-91 -77 -159 -110.5t-132 -33.5q-42 0 -106 29q-70 33 -121 33q-35 0 -66.5 -13.5t-89.5 -54.5l-86 129q152 129 270 129q47 0 109 -29q67 -28 119 -28 q75 0 176 75z" />
<glyph unicode="&#xc4;" horiz-adv-x="1533" d="M1407 0h-397l-68 334h-536l-183 -334h-338l809 1366h377zM891 578l-96 462l-252 -462h348zM678 1806q57 0 94 -35t37 -90q0 -69 -47.5 -117t-116.5 -48q-59 0 -96 33t-37 87q0 74 47 122t119 48zM1163 1806q58 0 94.5 -34.5t36.5 -88.5q0 -72 -46.5 -119.5t-117.5 -47.5 q-59 0 -96 33t-37 87q0 74 47 122t119 48z" />
<glyph unicode="&#xc5;" horiz-adv-x="1533" d="M1407 0h-397l-68 334h-536l-183 -334h-338l809 1366h377zM891 578l-96 462l-252 -462h348zM932 1845q75 0 124.5 -47t49.5 -119q0 -97 -62.5 -161t-156.5 -64q-80 0 -130 46.5t-50 119.5q0 97 64 161t161 64zM915 1733q-38 0 -64 -27.5t-26 -67.5q0 -32 20 -50.5 t54 -18.5q38 0 63 26t25 66q0 32 -20 52t-52 20z" />
<glyph unicode="&#xc6;" horiz-adv-x="2054" d="M1833 0h-903l59 334h-459l-247 -334h-398l1080 1366h1071l-47 -262h-504l-49 -277h469l-43 -254h-469l-54 -297h543zM1032 578l98 555l-415 -555h317z" />
<glyph unicode="&#xc7;" horiz-adv-x="1386" d="M1430 1290l-127 -239q-71 32 -157 51.5t-159 19.5q-113 0 -215.5 -42.5t-176.5 -114.5t-117.5 -172t-43.5 -211q0 -157 85 -240.5t243 -83.5q157 0 393 111l105 -236q-245 -150 -504 -162l-232 -399l-172 51l166 363q-225 59 -343 203.5t-118 363.5q0 178 72 335.5 t196 270t298 177.5t372 65q249 0 435 -111z" />
<glyph unicode="&#xc8;" horiz-adv-x="1224" d="M1001 0h-985l242 1366h948l-47 -262h-590l-49 -277h557l-43 -254h-557l-53 -297h627zM1010 1628l-90 -131l-435 191l107 172z" />
<glyph unicode="&#xc9;" horiz-adv-x="1224" d="M1001 0h-985l242 1366h948l-47 -262h-590l-49 -277h557l-43 -254h-557l-53 -297h627zM1047 1671l-492 -174l-49 141l483 222z" />
<glyph unicode="&#xca;" horiz-adv-x="1224" d="M1001 0h-985l242 1366h948l-47 -262h-590l-49 -277h557l-43 -254h-557l-53 -297h627zM1133 1632l-105 -135l-266 152l-328 -152l-57 145l405 230z" />
<glyph unicode="&#xcb;" horiz-adv-x="1224" d="M1001 0h-985l242 1366h948l-47 -262h-590l-49 -277h557l-43 -254h-557l-53 -297h627zM539 1806q57 0 94 -35t37 -90q0 -69 -47.5 -117t-116.5 -48q-59 0 -96 33t-37 87q0 74 47 122t119 48zM1024 1806q58 0 94.5 -34.5t36.5 -88.5q0 -72 -46.5 -119.5t-117.5 -47.5 q-59 0 -96 33t-37 87q0 74 47 122t119 48z" />
<glyph unicode="&#xcc;" horiz-adv-x="636" d="M379 0h-363l242 1366h363zM766 1628l-90 -131l-434 191l106 172z" />
<glyph unicode="&#xcd;" horiz-adv-x="636" d="M379 0h-363l242 1366h363zM721 1671l-492 -174l-49 141l484 222z" />
<glyph unicode="&#xce;" horiz-adv-x="636" d="M379 0h-363l242 1366h363zM860 1632l-104 -135l-267 152l-327 -152l-58 145l406 230z" />
<glyph unicode="&#xcf;" horiz-adv-x="636" d="M379 0h-363l242 1366h363zM252 1806q57 0 94 -35t37 -90q0 -69 -47.5 -117t-116.5 -48q-59 0 -96 33t-37 87q0 74 47 122t119 48zM737 1806q58 0 94.5 -34.5t36.5 -88.5q0 -72 -46.5 -119.5t-116.5 -47.5q-59 0 -96.5 33t-37.5 87q0 74 47 122t119 48z" />
<glyph unicode="&#xd0;" horiz-adv-x="1544" d="M188 819l97 547h413q252 0 367 -20q226 -38 337 -163.5t111 -342.5q0 -289 -163 -505.5t-437 -291.5q-97 -26 -192.5 -34.5t-298.5 -8.5h-379l102 582h-174l43 237h174zM831 819l-43 -237h-286l-53 -312h65q293 0 457 138t164 385q0 194 -115 260q-85 49 -330 49h-96 l-49 -283h286z" />
<glyph unicode="&#xd1;" horiz-adv-x="1499" d="M1241 0h-342l-412 797q-21 -124 -36 -199q-24 -164 -105 -598h-330l242 1366l330 -2l422 -815q80 460 143 817h330zM1163 1812l86 -126q-91 -77 -159 -110.5t-132 -33.5q-42 0 -106 29q-70 33 -121 33q-35 0 -66.5 -13.5t-89.5 -54.5l-86 129q152 129 271 129 q46 0 108 -29q67 -28 119 -28q75 0 176 75z" />
<glyph unicode="&#xd2;" horiz-adv-x="1599" d="M918 1401q289 0 455.5 -158.5t166.5 -433.5q0 -235 -110.5 -427.5t-304 -302.5t-429.5 -110q-284 0 -459.5 164t-175.5 428q0 178 65.5 334t179 267t272.5 175t340 64zM864 1100q-115 0 -211 -66.5t-151.5 -181t-55.5 -250.5q0 -149 76 -236t205 -87q178 0 303 144.5 t125 348.5q0 150 -79 239t-212 89zM1204 1628l-90 -131l-434 191l106 172z" />
<glyph unicode="&#xd3;" horiz-adv-x="1599" d="M918 1401q289 0 455.5 -158.5t166.5 -433.5q0 -235 -110.5 -427.5t-304 -302.5t-429.5 -110q-284 0 -459.5 164t-175.5 428q0 178 65.5 334t179 267t272.5 175t340 64zM864 1100q-115 0 -211 -66.5t-151.5 -181t-55.5 -250.5q0 -149 76 -236t205 -87q178 0 303 144.5 t125 348.5q0 150 -79 239t-212 89zM1233 1671l-492 -174l-49 141l484 222z" />
<glyph unicode="&#xd4;" horiz-adv-x="1599" d="M918 1401q289 0 455.5 -158.5t166.5 -433.5q0 -235 -110.5 -427.5t-304 -302.5t-429.5 -110q-284 0 -459.5 164t-175.5 428q0 178 65.5 334t179 267t272.5 175t340 64zM864 1100q-115 0 -211 -66.5t-151.5 -181t-55.5 -250.5q0 -149 76 -236t205 -87q178 0 303 144.5 t125 348.5q0 150 -79 239t-212 89zM1319 1632l-105 -135l-266 152l-327 -152l-58 145l406 230z" />
<glyph unicode="&#xd5;" horiz-adv-x="1599" d="M918 1401q289 0 455.5 -158.5t166.5 -433.5q0 -235 -110.5 -427.5t-304 -302.5t-429.5 -110q-284 0 -459.5 164t-175.5 428q0 178 65.5 334t179 267t272.5 175t340 64zM864 1100q-115 0 -211 -66.5t-151.5 -181t-55.5 -250.5q0 -149 76 -236t205 -87q178 0 303 144.5 t125 348.5q0 150 -79 239t-212 89zM1227 1812l86 -126q-91 -77 -159 -110.5t-132 -33.5q-43 0 -107 29q-70 33 -120 33q-35 0 -66.5 -13.5t-89.5 -54.5l-86 129q152 129 270 129q47 0 109 -29q67 -28 119 -28q75 0 176 75z" />
<glyph unicode="&#xd6;" horiz-adv-x="1599" d="M918 1401q289 0 455.5 -158.5t166.5 -433.5q0 -235 -110.5 -427.5t-304 -302.5t-429.5 -110q-284 0 -459.5 164t-175.5 428q0 178 65.5 334t179 267t272.5 175t340 64zM864 1100q-115 0 -211 -66.5t-151.5 -181t-55.5 -250.5q0 -149 76 -236t205 -87q178 0 303 144.5 t125 348.5q0 150 -79 239t-212 89zM729 1806q57 0 94 -35t37 -90q0 -69 -47.5 -117t-116.5 -48q-59 0 -96 33t-37 87q0 74 47 122t119 48zM1214 1806q58 0 95 -34.5t37 -88.5q0 -72 -46.5 -119.5t-117.5 -47.5q-59 0 -96 33t-37 87q0 74 46.5 122t118.5 48z" />
<glyph unicode="&#xd7;" d="M1198 172l-178 -178l-379 377l-379 -377l-178 178l377 379l-379 379l178 178l381 -377l379 377l178 -178l-377 -379z" />
<glyph unicode="&#xd8;" horiz-adv-x="1601" d="M1141 893l-619 -526q79 -88 205 -88q118 0 216.5 66.5t155 180.5t56.5 250q0 65 -14 117zM457 500l610 520q-83 80 -203 80q-115 0 -211 -66.5t-151.5 -181.5t-55.5 -252q0 -52 11 -100zM1620 1300l-172 -145q92 -142 92 -342q0 -178 -64.5 -334.5t-176 -268.5 t-268.5 -176.5t-335 -64.5q-139 0 -248.5 39t-205.5 123l-181 -154l-90 111l179 152q-89 149 -89 323q0 236 111.5 428t308 301t439.5 109q133 0 237 -33.5t195 -105.5l172 147z" />
<glyph unicode="&#xd9;" horiz-adv-x="1507" d="M1499 1366l-127 -723q-32 -185 -76.5 -290t-124.5 -185q-189 -195 -557 -195q-526 0 -526 408q0 76 25 215l135 770h354l-139 -793q-17 -92 -17 -129q0 -84 61 -132t167 -48q89 0 163 31.5t117 87.5q31 40 50 95t36 155l129 733h330zM1143 1628l-90 -131l-435 191 l107 172z" />
<glyph unicode="&#xda;" horiz-adv-x="1507" d="M1499 1366l-127 -723q-32 -185 -76.5 -290t-124.5 -185q-189 -195 -557 -195q-526 0 -526 408q0 76 25 215l135 770h354l-139 -793q-17 -92 -17 -129q0 -84 61 -132t167 -48q89 0 163 31.5t117 87.5q31 40 50 95t36 155l129 733h330zM1163 1671l-491 -174l-49 141 l483 222z" />
<glyph unicode="&#xdb;" horiz-adv-x="1507" d="M1499 1366l-127 -723q-32 -185 -76.5 -290t-124.5 -185q-189 -195 -557 -195q-526 0 -526 408q0 76 25 215l135 770h354l-139 -793q-17 -92 -17 -129q0 -84 61 -132t167 -48q89 0 163 31.5t117 87.5q31 40 50 95t36 155l129 733h330zM1288 1632l-104 -135l-266 152 l-328 -152l-58 145l406 230z" />
<glyph unicode="&#xdc;" horiz-adv-x="1507" d="M1499 1366l-127 -723q-32 -185 -76.5 -290t-124.5 -185q-189 -195 -557 -195q-526 0 -526 408q0 76 25 215l135 770h354l-139 -793q-17 -92 -17 -129q0 -84 61 -132t167 -48q89 0 163 31.5t117 87.5q31 40 50 95t36 155l129 733h330zM682 1806q57 0 94 -35t37 -90 q0 -69 -47.5 -117t-116.5 -48q-59 0 -96 33t-37 87q0 74 47 122t119 48zM1167 1806q58 0 94.5 -34.5t36.5 -88.5q0 -72 -46.5 -119.5t-116.5 -47.5q-59 0 -96.5 33t-37.5 87q0 74 47 122t119 48z" />
<glyph unicode="&#xdd;" horiz-adv-x="1355" d="M1468 1366l-628 -776l-105 -590h-354l104 590l-358 776h451l165 -498l359 498h366zM1118 1671l-491 -174l-49 141l483 222z" />
<glyph unicode="&#xde;" horiz-adv-x="1224" d="M461 506h80q135 0 206.5 60.5t71.5 174.5q0 138 -196 138h-97zM569 1126h131q148 0 218 -12q129 -23 200.5 -110.5t71.5 -221.5q0 -158 -70.5 -276t-201.5 -178q-129 -60 -332 -60h-168l-47 -268h-357l242 1366h356z" />
<glyph unicode="&#xdf;" horiz-adv-x="1277" d="M420 12l100 230q71 -15 115 -15q174 0 174 119q0 41 -22.5 80.5t-81.5 99.5q-56 58 -78.5 95t-22.5 75q0 46 23.5 86.5t97.5 122.5q73 84 100 130t27 87q0 50 -31.5 79.5t-85.5 29.5q-100 0 -158.5 -79t-89.5 -257l-157 -895h-328l158 895q55 315 203.5 457.5 t420.5 142.5q188 0 291 -74t103 -209q0 -88 -37.5 -166.5t-124.5 -171.5q-41 -44 -56.5 -69t-15.5 -47q0 -41 76 -117q73 -76 102 -136t29 -136q0 -173 -139 -280t-365 -107q-135 0 -227 30z" />
<glyph unicode="&#xe0;" horiz-adv-x="1095" d="M535 287l30 176q-256 -44 -256 -180q0 -29 18.5 -46.5t47.5 -17.5q32 0 62.5 13t97.5 55zM971 215l-19 -188q-48 -22 -114 -37t-117 -15q-86 0 -129 32t-55 104q-174 -136 -332 -136q-99 0 -160 60.5t-61 159.5q0 211 223 329q69 38 158 64t229 51l2 10v4l2 6l2 31 q0 66 -88 66q-102 0 -289 -86l-30 -15l-64 197q301 162 535 162q127 0 201.5 -57.5t74.5 -155.5q0 -49 -18 -150l-45 -262q-1 -5 -3 -14.5t-4 -22.5q-14 -66 -14 -92q0 -51 59 -51q9 0 41 4l9 2h2h4zM848 1235l-90 -131l-434 190l106 172z" />
<glyph unicode="&#xe1;" horiz-adv-x="1095" d="M535 287l30 176q-256 -44 -256 -180q0 -29 18.5 -46.5t47.5 -17.5q32 0 62.5 13t97.5 55zM971 215l-19 -188q-48 -22 -114 -37t-117 -15q-86 0 -129 32t-55 104q-174 -136 -332 -136q-99 0 -160 60.5t-61 159.5q0 211 223 329q69 38 158 64t229 51l2 10v4l2 6l2 31 q0 66 -88 66q-102 0 -289 -86l-30 -15l-64 197q301 162 535 162q127 0 201.5 -57.5t74.5 -155.5q0 -49 -18 -150l-45 -262q-1 -5 -3 -14.5t-4 -22.5q-14 -66 -14 -92q0 -51 59 -51q9 0 41 4l9 2h2h4zM899 1278l-491 -174l-50 141l484 221z" />
<glyph unicode="&#xe2;" horiz-adv-x="1095" d="M535 287l30 176q-256 -44 -256 -180q0 -29 18.5 -46.5t47.5 -17.5q32 0 62.5 13t97.5 55zM971 215l-19 -188q-48 -22 -114 -37t-117 -15q-86 0 -129 32t-55 104q-174 -136 -332 -136q-99 0 -160 60.5t-61 159.5q0 211 223 329q69 38 158 64t229 51l2 10v4l2 6l2 31 q0 66 -88 66q-102 0 -289 -86l-30 -15l-64 197q301 162 535 162q127 0 201.5 -57.5t74.5 -155.5q0 -49 -18 -150l-45 -262q-1 -5 -3 -14.5t-4 -22.5q-14 -66 -14 -92q0 -51 59 -51q9 0 41 4l9 2h2h4zM1036 1227l-104 -135l-266 151l-328 -151l-57 145l405 229z" />
<glyph unicode="&#xe3;" horiz-adv-x="1095" d="M535 287l30 176q-256 -44 -256 -180q0 -29 18.5 -46.5t47.5 -17.5q32 0 62.5 13t97.5 55zM971 215l-19 -188q-48 -22 -114 -37t-117 -15q-86 0 -129 32t-55 104q-174 -136 -332 -136q-99 0 -160 60.5t-61 159.5q0 211 223 329q69 38 158 64t229 51l2 10v4l2 6l2 31 q0 66 -88 66q-102 0 -289 -86l-30 -15l-64 197q301 162 535 162q127 0 201.5 -57.5t74.5 -155.5q0 -49 -18 -150l-45 -262q-1 -5 -3 -14.5t-4 -22.5q-14 -66 -14 -92q0 -51 59 -51q9 0 41 4l9 2h2h4zM907 1425l86 -127q-91 -76 -158.5 -109.5t-132.5 -33.5q-42 0 -106 29 q-70 33 -121 33q-35 0 -66.5 -13.5t-89.5 -54.5l-86 129q152 129 271 129q46 0 108 -29q67 -28 119 -28q75 0 176 75z" />
<glyph unicode="&#xe4;" horiz-adv-x="1095" d="M535 287l30 176q-256 -44 -256 -180q0 -29 18.5 -46.5t47.5 -17.5q32 0 62.5 13t97.5 55zM971 215l-19 -188q-48 -22 -114 -37t-117 -15q-86 0 -129 32t-55 104q-174 -136 -332 -136q-99 0 -160 60.5t-61 159.5q0 211 223 329q69 38 158 64t229 51l2 10v4l2 6l2 31 q0 66 -88 66q-102 0 -289 -86l-30 -15l-64 197q301 162 535 162q127 0 201.5 -57.5t74.5 -155.5q0 -49 -18 -150l-45 -262q-1 -5 -3 -14.5t-4 -22.5q-14 -66 -14 -92q0 -51 59 -51q9 0 41 4l9 2h2h4zM438 1423q57 0 94 -35t37 -90q0 -69 -47 -117t-116 -48q-59 0 -96.5 33 t-37.5 87q0 74 47 122t119 48zM924 1423q58 0 94.5 -34.5t36.5 -88.5q0 -72 -46.5 -119.5t-117.5 -47.5q-59 0 -96 33t-37 87q0 74 47 122t119 48z" />
<glyph unicode="&#xe5;" horiz-adv-x="1095" d="M535 287l30 176q-256 -44 -256 -180q0 -29 18.5 -46.5t47.5 -17.5q32 0 62.5 13t97.5 55zM971 215l-19 -188q-48 -22 -114 -37t-117 -15q-86 0 -129 32t-55 104q-174 -136 -332 -136q-99 0 -160 60.5t-61 159.5q0 211 223 329q69 38 158 64t229 51l2 10v4l2 6l2 31 q0 66 -88 66q-102 0 -289 -86l-30 -15l-64 197q301 162 535 162q127 0 201.5 -57.5t74.5 -155.5q0 -49 -18 -150l-45 -262q-1 -5 -3 -14.5t-4 -22.5q-14 -66 -14 -92q0 -51 59 -51q9 0 41 4l9 2h2h4zM659 1477q75 0 125 -47t50 -119q0 -97 -63 -161.5t-157 -64.5 q-80 0 -130 46.5t-50 119.5q0 97 64 161.5t161 64.5zM643 1364q-38 0 -64 -27t-26 -67q0 -32 20 -51t54 -19q38 0 63 26t25 66q0 32 -20 52t-52 20z" />
<glyph unicode="&#xe6;" horiz-adv-x="1591" d="M1358 326l78 -185q-143 -90 -255.5 -128t-234.5 -38q-127 0 -204.5 41t-127.5 134q-125 -94 -215.5 -133.5t-183.5 -39.5q-110 0 -170.5 59.5t-60.5 166.5q0 206 215 313q130 62 389 94q4 39 4 62q0 80 -84 80q-99 0 -313 -97l-66 193q166 89 291 129.5t235 40.5 q152 0 197 -94q143 96 307 96q158 0 252 -92.5t94 -249.5q0 -109 -20 -207l-10 -51h-596q-2 -6 -2 -19v-10q0 -89 38.5 -128.5t126.5 -39.5q68 0 137 22.5t179 80.5zM915 612l295 11q7 47 7 73q0 66 -24.5 96.5t-78.5 30.5q-150 0 -199 -211zM563 293q-4 50 -4 63q0 40 6 78 q-135 -15 -195.5 -53t-60.5 -107q0 -61 66 -61q32 0 68.5 15.5t119.5 64.5z" />
<glyph unicode="&#xe7;" horiz-adv-x="1034" d="M530 -16l-188 -332l-156 39l138 305q-293 95 -293 426q0 274 169.5 434t458.5 160q192 0 347 -86l-121 -205q-98 43 -201 43q-133 0 -218 -88.5t-85 -228.5q0 -97 48.5 -151t137.5 -54q52 0 107 17.5t147 62.5l88 -189q-180 -129 -379 -153z" />
<glyph unicode="&#xe8;" horiz-adv-x="1114" d="M408 618l309 9q4 39 4 69q0 127 -109 127q-148 0 -204 -205zM879 328l88 -178q-134 -93 -254.5 -135t-253.5 -42q-204 0 -317 112.5t-113 315.5q0 176 78 316.5t216.5 219.5t311.5 79q186 0 289.5 -100t103.5 -279q0 -76 -14 -150l-10 -57h-633v-2v-4q-2 -4 -2 -8v-6 q-2 -10 -2 -27q0 -83 40.5 -121.5t129.5 -38.5q142 0 342 105zM889 1235l-90 -131l-434 190l106 172z" />
<glyph unicode="&#xe9;" horiz-adv-x="1114" d="M408 618l309 9q4 39 4 69q0 127 -109 127q-148 0 -204 -205zM879 328l88 -178q-134 -93 -254.5 -135t-253.5 -42q-204 0 -317 112.5t-113 315.5q0 176 78 316.5t216.5 219.5t311.5 79q186 0 289.5 -100t103.5 -279q0 -76 -14 -150l-10 -57h-633v-2v-4q-2 -4 -2 -8v-6 q-2 -10 -2 -27q0 -83 40.5 -121.5t129.5 -38.5q142 0 342 105zM901 1278l-491 -174l-50 141l484 221z" />
<glyph unicode="&#xea;" horiz-adv-x="1114" d="M408 618l309 9q4 39 4 69q0 127 -109 127q-148 0 -204 -205zM879 328l88 -178q-134 -93 -254.5 -135t-253.5 -42q-204 0 -317 112.5t-113 315.5q0 176 78 316.5t216.5 219.5t311.5 79q186 0 289.5 -100t103.5 -279q0 -76 -14 -150l-10 -57h-633v-2v-4q-2 -4 -2 -8v-6 q-2 -10 -2 -27q0 -83 40.5 -121.5t129.5 -38.5q142 0 342 105zM1034 1227l-104 -135l-266 151l-328 -151l-57 145l405 229z" />
<glyph unicode="&#xeb;" horiz-adv-x="1114" d="M408 618l309 9q4 39 4 69q0 127 -109 127q-148 0 -204 -205zM879 328l88 -178q-134 -93 -254.5 -135t-253.5 -42q-204 0 -317 112.5t-113 315.5q0 176 78 316.5t216.5 219.5t311.5 79q186 0 289.5 -100t103.5 -279q0 -76 -14 -150l-10 -57h-633v-2v-4q-2 -4 -2 -8v-6 q-2 -10 -2 -27q0 -83 40.5 -121.5t129.5 -38.5q142 0 342 105zM451 1423q57 0 94 -35t37 -90q0 -69 -47.5 -117t-116.5 -48q-59 0 -96 33t-37 87q0 74 47 122t119 48zM936 1423q58 0 94.5 -34.5t36.5 -88.5q0 -72 -46.5 -119.5t-117.5 -47.5q-59 0 -96 33t-37 87 q0 74 47 122t119 48z" />
<glyph unicode="&#xec;" horiz-adv-x="585" d="M336 0h-326l174 987h326zM631 1235l-90 -131l-435 190l107 172z" />
<glyph unicode="&#xed;" horiz-adv-x="585" d="M336 0h-326l174 987h326zM637 1278l-492 -174l-49 141l484 221z" />
<glyph unicode="&#xee;" horiz-adv-x="585" d="M336 0h-326l174 987h326zM764 1227l-105 -135l-266 151l-327 -151l-58 145l406 229z" />
<glyph unicode="&#xef;" horiz-adv-x="585" d="M336 0h-326l174 987h326zM154 1423q57 0 94 -35t37 -90q0 -69 -47.5 -117t-116.5 -48q-59 0 -96 33.5t-37 88.5q0 72 47.5 120t118.5 48zM639 1423q58 0 94.5 -34.5t36.5 -88.5q0 -72 -46.5 -119.5t-117.5 -47.5q-59 0 -96 33t-37 87q0 74 47 122t119 48z" />
<glyph unicode="&#xf0;" horiz-adv-x="1103" d="M1124 1268l-151 -43q46 -83 65 -160.5t19 -177.5q0 -159 -41.5 -320t-116.5 -291q-82 -145 -206 -222t-275 -77q-181 0 -287 114.5t-106 311.5q0 275 158.5 452t404.5 177q98 0 196 -37q-15 108 -57 156l-250 -72l-24 154l125 35q-116 48 -289 71l67 191 q370 -39 514 -164l224 66zM766 743q-88 60 -193 60q-120 0 -195 -104t-75 -269q0 -94 38.5 -145.5t107.5 -51.5q108 0 189.5 131t127.5 379z" />
<glyph unicode="&#xf1;" horiz-adv-x="1214" d="M969 0h-328l90 512q17 84 17 127q0 78 -74 78q-97 0 -234 -131l-104 -586h-326l174 987h314l-25 -137q198 168 389 168q109 0 172.5 -59t63.5 -160q0 -70 -21 -187zM1001 1425l86 -127q-91 -77 -158.5 -110t-131.5 -33q-43 0 -107 29q-70 33 -121 33q-35 0 -66 -13.5 t-89 -54.5l-86 129q152 129 270 129q47 0 109 -29q67 -28 118 -28q75 0 176 75z" />
<glyph unicode="&#xf2;" horiz-adv-x="1204" d="M649 1020q209 0 333 -116.5t124 -313.5q0 -176 -78.5 -316.5t-218 -219.5t-313.5 -79q-212 0 -338.5 115t-126.5 309q0 178 79 320t220 221.5t319 79.5zM610 768q-94 0 -160.5 -99t-66.5 -239q0 -92 38.5 -143t106.5 -51q94 0 161 99t67 238q0 92 -38.5 143.5 t-107.5 51.5zM934 1235l-90 -131l-434 190l106 172z" />
<glyph unicode="&#xf3;" horiz-adv-x="1204" d="M649 1020q209 0 333 -116.5t124 -313.5q0 -176 -78.5 -316.5t-218 -219.5t-313.5 -79q-212 0 -338.5 115t-126.5 309q0 178 79 320t220 221.5t319 79.5zM610 768q-94 0 -160.5 -99t-66.5 -239q0 -92 38.5 -143t106.5 -51q94 0 161 99t67 238q0 92 -38.5 143.5 t-107.5 51.5zM961 1278l-492 -174l-49 141l483 221z" />
<glyph unicode="&#xf4;" horiz-adv-x="1204" d="M649 1020q209 0 333 -116.5t124 -313.5q0 -176 -78.5 -316.5t-218 -219.5t-313.5 -79q-212 0 -338.5 115t-126.5 309q0 178 79 320t220 221.5t319 79.5zM610 768q-94 0 -160.5 -99t-66.5 -239q0 -92 38.5 -143t106.5 -51q94 0 161 99t67 238q0 92 -38.5 143.5 t-107.5 51.5zM1053 1227l-105 -135l-266 151l-328 -151l-57 145l405 229z" />
<glyph unicode="&#xf5;" horiz-adv-x="1204" d="M649 1020q209 0 333 -116.5t124 -313.5q0 -176 -78.5 -316.5t-218 -219.5t-313.5 -79q-212 0 -338.5 115t-126.5 309q0 178 79 320t220 221.5t319 79.5zM610 768q-94 0 -160.5 -99t-66.5 -239q0 -92 38.5 -143t106.5 -51q94 0 161 99t67 238q0 92 -38.5 143.5 t-107.5 51.5zM983 1425l86 -127q-91 -76 -158.5 -109.5t-132.5 -33.5q-42 0 -106 29q-70 33 -121 33q-35 0 -66.5 -13.5t-89.5 -54.5l-86 129q152 129 271 129q46 0 108 -29q67 -28 119 -28q75 0 176 75z" />
<glyph unicode="&#xf6;" horiz-adv-x="1204" d="M649 1020q209 0 333 -116.5t124 -313.5q0 -176 -78.5 -316.5t-218 -219.5t-313.5 -79q-212 0 -338.5 115t-126.5 309q0 178 79 320t220 221.5t319 79.5zM610 768q-94 0 -160.5 -99t-66.5 -239q0 -92 38.5 -143t106.5 -51q94 0 161 99t67 238q0 92 -38.5 143.5 t-107.5 51.5zM473 1423q57 0 94 -35t37 -90q0 -69 -47.5 -117t-116.5 -48q-59 0 -96 33t-37 87q0 74 47 122t119 48zM958 1423q58 0 95 -34.5t37 -88.5q0 -72 -46.5 -119.5t-117.5 -47.5q-59 0 -96 33t-37 87q0 74 46.5 122t118.5 48z" />
<glyph unicode="&#xf7;" d="M647 1184q77 0 132 -55t55 -132q0 -78 -55 -133t-132 -55q-78 0 -133 54.5t-55 131.5q0 78 55 133.5t133 55.5zM647 360q77 0 132 -55t55 -131q0 -78 -55 -133t-132 -55q-78 0 -133 55t-55 133q0 77 55 131.5t133 54.5zM1153 475h-1024v219h1024v-219z" />
<glyph unicode="&#xf8;" horiz-adv-x="1206" d="M756 569l-336 -280q42 -53 106 -53q98 0 161 91t69 242zM383 424l342 285q-42 59 -113 59q-95 0 -162 -98t-67 -236v-10zM1171 918l-120 -101q55 -102 55 -225q0 -176 -78.5 -317t-218 -220.5t-313.5 -79.5q-193 0 -326 105l-121 -103l-80 103l117 98q-55 99 -55 219 q0 179 79 321t220 222t319 80q99 0 174.5 -25t145.5 -82l123 103z" />
<glyph unicode="&#xf9;" horiz-adv-x="1214" d="M963 0h-324l25 139q-191 -159 -359 -159q-120 0 -186 67.5t-66 190.5q0 41 23 180l100 569h328l-98 -565q0 -2 -3 -8q-6 -27 -6 -49q0 -80 74 -80q105 0 240 129l100 573h326zM938 1235l-90 -131l-434 190l106 172z" />
<glyph unicode="&#xfa;" horiz-adv-x="1214" d="M963 0h-324l25 139q-191 -159 -359 -159q-120 0 -186 67.5t-66 190.5q0 41 23 180l100 569h328l-98 -565q0 -2 -3 -8q-6 -27 -6 -49q0 -80 74 -80q105 0 240 129l100 573h326zM973 1278l-492 -174l-49 141l483 221z" />
<glyph unicode="&#xfb;" horiz-adv-x="1214" d="M963 0h-324l25 139q-191 -159 -359 -159q-120 0 -186 67.5t-66 190.5q0 41 23 180l100 569h328l-98 -565q0 -2 -3 -8q-6 -27 -6 -49q0 -80 74 -80q105 0 240 129l100 573h326zM1061 1227l-105 -135l-266 151l-328 -151l-57 145l406 229z" />
<glyph unicode="&#xfc;" horiz-adv-x="1214" d="M963 0h-324l25 139q-191 -159 -359 -159q-120 0 -186 67.5t-66 190.5q0 41 23 180l100 569h328l-98 -565q0 -2 -3 -8q-6 -27 -6 -49q0 -80 74 -80q105 0 240 129l100 573h326zM463 1423q57 0 94 -35t37 -90q0 -69 -47.5 -117t-116.5 -48q-59 0 -96 33t-37 87q0 74 47 122 t119 48zM948 1423q58 0 94.5 -34.5t36.5 -88.5q0 -72 -46.5 -119.5t-117.5 -47.5q-59 0 -96 33t-37 87q0 74 47 122t119 48z" />
<glyph unicode="&#xfd;" horiz-adv-x="1114" d="M1153 987l-610 -1096q-83 -148 -140 -219q-72 -89 -163.5 -130.5t-216.5 -41.5q-121 0 -236 37l90 225q47 -8 94 -8q78 0 128 33t110 125l35 53l-209 1022h342l104 -653l340 653h332zM903 1278l-491 -174l-50 141l484 221z" />
<glyph unicode="&#xfe;" horiz-adv-x="1257" d="M446 623l-49 -273q61 -108 185 -108q97 0 162 88t65 219q0 86 -39.5 136t-105.5 50q-106 0 -218 -112zM360 135l-106 -608h-326l340 1939h301l-108 -618q113 96 192 133t172 37q157 0 246.5 -102t89.5 -279q0 -229 -106 -418q-64 -117 -168 -180.5t-230 -63.5 q-200 0 -297 160z" />
<glyph unicode="&#xff;" horiz-adv-x="1114" d="M1153 987l-610 -1096q-83 -148 -140 -219q-72 -89 -163.5 -130.5t-216.5 -41.5q-121 0 -236 37l90 225q47 -8 94 -8q78 0 128 33t110 125l35 53l-209 1022h342l104 -653l340 653h332zM395 1423q57 0 94 -35t37 -90q0 -69 -47.5 -117t-116.5 -48q-59 0 -96 33t-37 87 q0 74 47 122t119 48zM881 1423q58 0 94.5 -34.5t36.5 -88.5q0 -72 -46.5 -119.5t-117.5 -47.5q-59 0 -96 33t-37 87q0 74 47 122t119 48z" />
<glyph unicode="&#x100;" horiz-adv-x="1533" d="M1407 0h-397l-68 334h-536l-183 -334h-338l809 1366h377zM891 578l-96 462l-252 -462h348zM1188 1530h-641l35 196h641z" />
<glyph unicode="&#x101;" horiz-adv-x="1095" d="M535 287l30 176q-256 -44 -256 -180q0 -29 18.5 -46.5t47.5 -17.5q32 0 62.5 13t97.5 55zM971 215l-19 -188q-48 -22 -114 -37t-117 -15q-86 0 -129 32t-55 104q-174 -136 -332 -136q-99 0 -160 60.5t-61 159.5q0 211 223 329q69 38 158 64t229 51l2 10v4l2 6l2 31 q0 66 -88 66q-102 0 -289 -86l-30 -15l-64 197q301 162 535 162q127 0 201.5 -57.5t74.5 -155.5q0 -49 -18 -150l-45 -262q-1 -5 -3 -14.5t-4 -22.5q-14 -66 -14 -92q0 -51 59 -51q9 0 41 4l9 2h2h4zM864 1184h-559l33 196h559z" />
<glyph unicode="&#x102;" horiz-adv-x="1533" d="M1407 0h-397l-68 334h-536l-183 -334h-338l809 1366h377zM891 578l-96 462l-252 -462h348zM539 1798h161q3 -75 44.5 -108t129.5 -33q85 0 131.5 33.5t63.5 107.5h162q-46 -301 -373 -301q-213 0 -287 137q-20 39 -26 68t-6 96z" />
<glyph unicode="&#x103;" horiz-adv-x="1095" d="M535 287l30 176q-256 -44 -256 -180q0 -29 18.5 -46.5t47.5 -17.5q32 0 62.5 13t97.5 55zM971 215l-19 -188q-48 -22 -114 -37t-117 -15q-86 0 -129 32t-55 104q-174 -136 -332 -136q-99 0 -160 60.5t-61 159.5q0 211 223 329q69 38 158 64t229 51l2 10v4l2 6l2 31 q0 66 -88 66q-102 0 -289 -86l-30 -15l-64 197q301 162 535 162q127 0 201.5 -57.5t74.5 -155.5q0 -49 -18 -150l-45 -262q-1 -5 -3 -14.5t-4 -22.5q-14 -66 -14 -92q0 -51 59 -51q9 0 41 4l9 2h2h4zM748 1419h153q-52 -276 -319 -276q-127 0 -199 59.5t-72 165.5q0 31 4 51 h154v-12q0 -54 28.5 -79t88.5 -25q66 0 104 27t58 89z" />
<glyph unicode="&#x104;" horiz-adv-x="1533" d="M1004 -205q0 111 133 205h-127l-68 334h-536l-183 -334h-338l809 1366h377l336 -1366q-47 -18 -92 -54t-45 -69q0 -45 49 -45q19 0 59 10l-18 -188q-88 -39 -170 -39q-31 0 -61 9t-59.5 28t-47.5 56t-18 87zM891 578l-96 462l-252 -462h348z" />
<glyph unicode="&#x105;" horiz-adv-x="1095" d="M971 215l-19 -188q-170 -85 -170 -150q0 -45 49 -45q20 0 60 10l-19 -188q-88 -39 -170 -39q-31 0 -61 9t-59.5 28t-47.5 56t-18 87q0 98 119 191q-83 23 -98 125q-174 -136 -332 -136q-99 0 -160 60.5t-61 159.5q0 211 223 329q69 38 158 64t229 51q6 24 6 51 q0 66 -88 66q-102 0 -289 -86l-30 -15l-64 197q301 162 535 162q127 0 201.5 -57.5t74.5 -155.5q0 -49 -18 -150l-45 -262q-21 -115 -21 -129q0 -51 59 -51q32 0 56 6zM535 287l30 176q-256 -44 -256 -180q0 -29 18.5 -46.5t47.5 -17.5q32 0 62.5 13t97.5 55z" />
<glyph unicode="&#x106;" horiz-adv-x="1386" d="M1430 1290l-127 -239q-71 32 -157 51.5t-159 19.5q-113 0 -215.5 -42.5t-176.5 -114.5t-117.5 -172t-43.5 -211q0 -157 85 -240.5t245 -83.5q155 0 391 111l105 -236q-129 -80 -275.5 -123t-288.5 -43q-287 0 -463 160.5t-176 423.5q0 179 71.5 337t195.5 270.5 t298.5 177.5t372.5 65q249 0 435 -111zM1245 1671l-491 -174l-49 141l483 222z" />
<glyph unicode="&#x107;" horiz-adv-x="1034" d="M821 326l88 -189q-121 -83 -227.5 -120t-222.5 -37q-195 0 -311.5 120t-116.5 322q0 274 169.5 434t458.5 160q192 0 347 -86l-121 -205q-98 43 -201 43q-133 0 -218 -88.5t-85 -228.5q0 -97 48.5 -151t137.5 -54q52 0 107 17.5t147 62.5zM899 1278l-491 -174l-50 141 l484 221z" />
<glyph unicode="&#x108;" horiz-adv-x="1386" d="M1430 1290l-127 -239q-71 32 -157 51.5t-159 19.5q-113 0 -215.5 -42.5t-176.5 -114.5t-117.5 -172t-43.5 -211q0 -157 85 -240.5t245 -83.5q155 0 391 111l105 -236q-129 -80 -275.5 -123t-288.5 -43q-287 0 -463 160.5t-176 423.5q0 179 71.5 337t195.5 270.5 t298.5 177.5t372.5 65q249 0 435 -111zM1346 1632l-105 -135l-266 152l-328 -152l-57 145l405 230z" />
<glyph unicode="&#x109;" horiz-adv-x="1034" d="M821 326l88 -189q-121 -83 -227.5 -120t-222.5 -37q-195 0 -311.5 120t-116.5 322q0 274 169.5 434t458.5 160q192 0 347 -86l-121 -205q-98 43 -201 43q-133 0 -218 -88.5t-85 -228.5q0 -97 48.5 -151t137.5 -54q52 0 107 17.5t147 62.5zM1006 1227l-105 -135l-266 151 l-328 -151l-57 145l405 229z" />
<glyph unicode="&#x10a;" horiz-adv-x="1386" d="M1430 1290l-127 -239q-71 32 -157 51.5t-159 19.5q-113 0 -215.5 -42.5t-176.5 -114.5t-117.5 -172t-43.5 -211q0 -157 85 -240.5t245 -83.5q155 0 391 111l105 -236q-129 -80 -275.5 -123t-288.5 -43q-287 0 -463 160.5t-176 423.5q0 179 71.5 337t195.5 270.5 t298.5 177.5t372.5 65q249 0 435 -111zM969 1821q63 0 107 -45t44 -107q0 -64 -45 -108.5t-108 -44.5q-65 0 -109.5 44.5t-44.5 108.5q0 63 45.5 107.5t110.5 44.5z" />
<glyph unicode="&#x10b;" horiz-adv-x="1034" d="M821 326l88 -189q-121 -83 -227.5 -120t-222.5 -37q-195 0 -311.5 120t-116.5 322q0 274 169.5 434t458.5 160q192 0 347 -86l-121 -205q-98 43 -201 43q-133 0 -218 -88.5t-85 -228.5q0 -97 48.5 -151t137.5 -54q52 0 107 17.5t147 62.5zM616 1423q57 0 94.5 -35 t37.5 -90q0 -69 -47.5 -117t-116.5 -48q-59 0 -96 33t-37 87q0 74 46.5 122t118.5 48z" />
<glyph unicode="&#x10c;" horiz-adv-x="1386" d="M1430 1290l-127 -239q-71 32 -157 51.5t-159 19.5q-113 0 -215.5 -42.5t-176.5 -114.5t-117.5 -172t-43.5 -211q0 -157 85 -240.5t245 -83.5q155 0 391 111l105 -236q-129 -80 -275.5 -123t-288.5 -43q-287 0 -463 160.5t-176 423.5q0 179 71.5 337t195.5 270.5 t298.5 177.5t372.5 65q249 0 435 -111zM559 1737l105 135l266 -152l327 152l58 -146l-406 -229z" />
<glyph unicode="&#x10d;" horiz-adv-x="1034" d="M821 326l88 -189q-121 -83 -227.5 -120t-222.5 -37q-195 0 -311.5 120t-116.5 322q0 274 169.5 434t458.5 160q192 0 347 -86l-121 -205q-98 43 -201 43q-133 0 -218 -88.5t-85 -228.5q0 -97 48.5 -151t137.5 -54q52 0 107 17.5t147 62.5zM221 1331l105 135l266 -151 l328 151l57 -145l-406 -229z" />
<glyph unicode="&#x10e;" horiz-adv-x="1544" d="M420 270h67q295 0 458 138.5t163 390.5q0 188 -115 254q-46 26 -121 37.5t-208 11.5h-97zM258 1366h414q251 0 366 -20q227 -38 338 -163.5t111 -342.5q0 -296 -170.5 -515t-454.5 -288q-91 -23 -181 -30t-286 -7h-379zM475 1737l105 135l266 -152l328 152l57 -146 l-406 -229z" />
<glyph unicode="&#x10f;" horiz-adv-x="1589" d="M737 373l49 278q-68 101 -176 101q-101 0 -166 -88.5t-65 -225.5q0 -86 36 -131t105 -45q94 0 217 111zM999 0h-313l27 147q-174 -174 -361 -174q-150 0 -238.5 104t-88.5 279q0 231 106 414q67 118 173.5 183t232.5 65q196 0 290 -139l103 587h327zM1616 1466l-170 -415 h-170l74 415h266z" />
<glyph unicode="&#x110;" horiz-adv-x="1544" d="M188 819l97 547h413q252 0 367 -20q226 -38 337 -163.5t111 -342.5q0 -289 -163 -505.5t-437 -291.5q-97 -26 -192.5 -34.5t-298.5 -8.5h-379l102 582h-174l43 237h174zM831 819l-43 -237h-286l-53 -312h65q293 0 457 138t164 385q0 194 -115 260q-85 49 -330 49h-96 l-49 -283h286z" />
<glyph unicode="&#x111;" horiz-adv-x="1251" d="M999 0h-313l27 147q-174 -174 -361 -174q-150 0 -238.5 104t-88.5 279q0 231 106 414q67 118 173.5 183t232.5 65q196 0 290 -139l43 251h-338l37 209h338l23 127h327l-22 -127h119l-37 -209h-119zM737 373l49 278q-68 101 -176 101q-101 0 -166 -88.5t-65 -225.5 q0 -86 36 -131t105 -45q94 0 217 111z" />
<glyph unicode="&#x112;" horiz-adv-x="1224" d="M1001 0h-985l242 1366h948l-47 -262h-590l-49 -277h557l-43 -254h-557l-53 -297h627zM1057 1530h-641l35 196h641z" />
<glyph unicode="&#x113;" horiz-adv-x="1114" d="M408 618l309 9q4 39 4 69q0 127 -109 127q-148 0 -204 -205zM879 328l88 -178q-134 -93 -254.5 -135t-253.5 -42q-204 0 -317 112.5t-113 315.5q0 176 78 316.5t216.5 219.5t311.5 79q186 0 289.5 -100t103.5 -279q0 -76 -14 -150l-10 -57h-633v-2v-4q-2 -4 -2 -8v-6 q-2 -10 -2 -27q0 -83 40.5 -121.5t129.5 -38.5q142 0 342 105zM901 1184h-559l33 196h559z" />
<glyph unicode="&#x114;" horiz-adv-x="1224" d="M1001 0h-985l242 1366h948l-47 -262h-590l-49 -277h557l-43 -254h-557l-53 -297h627zM391 1798h162q5 -75 46 -108t130 -33q83 0 129.5 34t63.5 107h163q-49 -301 -374 -301q-155 0 -237.5 72.5t-82.5 210.5v18z" />
<glyph unicode="&#x115;" horiz-adv-x="1114" d="M408 618l309 9q4 39 4 69q0 127 -109 127q-148 0 -204 -205zM879 328l88 -178q-134 -93 -254.5 -135t-253.5 -42q-204 0 -317 112.5t-113 315.5q0 176 78 316.5t216.5 219.5t311.5 79q186 0 289.5 -100t103.5 -279q0 -76 -14 -150l-10 -57h-633v-2v-4q-2 -4 -2 -8v-6 q-2 -10 -2 -27q0 -83 40.5 -121.5t129.5 -38.5q142 0 342 105zM770 1419h154q-55 -276 -320 -276q-127 0 -198.5 59.5t-71.5 165.5q0 22 4 51h154v-12q0 -54 27 -79t87 -25q66 0 104 27t60 89z" />
<glyph unicode="&#x116;" horiz-adv-x="1224" d="M1001 0h-985l242 1366h948l-47 -262h-590l-49 -277h557l-43 -254h-557l-53 -297h627zM764 1821q63 0 107 -45t44 -107q0 -64 -45 -108.5t-108 -44.5q-65 0 -109.5 44.5t-44.5 108.5q0 63 45.5 107.5t110.5 44.5z" />
<glyph unicode="&#x117;" horiz-adv-x="1114" d="M408 618l309 9q4 39 4 69q0 127 -109 127q-148 0 -204 -205zM879 328l88 -178q-134 -93 -254.5 -135t-253.5 -42q-204 0 -317 112.5t-113 315.5q0 176 78 316.5t216.5 219.5t311.5 79q186 0 289.5 -100t103.5 -279q0 -76 -14 -150l-10 -57h-633v-2v-4q-2 -4 -2 -8v-6 q-2 -10 -2 -27q0 -83 40.5 -121.5t129.5 -38.5q142 0 342 105zM621 1423q57 0 94 -35t37 -90q0 -69 -47.5 -117t-116.5 -48q-59 0 -96 33t-37 87q0 74 47 122t119 48z" />
<glyph unicode="&#x118;" horiz-adv-x="1224" d="M598 -205q0 111 133 205h-715l242 1366h948l-47 -262h-590l-49 -277h557l-43 -254h-557l-53 -297h627l-50 -276q-47 -18 -92 -54t-45 -69q0 -45 49 -45q20 0 60 10l-19 -188q-88 -39 -170 -39q-31 0 -61 9t-59.5 28t-47.5 56t-18 87z" />
<glyph unicode="&#x119;" horiz-adv-x="1114" d="M879 328l88 -178q-121 -83 -185.5 -138t-81 -81.5t-16.5 -53.5q0 -45 49 -45q20 0 60 10l-19 -188q-88 -39 -170 -39q-31 0 -61 9t-59.5 28t-47.5 56t-18 87q0 96 102 180q-10 0 -30.5 -1t-30.5 -1q-204 0 -317 112.5t-113 315.5q0 176 78 316.5t216.5 219.5t311.5 79 q186 0 289.5 -100t103.5 -279q0 -76 -14 -150l-10 -57h-633q-4 -14 -4 -47q0 -83 40.5 -121.5t129.5 -38.5q142 0 342 105zM408 618l309 9q4 39 4 69q0 127 -109 127q-148 0 -204 -205z" />
<glyph unicode="&#x11a;" horiz-adv-x="1224" d="M1001 0h-985l242 1366h948l-47 -262h-590l-49 -277h557l-43 -254h-557l-53 -297h627zM387 1737l105 135l266 -152l327 152l58 -146l-406 -229z" />
<glyph unicode="&#x11b;" horiz-adv-x="1114" d="M408 618l309 9q4 39 4 69q0 127 -109 127q-148 0 -204 -205zM879 328l88 -178q-134 -93 -254.5 -135t-253.5 -42q-204 0 -317 112.5t-113 315.5q0 176 78 316.5t216.5 219.5t311.5 79q186 0 289.5 -100t103.5 -279q0 -76 -14 -150l-10 -57h-633v-2v-4q-2 -4 -2 -8v-6 q-2 -10 -2 -27q0 -83 40.5 -121.5t129.5 -38.5q142 0 342 105zM242 1331l104 135l266 -151l328 151l57 -145l-405 -229z" />
<glyph unicode="&#x11c;" horiz-adv-x="1419" d="M938 268l68 391h344l-103 -587q-107 -49 -245.5 -77t-274.5 -28q-309 0 -489.5 157.5t-180.5 426.5q0 182 72 340t197.5 270t302.5 176t381 64q125 0 246 -29.5t208 -81.5l-127 -239q-178 71 -338 71q-157 0 -287 -71t-204 -195t-74 -274q0 -330 357 -330q88 0 147 16z M1360 1632l-105 -135l-266 152l-327 -152l-58 145l406 230z" />
<glyph unicode="&#x11d;" horiz-adv-x="1134" d="M289 -47q-142 -41 -142 -125q0 -53 65 -84t175 -31q123 0 202 37t79 94q0 29 -35.5 45.5t-124.5 26.5q-130 14 -219 37zM545 823q-70 0 -117 -61.5t-47 -153.5q0 -65 28 -100t80 -35q72 0 120 60.5t48 152.5q0 65 -29 101t-83 36zM1106 770h-174q26 -53 26 -111 q0 -161 -138.5 -269.5t-342.5 -108.5q-21 0 -100 6q-2 -3 -10.5 -13t-16.5 -20q-27 -31 -45 -49q71 -28 203 -45q6 -1 13.5 -2t11.5 -1.5t6 -0.5t5 -0.5l9 -1.5t10 -2q79 -12 90 -13q203 -23 281 -71t78 -150q0 -118 -86 -212.5t-239.5 -147t-346.5 -52.5 q-239 0 -375.5 71.5t-136.5 197.5q0 95 69 159.5t199 90.5q-125 26 -125 65q0 28 43 68q63 59 152 164l24 24q-124 89 -124 244q0 184 146.5 305t369.5 121q96 0 215 -29h346zM954 1227l-104 -135l-266 151l-328 -151l-57 145l405 229z" />
<glyph unicode="&#x11e;" horiz-adv-x="1419" d="M938 268l68 391h344l-103 -587q-107 -49 -245.5 -77t-274.5 -28q-309 0 -489.5 157.5t-180.5 426.5q0 182 72 340t197.5 270t302.5 176t381 64q125 0 246 -29.5t208 -81.5l-127 -239q-178 71 -338 71q-157 0 -287 -71t-204 -195t-74 -274q0 -330 357 -330q88 0 147 16z M604 1798h162q5 -75 46 -108t130 -33q83 0 129.5 34t63.5 107h161q-46 -301 -372 -301q-155 0 -237.5 72.5t-82.5 210.5v18z" />
<glyph unicode="&#x11f;" horiz-adv-x="1134" d="M289 -47q-142 -41 -142 -125q0 -53 65 -84t175 -31q123 0 202 37t79 94q0 29 -35.5 45.5t-124.5 26.5q-130 14 -219 37zM545 823q-70 0 -117 -61.5t-47 -153.5q0 -65 28 -100t80 -35q72 0 120 60.5t48 152.5q0 65 -29 101t-83 36zM1106 770h-174q26 -53 26 -111 q0 -161 -138.5 -269.5t-342.5 -108.5q-21 0 -100 6q-2 -3 -10.5 -13t-16.5 -20q-27 -31 -45 -49q71 -28 203 -45q6 -1 13.5 -2t11.5 -1.5t6 -0.5t5 -0.5l9 -1.5t10 -2q79 -12 90 -13q203 -23 281 -71t78 -150q0 -118 -86 -212.5t-239.5 -147t-346.5 -52.5 q-239 0 -375.5 71.5t-136.5 197.5q0 95 69 159.5t199 90.5q-125 26 -125 65q0 28 43 68q63 59 152 164l24 24q-124 89 -124 244q0 184 146.5 305t369.5 121q96 0 215 -29h346zM709 1419h153q-55 -276 -319 -276q-127 0 -199 59.5t-72 165.5q0 35 4 51h154v-12 q0 -54 27.5 -79t87.5 -25q66 0 104 27t60 89z" />
<glyph unicode="&#x120;" horiz-adv-x="1419" d="M938 268l68 391h344l-103 -587q-107 -49 -245.5 -77t-274.5 -28q-309 0 -489.5 157.5t-180.5 426.5q0 182 72 340t197.5 270t302.5 176t381 64q125 0 246 -29.5t208 -81.5l-127 -239q-178 71 -338 71q-157 0 -287 -71t-204 -195t-74 -274q0 -330 357 -330q88 0 147 16z M977 1821q63 0 107 -45t44 -107q0 -64 -45 -108.5t-108 -44.5q-65 0 -109.5 44.5t-44.5 108.5q0 63 45.5 107.5t110.5 44.5z" />
<glyph unicode="&#x121;" horiz-adv-x="1134" d="M289 -47q-142 -41 -142 -125q0 -53 65 -84t175 -31q123 0 202 37t79 94q0 29 -35.5 45.5t-124.5 26.5q-130 14 -219 37zM545 823q-70 0 -117 -61.5t-47 -153.5q0 -65 28 -100t80 -35q72 0 120 60.5t48 152.5q0 65 -29 101t-83 36zM1106 770h-174q26 -53 26 -111 q0 -161 -138.5 -269.5t-342.5 -108.5q-21 0 -100 6q-2 -3 -10.5 -13t-16.5 -20q-27 -31 -45 -49q71 -28 203 -45q6 -1 13.5 -2t11.5 -1.5t6 -0.5t5 -0.5l9 -1.5t10 -2q79 -12 90 -13q203 -23 281 -71t78 -150q0 -118 -86 -212.5t-239.5 -147t-346.5 -52.5 q-239 0 -375.5 71.5t-136.5 197.5q0 95 69 159.5t199 90.5q-125 26 -125 65q0 28 43 68q63 59 152 164l24 24q-124 89 -124 244q0 184 146.5 305t369.5 121q96 0 215 -29h346zM584 1423q57 0 94 -35t37 -90q0 -69 -47.5 -117t-116.5 -48q-59 0 -96 33t-37 87q0 74 47 122 t119 48z" />
<glyph unicode="&#x122;" horiz-adv-x="1419" d="M938 268l68 391h344l-103 -587q-107 -49 -245.5 -77t-274.5 -28q-309 0 -489.5 157.5t-180.5 426.5q0 182 72 340t197.5 270t302.5 176t381 64q125 0 246 -29.5t208 -81.5l-127 -239q-178 71 -338 71q-157 0 -287 -71t-204 -195t-74 -274q0 -330 357 -330q88 0 147 16z M848 -82l-184 -450h-183l80 450h287z" />
<glyph unicode="&#x123;" horiz-adv-x="1134" d="M289 -47q-142 -41 -142 -125q0 -53 65 -84t175 -31q123 0 202 37t79 94q0 29 -35.5 45.5t-124.5 26.5q-130 14 -219 37zM545 823q-70 0 -117 -61.5t-47 -153.5q0 -65 28 -100t80 -35q72 0 120 60.5t48 152.5q0 65 -29 101t-83 36zM1106 770h-174q26 -53 26 -111 q0 -161 -138.5 -269.5t-342.5 -108.5q-21 0 -100 6q-2 -3 -10.5 -13t-16.5 -20q-27 -31 -45 -49q71 -28 203 -45q6 -1 13.5 -2t11.5 -1.5t6 -0.5t5 -0.5l9 -1.5t10 -2q79 -12 90 -13q203 -23 281 -71t78 -150q0 -118 -86 -212.5t-239.5 -147t-346.5 -52.5 q-239 0 -375.5 71.5t-136.5 197.5q0 95 69 159.5t199 90.5q-125 26 -125 65q0 28 43 68q63 59 152 164l24 24q-124 89 -124 244q0 184 146.5 305t369.5 121q96 0 215 -29h346zM416 1128l170 416h168l-72 -416h-266z" />
<glyph unicode="&#x124;" horiz-adv-x="1523" d="M1266 0h-355l105 592h-539l-104 -592h-357l242 1366h356l-92 -518h539l92 518h354zM1276 1632l-105 -135l-266 152l-327 -152l-58 145l406 230z" />
<glyph unicode="&#x125;" horiz-adv-x="1234" d="M991 0h-332l101 565q8 49 8 80q0 74 -70 74q-110 0 -254 -125l-104 -594h-330l258 1466h330l-106 -604q116 86 198.5 121t171.5 35q119 0 189.5 -60t70.5 -161q0 -51 -12 -125zM911 1632l-104 -135l-266 152l-328 -152l-57 145l405 230z" />
<glyph unicode="&#x126;" horiz-adv-x="1523" d="M1450 1038l-184 -1038h-355l105 592h-539l-104 -592h-357l185 1038h-133l34 197h134l22 131h356l-22 -131h538l23 131h354l-22 -131h129l-35 -197h-129zM1096 1038h-539l-35 -190h539z" />
<glyph unicode="&#x127;" horiz-adv-x="1234" d="M539 1133l-47 -271q116 86 198.5 121t171.5 35q119 0 189.5 -60t70.5 -161q0 -51 -12 -125l-119 -672h-332l101 565q8 49 8 80q0 74 -70 74q-110 0 -254 -125l-104 -594h-330l199 1133h-111l33 196h113l24 137h330l-25 -137h285l-33 -196h-286z" />
<glyph unicode="&#x128;" horiz-adv-x="636" d="M379 0h-363l242 1366h363zM752 1812l86 -126q-91 -77 -159 -110.5t-132 -33.5q-43 0 -107 29q-70 33 -123 33q-34 0 -64.5 -13.5t-88.5 -54.5l-86 129q152 129 270 129q47 0 109 -29q65 -28 118 -28q76 0 177 75z" />
<glyph unicode="&#x129;" horiz-adv-x="585" d="M336 0h-326l174 987h326zM664 1425l86 -127q-91 -76 -158.5 -109.5t-132.5 -33.5q-43 0 -107 29q-70 33 -121 33q-35 0 -66 -13.5t-89 -54.5l-86 129q152 129 270 129q47 0 109 -29q67 -28 118 -28q76 0 177 75z" />
<glyph unicode="&#x12a;" horiz-adv-x="636" d="M379 0h-363l242 1366h363zM750 1530h-644l35 196h641z" />
<glyph unicode="&#x12b;" horiz-adv-x="585" d="M336 0h-326l174 987h326zM641 1184h-559l33 196h559z" />
<glyph unicode="&#x12c;" horiz-adv-x="636" d="M379 0h-363l242 1366h363zM123 1798h162q5 -75 46 -108t130 -33q83 0 129 33.5t63 107.5h162q-46 -301 -373 -301q-155 0 -237 72.5t-82 210.5v18z" />
<glyph unicode="&#x12d;" horiz-adv-x="585" d="M336 0h-326l174 987h326zM516 1419h154q-28 -140 -106.5 -208t-213.5 -68q-127 0 -198.5 59.5t-71.5 165.5q0 23 4 51h154v-12q0 -54 27 -79t87 -25q66 0 105 27.5t59 88.5z" />
<glyph unicode="&#x12e;" horiz-adv-x="636" d="M221 0h-205l242 1366h363l-242 -1366h-100l112 -59q-209 -66 -209 -129q0 -25 37 -25q57 0 137 37l41 -94q-130 -68 -213 -68q-63 0 -101 34t-38 91q0 127 176 213z" />
<glyph unicode="&#x12f;" horiz-adv-x="585" d="M190 0h-180l174 987h326l-174 -987h-88l112 -59q-208 -66 -208 -129q0 -25 36 -25q58 0 138 37l41 -94q-130 -68 -213 -68q-63 0 -101.5 34t-38.5 91q0 127 176 213zM418 1440q70 0 115 -43t45 -111q0 -88 -57.5 -146.5t-143.5 -58.5q-72 0 -118 43t-46 109 q0 89 58.5 148t146.5 59z" />
<glyph unicode="&#x130;" horiz-adv-x="636" d="M379 0h-363l242 1366h363zM465 1821q63 0 107 -45t44 -107q0 -64 -45 -108.5t-108 -44.5q-65 0 -109.5 44.5t-44.5 108.5q0 63 45.5 107.5t110.5 44.5z" />
<glyph unicode="&#x131;" horiz-adv-x="585" d="M336 0h-326l174 987h326z" />
<glyph unicode="&#x132;" horiz-adv-x="1396" d="M379 0h-363l242 1366h363zM1358 1366l-164 -926q-37 -230 -190.5 -338t-477.5 -133l-10 264q175 28 240.5 78.5t91.5 177.5l156 877h354z" />
<glyph unicode="&#x133;" horiz-adv-x="1142" d="M336 0h-326l174 987h326zM418 1440q70 0 115 -43t45 -111q0 -88 -57.5 -146.5t-143.5 -58.5q-72 0 -118 43t-46 109q0 89 58.5 148t146.5 59zM1067 987l-162 -915q-37 -270 -179 -401t-435 -165l-21 234q160 44 219.5 108t88.5 224l161 915h328zM973 1440q70 0 115 -43 t45 -111q0 -88 -57.5 -146.5t-143.5 -58.5q-72 0 -118 43t-46 109q0 89 58.5 148t146.5 59z" />
<glyph unicode="&#x134;" horiz-adv-x="778" d="M768 1366l-164 -926q-37 -230 -190 -338t-477 -133l-11 264q175 28 240.5 78.5t91.5 177.5l156 877h354zM975 1632l-105 -135l-266 152l-328 -152l-57 145l406 230z" />
<glyph unicode="&#x135;" horiz-adv-x="587" d="M516 987l-162 -915q-37 -270 -179 -401t-435 -165l-21 234q160 44 219.5 108t88.5 224l161 915h328zM727 1227l-104 -135l-267 151l-327 -151l-58 145l406 229z" />
<glyph unicode="&#x136;" horiz-adv-x="1411" d="M1264 0h-416l-350 682l-121 -682h-361l242 1366h360l-102 -573l543 573h422l-641 -627zM743 -82l-182 -450h-182l80 450h284z" />
<glyph unicode="&#x137;" horiz-adv-x="1173" d="M1040 0h-378l-234 494l-88 -494h-330l258 1466h330l-152 -862l347 383h397l-449 -438zM600 -84l-170 -416h-168l74 416h264z" />
<glyph unicode="&#x139;" horiz-adv-x="1116" d="M969 0h-953l242 1366h360l-192 -1090h592zM899 1671l-491 -174l-50 141l484 222z" />
<glyph unicode="&#x13a;" horiz-adv-x="591" d="M342 0h-332l258 1466h332zM889 1704l-492 -174l-49 141l483 221z" />
<glyph unicode="&#x13b;" horiz-adv-x="1116" d="M969 0h-953l242 1366h360l-192 -1090h592zM645 -82l-182 -450h-182l77 450h287z" />
<glyph unicode="&#x13c;" horiz-adv-x="591" d="M342 0h-332l258 1466h332zM301 -84l-168 -416h-170l74 416h264z" />
<glyph unicode="&#x13d;" horiz-adv-x="1116" d="M969 0h-953l242 1366h360l-192 -1090h592zM1038 1366l-184 -451h-182l80 451h286z" />
<glyph unicode="&#x13e;" horiz-adv-x="911" d="M342 0h-332l258 1466h332zM954 1466l-170 -415h-170l74 415h266z" />
<glyph unicode="&#x13f;" horiz-adv-x="1116" d="M969 0h-953l242 1366h360l-192 -1090h592zM774 870q74 0 121 -44.5t47 -114.5q0 -91 -60.5 -153t-150.5 -62q-75 0 -123.5 44.5t-48.5 114.5q0 92 61.5 153.5t153.5 61.5z" />
<glyph unicode="&#x140;" horiz-adv-x="1054" d="M342 0h-332l258 1466h332zM733 870q74 0 121 -44.5t47 -114.5q0 -91 -60.5 -153t-150.5 -62q-75 0 -123.5 44.5t-48.5 114.5q0 92 61.5 153.5t153.5 61.5z" />
<glyph unicode="&#x141;" horiz-adv-x="1122" d="M92 397l-82 -55v293l142 96l112 635h361l-74 -418l283 189v-291l-342 -232l-60 -338h592l-49 -276h-952z" />
<glyph unicode="&#x142;" horiz-adv-x="782" d="M440 0h-331l77 444l-176 -116l43 245l178 117l138 776h331l-106 -596l178 117l-43 -246l-178 -116z" />
<glyph unicode="&#x143;" horiz-adv-x="1499" d="M1241 0h-342l-412 797q-21 -124 -36 -199q-24 -164 -105 -598h-330l242 1366l330 -2l422 -815q80 460 143 817h330zM1210 1671l-491 -174l-49 141l483 222z" />
<glyph unicode="&#x144;" horiz-adv-x="1214" d="M969 0h-328l90 512q17 84 17 127q0 78 -74 78q-97 0 -234 -131l-104 -586h-326l174 987h314l-25 -137q198 168 389 168q109 0 172.5 -59t63.5 -160q0 -70 -21 -187zM958 1278l-491 -174l-49 141l483 221z" />
<glyph unicode="&#x145;" horiz-adv-x="1499" d="M1241 0h-342l-412 797q-21 -124 -36 -199q-24 -164 -105 -598h-330l242 1366l330 -2l422 -815q80 460 143 817h330zM760 -82l-182 -450h-183l78 450h287z" />
<glyph unicode="&#x146;" horiz-adv-x="1214" d="M969 0h-328l90 512q17 84 17 127q0 78 -74 78q-97 0 -234 -131l-104 -586h-326l174 987h314l-25 -137q198 168 389 168q109 0 172.5 -59t63.5 -160q0 -70 -21 -187zM608 -84l-170 -416h-168l74 416h264z" />
<glyph unicode="&#x147;" horiz-adv-x="1499" d="M1241 0h-342l-412 797q-21 -124 -36 -199q-24 -164 -105 -598h-330l242 1366l330 -2l422 -815q80 460 143 817h330zM522 1737l105 135l266 -152l328 152l57 -146l-406 -229z" />
<glyph unicode="&#x148;" horiz-adv-x="1214" d="M969 0h-328l90 512q17 84 17 127q0 78 -74 78q-97 0 -234 -131l-104 -586h-326l174 987h314l-25 -137q198 168 389 168q109 0 172.5 -59t63.5 -160q0 -70 -21 -187zM266 1331l105 135l266 -151l328 151l57 -145l-406 -229z" />
<glyph unicode="&#x149;" horiz-adv-x="1394" d="M1149 0h-328l90 512q17 81 17 127q0 78 -74 78q-96 0 -233 -131l-105 -586h-326l175 987h313l-25 -137q198 168 389 168q109 0 172.5 -59t63.5 -160q0 -73 -21 -187zM477 1466l-168 -415h-170l74 415h264z" />
<glyph unicode="&#x14c;" horiz-adv-x="1599" d="M918 1401q289 0 455.5 -158.5t166.5 -433.5q0 -235 -110.5 -427.5t-304 -302.5t-429.5 -110q-284 0 -459.5 164t-175.5 428q0 178 65.5 334t179 267t272.5 175t340 64zM864 1100q-115 0 -211 -66.5t-151.5 -181t-55.5 -250.5q0 -149 76 -236t205 -87q178 0 303 144.5 t125 348.5q0 150 -79 239t-212 89zM1204 1530h-641l33 196h643z" />
<glyph unicode="&#x14d;" horiz-adv-x="1204" d="M649 1020q209 0 333 -116.5t124 -313.5q0 -176 -78.5 -316.5t-218 -219.5t-313.5 -79q-212 0 -338.5 115t-126.5 309q0 178 79 320t220 221.5t319 79.5zM610 768q-94 0 -160.5 -99t-66.5 -239q0 -92 38.5 -143t106.5 -51q94 0 161 99t67 238q0 92 -38.5 143.5 t-107.5 51.5zM913 1184h-559l33 196h559z" />
<glyph unicode="&#x14e;" horiz-adv-x="1599" d="M918 1401q289 0 455.5 -158.5t166.5 -433.5q0 -235 -110.5 -427.5t-304 -302.5t-429.5 -110q-284 0 -459.5 164t-175.5 428q0 178 65.5 334t179 267t272.5 175t340 64zM864 1100q-115 0 -211 -66.5t-151.5 -181t-55.5 -250.5q0 -149 76 -236t205 -87q178 0 303 144.5 t125 348.5q0 150 -79 239t-212 89zM543 1798h162q3 -75 44 -108t130 -33q84 0 129.5 33.5t64.5 107.5h162q-46 -301 -373 -301q-183 0 -262 100q-32 39 -43.5 77.5t-13.5 105.5v18z" />
<glyph unicode="&#x14f;" horiz-adv-x="1204" d="M649 1020q209 0 333 -116.5t124 -313.5q0 -176 -78.5 -316.5t-218 -219.5t-313.5 -79q-212 0 -338.5 115t-126.5 309q0 178 79 320t220 221.5t319 79.5zM610 768q-94 0 -160.5 -99t-66.5 -239q0 -92 38.5 -143t106.5 -51q94 0 161 99t67 238q0 92 -38.5 143.5 t-107.5 51.5zM788 1419h154q-28 -140 -106 -208t-213 -68q-127 0 -199 59.5t-72 165.5q0 27 4 51h154v-12q0 -54 27.5 -79t87.5 -25q66 0 103.5 27t59.5 89z" />
<glyph unicode="&#x150;" horiz-adv-x="1599" d="M918 1401q289 0 455.5 -158.5t166.5 -433.5q0 -235 -110.5 -427.5t-304 -302.5t-429.5 -110q-284 0 -459.5 164t-175.5 428q0 178 65.5 334t179 267t272.5 175t340 64zM864 1100q-115 0 -211 -66.5t-151.5 -181t-55.5 -250.5q0 -149 76 -236t205 -87q178 0 303 144.5 t125 348.5q0 150 -79 239t-212 89zM1419 1718l-338 -211l-106 99l295 249zM1014 1718l-338 -211l-107 99l295 249z" />
<glyph unicode="&#x151;" horiz-adv-x="1204" d="M649 1020q209 0 333 -116.5t124 -313.5q0 -176 -78.5 -316.5t-218 -219.5t-313.5 -79q-212 0 -338.5 115t-126.5 309q0 178 79 320t220 221.5t319 79.5zM610 768q-94 0 -160.5 -99t-66.5 -239q0 -92 38.5 -143t106.5 -51q94 0 161 99t67 238q0 92 -38.5 143.5 t-107.5 51.5zM1135 1284l-338 -211l-107 98l295 250zM729 1284l-338 -211l-106 98l295 250z" />
<glyph unicode="&#x152;" horiz-adv-x="2007" d="M899 272l145 830q-175 -8 -270 -33q-154 -43 -243 -170.5t-89 -304.5q0 -258 232 -307q64 -13 225 -15zM1784 0h-883q-179 0 -275 7.5t-169 27.5q-186 51 -292 186t-106 322q0 186 74.5 346.5t211 272.5t314.5 157q108 27 233 37t361 10h736l-47 -264h-537l-49 -275h504 l-45 -256h-504l-51 -295h573z" />
<glyph unicode="&#x153;" horiz-adv-x="1765" d="M1513 326l76 -187q-258 -159 -481 -159q-92 0 -157 28.5t-126 95.5q-94 -69 -177 -99t-183 -30q-195 0 -314.5 122.5t-119.5 322.5q0 261 162 428.5t415 167.5q112 0 190 -33.5t134 -105.5q90 75 177.5 108t190.5 33q169 0 273 -102.5t104 -266.5q0 -106 -28 -198 q-4 -12 -4 -15l-3 -8q-2 -4 -2 -6h-602q0 -15 -2 -29v-2v-6q0 -82 37.5 -119t120.5 -37q63 0 149.5 26.5t169.5 70.5zM1077 608l293 13q4 18 4 53q0 131 -98 131q-67 0 -122 -54.5t-77 -142.5zM608 768q-94 0 -161.5 -99.5t-67.5 -238.5q0 -92 39 -143t108 -51q94 0 161 99 t67 238q0 92 -38.5 143.5t-107.5 51.5z" />
<glyph unicode="&#x154;" horiz-adv-x="1316" d="M514 793h86q120 0 193 55.5t73 144.5q0 67 -45 96t-149 29h-101zM1192 0h-381l-133 426q-20 63 -52 86t-102 23h-57l-94 -535h-357l242 1366h496q141 0 202 -10q130 -20 207.5 -103t77.5 -204q0 -165 -133 -283q-54 -47 -108.5 -72.5t-139.5 -44.5q75 -20 108 -52.5 t62 -115.5zM1065 1671l-492 -174l-49 141l484 222z" />
<glyph unicode="&#x155;" horiz-adv-x="870" d="M911 989l-106 -276h-4q-10 2 -29 2q-94 0 -181 -74t-179 -231l-72 -410h-330l174 987h316l-33 -192q153 211 352 211q49 0 92 -17zM836 1278l-492 -174l-49 141l483 221z" />
<glyph unicode="&#x156;" horiz-adv-x="1316" d="M514 793h86q120 0 193 55.5t73 144.5q0 67 -45 96t-149 29h-101zM1192 0h-381l-133 426q-20 63 -52 86t-102 23h-57l-94 -535h-357l242 1366h496q141 0 202 -10q130 -20 207.5 -103t77.5 -204q0 -165 -133 -283q-54 -47 -108.5 -72.5t-139.5 -44.5q75 -20 108 -52.5 t62 -115.5zM707 -82l-185 -450h-182l80 450h287z" />
<glyph unicode="&#x157;" horiz-adv-x="870" d="M911 989l-106 -276h-4q-10 2 -29 2q-94 0 -181 -74t-179 -231l-72 -410h-330l174 987h316l-33 -192q153 211 352 211q49 0 92 -17zM301 -84l-168 -416h-170l74 416h264z" />
<glyph unicode="&#x158;" horiz-adv-x="1316" d="M514 793h86q120 0 193 55.5t73 144.5q0 67 -45 96t-149 29h-101zM1192 0h-381l-133 426q-20 63 -52 86t-102 23h-57l-94 -535h-357l242 1366h496q141 0 202 -10q130 -20 207.5 -103t77.5 -204q0 -165 -133 -283q-54 -47 -108.5 -72.5t-139.5 -44.5q75 -20 108 -52.5 t62 -115.5zM348 1737l105 135l266 -152l328 152l57 -146l-406 -229z" />
<glyph unicode="&#x159;" horiz-adv-x="870" d="M911 989l-106 -276h-4q-10 2 -29 2q-94 0 -181 -74t-179 -231l-72 -410h-330l174 987h316l-33 -192q153 211 352 211q49 0 92 -17zM158 1331l104 135l266 -151l328 151l57 -145l-405 -229z" />
<glyph unicode="&#x15a;" horiz-adv-x="1175" d="M1079 1108l-4 -10q-129 28 -239 28q-155 0 -242.5 -34.5t-87.5 -96.5q0 -40 40.5 -70t141.5 -67q119 -43 172 -67.5t90 -53.5q123 -91 123 -248q0 -145 -94.5 -263t-261.5 -184.5t-373 -66.5q-211 0 -389 54l100 272q156 -33 295 -33q158 0 246 41t88 113 q0 45 -35.5 69.5t-167.5 69.5q-144 51 -215 111q-116 101 -116 248q0 221 182.5 349t498.5 128q177 0 332 -47q0 -3 -84 -242zM1079 1671l-491 -174l-49 141l483 222z" />
<glyph unicode="&#x15b;" horiz-adv-x="966" d="M909 975l-82 -209q-87 22 -200 22q-176 0 -176 -69q0 -49 124 -86q263 -76 263 -271q0 -182 -151 -282t-425 -100q-173 0 -309 40l90 226q129 -21 217 -21q221 0 221 78q0 48 -116 82q-96 29 -172 86q-89 68 -89 182q0 167 135 263t371 96q169 0 299 -37zM879 1278 l-492 -174l-49 141l483 221z" />
<glyph unicode="&#x15c;" horiz-adv-x="1175" d="M1079 1108l-4 -10q-129 28 -239 28q-155 0 -242.5 -34.5t-87.5 -96.5q0 -40 40.5 -70t141.5 -67q119 -43 172 -67.5t90 -53.5q123 -91 123 -248q0 -145 -94.5 -263t-261.5 -184.5t-373 -66.5q-211 0 -389 54l100 272q156 -33 295 -33q158 0 246 41t88 113 q0 45 -35.5 69.5t-167.5 69.5q-144 51 -215 111q-116 101 -116 248q0 221 182.5 349t498.5 128q177 0 332 -47q0 -3 -84 -242zM1139 1632l-105 -135l-266 152l-328 -152l-57 145l405 230z" />
<glyph unicode="&#x15d;" horiz-adv-x="966" d="M909 975l-82 -209q-87 22 -200 22q-176 0 -176 -69q0 -49 124 -86q263 -76 263 -271q0 -182 -151 -282t-425 -100q-173 0 -309 40l90 226q129 -21 217 -21q221 0 221 78q0 48 -116 82q-96 29 -172 86q-89 68 -89 182q0 167 135 263t371 96q169 0 299 -37zM944 1227 l-104 -135l-267 151l-327 -151l-58 145l406 229z" />
<glyph unicode="&#x15e;" horiz-adv-x="1175" d="M1079 1108l-4 -10q-129 28 -239 28q-155 0 -242.5 -34.5t-87.5 -96.5q0 -40 40.5 -70t141.5 -67q119 -43 172 -67.5t90 -53.5q123 -91 123 -248q0 -145 -94.5 -263t-261.5 -184.5t-373 -66.5q-211 0 -389 54l100 272q156 -33 295 -33q158 0 246 41t88 113 q0 45 -35.5 69.5t-167.5 69.5q-144 51 -215 111q-116 101 -116 248q0 221 182.5 349t498.5 128q177 0 332 -47q0 -3 -84 -242zM397 -408l-155 39l139 310h213z" />
<glyph unicode="&#x15f;" horiz-adv-x="966" d="M909 975l-82 -209q-87 22 -200 22q-176 0 -176 -69q0 -49 124 -86q263 -76 263 -271q0 -182 -151 -282t-425 -100q-173 0 -309 40l90 226q129 -21 217 -21q221 0 221 78q0 48 -116 82q-96 29 -172 86q-89 68 -89 182q0 167 135 263t371 96q169 0 299 -37zM260 -393 l-156 39l140 309h213z" />
<glyph unicode="&#x160;" horiz-adv-x="1175" d="M1079 1108l-4 -10q-129 28 -239 28q-155 0 -242.5 -34.5t-87.5 -96.5q0 -40 40.5 -70t141.5 -67q119 -43 172 -67.5t90 -53.5q123 -91 123 -248q0 -145 -94.5 -263t-261.5 -184.5t-373 -66.5q-211 0 -389 54l100 272q156 -33 295 -33q158 0 246 41t88 113 q0 45 -35.5 69.5t-167.5 69.5q-144 51 -215 111q-116 101 -116 248q0 221 182.5 349t498.5 128q177 0 332 -47q0 -3 -84 -242zM403 1737l105 135l266 -152l328 152l57 -146l-405 -229z" />
<glyph unicode="&#x161;" horiz-adv-x="966" d="M909 975l-82 -209q-87 22 -200 22q-176 0 -176 -69q0 -49 124 -86q263 -76 263 -271q0 -182 -151 -282t-425 -100q-173 0 -309 40l90 226q129 -21 217 -21q221 0 221 78q0 48 -116 82q-96 29 -172 86q-89 68 -89 182q0 167 135 263t371 96q169 0 299 -37zM205 1331 l104 135l266 -151l328 151l58 -145l-406 -229z" />
<glyph unicode="&#x162;" horiz-adv-x="1206" d="M1268 1106h-408l-194 -1106h-357l195 1106h-416l47 260h1180zM629 -82l-185 -450h-182l80 450h287z" />
<glyph unicode="&#x163;" horiz-adv-x="837" d="M707 244l-39 -224q-125 -45 -275 -45q-148 0 -219.5 56t-71.5 172q0 33 13 104l82 471h-187l37 209h186l58 326h330l-58 -326h268l-36 -209h-269l-65 -375q-12 -64 -12 -92q0 -43 26.5 -61.5t89.5 -18.5q43 0 142 13zM379 -84l-170 -416h-168l72 416h266z" />
<glyph unicode="&#x164;" horiz-adv-x="1206" d="M1268 1106h-408l-194 -1106h-357l195 1106h-416l47 260h1180zM385 1737l104 135l267 -152l327 152l58 -146l-406 -229z" />
<glyph unicode="&#x165;" horiz-adv-x="876" d="M707 244l-39 -224q-125 -45 -275 -45q-148 0 -219.5 56t-71.5 172q0 33 13 104l82 471h-187l37 209h186l58 326h330l-58 -326h268l-36 -209h-269l-65 -375q-12 -64 -12 -92q0 -43 26.5 -61.5t89.5 -18.5q43 0 142 13zM1012 1530l-170 -416h-168l74 416h264z" />
<glyph unicode="&#x166;" horiz-adv-x="1206" d="M469 905l35 201h-416l47 260h1180l-47 -260h-408l-35 -201h172l-34 -196h-172l-125 -709h-357l125 709h-180l35 196h180z" />
<glyph unicode="&#x167;" horiz-adv-x="837" d="M473 477l-12 -74q-12 -64 -12 -92q0 -43 26.5 -61.5t89.5 -18.5q53 0 142 13l-39 -224q-125 -45 -275 -45q-148 0 -219.5 56t-71.5 172q0 31 13 104l28 170h-176l37 209h176l17 92h-187l37 209h186l58 326h330l-58 -326h268l-36 -209h-269l-16 -92h278l-36 -209h-279z " />
<glyph unicode="&#x168;" horiz-adv-x="1507" d="M1499 1366l-127 -723q-32 -185 -76.5 -290t-124.5 -185q-189 -195 -557 -195q-526 0 -526 408q0 76 25 215l135 770h354l-139 -793q-17 -92 -17 -129q0 -84 61 -132t167 -48q89 0 163 31.5t117 87.5q31 40 50 95t36 155l129 733h330zM1182 1812l86 -126 q-93 -77 -160 -110.5t-131 -33.5q-45 0 -107 29q-70 33 -122 33q-34 0 -65 -13.5t-89 -54.5l-86 129q152 129 270 129q45 0 109 -29q65 -28 117 -28q77 0 178 75z" />
<glyph unicode="&#x169;" horiz-adv-x="1214" d="M963 0h-324l25 139q-191 -159 -359 -159q-120 0 -186 67.5t-66 190.5q0 41 23 180l100 569h328l-98 -565q0 -2 -3 -8q-6 -27 -6 -49q0 -80 74 -80q105 0 240 129l100 573h326zM958 1425l86 -127q-91 -77 -158.5 -110t-131.5 -33q-43 0 -107 29q-70 33 -121 33 q-35 0 -66 -13.5t-89 -54.5l-86 129q152 129 270 129q47 0 109 -29q67 -28 118 -28q75 0 176 75z" />
<glyph unicode="&#x16a;" horiz-adv-x="1507" d="M1499 1366l-127 -723q-32 -185 -76.5 -290t-124.5 -185q-189 -195 -557 -195q-526 0 -526 408q0 76 25 215l135 770h354l-139 -793q-17 -92 -17 -129q0 -84 61 -132t167 -48q89 0 163 31.5t117 87.5q31 40 50 95t36 155l129 733h330zM1206 1530h-641l33 196h643z" />
<glyph unicode="&#x16b;" horiz-adv-x="1214" d="M963 0h-324l25 139q-191 -159 -359 -159q-120 0 -186 67.5t-66 190.5q0 41 23 180l100 569h328l-98 -565q0 -2 -3 -8q-6 -27 -6 -49q0 -80 74 -80q105 0 240 129l100 573h326zM940 1184h-559l33 196h559z" />
<glyph unicode="&#x16c;" horiz-adv-x="1507" d="M1499 1366l-127 -723q-32 -185 -76.5 -290t-124.5 -185q-189 -195 -557 -195q-526 0 -526 408q0 76 25 215l135 770h354l-139 -793q-17 -92 -17 -129q0 -84 61 -132t167 -48q89 0 163 31.5t117 87.5q31 40 50 95t36 155l129 733h330zM551 1798h162q3 -75 44 -108t130 -33 q84 0 129.5 33.5t64.5 107.5h162q-49 -301 -373 -301q-183 0 -262 100q-32 39 -43.5 77.5t-13.5 105.5v18z" />
<glyph unicode="&#x16d;" horiz-adv-x="1214" d="M963 0h-324l25 139q-191 -159 -359 -159q-120 0 -186 67.5t-66 190.5q0 41 23 180l100 569h328l-98 -565q0 -2 -3 -8q-6 -27 -6 -49q0 -80 74 -80q105 0 240 129l100 573h326zM823 1419h154q-52 -276 -320 -276q-127 0 -198.5 59.5t-71.5 165.5q0 13 4 49v2h154v-12 q0 -54 27 -79t87 -25q67 0 105.5 27t58.5 89z" />
<glyph unicode="&#x16e;" horiz-adv-x="1507" d="M1499 1366l-127 -723q-32 -185 -76.5 -290t-124.5 -185q-189 -195 -557 -195q-526 0 -526 408q0 76 25 215l135 770h354l-139 -793q-17 -92 -17 -129q0 -84 61 -132t167 -48q89 0 163 31.5t117 87.5q31 40 50 95t36 155l129 733h330zM936 1845q75 0 124.5 -47t49.5 -119 q0 -97 -62.5 -161t-156.5 -64q-80 0 -130 46.5t-50 119.5q0 97 64 161t161 64zM920 1733q-38 0 -64.5 -27.5t-26.5 -67.5q0 -32 20 -50.5t54 -18.5q38 0 63 26t25 66q0 32 -19.5 52t-51.5 20z" />
<glyph unicode="&#x16f;" horiz-adv-x="1214" d="M963 0h-324l25 139q-191 -159 -359 -159q-120 0 -186 67.5t-66 190.5q0 41 23 180l100 569h328l-98 -565q0 -2 -3 -8q-6 -27 -6 -49q0 -80 74 -80q105 0 240 129l100 573h326zM692 1477q75 0 124.5 -47t49.5 -119q0 -97 -62.5 -161.5t-156.5 -64.5q-80 0 -130 46.5 t-50 119.5q0 97 64 161.5t161 64.5zM676 1364q-38 0 -64 -27t-26 -67q0 -32 19.5 -51t53.5 -19q38 0 63.5 26t25.5 66q0 32 -20 52t-52 20z" />
<glyph unicode="&#x170;" horiz-adv-x="1507" d="M1499 1366l-127 -723q-32 -185 -76.5 -290t-124.5 -185q-189 -195 -557 -195q-526 0 -526 408q0 76 25 215l135 770h354l-139 -793q-17 -92 -17 -129q0 -84 61 -132t167 -48q89 0 163 31.5t117 87.5q31 40 50 95t36 155l129 733h330zM1403 1718l-338 -211l-107 99 l295 249zM997 1718l-338 -211l-106 99l295 249z" />
<glyph unicode="&#x171;" horiz-adv-x="1214" d="M963 0h-324l25 139q-191 -159 -359 -159q-120 0 -186 67.5t-66 190.5q0 41 23 180l100 569h328l-98 -565q0 -2 -3 -8q-6 -27 -6 -49q0 -80 74 -80q105 0 240 129l100 573h326zM1161 1284l-338 -211l-106 98l295 250zM756 1284l-338 -211l-107 98l295 250z" />
<glyph unicode="&#x172;" horiz-adv-x="1507" d="M903 -176l41 -94q-133 -68 -213 -68q-63 0 -101 34t-38 91q0 109 135 190q-82 -4 -115 -4q-524 0 -524 408q0 76 25 215l135 770h354l-139 -793q-17 -92 -17 -129q0 -84 61 -132t167 -48q89 0 163 31.5t117 87.5q31 40 50 95t36 155l129 733h330l-127 -723 q-44 -290 -171 -444t-365 -205l102 -53q-209 -66 -209 -129q0 -25 37 -25q57 0 137 37z" />
<glyph unicode="&#x173;" horiz-adv-x="1214" d="M782 0h-143l25 139q-191 -159 -359 -159q-120 0 -186 67.5t-66 190.5q0 41 23 180l100 569h328l-98 -565q0 -2 -3 -8q-6 -27 -6 -49q0 -80 74 -80q105 0 240 129l100 573h326l-174 -987h-123l114 -59q-209 -66 -209 -129q0 -25 37 -25q58 0 138 37l41 -94 q-133 -68 -213 -68q-63 0 -101.5 34t-38.5 91q0 127 174 213z" />
<glyph unicode="&#x174;" horiz-adv-x="2056" d="M2169 1366l-621 -1366h-358l-129 856l-440 -856h-345l-149 1366h371l80 -907l458 907h295l148 -907l379 907h311zM1571 1632l-105 -135l-266 152l-328 -152l-57 145l406 230z" />
<glyph unicode="&#x175;" horiz-adv-x="1642" d="M1681 987l-479 -987h-344l-55 651l-279 -651h-346l-127 987h311l60 -639l270 639h340l58 -639l268 639h323zM1245 1227l-104 -135l-267 151l-327 -151l-58 145l406 229z" />
<glyph unicode="&#x176;" horiz-adv-x="1355" d="M1468 1366l-628 -776l-105 -590h-354l104 590l-358 776h451l165 -498l359 498h366zM1233 1632l-105 -135l-266 152l-327 -152l-58 145l406 230z" />
<glyph unicode="&#x177;" horiz-adv-x="1114" d="M1153 987l-610 -1096q-83 -148 -140 -219q-72 -89 -163.5 -130.5t-216.5 -41.5q-121 0 -236 37l90 225q47 -8 94 -8q78 0 128 33t110 125l35 53l-209 1022h342l104 -653l340 653h332zM981 1227l-104 -135l-267 151l-327 -151l-58 145l406 229z" />
<glyph unicode="&#x178;" horiz-adv-x="1355" d="M1468 1366l-628 -776l-105 -590h-354l104 590l-358 776h451l165 -498l359 498h366zM635 1806q57 0 94 -35t37 -90q0 -69 -47.5 -117t-116.5 -48q-59 0 -96 33t-37 87q0 74 47 122t119 48zM1120 1806q58 0 94.5 -34.5t36.5 -88.5q0 -72 -46.5 -119.5t-117.5 -47.5 q-59 0 -96 33t-37 87q0 74 47 122t119 48z" />
<glyph unicode="&#x179;" horiz-adv-x="1234" d="M1059 0h-1125l48 262l802 846h-643l45 258h1086l-41 -229l-801 -854h680zM1100 1671l-492 -174l-49 141l483 222z" />
<glyph unicode="&#x17a;" horiz-adv-x="1034" d="M846 0h-891l43 242l524 491h-422l45 254h865l-37 -217l-531 -500h451zM889 1278l-492 -174l-49 141l483 221z" />
<glyph unicode="&#x17b;" horiz-adv-x="1234" d="M1059 0h-1125l48 262l802 846h-643l45 258h1086l-41 -229l-801 -854h680zM760 1821q70 0 115 -43t45 -111q0 -88 -57.5 -146.5t-143.5 -58.5q-72 0 -118 43t-46 109q0 89 58.5 148t146.5 59z" />
<glyph unicode="&#x17c;" horiz-adv-x="1034" d="M846 0h-891l43 242l524 491h-422l45 254h865l-37 -217l-531 -500h451zM621 1440q70 0 114.5 -43t44.5 -111q0 -88 -57 -146.5t-143 -58.5q-72 0 -118 43t-46 109q0 89 58.5 148t146.5 59z" />
<glyph unicode="&#x17d;" horiz-adv-x="1234" d="M1059 0h-1125l48 262l802 846h-643l45 258h1086l-41 -229l-801 -854h680zM381 1737l104 135l267 -152l327 152l58 -146l-406 -229z" />
<glyph unicode="&#x17e;" horiz-adv-x="1034" d="M846 0h-891l43 242l524 491h-422l45 254h865l-37 -217l-531 -500h451zM227 1331l105 135l266 -151l328 151l57 -145l-405 -229z" />
<glyph unicode="&#x192;" horiz-adv-x="1185" d="M1253 1368l-108 -235q-56 12 -105 12q-90 0 -136.5 -24.5t-74.5 -86.5l-20 -47h250l-80 -239h-252l-240 -691q-135 -387 -553 -493l-81 246q139 67 200 130.5t107 188.5l219 619h-184l79 239h189l35 103q56 163 178.5 238t333.5 75q137 0 243 -35z" />
<glyph unicode="&#x1cd;" horiz-adv-x="1533" d="M1407 0h-397l-68 334h-536l-183 -334h-338l809 1366h377zM891 578l-96 462l-252 -462h348zM504 1737l104 135l266 -152l328 152l58 -146l-406 -229z" />
<glyph unicode="&#x1ce;" horiz-adv-x="1095" d="M535 287l30 176q-256 -44 -256 -180q0 -29 18.5 -46.5t47.5 -17.5q32 0 62.5 13t97.5 55zM971 215l-19 -188q-48 -22 -114 -37t-117 -15q-86 0 -129 32t-55 104q-174 -136 -332 -136q-99 0 -160 60.5t-61 159.5q0 211 223 329q69 38 158 64t229 51l2 10v4l2 6l2 31 q0 66 -88 66q-102 0 -289 -86l-30 -15l-64 197q301 162 535 162q127 0 201.5 -57.5t74.5 -155.5q0 -49 -18 -150l-45 -262q-1 -5 -3 -14.5t-4 -22.5q-14 -66 -14 -92q0 -51 59 -51q9 0 41 4l9 2h2h4zM215 1331l104 135l267 -151l327 151l58 -145l-406 -229z" />
<glyph unicode="&#x1d3;" horiz-adv-x="1507" d="M1499 1366l-127 -723q-32 -185 -76.5 -290t-124.5 -185q-189 -195 -557 -195q-526 0 -526 408q0 76 25 215l135 770h354l-139 -793q-17 -92 -17 -129q0 -84 61 -132t167 -48q89 0 163 31.5t117 87.5q31 40 50 95t36 155l129 733h330zM524 1737l105 135l266 -152l328 152 l57 -146l-406 -229z" />
<glyph unicode="&#x1d4;" horiz-adv-x="1214" d="M963 0h-324l25 139q-191 -159 -359 -159q-120 0 -186 67.5t-66 190.5q0 41 23 180l100 569h328l-98 -565q0 -2 -3 -8q-6 -27 -6 -49q0 -80 74 -80q105 0 240 129l100 573h326zM299 1331l104 135l267 -151l327 151l58 -145l-406 -229z" />
<glyph unicode="&#x1e6;" horiz-adv-x="1419" d="M938 268l68 391h344l-103 -587q-107 -49 -245.5 -77t-274.5 -28q-309 0 -489.5 157.5t-180.5 426.5q0 182 72 340t197.5 270t302.5 176t381 64q125 0 246 -29.5t208 -81.5l-127 -239q-178 71 -338 71q-157 0 -287 -71t-204 -195t-74 -274q0 -330 357 -330q88 0 147 16z M575 1737l105 135l266 -152l328 152l57 -146l-405 -229z" />
<glyph unicode="&#x1e7;" horiz-adv-x="1134" d="M289 -47q-142 -41 -142 -125q0 -53 65 -84t175 -31q123 0 202 37t79 94q0 29 -35.5 45.5t-124.5 26.5q-130 14 -219 37zM545 823q-70 0 -117 -61.5t-47 -153.5q0 -65 28 -100t80 -35q72 0 120 60.5t48 152.5q0 65 -29 101t-83 36zM1106 770h-174q26 -53 26 -111 q0 -161 -138.5 -269.5t-342.5 -108.5q-21 0 -100 6q-2 -3 -10.5 -13t-16.5 -20q-27 -31 -45 -49q71 -28 203 -45q6 -1 13.5 -2t11.5 -1.5t6 -0.5t5 -0.5l9 -1.5t10 -2q79 -12 90 -13q203 -23 281 -71t78 -150q0 -118 -86 -212.5t-239.5 -147t-346.5 -52.5 q-239 0 -375.5 71.5t-136.5 197.5q0 95 69 159.5t199 90.5q-125 26 -125 65q0 28 43 68q63 59 152 164l24 24q-124 89 -124 244q0 184 146.5 305t369.5 121q96 0 215 -29h346zM188 1331l105 135l266 -151l328 151l57 -145l-405 -229z" />
<glyph unicode="&#x1f4;" horiz-adv-x="1419" d="M938 268l68 391h344l-103 -587q-107 -49 -245.5 -77t-274.5 -28q-309 0 -489.5 157.5t-180.5 426.5q0 182 72 340t197.5 270t302.5 176t381 64q125 0 246 -29.5t208 -81.5l-127 -239q-178 71 -338 71q-157 0 -287 -71t-204 -195t-74 -274q0 -330 357 -330q88 0 147 16z M1221 1671l-492 -174l-49 141l483 222z" />
<glyph unicode="&#x1f5;" horiz-adv-x="1134" d="M289 -47q-142 -41 -142 -125q0 -53 65 -84t175 -31q123 0 202 37t79 94q0 29 -35.5 45.5t-124.5 26.5q-130 14 -219 37zM545 823q-70 0 -117 -61.5t-47 -153.5q0 -65 28 -100t80 -35q72 0 120 60.5t48 152.5q0 65 -29 101t-83 36zM1106 770h-174q26 -53 26 -111 q0 -161 -138.5 -269.5t-342.5 -108.5q-21 0 -100 6q-2 -3 -10.5 -13t-16.5 -20q-27 -31 -45 -49q71 -28 203 -45q6 -1 13.5 -2t11.5 -1.5t6 -0.5t5 -0.5l9 -1.5t10 -2q79 -12 90 -13q203 -23 281 -71t78 -150q0 -118 -86 -212.5t-239.5 -147t-346.5 -52.5 q-239 0 -375.5 71.5t-136.5 197.5q0 95 69 159.5t199 90.5q-125 26 -125 65q0 28 43 68q63 59 152 164l24 24q-124 89 -124 244q0 184 146.5 305t369.5 121q96 0 215 -29h346zM918 1278l-492 -174l-49 141l483 221z" />
<glyph unicode="&#x218;" horiz-adv-x="1175" d="M1079 1108l-4 -10q-129 28 -239 28q-155 0 -242.5 -34.5t-87.5 -96.5q0 -40 40.5 -70t141.5 -67q119 -43 172 -67.5t90 -53.5q123 -91 123 -248q0 -145 -94.5 -263t-261.5 -184.5t-373 -66.5q-211 0 -389 54l100 272q156 -33 295 -33q158 0 246 41t88 113 q0 45 -35.5 69.5t-167.5 69.5q-144 51 -215 111q-116 101 -116 248q0 221 182.5 349t498.5 128q177 0 332 -47q0 -3 -84 -242zM561 -82l-184 -450h-182l79 450h287z" />
<glyph unicode="&#x219;" horiz-adv-x="966" d="M909 975l-82 -209q-87 22 -200 22q-176 0 -176 -69q0 -49 124 -86q263 -76 263 -271q0 -182 -151 -282t-425 -100q-173 0 -309 40l90 226q129 -21 217 -21q221 0 221 78q0 48 -116 82q-96 29 -172 86q-89 68 -89 182q0 167 135 263t371 96q169 0 299 -37zM489 -84 l-170 -416h-169l73 416h266z" />
<glyph unicode="&#x21a;" horiz-adv-x="1206" d="M1268 1106h-408l-194 -1106h-357l195 1106h-416l47 260h1180zM629 -82l-185 -450h-182l80 450h287z" />
<glyph unicode="&#x21b;" horiz-adv-x="837" d="M707 244l-39 -224q-125 -45 -275 -45q-148 0 -219.5 56t-71.5 172q0 33 13 104l82 471h-187l37 209h186l58 326h330l-58 -326h268l-36 -209h-269l-65 -375q-12 -64 -12 -92q0 -43 26.5 -61.5t89.5 -18.5q43 0 142 13zM379 -84l-170 -416h-168l72 416h266z" />
<glyph unicode="&#x2c6;" horiz-adv-x="974" d="M852 1227l-104 -135l-267 151l-327 -151l-58 145l406 229z" />
<glyph unicode="&#x2c7;" horiz-adv-x="974" d="M96 1331l105 135l266 -151l328 151l57 -145l-406 -229z" />
<glyph unicode="&#x2c9;" horiz-adv-x="974" d="M754 1184h-559l32 196h559z" />
<glyph unicode="&#x2d8;" horiz-adv-x="974" d="M561 1419h154q-28 -140 -106.5 -208t-213.5 -68q-127 0 -198.5 59.5t-71.5 165.5q0 23 4 51h154v-12q0 -54 27 -79t87 -25q66 0 105 27.5t59 88.5z" />
<glyph unicode="&#x2d9;" horiz-adv-x="974" d="M504 1423q57 0 94 -35t37 -90q0 -69 -47.5 -117t-116.5 -48q-59 0 -96 33t-37 87q0 74 47 122t119 48z" />
<glyph unicode="&#x2da;" horiz-adv-x="974" d="M328 1477q75 0 124.5 -47t49.5 -119q0 -97 -62.5 -161.5t-156.5 -64.5q-80 0 -130.5 46.5t-50.5 119.5q0 97 64.5 161.5t161.5 64.5zM311 1364q-38 0 -64 -27t-26 -67q0 -32 20 -51t54 -19q38 0 63 26t25 66q0 32 -20 52t-52 20z" />
<glyph unicode="&#x2db;" horiz-adv-x="1024" d="M223 -205q0 41 20.5 80.5t47.5 67.5t70 58t70.5 45.5t66.5 35.5l129 -82q-47 -19 -92.5 -54.5t-45.5 -68.5q0 -45 50 -45q19 0 59 10l-18 -188q-88 -39 -170 -39q-31 0 -61 9t-59.5 28t-48 56t-18.5 87z" />
<glyph unicode="&#x2dc;" horiz-adv-x="974" d="M780 1425l86 -127q-91 -76 -158.5 -109.5t-132.5 -33.5q-42 0 -106 29q-70 33 -121 33q-35 0 -66 -13.5t-89 -54.5l-87 129q152 129 271 129q46 0 108 -29q67 -28 119 -28q75 0 176 75z" />
<glyph unicode="&#x2dd;" horiz-adv-x="974" d="M911 1284l-338 -211l-106 98l295 250zM506 1284l-338 -211l-107 98l295 250z" />
<glyph unicode="&#x1e80;" horiz-adv-x="2056" d="M2169 1366l-621 -1366h-358l-129 856l-440 -856h-345l-149 1366h371l80 -907l458 907h295l148 -907l379 907h311zM1307 1628l-90 -131l-435 191l107 172z" />
<glyph unicode="&#x1e81;" horiz-adv-x="1642" d="M1681 987l-479 -987h-344l-55 651l-279 -651h-346l-127 987h311l60 -639l270 639h340l58 -639l268 639h323zM1040 1235l-90 -131l-434 190l107 172z" />
<glyph unicode="&#x1e82;" horiz-adv-x="2056" d="M2169 1366l-621 -1366h-358l-129 856l-440 -856h-345l-149 1366h371l80 -907l458 907h295l148 -907l379 907h311zM1538 1671l-491 -174l-50 141l484 222z" />
<glyph unicode="&#x1e83;" horiz-adv-x="1642" d="M1681 987l-479 -987h-344l-55 651l-279 -651h-346l-127 987h311l60 -639l270 639h340l58 -639l268 639h323zM1227 1278l-492 -174l-49 141l483 221z" />
<glyph unicode="&#x1e84;" horiz-adv-x="2056" d="M2169 1366l-621 -1366h-358l-129 856l-440 -856h-345l-149 1366h371l80 -907l458 907h295l148 -907l379 907h311zM977 1806q57 0 94 -35t37 -90q0 -69 -47.5 -117t-116.5 -48q-59 0 -96 33t-37 87q0 74 47 122t119 48zM1462 1806q58 0 94.5 -34.5t36.5 -88.5 q0 -72 -46.5 -119.5t-116.5 -47.5q-59 0 -96.5 33t-37.5 87q0 74 47 122t119 48z" />
<glyph unicode="&#x1e85;" horiz-adv-x="1642" d="M1681 987l-479 -987h-344l-55 651l-279 -651h-346l-127 987h311l60 -639l270 639h340l58 -639l268 639h323zM641 1423q57 0 94 -35t37 -90q0 -69 -47.5 -117t-116.5 -48q-59 0 -96 33t-37 87q0 74 47 122t119 48zM1126 1423q58 0 94.5 -34.5t36.5 -88.5 q0 -72 -46.5 -119.5t-116.5 -47.5q-59 0 -96 33t-37 87q0 74 46.5 122t118.5 48z" />
<glyph unicode="&#x1ef2;" horiz-adv-x="1355" d="M1468 1366l-628 -776l-105 -590h-354l104 590l-358 776h451l165 -498l359 498h366zM973 1628l-90 -131l-434 191l106 172z" />
<glyph unicode="&#x1ef3;" horiz-adv-x="1114" d="M1153 987l-610 -1096q-83 -148 -140 -219q-72 -89 -163.5 -130.5t-216.5 -41.5q-121 0 -236 37l90 225q47 -8 94 -8q78 0 128 33t110 125l35 53l-209 1022h342l104 -653l340 653h332zM711 1235l-90 -131l-435 190l107 172z" />
<glyph unicode="&#x2000;" horiz-adv-x="946" />
<glyph unicode="&#x2001;" horiz-adv-x="1892" />
<glyph unicode="&#x2002;" horiz-adv-x="946" />
<glyph unicode="&#x2003;" horiz-adv-x="1892" />
<glyph unicode="&#x2004;" horiz-adv-x="630" />
<glyph unicode="&#x2005;" horiz-adv-x="473" />
<glyph unicode="&#x2006;" horiz-adv-x="315" />
<glyph unicode="&#x2007;" horiz-adv-x="315" />
<glyph unicode="&#x2008;" horiz-adv-x="236" />
<glyph unicode="&#x2009;" horiz-adv-x="378" />
<glyph unicode="&#x200a;" horiz-adv-x="105" />
<glyph unicode="&#x2010;" horiz-adv-x="657" d="M563 424h-561l45 254h561z" />
<glyph unicode="&#x2011;" horiz-adv-x="657" d="M563 424h-561l45 254h561z" />
<glyph unicode="&#x2012;" horiz-adv-x="1126" d="M1028 453h-1022l35 198h1022z" />
<glyph unicode="&#x2013;" horiz-adv-x="1126" d="M1028 453h-1022l35 198h1022z" />
<glyph unicode="&#x2014;" horiz-adv-x="2150" d="M2050 453h-2044l35 198h2044z" />
<glyph unicode="&#x2015;" horiz-adv-x="2150" d="M2050 453h-2044l35 198h2044z" />
<glyph unicode="&#x2018;" horiz-adv-x="593" d="M461 852h-320l211 547h205z" />
<glyph unicode="&#x2019;" horiz-adv-x="593" d="M612 1399l-213 -547h-204l96 547h321z" />
<glyph unicode="&#x201a;" horiz-adv-x="663" d="M440 313l-213 -549h-204l96 549h321z" />
<glyph unicode="&#x201c;" horiz-adv-x="1003" d="M877 899h-318l203 500h203zM465 899h-315l202 500h201z" />
<glyph unicode="&#x201d;" horiz-adv-x="1003" d="M1020 1399l-203 -500h-203l88 500h318zM608 1399l-200 -500h-205l88 500h317z" />
<glyph unicode="&#x201e;" horiz-adv-x="1003" d="M827 313l-202 -501h-203l88 501h317zM416 313l-201 -501h-205l88 501h318z" />
<glyph unicode="&#x2020;" horiz-adv-x="1249" d="M1159 604h-379l-162 -840h-299l127 840h-385l43 244h381l76 518h365l-103 -518h379z" />
<glyph unicode="&#x2021;" horiz-adv-x="1265" d="M1120 324h-395l-109 -562h-294l81 562h-385l41 235h383l35 209h-381l41 233h375l55 365h365l-74 -365h381l-41 -233h-389l-39 -209h391z" />
<glyph unicode="&#x2022;" horiz-adv-x="1366" d="M682 977q117 0 201 -82t84 -199q0 -120 -83 -203t-200 -83q-118 0 -201.5 82.5t-83.5 199.5t83 201t200 84z" />
<glyph unicode="&#x2026;" horiz-adv-x="2050" d="M229 356q74 0 121 -44.5t47 -114.5q0 -91 -60.5 -153t-150.5 -62q-75 0 -122.5 44t-47.5 113q0 94 60.5 155.5t152.5 61.5zM883 356q74 0 121 -44.5t47 -114.5q0 -91 -60.5 -153t-150.5 -62q-75 0 -122.5 44t-47.5 113q0 94 60.5 155.5t152.5 61.5zM1536 356 q74 0 121 -44.5t47 -114.5q0 -91 -60.5 -153t-150.5 -62q-75 0 -122.5 44t-47.5 113q0 94 60.5 155.5t152.5 61.5z" />
<glyph unicode="&#x202f;" horiz-adv-x="378" />
<glyph unicode="&#x2030;" horiz-adv-x="2402" d="M1479 1309l-1217 -1336l-108 93l1210 1335zM508 1407q135 0 218 -83.5t83 -221.5q0 -183 -116.5 -305.5t-289.5 -122.5q-140 0 -223.5 81t-83.5 216q0 190 116 313t296 123zM479 1231q-62 0 -105.5 -70t-43.5 -168q0 -65 25 -101t71 -36q62 0 105.5 70t43.5 168 q0 65 -25 101t-71 36zM1243 711q135 0 218 -83.5t83 -221.5q0 -183 -116 -306t-289 -123q-140 0 -224 81t-84 216q0 191 116 314t296 123zM1217 535q-63 0 -107.5 -70t-44.5 -168q0 -65 25 -101t71 -36q62 0 107 70t45 167q0 64 -26 101t-70 37zM2009 711q137 0 219 -82.5 t82 -218.5q0 -186 -115 -309.5t-290 -123.5q-139 0 -222.5 81t-83.5 216q0 191 115 314t295 123zM1982 535q-61 0 -106 -70.5t-45 -167.5q0 -64 26 -100.5t70 -36.5q62 0 107 70t45 167q0 64 -26 101t-71 37z" />
<glyph unicode="&#x2039;" horiz-adv-x="600" d="M410 211l-183 -105l-211 408l344 389l162 -100l-227 -289z" />
<glyph unicode="&#x203a;" horiz-adv-x="585" d="M115 799l182 104l211 -389l-342 -408l-164 101l227 307z" />
<glyph unicode="&#x2044;" horiz-adv-x="1071" d="M1194 1298l-1147 -1335l-158 105l1153 1341z" />
<glyph unicode="&#x205f;" horiz-adv-x="473" />
<glyph unicode="&#x20ac;" d="M1040 328l129 -193q-121 -86 -236 -125t-247 -39q-249 0 -391 142q-57 60 -84 127t-39 182h-199l35 209h178v2v2q0 18 8.5 58.5t14.5 54.5h-178l37 215h213q46 104 87.5 165t104.5 117q167 144 420 144q135 0 244 -37.5t215 -120.5l-187 -191q-133 93 -247 93 q-92 0 -157 -39.5t-120 -130.5h444l-36 -215h-488q-6 -10 -14 -52.5t-8 -60.5v-2v-2h487l-35 -209h-467q12 -105 61 -152t146 -47q71 0 138 23t171 82z" />
<glyph unicode="&#x2122;" horiz-adv-x="1738" d="M1712 590h-229l-47 385l-131 -385h-199l-139 385l-37 -385h-219l100 776h242l161 -440l146 440h237zM733 1206h-231v-616h-238v616h-237v160h706v-160z" />
<glyph unicode="&#x2202;" horiz-adv-x="1187" d="M809 739q-89 58 -197 58q-116 0 -183 -93.5t-67 -254.5q0 -96 34.5 -147.5t97.5 -51.5q114 0 208 164q36 62 59 132t48 193zM274 1145l-90 241q250 134 469 134q230 0 366 -161t136 -435q0 -167 -41.5 -329.5t-118.5 -297.5q-89 -158 -222 -241t-296 -83 q-205 0 -325.5 120.5t-120.5 326.5q0 189 75 337.5t209.5 231t305.5 82.5h2q123 0 200 -49q-9 114 -64 167.5t-161 53.5q-69 0 -139.5 -21.5t-184.5 -76.5z" />
<glyph unicode="&#x2206;" d="M1257 0h-1232l657 1409zM993 104l-387 938l-436 -938h823z" />
<glyph unicode="&#x220f;" horiz-adv-x="1634" d="M1614 -254h-594v53h6q47 0 88.5 17.5t63.5 46.5q17 21 22.5 58t5.5 116v1180q0 62 -1.5 94.5t-12 63.5t-23 42t-46.5 21t-69.5 11t-103.5 1h-137q-232 0 -291 -10q-58 -10 -76 -52.5t-18 -170.5v-1180q0 -124 23 -166q20 -33 62.5 -52.5t94.5 -19.5h6v-53h-594v53h7 q47 0 88 17.5t63 46.5q17 21 23 58.5t6 115.5v1210q0 124 -23 166q-20 34 -61.5 53t-95.5 19h-7v53h1594v-53h-6q-104 0 -152 -64q-17 -23 -23 -58.5t-6 -115.5v-1210q0 -124 23 -166q20 -33 63 -52.5t95 -19.5h6v-53z" />
<glyph unicode="&#x2211;" horiz-adv-x="1409" d="M1169 -197h-989v123l430 793l-430 713v118h973v-442h-139l-23 328h-645l436 -721l-450 -797h682l14 332h141v-447z" />
<glyph unicode="&#x2212;" d="M1151 432h-1024v219h1024v-219z" />
<glyph unicode="&#x2219;" horiz-adv-x="745" d="M395 870q74 0 121 -44.5t47 -114.5q0 -91 -60.5 -153t-150.5 -62q-75 0 -123.5 44.5t-48.5 114.5q0 92 61.5 153.5t153.5 61.5z" />
<glyph unicode="&#x221a;" d="M1157 1860l-311 -1932l-496 1016l-194 -96l-33 72l299 145l399 -807l260 1612z" />
<glyph unicode="&#x221e;" horiz-adv-x="1460" d="M731 621q61 74 99 109t88 63q104 55 198 55q130 0 212.5 -84.5t82.5 -218.5q0 -137 -79.5 -223t-205.5 -86q-101 0 -193.5 53.5t-201.5 175.5l-10 -10q-3 -5 -5 -8.5t-3 -4.5q-53 -64 -88 -94q-133 -112 -281 -112q-131 0 -212 84t-81 219q0 134 84 221.5t211 87.5 q93 0 201 -60q44 -25 81.5 -59t102.5 -108zM813 557l-12 -16q115 -121 177 -160t140 -39q87 0 139 53.5t52 143.5q0 89 -53.5 145.5t-137.5 56.5q-77 0 -159 -49t-146 -135zM653 530l11 15q-110 115 -176.5 155.5t-143.5 40.5q-88 0 -139 -54t-51 -146q0 -88 50 -143.5 t128 -55.5q135 0 295 160l10 10z" />
<glyph unicode="&#x222b;" d="M578 154l-3 47q-2 33 -2 73v21q0 18 -2 41v139v707q0 320 43 506q22 92 73 140t128 48q54 0 87.5 -25.5t33.5 -66.5q0 -29 -21 -47.5t-55 -18.5q-23 0 -37.5 12.5t-42.5 55.5l-2 2q-20 10 -26 10q-28 0 -43 -34.5t-15 -96.5v-43v-8l2 -25q0 -22 2 -30l2 -33 q9 -134 9 -348v-705q0 -320 -43 -506q-22 -92 -73 -140t-126 -48q-55 0 -89 25t-34 65q0 29 21 48.5t53 19.5q22 0 35 -9.5t26 -35.5q18 -37 43 -37q29 0 46.5 34t17.5 91v24q0 28 -2 57l-2 31l-2 35z" />
<glyph unicode="&#x2248;" d="M1087 836l78 -68q-42 -69 -69 -94q-82 -82 -222 -82q-36 0 -65.5 6t-130.5 35l-31 8q-1 0 -80 25q-95 32 -155 32q-61 0 -96.5 -22t-112.5 -107l-88 70q72 94 140 133t159 39q66 0 178 -33l78 -24q102 -33 135.5 -41t66.5 -8q61 0 99 23t116 108zM1087 514l78 -70 q-28 -45 -39.5 -60t-29.5 -32q-85 -82 -224 -82q-60 0 -131 21l-32 10l-25 8q-3 0 -27 8l-4 2q-3 1 -7 2t-6.5 2t-4.5 1l-29 10l-63 18q-85 25 -133 25q-60 0 -95 -22t-112 -107l-88 69q72 94 140 133t159 39q69 0 178 -32l78 -25q102 -33 135.5 -41t66.5 -8q63 0 102.5 24 t112.5 107z" />
<glyph unicode="&#x2260;" d="M1178 289h-605l-172 -340l-94 49l148 291h-353v112h408l143 285h-551v113h609l163 325l97 -49l-140 -276h347v-113h-404l-143 -285h547v-112z" />
<glyph unicode="&#x2264;" d="M1149 240l-1018 477v112l1018 480v-127l-856 -408l856 -407v-127zM1149 0h-1018v113h1018v-113z" />
<glyph unicode="&#x2265;" d="M1149 717l-1018 -477v127l856 407l-856 408v127l1018 -480v-112zM1149 0h-1018v113h1018v-113z" />
<glyph unicode="&#x25fc;" horiz-adv-x="983" d="M0 983h983v-983h-983v983z" />
</font>
</defs>
</svg>
